<?xml version="1.0" standalone="no"?><!DOCTYPE svg PUBLIC "-//W3C//DTD SVG 1.1//EN" "http://www.w3.org/Graphics/SVG/1.1/DTD/svg11.dtd"><svg t="1543803053971" class="icon" style="" viewBox="0 0 1024 1024" version="1.1" xmlns="http://www.w3.org/2000/svg" p-id="2350" xmlns:xlink="http://www.w3.org/1999/xlink" width="200" height="200"><defs><style type="text/css"></style></defs><path d="M546.49324984 219.1740008a48.9749154 48.9749154 0 0 0-65.80908783 0L214.57591922 471.85462331a24.54856177 24.54856177 0 0 0 32.87399188 36.46385622l4.23145713-4.01759288V768.02607057a49.09712356 49.09712356 0 0 0 49.09712356 49.15822763h142.8766013v-147.8107553a34.56962993 34.56962993 0 0 1 34.58490596-34.615458h67.22975755a34.56962993 34.56962993 0 0 1 34.58490595 34.615458v147.8107553h146.26787744a49.09712356 49.09712356 0 0 0 49.11239956-49.15822763V507.52412657c10.90707723 9.86830797 26.381684 9.11978306 35.45563901-0.9929412a24.54856177 24.54856177 0 0 0-1.77201815-34.67656206L546.49324984 219.18927682z" fill="#c99b46" p-id="2351"></path></svg>