<?xml version="1.0" standalone="no"?><!DOCTYPE svg PUBLIC "-//W3C//DTD SVG 1.1//EN" "http://www.w3.org/Graphics/SVG/1.1/DTD/svg11.dtd"><svg t="1548039059962" class="icon" style="" viewBox="0 0 1449 1024" version="1.1" xmlns="http://www.w3.org/2000/svg" p-id="5257" xmlns:xlink="http://www.w3.org/1999/xlink" width="283.0078125" height="200"><defs><style type="text/css"></style></defs><path d="M679.714232 925.105765c-138.942185-186.534928-273.224352-366.810052-409.261121-549.44529 41.226287-79.416423 82.820696-163.188389 128.615831-244.600242 8.688725-15.445666 33.965327-30.235936 51.790028-30.495686 154.147023-2.24486 308.343932-0.280392 462.511598-1.663432 29.652789-0.270071 43.59156 10.54998 55.844537 36.387367 38.580621 81.391211 80.051176 161.421744 119.743045 240.642064C953.540653 557.652359 818.405268 738.999167 679.714232 925.105765zM828.559602 397.955974c-102.979707 0-198.173794 0-297.682139 0 48.870851 149.688268 95.600054 292.817417 142.329257 435.956888 4.448434-0.144497 8.896869-0.302755 13.345303-0.447252C733.262303 690.241849 779.948502 547.03013 828.559602 397.955974zM630.956914 820.567558c3.834323-1.684075 7.660046-3.366429 11.496089-5.059105-43.183873-132.424352-86.068432-264.945034-130.177772-397.066631-3.295901-9.873942-15.008735-23.749066-23.281172-24.072463-55.00336-2.150249-110.140895-1.111248-175.795726-1.111248C424.656901 543.13216 527.801747 681.85588 630.956914 820.567558zM1047.17624 391.947319c-59.606612 0-106.667813 1.444967-153.594839-0.509179-30.567934-1.278108-43.59156 12.326945-52.216638 40.04623-30.504287 98.094342-63.244833 195.483403-94.870689 293.235425-9.94619 30.731353-19.051203 61.736218-28.54154 92.615509 3.273539 1.434646 6.559118 2.869292 9.832657 4.293616C831.563069 682.021019 935.340949 542.402795 1047.17624 391.947319zM683.173552 140.101599c-54.160462 74.854455-103.155167 142.547722-156.10977 215.718102 107.791103 0 205.823518 0 312.023438 0C785.353366 281.474425 737.012337 214.593092 683.173552 140.101599zM664.122349 125.853192c-78.989813 0-146.652117 0-221.558178 0 22.543207 69.179519 43.880554 134.627926 68.878484 211.321274C565.10426 262.901438 611.167746 199.147426 664.122349 125.853192zM850.292595 330.916382c24.975568-76.953098 45.199946-139.262142 65.895659-203.005833-73.357882 0-138.701357 0-212.475527 0C753.154684 196.393388 797.243381 257.434646 850.292595 330.916382zM865.633329 359.134525c66.155409 0 122.779196 0 188.11235 0-37.937266-76.402634-72.432415-145.862545-113.362828-228.272114C912.964602 214.603414 890.691466 282.618358 865.633329 359.134525zM421.059965 135.881951c-43.029055 83.481253-77.930171 151.205483-115.243005 223.586292 66.602661 0 123.599731 0 187.998817 0C469.972101 286.225615 447.979358 218.614917 421.059965 135.881951z" p-id="5258" fill="#adadad"></path></svg>