<?xml version="1.0" standalone="no"?><!DOCTYPE svg PUBLIC "-//W3C//DTD SVG 1.1//EN" "http://www.w3.org/Graphics/SVG/1.1/DTD/svg11.dtd"><svg t="1548119754759" class="icon" style="" viewBox="0 0 1024 1024" version="1.1" xmlns="http://www.w3.org/2000/svg" p-id="6271" xmlns:xlink="http://www.w3.org/1999/xlink" width="200" height="200"><defs><style type="text/css"></style></defs><path d="M869.44014032 282.38645223H147.45802272c-26.03834279 0-48.52706165-21.30551088-48.52706165-46.16064569 0-26.03834279 21.30421634-46.15935115 48.52706165-46.15935116h721.9821176c26.03963733 0 48.52706165 21.30421634 48.52706165 46.15935116 0 24.85513482-21.30421634 46.16064569-48.52706165 46.16064569z m0 279.3238174H147.45802272c-26.03834279 0-48.52706165-21.30421634-48.52706165-46.15935114 0-26.03834279 21.30421634-46.15935115 48.52706165-46.15935116h721.9821176c26.03963733 0 48.52706165 21.30421634 48.52706165 46.15935116S896.66298563 561.71026963 869.44014032 561.71026963z m0 280.50831992H147.45802272c-26.03834279 0-48.52706165-21.30421634-48.52706165-46.15935115 0-26.03963733 21.30421634-46.16064569 48.52706165-46.16064569h721.9821176c26.03963733 0 48.52706165 21.30551088 48.52706165 46.16064569 0 24.85513482-21.30421634 46.15935115-48.52706165 46.15935115z" p-id="6272" fill="#ffffff"></path></svg>