<?xml version="1.0" standalone="no"?>
<!DOCTYPE svg PUBLIC "-//W3C//DTD SVG 1.1//EN" "http://www.w3.org/Graphics/SVG/1.1/DTD/svg11.dtd" >
<!--
2013-9-30: Created.
-->
<svg>
<metadata>
Created by iconfont
</metadata>
<defs>

<font id="iconfont" horiz-adv-x="1024" >
  <font-face
    font-family="iconfont"
    font-weight="500"
    font-stretch="normal"
    units-per-em="1024"
    ascent="896"
    descent="-128"
  />
    <missing-glyph />
    
    <glyph glyph-name="benefits" unicode="&#58893;" d="M874.36798149 652.85434788a38.88447758 38.88447758 0 0 0 54.22617147-55.71085153l-1.2725829-1.24430327-524.77076957-487.82344597a38.88447758 38.88447758 0 0 0-53.47676154 0.49489335l-1.24430328 1.25844309-252.91878197 267.32724841a38.88447758 38.88447758 0 0 0 55.23716787 54.71399489l1.25137319-1.2725829 226.42784789-239.31628472 496.54063884 461.57288865z"  horiz-adv-x="1024" />

    
    <glyph glyph-name="minus" unicode="&#59002;" d="M926.25224651 345.16385185H97.74775349c-20.71261275 0-38.83614815 18.12353539-38.83614815 38.83614815s18.12353539 38.83614815 38.83614815 38.83614815h828.50449302c20.71261275 0 38.83614815-18.12353539 38.83614815-38.83614815s-18.12353539-38.83614815-38.83614815-38.83614815z"  horiz-adv-x="1024" />

    
    <glyph glyph-name="view" unicode="&#58880;" d="M512 274.77333333a109.22666667 109.22666667 0 1 0 0 218.45333334 109.22666667 109.22666667 0 0 0 0-218.45333334m0 291.27111112c-100.37930667 0-182.04444445-81.66513778-182.04444445-182.04444445s81.66513778-182.04444445 182.04444445-182.04444445 182.04444445 81.66513778 182.04444445 182.04444445-81.66513778 182.04444445-182.04444445 182.04444445M512 56.32000000000005c-241.28170667 0-436.90666667 291.27111111-436.90666667 327.68s195.62496 327.68 436.90666667 327.68 436.90666667-291.27111111 436.90666667-327.68-195.62496-327.68-436.90666667-327.68m0 728.17777778C231.25105778 784.49777778 2.27555555 462.49756445 2.27555555 384c0-78.49756445 228.97550222-400.49777778 509.72444445-400.49777778s509.72444445 322.00021333 509.72444445 400.49777778c0 78.49756445-228.97550222 400.49777778-509.72444445 400.49777778"  horiz-adv-x="1024" />

    
    <glyph glyph-name="time" unicode="&#59003;" d="M512 849C256.25 849 47 639.75 47 384s209.25-465 465-465 465 209.25 465 465-209.25 465-465 465z m0-871.875c-226.6875 0-406.875 180.1875-406.875 406.875s180.1875 406.875 406.875 406.875 406.875-180.1875 406.875-406.875-180.1875-406.875-406.875-406.875zM715.4375 384H512V645.5625c0 17.4375-11.625 29.0625-29.0625 29.0625s-29.0625-11.625-29.0625-29.0625v-290.625c0-17.4375 11.625-29.0625 29.0625-29.0625h232.5c17.4375 0 29.0625 11.625 29.0625 29.0625s-11.625 29.0625-29.0625 29.0625z"  horiz-adv-x="1024" />

    
    <glyph glyph-name="address" unicode="&#59066;" d="M510.89774423 845.60308634c177.53815673 0 321.45214941-143.92469377 321.45214815-321.45214814a321.45214941 321.45214941 0 0 0-40.03437278-155.37531672L568.09734843-37.33622399000001a64.20909827 64.20909827 0 0 0-112.36592196-0.09631365l-225.4274417 406.65762281c-85.91177348 154.96865868-29.92143979 350.23922762 125.0472189 436.1510011A320.83146061 320.83146061 0 0 0 510.89774423 845.60308634zM512 674.3788247c-70.91894905 0-128.41819655-57.4992475-128.41819655-128.41819654s57.4992475-128.41819655 128.41819655-128.41819655 128.41819655 57.4992475 128.41819655 128.41819655-57.4992475 128.41819655-128.41819655 128.41819654z"  horiz-adv-x="1024" />

    
    <glyph glyph-name="play" unicode="&#59010;" d="M192.96875 25.03125c0-54.1875 33-76.40625 73.40625-49.3125l534.375 358.96875c40.40625 27.09375 40.40625 71.4375 0 98.53125L266.375 792.1875c-40.3125 27.09375-73.40625 4.96875-73.40625-49.3125v-717.84375z"  horiz-adv-x="1024" />

    
    <glyph glyph-name="cart" unicode="&#58881;" d="M919.844 685.583H241.172l-11.765 97.06c-1.92 15.836-16.538 28.795-32.497 28.795h-6.446c-2.724 0-5.31-0.384-7.731-1.09h-82.96c-19.143 0-34.81-14.362-34.81-31.908s15.667-31.908 34.816-31.908h69.54l66.406-547.876c1.92-15.841 16.543-28.8 32.496-28.8h6.452c2.693 0 5.258 0.379 7.654 1.07H831.15c19.144 0 34.806 14.357 34.806 31.908 0 17.551-15.662 31.908-34.806 31.908H295.818l-8.13 67.113h545.177c15.954 0 31.893 12.728 35.42 28.288l74.153 327.147c3.528 15.555-6.64 28.288-22.594 28.288zM294.589 30.279999999999973c0-42.804 34.704-77.512 77.512-77.512s77.507 34.703 77.507 77.517c0 42.803-34.699 77.506-77.507 77.506s-77.517-34.703-77.517-77.511z m384.236 0c0-42.804 34.703-77.512 77.517-77.512s77.506 34.703 77.506 77.517c0 42.803-34.703 77.506-77.511 77.506-42.804 0-77.512-34.703-77.512-77.511z"  horiz-adv-x="1024" />

    
    <glyph glyph-name="user" unicode="&#59249;" d="M602.34666667 338.77333333H421.86666667c-168.96 0-306.34666667-135.36-306.34666667-301.76v-17.70666666c0-88.74666667 135.25333333-88.74666667 306.34666667-88.74666667h180.48c164.37333333 0 306.34666667 0 306.34666666 88.74666667v17.70666666c0 166.50666667-137.49333333 301.76-306.34666666 301.76z m253.44-321.06666666c0-4.26666667-6.50666667-18.66666667-89.70666667-25.81333334-52.90666667-4.48-116.05333333-4.48-162.13333333-4.48H420.26666667c-55.57333333 0-118.50666667 0-169.06666667 4.48-74.66666667 6.61333333-82.66666667 20.26666667-82.66666667 25.81333334v18.02666666c0 136.21333333 112.96 247.14666667 251.84 247.14666667h183.78666667c138.88 0 251.84-110.82666667 251.84-247.14666667l-0.21333333-18.02666666zM503.04 835.94666667c-134.08 0-243.2-107.52-243.2-239.57333334 0-132.16 109.01333333-239.68 243.2-239.68 134.08 0 243.2 107.52 243.2 239.68 0 132.05333333-109.01333333 239.57333333-243.2 239.57333334z m0.10666667-422.50666667c-103.25333333 0-187.2 82.34666667-187.2 183.57333333 0 101.22666667 83.94666667 183.57333333 187.2 183.57333334s187.2-82.34666667 187.2-183.57333334c-0.10666667-101.22666667-84.05333333-183.57333333-187.2-183.57333333z"  horiz-adv-x="1024" />

    
    <glyph glyph-name="celiang" unicode="&#58885;" d="M956.215625 165.66562499999998L729.6153125 392.2640625l214.3828125 214.501875 0.71812499 0.8390625c6.2278125 7.545 9.46124999 15.928125 9.46125001 25.1503125 0 9.103125-3.1134375 17.60625001-9.46125001 25.15125l-0.35906249 0.4790625-154.978125 155.09812501c-8.2640625 8.2640625-19.0434375 12.815625-30.4209375 12.81562499s-22.156875-4.5515625-30.4209375-12.81562501L518.46875001 603.5325l-225.16218751 225.28125001c-8.2640625 8.2640625-18.5634375 12.575625-29.941875 12.57562499-11.4975 0-22.755-4.5515625-30.78-12.57562501L65.9890625 661.8590624999999c-7.186875-7.1859375-11.6175-16.288125-12.575625-26.229375l-0.12-7.30593749 0.12-1.07812501c0.958125-9.9403125 5.38874999-18.9225 12.575625-26.2284375l225.04125-225.16125L118.5659375 203.51156249999997c-5.3896875-5.3896875-8.9821875-11.7375-11.2575-20.0015625l-0.12-0.3590625-38.0859375-172.584375c-4.910625-19.0425 0.4790625-38.803125 14.491875-52.9359375 10.1803125-11.0184375 23.7140625-16.8871875 39.0440625-16.8871875 2.874375 0 5.3896875 0.2390625 7.3059375 0.478125 1.3171875 0.1209375 2.3953125 0.24 3.2334375 0.24h1.3171875l174.500625 38.325 1.3171875 0.36c7.665 2.5153125 13.7728125 6.2278125 18.684375 11.1375l173.18156251 173.1834375L728.778125-62.13093749999996c8.2640625-8.2640625 18.6834375-12.575625 29.9409375-12.575625 11.6175 0 22.7559375 4.550625 30.7809375 12.575625l166.715625 166.83468749c17.12624999 17.1271875 17.12624999 43.8346875 0 60.96187501zM687.0978125 689.5246875l71.7403125 71.8603125L887.46875001 632.75625001l-71.74031251-71.85937501-128.62968749 128.62875z m87.1903125-170.068125L313.42625001 57.75562500000001 184.7975 186.38437499999998 645.659375 648.084375l128.6296875-128.62875zM331.990625 416.93625001l-17.9653125 17.96437499L426.126875 547.003125l-41.319375 41.439375-112.1015625-112.2215625-55.09218751 55.093125 112.34062501 112.460625-41.319375 41.3203125-112.340625-112.4615625-58.3265625 58.3265625L263.60374999 776.595l213.66375001-214.501875L331.990625 416.93625001z m-73.0575-387.32625001L126.95 0.6262500100000352l28.86375001 132.22312499 103.11937499-103.239375z m554.0409375 130.5459375l-41.319375 41.319375-111.7425-111.8625-55.6921875 55.6921875 112.1025 112.1015625-41.3203125 41.319375-112.1015625-112.1015625-19.2825 19.2825 144.79875 144.9178125 215.9390625-214.621875-145.636875-145.396875-57.6075 57.6075 111.8625 111.7425z m0 0"  horiz-adv-x="1024" />

    
    <glyph glyph-name="lianxi" unicode="&#58920;" d="M715.508485-64.567295c-57.159838 0-130.959657 38.164205-182.802396 70.187549-69.424162 42.878576-144.218636 102.2068-210.607672 167.033247l-0.242524 0.23843-21.076014 21.13025c-64.684208 66.536392-123.869169 141.504828-166.657694 211.090673-31.946596 51.957349-70.030983 125.919874-70.030983 183.212742 0 61.312414 43.74634 126.382409 62.547545 151.508669 14.675234 19.61678 65.943898 83.607186 109.507066 83.607186 17.883299 0 37.147038-11.734252 62.464657-38.052664 22.394033-23.26589 43.883463-52.193733 57.96211-72.359005 18.912745-27.072589 36.400025-55.420217 49.256844-79.823 20.803815-39.511899 23.209608-56.463989 23.209608-65.768913 0-18.779715-9.790994-35.074843-29.090549-48.422849-12.707416-8.783037-27.969005-15.396665-42.719964-21.795399-9.953699-4.317329-25.842575-11.202133-31.904641-16.045441 2.119267-8.973372 11.360745-30.656207 36.334533-67.408249 23.276123-34.252105 53.375651-71.362304 80.56285-99.345636 27.92398-27.249621 64.943105-57.424874 99.128695-80.747046 36.652781-25.025976 58.285474-34.294061 67.251683-36.416398 4.823865 6.073322 11.697413 21.998013 16.002462 31.967062 6.379291 14.788821 12.983709 30.087249 21.750373 42.824341 13.322423 19.348674 29.573549 29.151947 48.319495 29.151947 9.284457 0 26.193569-2.407839 65.614393-23.258727 24.350594-12.882402 52.636824-30.41266 79.648015-49.367361 20.119223-14.111392 48.980551-35.647895 72.200392-58.084906 26.248827-25.384134 37.95852-44.687782 37.95852-62.615083 0-43.659359-63.838957-95.048773-83.409688-109.74959C841.601298-20.732951 776.674567-64.567295 715.508485-64.567295L715.508485-64.567295 715.508485-64.567295 715.508485-64.567295zM358.726639 210.089112c63.691601-62.179155 135.210471-118.934786 201.429639-159.827125 64.195068-39.655162 120.81767-62.400189 155.352207-62.400189 30.762631 0 74.606185 18.828834 117.307729 50.362015 18.714224 13.831007 35.753295 29.227672 47.969525 43.35339 11.458983 13.262048 15.651468 21.919219 16.720823 25.41074-4.437056 9.540284-30.748305 39.361473-92.151793 81.81947-24.093744 16.657378-48.999994 31.959899-70.13229 43.098587-26.5374 13.980409-37.59627 16.396435-40.120766 16.796548-0.98749-0.681522-3.873214-3.101641-8.272407-10.484795-4.91801-8.263198-9.641591-19.21769-14.21577-29.80891-5.623068-13.044084-11.447726-26.523073-18.582217-37.409005-11.609409-17.691941-25.862018-26.672476-42.363853-26.678616-0.299829 0-0.611937 0-0.930185 0.01228-8.029884 0.172939-32.478715 0.691755-98.851379 45.99659-36.639478 25.019837-76.434833 57.45455-106.426915 86.780459l-0.468674 0.461511c-29.254278 30.078039-61.61429 69.951165-86.576821 106.672508-45.207621 66.525136-45.732577 91.02718-45.9004 99.084693-0.356111 16.838503 8.509814 31.365358 26.343995 43.211151 10.909467 7.234775 24.473391 13.113669 37.59627 18.804275 10.565636 4.581342 21.487384 9.317203 29.734208 14.241352 7.361665 4.400217 9.790994 7.29515 10.455119 8.289804-0.394996 2.533706-2.805906 13.616112-16.752546 40.215934-11.107989 21.175275-26.386974 46.139853-42.995233 70.282716-42.36897 61.554938-72.124667 87.923492-81.634252 92.366687-3.486404-1.074472-12.121062-5.27412-25.356504-16.763802-14.102183-12.231579-29.460985-29.314653-43.25106-48.074925-31.466666-42.788525-50.243311-86.738503-50.243311-117.569696 0-34.607192 22.682605-91.355661 62.246693-155.702178 40.807405-66.373687 97.430006-138.057309 159.463852-201.890126L358.726639 210.089112 358.726639 210.089112 358.726639 210.089112 358.726639 210.089112zM670.06448 398.238282c-9.128915 0-17.214057 6.551206-18.857487 15.881712-4.692882 26.663266-20.095687 49.837058-43.383066 65.237817-23.612791 15.623839-52.480258 21.425985-81.285305 16.33299-10.428513-1.846044-20.369933 5.13802-22.204721 15.592117-1.838881 10.446933 5.121648 20.412912 15.550161 22.25384 38.495756 6.809079 77.229942-1.042749 109.058858-22.10546 32.166607-21.276582 53.486168-53.465702 60.027142-90.639347 1.837858-10.454096-5.123694-20.419052-15.551184-22.262026C672.294264 398.33038 671.170674 398.238282 670.06448 398.238282L670.06448 398.238282 670.06448 398.238282zM785.485233 447.859423c-9.128915 0-17.220197 6.553253-18.857487 15.877619-9.103332 51.752688-38.940894 96.67583-84.010369 126.488833-45.401026 30.03813-100.830453 41.203424-156.077731 31.43699-10.428513-1.841951-20.36277 5.14109-22.204721 15.588023-1.838881 10.44898 5.121648 20.422122 15.550161 22.26305 64.939011 11.471262 130.235157-1.735527 183.851285-37.2156 53.955866-35.687804 89.701998-89.633437 100.649328-151.888316 1.843998-10.454096-5.123694-20.422122-15.552208-22.26305C787.709901 447.953567 786.591427 447.859423 785.485233 447.859423L785.485233 447.859423 785.485233 447.859423zM939.582867 462.18264c-9.129938 0-17.22736 6.561439-18.86465 15.884782-15.533788 88.309278-66.401316 164.950819-143.238308 215.770252-77.161381 51.04763-171.311691 70.030983-265.100774 53.454446-10.423397-1.839905-20.364817 5.136997-22.199605 15.591093-1.835811 10.446933 5.123694 20.415982 15.553231 22.255887 103.477746 18.292622 207.488635-2.740414 292.872281-59.220776C884.322285 669.21181 941.10043 583.559035 958.483332 484.738355c1.842974-10.446933-5.123694-20.413935-15.552208-22.25384C941.806511 462.278831 940.688038 462.18264 939.582867 462.18264L939.582867 462.18264 939.582867 462.18264zM939.582867 462.18264"  horiz-adv-x="1024" />

    
    <glyph glyph-name="wechat" unicode="&#58982;" d="M252.207407 636.207407c-26.548148 0-53.096296-17.066667-53.096296-43.614814s26.548148-43.614815 53.096296-43.614815 43.614815 17.066667 43.614815 43.614815c1.896296 26.548148-17.066667 43.614815-43.614815 43.614814zM542.340741 592.5925930000001c0 26.548148-17.066667 43.614815-43.614815 43.614814s-53.096296-17.066667-53.096296-43.614814 26.548148-43.614815 53.096296-43.614815 43.614815 18.962963 43.614815 43.614815zM612.503704 384c-17.066667 0-36.02963-17.066667-36.02963-34.133333s17.066667-34.133333 36.02963-34.133334c26.548148 0 43.614815 17.066667 43.614815 34.133334s-17.066667 34.133333-43.614815 34.133333zM1024 270.222222c0 138.42963-128.948148 256-286.340741 267.377778v5.688889C705.422222 691.2 546.133333 801.185185 367.881481 801.185185 164.977778 801.185185 0 660.8592590000001 0 488.296296c0-92.918519 47.407407-176.355556 138.42963-240.829629l-32.237037-92.918519c-1.896296-5.688889 0-13.274074 3.792592-17.066667 3.792593-1.896296 7.585185-3.792593 11.377778-3.792592 1.896296 0 5.688889 0 7.585185 1.896296L246.518519 194.37036999999998l15.17037-3.792592c36.02963-7.585185 68.266667-13.274074 106.192592-13.274074 11.377778 0 41.718519 3.792593 45.511112 7.585185 41.718519-106.192593 159.288889-182.044444 297.718518-182.044445 36.02963 0 70.162963 7.585185 102.4 17.066667l91.022222-49.303704c1.896296-1.896296 5.688889-1.896296 7.585186-1.896296 3.792593 0 7.585185 1.896296 9.481481 3.792593 5.688889 3.792593 7.585185 11.377778 5.688889 17.066666l-22.755556 75.851852c77.748148 58.785185 119.466667 132.740741 119.466667 204.8z m-621.985185-45.511111h-5.688889c-9.481481 0-18.962963-1.896296-30.340741-1.896296-32.237037 0-60.681481 5.688889-92.918518 13.274074l-18.962963 3.792592c-3.792593 0-7.585185 0-9.481482-1.896296l-83.437037-41.718518 20.859259 64.474074c1.896296 5.688889 0 13.274074-5.688888 17.066666-83.437037 56.888889-125.155556 127.051852-125.155556 208.592593 0 146.014815 140.325926 263.585185 314.785185 263.585185 153.6 0 288.237037-92.918519 316.681482-216.177778-161.185185-1.896296-290.133333-144.118519-290.133334-252.207407 0-18.962963 3.792593-37.925926 9.481482-56.888889z m458.903704-127.051852c-5.688889-3.792593-7.585185-9.481481-5.688889-15.17037l13.274074-45.511111-56.888889 30.340741c-1.896296 1.896296-3.792593 1.896296-7.585185 1.896296h-3.792593c-30.340741-7.585185-62.577778-15.17037-92.918518-15.170371-142.222222 0-257.896296 96.711111-257.896297 216.177778s115.674074 216.177778 257.896297 216.177778S967.111111 387.792593 967.111111 270.222222c0-60.681481-37.925926-121.362963-106.192592-172.562963zM805.925926 384c-17.066667 0-34.133333-17.066667-34.133333-34.133333s17.066667-34.133333 34.133333-34.133334c26.548148 0 43.614815 17.066667 43.614815 34.133334s-17.066667 34.133333-43.614815 34.133333z"  horiz-adv-x="1024" />

    
    <glyph glyph-name="error" unicode="&#59032;" d="M569.90694076 395.04672658l109.36259318-109.36259318a22.09345317 22.09345317 0 0 0 0-31.24014278l-15.62007138-15.6200714a22.09345317 22.09345317 0 0 0-31.24014279 0l-109.36259319 109.36259319-109.36259318-109.36259319a22.09345317 22.09345317 0 0 0-31.24014278 0l-15.6200714 15.6200714a22.09345317 22.09345317 0 0 0 0 31.24014278l109.36259319 109.36259318-109.36259319 109.36259319a22.09345317 22.09345317 0 0 0 0 31.24014279l15.6200714 15.62007138a22.09345317 22.09345317 0 0 0 31.24014278 0l109.36259318-109.36259318 109.36259319 109.36259318a22.09345317 22.09345317 0 0 0 31.24014279 0l15.62007138-15.62007138a22.09345317 22.09345317 0 0 0 0-31.24014279l-109.36259318-109.36259319zM512-13.682157029999985c219.63101795 0 397.68215703 178.05113909 397.68215703 397.68215703s-178.05113909 397.68215703-397.68215703 397.68215703-397.68215703-178.05113909-397.68215703-397.68215703 178.05113909-397.68215703 397.68215703-397.68215703z m0-66.2803595c-256.23986985 0-463.96251653 207.7226467-463.96251653 463.96251653s207.7226467 463.96251653 463.96251653 463.96251653 463.96251653-207.7226467 463.96251653-463.96251653-207.7226467-463.96251653-463.96251653-463.96251653z"  horiz-adv-x="1024" />

    
    <glyph glyph-name="down" unicode="&#59035;" d="M951.43878352 620.55460307l15.64216485-15.62007137a22.09345317 22.09345317 0 0 0 0-31.24014279L537.47375151 144.06509858000004a22.09345317 22.09345317 0 0 0-31.26223625 0L76.6043184 573.69438891a22.09345317 22.09345317 0 0 0 0 31.24014279l15.62007139 15.62007137a22.09345317 22.09345317 0 0 0 31.24014279 0l398.36705409-398.36705408 398.38914753 398.36705408a22.09345317 22.09345317 0 0 0 31.24014278 0z"  horiz-adv-x="1024" />

    
    <glyph glyph-name="info" unicode="&#59038;" d="M545.14017975 428.18690634v-265.12143804a22.09345317 22.09345317 0 0 0-22.09345317-22.09345316h-22.09345316a22.09345317 22.09345317 0 0 0-22.09345317 22.09345316V428.18690634a22.09345317 22.09345317 0 0 0 22.09345317 22.09345316h22.09345316a22.09345317 22.09345317 0 0 0 22.09345317-22.09345316z m-44.18690633 176.74762536h22.09345316a22.09345317 22.09345317 0 0 0 22.09345317-22.09345318v-44.18690634a22.09345317 22.09345317 0 0 0-22.09345317-22.09345316h-22.09345316a22.09345317 22.09345317 0 0 0-22.09345317 22.09345316v44.18690634a22.09345317 22.09345317 0 0 0 22.09345317 22.09345318z m11.04672658-618.61668873c219.63101795 0 397.68215703 178.05113909 397.68215703 397.68215703s-178.05113909 397.68215703-397.68215703 397.68215703-397.68215703-178.05113909-397.68215703-397.68215703 178.05113909-397.68215703 397.68215703-397.68215703z m0-66.2803595c-256.23986985 0-463.96251653 207.7226467-463.96251653 463.96251653s207.7226467 463.96251653 463.96251653 463.96251653 463.96251653-207.7226467 463.96251653-463.96251653-207.7226467-463.96251653-463.96251653-463.96251653z"  horiz-adv-x="1024" />

    
    <glyph glyph-name="close" unicode="&#59039;" d="M504.88296228 441.10126615L813.1779536 749.37269113a23.56635005 23.56635005 0 0 0 33.32281897 0l16.66140948-16.66140948a23.56635005 23.56635005 0 0 0 0-33.32281898L554.89075709 391.11703772 863.13861569 82.82204639999998a23.56635005 23.56635005 0 0 0 0-33.32281897l-16.66140948-16.66140948a23.56635005 23.56635005 0 0 0-33.32281897 0L504.88296228 341.10924291000003 196.61153733 32.86138430999995a23.56635005 23.56635005 0 0 0-33.32281898 0l-16.66140948 16.66140948a23.56635005 23.56635005 0 0 0 0 33.32281897l308.27142498 308.29499131-308.27142498 308.27142496a23.56635005 23.56635005 0 0 0 0 33.32281896l16.66140948 16.66140948a23.56635005 23.56635005 0 0 0 33.32281898 0l308.27142495-308.27142497z"  horiz-adv-x="1024" />

    
    <glyph glyph-name="success" unicode="&#59040;" d="M748.0243602 534.52269644l15.62007138-15.64216485a22.09345317 22.09345317 0 0 0 0-31.24014278L474.66206415 198.63592790999996a22.09345317 22.09345317 0 0 0-31.24014277 0l-136.71428823 136.69219477a22.09345317 22.09345317 0 0 0 0 31.24014276l15.6200714 15.64216485a22.09345317 22.09345317 0 0 0 31.24014278 0l105.47414543-105.47414543 257.76431812 257.78641158a22.09345317 22.09345317 0 0 0 31.24014277 0zM512-13.682157029999985c219.63101795 0 397.68215703 178.05113909 397.68215703 397.68215703s-178.05113909 397.68215703-397.68215703 397.68215703-397.68215703-178.05113909-397.68215703-397.68215703 178.05113909-397.68215703 397.68215703-397.68215703z m0-66.2803595c-256.23986985 0-463.96251653 207.7226467-463.96251653 463.96251653s207.7226467 463.96251653 463.96251653 463.96251653 463.96251653-207.7226467 463.96251653-463.96251653-207.7226467-463.96251653-463.96251653-463.96251653z"  horiz-adv-x="1024" />

    
    <glyph glyph-name="increase" unicode="&#59041;" d="M478.85982025 417.14017975V825.86906337a22.09345317 22.09345317 0 0 0 22.09345317 22.09345316h22.09345316a22.09345317 22.09345317 0 0 0 22.09345317-22.09345316v-408.72888362H953.86906337a22.09345317 22.09345317 0 0 0 22.09345316-22.09345317v-22.09345316a22.09345317 22.09345317 0 0 0-22.09345316-22.09345317H545.14017975V-57.86906337000005a22.09345317 22.09345317 0 0 0-22.09345317-22.09345316h-22.09345316a22.09345317 22.09345317 0 0 0-22.09345317 22.09345316V350.85982025H70.13093663a22.09345317 22.09345317 0 0 0-22.09345316 22.09345317v22.09345316a22.09345317 22.09345317 0 0 0 22.09345316 22.09345317h408.72888362z"  horiz-adv-x="1024" />

    
    <glyph glyph-name="warning" unicode="&#59042;" d="M545.14017975 317.71964049999997a22.09345317 22.09345317 0 0 0-22.09345317-22.09345318h-22.09345316a22.09345317 22.09345317 0 0 0-22.09345317 22.09345318V582.84107852a22.09345317 22.09345317 0 0 0 22.09345317 22.09345318h22.09345316a22.09345317 22.09345317 0 0 0 22.09345317-22.09345318v-265.12143802z m-44.18690633-176.74762536a22.09345317 22.09345317 0 0 0-22.09345317 22.09345316v44.18690636a22.09345317 22.09345317 0 0 0 22.09345317 22.09345316h22.09345316a22.09345317 22.09345317 0 0 0 22.09345317-22.09345316v-44.18690636a22.09345317 22.09345317 0 0 0-22.09345317-22.09345316h-22.09345316z m11.04672658-154.65417217c219.63101795 0 397.68215703 178.05113909 397.68215703 397.68215703s-178.05113909 397.68215703-397.68215703 397.68215703-397.68215703-178.05113909-397.68215703-397.68215703 178.05113909-397.68215703 397.68215703-397.68215703z m0-66.2803595c-256.23986985 0-463.96251653 207.7226467-463.96251653 463.96251653s207.7226467 463.96251653 463.96251653 463.96251653 463.96251653-207.7226467 463.96251653-463.96251653-207.7226467-463.96251653-463.96251653-463.96251653z"  horiz-adv-x="1024" />

    
    <glyph glyph-name="upward" unicode="&#59043;" d="M951.43878352 144.06509858000004l15.64216485 15.62007139a22.09345317 22.09345317 0 0 1 0 31.26223625L537.47375151 620.55460307a22.09345317 22.09345317 0 0 1-31.26223625 0L76.6043184 190.94740621999995a22.09345317 22.09345317 0 0 1 0-31.26223625l15.62007139-15.62007139a22.09345317 22.09345317 0 0 1 31.24014279 0l398.36705409 398.38914753L920.2207342 144.06509858000004a22.09345317 22.09345317 0 0 1 31.24014278 0z"  horiz-adv-x="1024" />

    
    <glyph glyph-name="next" unicode="&#59044;" d="M275.44539693-55.438783520000015l15.62007137-15.64216485a22.09345317 22.09345317 0 0 1 31.24014279 0L751.93490142 358.52624848999994a22.09345317 22.09345317 0 0 1 0 31.26223625L322.30561109 819.3956816a22.09345317 22.09345317 0 0 1-31.24014279 0l-15.62007137-15.62007139a22.09345317 22.09345317 0 0 1 0-31.24014279l398.36705408-398.36705409-398.36705408-398.38914753a22.09345317 22.09345317 0 0 1 0-31.24014278z"  horiz-adv-x="1024" />

    
    <glyph glyph-name="back" unicode="&#59099;" d="M746.96621019 816.72237377l-15.62007139 15.62007138a22.09345317 22.09345317 0 0 1-31.26223622 0L262.32422149 394.58276406a22.09345317 22.09345317 0 0 1 0-31.26223622L700.08390258-74.43915325a22.09345317 22.09345317 0 0 1 31.26223622 0l15.62007139 15.62007138a22.09345317 22.09345317 0 0 1 0 31.2401428l-406.51953829 406.51953829 406.51953829 406.51953831a22.09345317 22.09345317 0 0 1 0 31.26223624z"  horiz-adv-x="1024" />

    
    <glyph glyph-name="search" unicode="&#59105;" d="M751.71396688 179.17159565999998l214.24021538-214.26230881a22.09345317 22.09345317 0 0 0 0-31.24014279l-15.62007139-15.64216485a22.09345317 22.09345317 0 0 0-31.24014278 0l-218.90193399 218.92402746a400.1566238 400.1566238 0 0 0-228.04862361-70.91998469C250.10420613 66.05311544999995 70.13093663 246.04847841000003 70.13093663 468.0655893 70.13093663 690.08270019 250.10420613 870.05596972 472.14341049 870.05596972c222.01711089 0 401.99038041-179.97326951 401.9903804-402.01247386 0-113.38360166-46.92649453-215.7867571-122.44191746-288.8719002z m-279.57055639-46.83812071c185.408259 0 335.7100209 150.3017619 335.71002088 335.71002091C807.85343137 653.4738483 657.55166947 803.77561021 472.14341049 803.77561021 286.71305804 803.77561021 136.41129614 653.4738483 136.41129614 468.04349586c0-185.408259 150.3017619-335.7100209 335.73211435-335.71002091z"  horiz-adv-x="1024" />

    
    <glyph glyph-name="kefu" unicode="&#58933;" d="M837.30490667 397.42837333a24.59134933 24.59134933 0 0 1-24.44784-24.39658666v-230.12746667c0-6.57067733 2.77793067-12.731328 7.22672-17.18011733h-0.05125334l0.061504-0.08200534c4.40778667-4.366784 10.56843733-7.14471467 17.22112-7.14471466h66.77284267c6.59117867 0 12.69032533 2.81893333 17.11861333 7.30872533l0.08200534-0.08200533 0.061504 0.08200533c4.40778667 4.366784 7.18571733 10.52743467 7.18571733 17.098112V373.03178667c0 6.181152-2.398656 11.91127467-6.28365867 16.24730666l-0.96356266 0.92256a24.417088 24.417088 0 0 1-17.20061867 7.22672h-66.78309333zM576.03591467 46.23028266999995a22.65397333 22.65397333 0 0 0-2.644672 1.55810133 39.58807467 39.58807467 0 0 1-28.60961067 3.02394667 39.72133333 39.72133333 0 0 1-24.06856533-18.39994667h-0.061504a39.21905067 39.21905067 0 0 1-5.166336-18.73821867v-1.85537066c0.061504-3.21870933 0.50228267-6.38616533 1.34283733-9.43061334 2.46016-9.287104 8.29278933-17.70290133 16.89309867-23.187008 1.02506667-0.44077867 2.060384-1.07632 3.044448-1.722112a39.41381333 39.41381333 0 0 1 28.568608-3.044448 39.31130667 39.31130667 0 0 1 23.36126933 17.30312534c0.522784 0.90205867 1.045568 1.80411733 1.61960533 2.644672a39.84434133 39.84434133 0 0 1 3.044448 28.48660266 39.239552 39.239552 0 0 1-17.32362666 23.36126934z m23.340768 42.89904a88.05322667 88.05322667 0 0 0 41.20768-53.67249067 87.90971733 87.90971733 0 0 0-8.84632534-66.90610133l-0.061504-0.123008h0.061504a88.135232 88.135232 0 0 0-53.754496-41.146176 88.08397867 88.08397867 0 0 0-67.09061333 8.84632533l-0.522784 0.31777067a88.40174933 88.40174933 0 0 0-40.36712533 51.73511466H313.08581333c-0.92256 0-1.88612267 0.061504-2.798432 0.123008-54.51304533 1.61960533-131.23928533 17.559392-186.93115733 53.27271467-44.836416 28.75312-76.849248 69.94029867-76.849248 126.421472V373.03178667a73.49728 73.49728 0 0 0 73.42552533 73.27176533h10.41467734c8.087776 92.88129067 49.233952 222.31645867 111.57850666 284.55850667C311.78397867 800.61784533 408.304256 843.76290133 514.890688 843.76290133c106.60693333 0 203.18871467-43.145056 273.06750933-112.90084266 62.28305067-62.180544 103.36772267-191.59521067 111.51700267-284.55850667h4.60254933c20.16306133 0 38.54250667-8.333792 51.81712-21.56740267 0.522784-0.50228267 1.02506667-1.09682133 1.55810134-1.68110933 12.393056-13.23361067 20.04005333-30.936512 20.04005333-50.02325333v-230.12746667c0-19.958048-8.34404267-38.29649067-21.68016-51.59160533l0.08200533-0.061504a73.54853333 73.54853333 0 0 0-51.81712-21.63915734h-66.77284266c-19.99905067 0-38.41949867 8.34404267-51.81712 21.63915734v-0.08200534c-13.254112 13.315616-21.59815467 31.59255467-21.59815467 51.73511467V373.03178667a73.18976 73.18976 0 0 0 21.54690133 51.76586666 73.49728 73.49728 0 0 0 51.878624 21.50589867h13.192608c-8.026272 79.29915733-43.64733867 196.536032-97.145568 250.01376a336.52938667 336.52938667 0 0 1-238.47150933 98.54990933c-93.07605333 0-177.346784-37.66094933-238.36900267-98.54990933-53.49822933-53.416224-89.06804267-170.63259733-97.02256-250.01376h7.18571734c20.24506667 0 38.54250667-8.333792 51.79661866-21.56740267a9.84064 9.84064 0 0 0 1.5376-1.68110933 73.04625067 73.04625067 0 0 0 20.06055467-50.02325333v-207.71950934a24.45809067 24.45809067 0 0 0-48.89568 0V373.03178667c0 6.181152-2.46016 11.91127467-6.34516267 16.24730666l-0.96356266 0.92256a24.37608533 24.37608533 0 0 1-17.20061867 7.22672h-66.77284267a24.59134933 24.59134933 0 0 1-24.44784-24.39658666v-205.054336c0-36.994656 22.62322133-65.03022933 54.25677867-85.306048 47.68610133-30.60849067 114.29493333-44.30338133 161.86827733-45.66672l1.48634667 0.061504h156.97870933a88.51450667 88.51450667 0 0 0 8.426048 19.72228266v0.04100267a88.196736 88.196736 0 0 0 53.67249067 41.20768 88.52475733 88.52475733 0 0 0 67.09061333-8.887328l0.061504-0.08200533 0.08200534 0.061504z"  horiz-adv-x="1024" />

    
    <glyph glyph-name="ewm" unicode="&#59181;" d="M413.30633334 844.23426666H113.1788c-32.35366666 0-58.67576666-26.32003334-58.67576666-58.6706v-300.13166666c0-32.35056666 26.3221-58.67163334 58.67576666-58.67163334H413.30633334c32.3516 0 58.67163334 26.32106666 58.67163332 58.67266668V785.56366666c-0.00206666 32.35056666-26.32106666 58.6706-58.67266666 58.6706z m16.37523332-358.80226666c0-9.02926666-7.347-16.37523334-16.37523332-16.37523334H113.1788c-9.03133334 0-16.37833334 7.34596666-16.37833334 16.37523334V785.56263334c0 9.02926666 7.347 16.3742 16.37833334 16.3742H413.30633334c9.02926666 0 16.3742-7.347 16.37523332-16.3742v-300.13166668zM315.40316666 732.5102666600001H211.07576666c-24.73076666 0-44.84976666-20.119-44.84976666-44.84976666v-104.3274c0-24.73283334 20.119-44.8539 44.84976666-44.8539h104.3274c24.73283334 0 44.8539 20.12106666 44.8539 44.8539v104.32533334c0 11.9722-4.66756666 23.23346666-13.14606666 31.7099-8.47643334 8.4754-19.7377 13.14193334-31.70783334 13.14193332z m2.5575-149.17716666c0-1.38673334-1.1718-2.5575-2.5575-2.5575H211.07576666c-1.38466666 0-2.55233334 1.1718-2.55233332 2.5575V687.6605c0 1.38466666 1.16766666 2.55336666 2.55233332 2.55336666h104.3274c0.69336666 0 1.30096666-0.2542 1.80316668-0.75743332a2.46346666 2.46346666 0 0 0 0.75433332-1.79593334v-104.3274z m494.33116668 149.17716666h-104.32533334c-24.7318 0-44.8508-20.119-44.8508-44.84976666v-104.3274c0-24.73283334 20.119-44.8539 44.84976666-44.8539h104.32533334c24.7349 0 44.857 20.12106666 44.857 44.8539V687.6605c0 24.72973334-20.1221 44.84976666-44.857 44.84976666z m2.55853332-149.17716666c0-1.38673334-1.1718-2.5575-2.55853332-2.5575h-104.32533334c-1.38466666 0-2.5544 1.1718-2.5544 2.5575V687.6605c0 1.38466666 1.16973334 2.55336666 2.55336666 2.55336666h104.32533334c1.38776666 0 2.55956666-1.16973334 2.55956666-2.55336666v-104.3274zM910.195 844.23426666H610.06333334c-32.35263334 0-58.67163334-26.32003334-58.67163334-58.6706v-300.13166666c0-32.35056666 26.32003334-58.67163334 58.6706-58.67163334h300.13166666c32.35366666 0 58.67266666 26.32106666 58.67266668 58.67266668V785.56263334c0 32.3516-26.319 58.67163334-58.67266668 58.67163332z m16.3742-358.80226666c0-9.02926666-7.34596666-16.37523334-16.37523334-16.37523334H610.06333334c-9.02926666 0-16.3742 7.34596666-16.3742 16.37523334V785.56263334c0 9.02926666 7.34493334 16.3742 16.3742 16.3742h300.13166666c9.02926666 0 16.37523334-7.347 16.37523334-16.3742v-300.13166668zM315.40316666 228.40996666H211.07576666c-24.73076666 0-44.84976666-20.1221-44.84976666-44.85596666v-104.32533334c0-24.73076666 20.119-44.8508 44.84976666-44.8508h104.3274c24.73283334 0 44.8539 20.119 44.8539 44.8508V183.55296666000004c0 11.97116666-4.66756666 23.23346666-13.14503332 31.71093334-8.47643334 8.47746666-19.7377 13.14606666-31.70886668 13.14606666z m2.5575-149.18233332c0-1.38363334-1.1718-2.55233334-2.5575-2.55233334H211.07576666c-1.38466666 0-2.55233334 1.1687-2.55233332 2.55233334V183.55399999999997c0 1.38776666 1.16766666 2.55853334 2.55233332 2.55853334h104.3274c0.69233334 0 1.29993334-0.2542 1.80213334-0.7564a2.47483334 2.47483334 0 0 0 0.7564-1.80213334v-104.32533334zM413.30633334 342.99216665999995H113.1788c-32.35366666 0-58.67576666-26.32003334-58.67576666-58.6706v-300.13166666c0-32.3516 26.3221-58.6706 58.67576666-58.6706H413.30633334c32.3516 0 58.67163334 26.319 58.67163332 58.67163334V284.32156666000003c-0.00206666 32.35056666-26.32106666 58.6706-58.67266666 58.6706z m16.37523332-358.80226666c0-9.02926666-7.347-16.37523334-16.37523332-16.37523334H113.1788c-9.03133334 0-16.37833334 7.34596666-16.37833334 16.37523334V284.32053334c0 9.02926666 7.347 16.3742 16.37833334 16.3742H413.30633334c9.02926666 0 16.3742-7.34596666 16.37523332-16.3742v-300.13166668z m144.4693 106.3114c11.67976666 0 21.1482 9.46843334 21.1482 21.1482V284.31640000000004c0 9.03133334 7.34596666 16.37833334 16.37523334 16.37833334h181.6941c11.67976666 0 21.1482 9.46843334 21.1482 21.1482s-9.46843334 21.1482-21.1482 21.1482H611.6743c-32.35366666 0-58.67266666-26.3221-58.67266666-58.67473334v-172.6669c0-11.67976666 9.46843334-21.1482 21.14923332-21.1482zM931.37833334 342.99216665999995h-59.8796c-11.6808 0-21.14923334-9.46843334-21.14923334-21.1482s9.46843334-21.1482 21.14923334-21.1482h55.07046666v-86.0498H779.20346666c-11.67976666 0-21.1482-9.4674-21.1482-21.1482s9.46843334-21.1482 21.1482-21.1482H931.37833334c20.67183334 0 37.4883 16.81646666 37.4883 37.48623334l-0.00103334 0.20253334v95.46553332c0 20.67183334-16.81543334 37.48933334-37.48726666 37.48933334zM646.58236666-31.53123333999997h-51.2833v57.0307c0 11.6808-9.46843334 21.14923334-21.1482 21.14923334s-21.1482-9.46843334-21.1482-21.14923334v-61.8388c0-20.6708 16.81543334-37.48726666 37.48726668-37.48726666h56.09243332c11.6808 0 21.1482 9.46843334 21.1482 21.1482s-9.4674 21.14716666-21.1482 21.14716666z m194.4165 154.52776668c0 11.6808-9.4674 21.1482-21.1482 21.1482h-85.6685c-20.67183334 0-37.48726666-16.81543334-37.48726666-37.48726668v-160.99436666c0-11.6808 9.4674-21.1482 21.1482-21.1482s21.1482 9.4674 21.1482 21.1482V101.84833333999995h80.85936666c11.67976666 0 21.1482 9.46843334 21.1482 21.1482z m106.54493334 15.6488c-11.6808 0-21.1482-9.4674-21.1482-21.1482v-149.6432H787.48253334c-11.6808 0-21.1482-9.46843334-21.1482-21.1482s9.4674-21.1482 21.1482-21.1482h143.7222c20.6708 0 37.48726666 16.81543334 37.48726666 37.48726666v154.45233334c0 11.6808-9.46843334 21.1482-21.1482 21.1482zM653.1089 259.37483334c-11.67976666 0-21.1482-9.46843334-21.1482-21.1482v-53.1092c0-11.67976666 9.46843334-21.1482 21.1482-21.1482s21.1482 9.46843334 21.1482 21.1482V238.22766665999995c0 11.67976666-9.4674 21.1482-21.1482 21.1482z"  horiz-adv-x="1024" />

    
    <glyph glyph-name="weixin" unicode="&#58941;" d="M698 516h14.66666625C687.33333312 650.6666662499999 546.00000031 754.66666687 375.33333312 754.66666687 187.33333344 754.66666687 33.99999969 628.00000031 33.99999969 472.00000031c0-91.99999969 52.00000031-173.33333344 134.66666719-224.00000062 1.33333313-1.33333313 2.66666625-1.33333313 2.66666625-1.33333313L138.00000031 144l123.99999938 62.66666625s4.00000031-1.33333313 5.33333343-1.33333313c33.33333375-9.33333375 70.66666688-14.66666625 108-14.66666625 7.99999969 0 14.66666625 0 22.66666688 1.33333313-6.66666656 21.33333375-10.66666687 43.99999969-10.66666688 67.99999969 0 139.99999969 139.99999969 256.00000031 310.66666688 256.00000031z m-204 100.00000031c26.66666625 0 48-19.99999969 48-45.33333375s-21.33333375-45.33333375-48-45.33333281-48 19.99999969-48 45.33333281c0 24 21.33333375 45.33333375 48 45.33333375z m-237.33333375-92.00000062c-26.66666625 0-48 19.99999969-48 45.33333375s21.33333375 45.33333375 48 45.33333281 48-19.99999969 48-45.33333281-21.33333375-45.33333375-48-45.33333375z m733.33333406-267.99999938c0 132-129.33333375 238.66666688-288 238.66666594s-288-106.66666688-288-238.66666594c0-132 129.33333375-238.66666688 288-238.66666687 31.99999969 0 62.66666625 4.00000031 90.66666656 12 1.33333313 0 5.33333344 1.33333313 5.33333344 1.33333312l103.99999969-52.00000031-28.00000031 86.66666719s1.33333313 1.33333313 2.66666718 1.33333312c67.99999969 43.99999969 113.33333344 112.00000031 113.33333344 189.33333375z m-389.33333343 43.99999969c-22.66666688 0-40.00000031 17.33333344-40.00000032 38.66666625 0 21.33333375 18.66666656 38.66666625 40.00000031 38.66666719 22.66666688 0 40.00000031-17.33333344 39.99999938-38.66666719 0-21.33333375-17.33333344-38.66666625-39.99999938-38.66666625z m199.99999968 0c-22.66666688 0-40.00000031 17.33333344-40.00000031 38.66666625 0 21.33333375 18.66666656 38.66666625 40.00000031 38.66666719 22.66666688 0 40.00000031-17.33333344 40.00000032-38.66666719 1.33333313-21.33333375-17.33333344-38.66666625-40.00000032-38.66666625z m0 0"  horiz-adv-x="1024" />

    
    <glyph glyph-name="weibo" unicode="&#58899;" d="M758.4062 395.5c-39.9 7.7-20.5 29.1-20.5 29.1s39 64.2-7.8 110.9c-57.8 57.8-198.5-7.3-198.5-7.3-53.7-16.7-39.4 7.5-31.9 48.9 0 48.7-16.7 131-159.6 82.3-142.8-49-265.6-220.3-265.6-220.3-85.4-113.9-74-201.8-74-201.8C21.7062 43 228.1062-10.299999999999955 388.8062-23c168.9-13.3 396.9 58.3 466 205 69.2 147.3-56.4 205.5-96.4 213.5zM401.3062 32C233.7062 24.100000000000023 98.1062 108.10000000000002 98.1062 220.10000000000002S233.6062 422 401.3062 429.7c167.8 7.7 303.6-61.5 303.6-173.2 0-111.9-135.9-216.9-303.6-224.5z m-33.4 323.9c-168.7-19.8-149.1-177.7-149.1-177.7s-1.8-50.1 45.1-75.5c98.7-53.5 200.3-21.1 251.6 45.3 51.5 66.3 21.3 227.6-147.6 207.9z m-42.5-221.7c-31.5-3.7-56.8 14.5-56.8 40.8s22.5 53.6 54.1 56.9c36.1 3.4 59.7-17.4 59.7-43.8-0.1-26.1-25.7-50.3-57-53.9z m99.3 84.7c-10.6-8-23.8-6.9-29.5 2.7-5.8 9.3-3.7 24.3 7.2 32.1 12.5 9.3 25.5 6.6 31.1-2.7 5.8-9.6 1.7-23.9-8.8-32.1z m415.9 244.9c14.7 0 26.9 11.5 27.4 26.2 20.6 185.2-151.8 153.4-151.8 153.4-7.3 0-14.4-3-19.7-8.1-5.1-5.3-8-12.3-8-19.7 0-15.2 12.2-27.5 27.5-27.5 123.9 27.3 96.5-96.5 96.5-96.5 0.2-15.5 12.6-27.8 28.1-27.8z m-20.2 323.4c-59.5 13.9-120.9 1.9-138-1.4-1.3-0.1-2.5-1.4-3.9-1.7-0.5-0.1-0.9-0.7-0.9-0.7-19.1-5.7-31.1-24.5-28.5-44.2 2.7-19.8 19.4-34.5 39.3-35 19.9-0.3 21.7 2.9 36.3 8.7 14.6 5.9 138 4.3 199.3-98.5 33.5-75.2 14.7-125.5 12.3-133.6 0 0-7.9-19.5-7.9-38.7 0-22.2 17.9-36.1 40.1-36.1 18.5 0 34.1 2.5 38.6 33.9h0.2c66.2 219.2-80.2 322.3-186.9 347.3z"  horiz-adv-x="1024" />

    
    <glyph glyph-name="qq" unicode="&#59542;" d="M824.8 282.79999999999995c-16 51.4-34.4 94.6-62.7 165.3C766.5 633.8 689.3 784 511.5 784 331.7 784 256.2 630.8 261 448.1c-28.4-70.8-46.7-113.7-62.7-165.3-34-109.5-23-154.8-14.6-155.8 18-2.2 70.1 82.4 70.1 82.4 0-49 25.2-112.9 79.8-159-26.4-8.1-85.7-29.9-71.6-53.8 11.4-19.3 196.2-12.3 249.5-6.3 53.3-6 238.1-13 249.5 6.3 14.1 23.8-45.3 45.7-71.6 53.8 54.6 46.2 79.8 110.1 79.8 159 0 0 52.1-84.6 70.1-82.4 8.5 1.1 19.5 46.4-14.5 155.8z"  horiz-adv-x="1024" />

    


  </font>
</defs>
</svg>
