<?xml version="1.0" standalone="no"?><!DOCTYPE svg PUBLIC "-//W3C//DTD SVG 1.1//EN" "http://www.w3.org/Graphics/SVG/1.1/DTD/svg11.dtd"><svg t="1541407676244" class="icon" style="" viewBox="0 0 1024 1024" version="1.1" xmlns="http://www.w3.org/2000/svg" p-id="1986" xmlns:xlink="http://www.w3.org/1999/xlink" width="200" height="200"><defs><style type="text/css"></style></defs><path d="M834.57536 424.46848c-99.76832-32.77824-59.81696-95.34464-119.6288-119.6288-101.6832-41.27232-199.424-39.83872-199.424-39.83872s-97.3824-1.0752-199.424 39.83872c-60.05248 24.04352-19.85536 86.85056-119.6288 119.6288C90.95168 459.1616 35.92192 408.32 36.99712 345.63072c0.7168-42.112 26.6752-89.60512 79.55456-120.46848 135.41888-78.95552 398.848-79.79008 398.848-79.79008s263.424 0.83968 398.848 79.79008c52.51584 30.62784 78.35648 77.6448 79.55456 119.51104 1.792 63.16544-53.23776 114.72896-159.22688 79.7952zM379.38176 396.2368h67.94752v68.4288h136.8576V396.2368h68.42368v68.4288l274.0736 239.02208v159.5904c0 44.02176-48.09216 79.79008-92.11392 79.79008H196.46464c-44.02688 0-90.92096-35.76832-90.92096-79.79008v-159.5904l273.95584-239.13984-0.11776-68.31104z m136.8576 445.50144c75.60704 0 136.8576-61.25056 136.8576-136.8576 0-75.60704-61.25056-136.85248-136.8576-136.85248s-136.8576 61.25056-136.8576 136.85248c0.11776 75.60704 61.36832 136.8576 136.8576 136.8576z" fill="#a5a5a5" p-id="1987"></path></svg>