<?xml version="1.0" standalone="no"?><!DOCTYPE svg PUBLIC "-//W3C//DTD SVG 1.1//EN" "http://www.w3.org/Graphics/SVG/1.1/DTD/svg11.dtd"><svg t="1541146549241" class="icon" style="" viewBox="0 0 1024 1024" version="1.1" xmlns="http://www.w3.org/2000/svg" p-id="2006" xmlns:xlink="http://www.w3.org/1999/xlink" width="200" height="200"><defs><style type="text/css"></style></defs><path d="M750.162 750.162c14.45-14.448 37.878-14.448 52.326 0L1013 960.674c14.45 14.45 14.45 37.876 0 52.326-14.45 14.45-37.876 14.45-52.326 0L750.162 802.488c-14.448-14.448-14.448-37.876 0-52.326zM453 832c209.316 0 379-169.684 379-379S662.316 74 453 74 74 243.684 74 453s169.684 379 379 379z m0 74C202.816 906 0 703.184 0 453S202.816 0 453 0s453 202.816 453 453-202.816 453-453 453z" p-id="2007" fill="#ffffff"></path></svg>