<?xml version="1.0" standalone="no"?>
<!DOCTYPE svg PUBLIC "-//W3C//DTD SVG 1.1//EN" "http://www.w3.org/Graphics/SVG/1.1/DTD/svg11.dtd" >
<svg xmlns="http://www.w3.org/2000/svg" xmlns:xlink="http://www.w3.org/1999/xlink" version="1.1">
<metadata>
Created by FontForge 20170924 at Mon Apr 30 17:11:02 2007
 By www-data
(c) COPYRIGHT H. BERTHOLD AG 1992 Alle Rechte vorbehalten.
</metadata>
<defs>
<font id="AkzidenzGroteskBQ-Regular" horiz-adv-x="271" >
  <font-face 
    font-family="Akzidenz-Grotesk BQ"
    font-weight="500"
    font-stretch="normal"
    units-per-em="1000"
    panose-1="0 0 0 0 0 0 0 0 0 0"
    ascent="800"
    descent="-200"
    x-height="471"
    cap-height="706"
    bbox="-156 -262 1119 943"
    underline-thickness="50"
    underline-position="-100"
    stemh="78"
    stemv="84"
    unicode-range="U+0020-FB02"
  />
<missing-glyph 
 />
    <glyph glyph-name=".notdef" 
 />
    <glyph glyph-name="space" unicode=" " 
 />
    <glyph glyph-name="exclam" unicode="!" 
d="M115 706h79v-288l-24 -271h-31l-24 282v277zM115 90h79v-90h-79v90z" />
    <glyph glyph-name="quotedbl" unicode="&#x22;" horiz-adv-x="396" 
d="M303 434h-23l-39 245s-3 21 0 32c6 25 29 38 53 38c20 0 42 -11 48 -31c3 -11 2 -17 1 -27zM115 434h-23l-39 245s-2 21 0 32c6 25 30 38 54 38c20 0 41 -11 47 -31c3 -11 3 -17 2 -27z" />
    <glyph glyph-name="numbersign" unicode="#" horiz-adv-x="667" 
d="M417 0h-79l33 229h-111l-33 -229h-81l35 229h-139v77h149l16 108h-142v77h152l31 214h80l-31 -214h110l32 214h78l-30 -214h138v-77h-148l-16 -108h139v-77h-150zM382 306l15 108h-111l-16 -108h112z" />
    <glyph glyph-name="dollar" unicode="$" horiz-adv-x="625" 
d="M354 826l1 -110c13 -4 27 -7 40 -10c24 -6 59 -15 103 -50c9 -6 34 -27 52 -55c10 -14 22 -37 32 -74l-93 -9c-13 42 -44 84 -83 105c-12 6 -25 12 -52 16l1 -236c20 -6 63 -17 112 -41c27 -12 133 -61 133 -177c-1 -69 -40 -129 -98 -163c-37 -23 -92 -40 -136 -40h-12
v-119h-67v119c-21 3 -97 14 -158 55c-80 54 -102 136 -109 167l102 11c17 -82 77 -122 103 -135c12 -5 33 -13 62 -19v253c-11 4 -91 26 -142 61c-21 15 -81 63 -81 146c0 41 16 73 23 85c55 97 172 106 200 110v110h67zM287 422v220c-10 -1 -31 -3 -53 -12
c-40 -17 -69 -52 -69 -98c0 -9 1 -28 12 -47c22 -36 74 -52 110 -63zM354 295l1 -237c7 0 15 1 22 2c17 2 70 9 101 55c12 17 18 36 18 57c0 60 -44 92 -142 123z" />
    <glyph glyph-name="percent" unicode="%" horiz-adv-x="896" 
d="M849 213c0 -12 0 -137 -73 -193c-35 -27 -74 -29 -89 -29c-27 0 -85 7 -125 67c-21 32 -39 79 -39 160c0 164 80 232 162 232c80 0 166 -70 164 -237zM784 213c1 66 -13 113 -28 137c-22 35 -56 42 -72 41c-29 0 -55 -17 -69 -40c-15 -23 -28 -67 -28 -131
c1 -63 13 -104 28 -128c22 -37 56 -44 73 -44c26 0 49 14 64 33c25 35 31 93 32 132zM620 656l-317 -685l-55 26l318 685zM353 450c0 -17 1 -124 -62 -185c-26 -26 -64 -41 -101 -41c-41 0 -80 18 -106 47s-58 88 -58 181c0 63 19 150 70 196c12 10 46 35 93 35
c14 0 39 -2 69 -19c99 -55 95 -197 95 -214zM288 450c0 64 -9 101 -24 127c-22 40 -58 49 -76 49c-25 0 -49 -14 -64 -34c-34 -44 -32 -132 -32 -136c0 -5 -2 -88 29 -136c15 -23 41 -38 69 -38c30 0 55 16 71 39c17 25 27 65 27 129z" />
    <glyph glyph-name="ampersand" unicode="&#x26;" horiz-adv-x="604" 
d="M593 79v-83c-16 -3 -31 -4 -38 -4c-83 0 -126 49 -146 72c-13 -11 -26 -21 -40 -30c-57 -37 -114 -43 -138 -43c-14 0 -48 2 -84 19c-36 16 -109 66 -109 175c0 54 17 96 51 137c17 20 32 32 39 37c24 18 51 29 75 47c-17 45 -33 80 -33 130c0 92 64 164 158 165
c80 -1 145 -58 145 -141c0 -19 -4 -39 -11 -57c-22 -52 -73 -87 -85 -96c-18 -12 -38 -23 -57 -34c17 -38 39 -76 61 -113c13 -22 25 -43 39 -65c15 29 31 63 47 130h77c-14 -97 -57 -166 -76 -197c10 -14 41 -52 97 -52c7 0 15 1 28 3zM283 443c81 35 111 86 111 127
c0 6 -1 18 -6 31c-10 24 -34 39 -61 39c-8 0 -19 -1 -34 -9c-40 -21 -43 -65 -43 -78c1 -23 9 -61 33 -110zM236 337c-24 -11 -35 -18 -46 -26c-55 -40 -67 -88 -67 -116c0 -8 1 -25 9 -45c19 -50 60 -82 115 -81c61 0 102 40 115 52c-26 37 -47 77 -70 115
c-33 56 -41 68 -56 101z" />
    <glyph glyph-name="quotesingle" unicode="'" horiz-adv-x="208" 
d="M115 434h-23l-39 245s-2 21 0 32c6 25 30 38 54 38c20 0 41 -11 47 -31c3 -11 3 -17 2 -27z" />
    <glyph glyph-name="parenleft" unicode="(" horiz-adv-x="313" 
d="M300 -126h-66c-27 37 -46 75 -65 116c-21 44 -82 176 -82 327c0 111 37 242 86 340c18 37 41 72 62 108h65c-28 -45 -60 -115 -78 -163c-14 -39 -54 -154 -54 -282c0 -144 54 -325 132 -446z" />
    <glyph glyph-name="parenright" unicode=")" horiz-adv-x="313" 
d="M13 765h65c31 -45 49 -82 58 -101c22 -43 89 -185 89 -343c0 -109 -34 -211 -45 -243c-11 -31 -46 -121 -102 -204h-65c37 62 68 136 75 154c49 126 57 240 57 290c-1 53 -8 103 -11 120c-19 110 -61 232 -121 327z" />
    <glyph glyph-name="asterisk" unicode="*" horiz-adv-x="375" 
d="M218 706v-118l114 36l17 -59l-114 -36l75 -93l-49 -40l-71 96l-67 -96l-51 33l71 100l-117 36l18 59l113 -36v118h61z" />
    <glyph glyph-name="plus" unicode="+" horiz-adv-x="667" 
d="M372 0h-80v251h-249v80h249v249h80v-249h252v-80h-252v-251z" />
    <glyph glyph-name="comma" unicode="," horiz-adv-x="229" 
d="M162 109v-51c-1 -86 -10 -135 -41 -214h-47c11 29 29 80 33 156h-44v109h99z" />
    <glyph glyph-name="hyphen" unicode="-" horiz-adv-x="292" 
d="M248 333v-76h-203v76h203z" />
    <glyph glyph-name="period" unicode="." horiz-adv-x="229" 
d="M163 113v-113h-99v113h99z" />
    <glyph glyph-name="slash" unicode="/" horiz-adv-x="333" 
d="M321 702l-231 -702h-77l233 702h75z" />
    <glyph glyph-name="zero" unicode="0" horiz-adv-x="583" 
d="M535 336c0 -161 -55 -251 -110 -296c-38 -31 -83 -46 -134 -46c-39 0 -77 10 -110 30c-66 41 -132 134 -132 308c0 28 -1 202 105 297c52 46 109 51 136 51c20 0 64 -3 110 -31c67 -41 136 -137 135 -313zM445 336c0 16 1 141 -53 214c-35 47 -75 51 -99 51
c-49 0 -77 -23 -90 -36c-10 -9 -24 -26 -37 -55c-22 -51 -28 -120 -28 -174c0 -18 -3 -135 50 -209c13 -19 43 -56 105 -55c11 0 40 1 66 18c71 47 86 173 86 246z" />
    <glyph glyph-name="one" unicode="1" horiz-adv-x="583" 
d="M357 674v-674h-94v493h-145v62c87 0 128 22 151 59c15 23 20 52 21 60h67z" />
    <glyph glyph-name="two" unicode="2" horiz-adv-x="583" 
d="M520 77v-77h-441l1 86c14 7 28 15 42 23c28 18 97 68 166 133c66 61 131 133 131 231c0 79 -47 129 -127 129c-55 0 -87 -23 -101 -41c-10 -14 -16 -31 -18 -36c-7 -24 -8 -48 -8 -56c0 -21 2 -40 12 -80h-88c-5 17 -12 41 -12 80c0 25 2 104 63 159c24 21 75 52 155 52
c24 0 90 -3 145 -50c47 -39 72 -102 72 -163c0 -51 -15 -122 -91 -207c-17 -20 -36 -39 -76 -74c-26 -21 -51 -43 -79 -63c-23 -16 -46 -31 -69 -46h323z" />
    <glyph glyph-name="three" unicode="3" horiz-adv-x="583" 
d="M40 223h90c1 -9 2 -41 12 -70c16 -43 53 -79 146 -79c27 0 147 1 147 121c0 37 -13 58 -23 70c-21 27 -59 43 -131 43c-20 0 -40 -1 -60 -3l1 81c76 -6 124 2 154 22c15 10 43 35 43 84c0 30 -11 50 -18 60c-26 38 -73 54 -118 54c-44 0 -83 -16 -108 -56
c-19 -32 -21 -67 -23 -102l-89 4c2 33 3 57 13 89c41 132 167 139 208 139c18 0 56 -1 100 -16c108 -38 125 -131 125 -172c0 -12 -2 -67 -32 -103c-14 -17 -31 -28 -50 -40c22 -10 33 -18 41 -24c23 -19 61 -62 61 -137c0 -25 -4 -81 -52 -129c-64 -66 -158 -65 -184 -65
c-40 0 -205 4 -245 161c-4 16 -7 34 -8 68z" />
    <glyph glyph-name="four" unicode="4" horiz-adv-x="583" 
d="M532 238v-76h-98v-162h-87v162h-305v81l322 431h70v-436h98zM347 238l4 302l-218 -302h214z" />
    <glyph glyph-name="five" unicode="5" horiz-adv-x="583" 
d="M94 674h383v-79h-315l-9 -177c24 20 70 55 149 54c45 0 76 -11 92 -18c86 -38 131 -128 131 -218c0 -97 -52 -192 -146 -227c-16 -6 -48 -15 -92 -15c-150 0 -209 98 -228 152c-5 15 -9 32 -12 64l89 6c1 -12 4 -28 14 -53c15 -39 38 -67 77 -82c10 -4 29 -10 57 -10
c20 0 43 4 61 12c38 16 87 60 87 156c0 18 -2 40 -7 56c-11 39 -41 74 -79 89c-12 4 -31 10 -60 10c-12 0 -47 -1 -77 -21c-4 -2 -11 -7 -19 -15c-24 -23 -30 -35 -37 -51h-81z" />
    <glyph glyph-name="six" unicode="6" horiz-adv-x="583" 
d="M509 506l-87 -12c-8 44 -26 84 -71 102c-8 3 -24 8 -46 8c-11 0 -55 -3 -87 -29c-14 -12 -35 -38 -50 -81c-17 -49 -17 -80 -20 -131c2 2 12 16 21 25c20 20 69 57 146 57c15 0 49 -1 86 -17c43 -19 126 -74 126 -200c0 -16 -1 -51 -16 -91c-33 -90 -111 -143 -208 -143
c-40 0 -126 10 -187 100c-32 49 -54 113 -54 235c0 25 1 118 32 199c10 28 22 51 41 73c25 32 56 55 95 67c12 4 39 12 74 12c15 0 44 -1 80 -14c78 -28 106 -85 125 -160zM439 222c-1 25 -5 40 -8 50c-12 38 -42 72 -80 85c-22 7 -40 7 -49 7c-7 0 -32 0 -55 -10
c-55 -22 -85 -77 -85 -134c0 -11 1 -32 10 -57c11 -28 47 -89 133 -89c19 0 38 4 55 11c55 24 79 82 79 137z" />
    <glyph glyph-name="seven" unicode="7" horiz-adv-x="583" 
d="M96 674h413v-97c-1 -37 -8 -47 -39 -99l-35 -61c-20 -36 -39 -72 -57 -109c-13 -27 -25 -54 -37 -81c-13 -30 -26 -60 -36 -91c-8 -24 -14 -48 -19 -72c-5 -21 -9 -42 -12 -64h-106c19 150 128 336 204 461l30 47c30 44 33 53 33 86h-267v-128h-72v208z" />
    <glyph glyph-name="eight" unicode="8" horiz-adv-x="583" 
d="M438 362c34 -21 95 -58 95 -159c0 -17 -1 -59 -25 -101c-27 -49 -88 -108 -216 -108c-29 0 -145 2 -207 96c-30 46 -33 90 -33 111c0 46 18 98 51 130c8 9 20 17 41 31c-52 35 -75 77 -75 139c0 52 18 84 30 102c31 43 85 77 194 77c70 0 145 -12 189 -74
c31 -42 32 -87 32 -105c0 -20 -2 -77 -50 -120c-9 -8 -16 -13 -26 -19zM424 502c0 13 -4 53 -38 77s-91 24 -98 24c-40 0 -87 -9 -113 -44c-12 -16 -17 -35 -17 -56c0 -9 1 -31 14 -53c17 -31 49 -53 120 -53c72 0 104 23 120 55c5 9 12 26 12 50zM440 204
c0 14 -2 55 -36 84c-38 34 -105 34 -115 34c-115 0 -146 -69 -146 -120c0 -12 1 -41 20 -69c39 -56 115 -57 131 -57c14 0 76 1 114 41c31 32 33 72 32 87z" />
    <glyph glyph-name="nine" unicode="9" horiz-adv-x="583" 
d="M73 162l87 16c1 -7 9 -38 25 -62c23 -33 57 -46 96 -46c16 0 57 3 92 36c47 46 66 136 66 198c-21 -27 -70 -86 -167 -86c-131 0 -220 95 -220 226c0 26 4 107 62 168c26 27 76 65 166 65c28 0 99 -2 158 -58c49 -47 87 -130 87 -276c0 -29 3 -175 -76 -272
c-8 -11 -28 -35 -59 -52c-22 -12 -57 -25 -115 -25c-32 0 -50 4 -63 8c-26 8 -79 32 -114 95c-8 14 -16 32 -25 65zM430 432c1 12 0 34 -8 61c-21 67 -72 109 -143 109c-41 0 -67 -15 -80 -25c-57 -41 -58 -122 -58 -138c0 -30 5 -48 11 -61c12 -29 48 -80 130 -80
c20 0 40 3 58 10c29 10 88 41 90 124z" />
    <glyph glyph-name="colon" unicode=":" 
d="M205 489v-112h-99v112h99zM205 113v-113h-99v113h99z" />
    <glyph glyph-name="semicolon" unicode=";" 
d="M206 490v-110h-99v110h99zM206 111v-61c0 -108 -18 -155 -39 -205l-45 1c15 54 25 98 25 154h-40v111h99z" />
    <glyph glyph-name="less" unicode="&#x3c;" horiz-adv-x="667" 
d="M667 -3l-667 313v86l667 313v-86l-567 -270l567 -270v-86z" />
    <glyph glyph-name="equal" unicode="=" horiz-adv-x="667" 
d="M667 162h-667v78h667v-78zM667 342h-667v79h667v-79z" />
    <glyph glyph-name="greater" unicode="&#x3e;" horiz-adv-x="667" 
d="M0 -3v86l567 270l-567 270v86l667 -313v-86z" />
    <glyph glyph-name="question" unicode="?" horiz-adv-x="562" 
d="M336 150h-79l1 236h27c6 0 64 1 98 19c20 10 32 24 37 31c22 29 23 58 23 71c0 34 -12 57 -19 68c-15 23 -59 62 -131 62c-59 0 -87 -24 -102 -43c-16 -19 -33 -52 -33 -107v-16h-87c0 87 23 131 49 162c23 28 80 79 176 79c28 0 94 -5 155 -55c68 -56 75 -129 75 -161
c0 -104 -67 -155 -102 -172c-27 -13 -60 -19 -88 -22v-152zM340 97v-97h-89v97h89z" />
    <glyph glyph-name="at" unicode="@" horiz-adv-x="896" 
d="M565 433l15 62h68l-33 -150c-9 -45 -29 -126 -28 -171c0 -31 13 -44 30 -44c29 0 57 32 59 34c32 34 93 127 93 257c0 16 0 63 -21 108c-54 123 -188 129 -224 129c-29 0 -90 -4 -158 -36c-146 -70 -241 -227 -241 -387c0 -20 1 -78 26 -133c53 -119 179 -171 301 -171
c57 0 156 9 269 90c21 15 32 24 66 56l32 -41c-35 -36 -62 -55 -80 -67c-42 -29 -144 -93 -286 -93c-83 0 -173 24 -243 71c-29 20 -53 43 -74 72c-29 38 -67 104 -67 216c0 53 10 175 97 292c44 59 159 185 365 185c29 0 108 -1 181 -51c46 -31 115 -101 115 -237
c0 -25 -3 -52 -4 -59c-5 -34 -23 -149 -104 -233c-12 -12 -60 -62 -124 -62c-49 0 -69 30 -76 49c-4 11 -6 17 -7 36c-11 -15 -20 -25 -25 -31c-32 -31 -72 -53 -117 -53c-9 0 -32 1 -55 12c-37 18 -76 60 -76 150s38 191 111 247c11 9 50 38 100 37c21 0 67 -5 99 -53
c5 -7 9 -15 16 -31zM540 348c2 80 -49 106 -83 106c-31 -1 -53 -18 -61 -24c-53 -42 -78 -129 -78 -193c0 -77 44 -101 80 -101c14 0 35 4 61 23c74 57 81 171 81 189z" />
    <glyph glyph-name="A" unicode="A" horiz-adv-x="646" 
d="M458 216h-269l-79 -216h-100l269 706h98l257 -706h-99zM430 295l-103 295l-108 -295h211z" />
    <glyph glyph-name="B" unicode="B" horiz-adv-x="688" 
d="M77 706h332c57 -1 107 -12 152 -51c39 -33 58 -78 58 -130c0 -46 -15 -86 -48 -118c-15 -14 -32 -24 -38 -27c-4 -2 -11 -5 -22 -8c20 -6 38 -14 56 -25c30 -21 74 -64 73 -152c0 -127 -90 -170 -135 -183c-42 -13 -72 -11 -152 -12h-276v706zM166 623v-214h148
c59 0 107 1 129 7c26 6 77 31 77 104c0 19 -1 59 -44 85c-28 17 -50 18 -109 18h-201zM166 329v-246h209c39 0 71 2 85 6c6 1 21 5 36 14c21 13 47 39 47 99c0 9 0 30 -9 51c-8 19 -31 58 -85 70c-31 7 -52 5 -110 6h-173z" />
    <glyph glyph-name="C" unicode="C" horiz-adv-x="750" 
d="M728 508l-95 -19c-12 34 -23 53 -32 66c-25 35 -85 94 -196 94c-17 0 -60 -2 -103 -20c-148 -63 -149 -232 -149 -271c0 -170 81 -250 150 -279c18 -7 52 -18 103 -18c12 0 40 0 72 9c28 8 94 35 133 108c11 21 20 44 29 90l102 -12c-2 -10 -7 -31 -17 -56
c-18 -46 -79 -161 -218 -202c-50 -15 -94 -16 -113 -16c-125 0 -196 50 -234 85c-47 44 -111 132 -111 286c0 220 133 371 357 371c40 0 173 -3 260 -105c29 -34 47 -70 62 -111z" />
    <glyph glyph-name="D" unicode="D" horiz-adv-x="708" 
d="M78 706h280c36 -1 114 -2 190 -66c54 -46 110 -129 110 -288c0 -39 -3 -83 -12 -121c-12 -50 -53 -177 -203 -218c-31 -9 -56 -12 -118 -12c-23 0 -46 0 -68 -1h-179v706zM175 623v-541h167c26 1 105 3 159 66c32 36 61 98 61 205c0 65 -12 144 -55 197
c-11 13 -22 24 -35 33c-26 19 -48 26 -60 29c-33 10 -60 11 -126 11h-111z" />
    <glyph glyph-name="E" unicode="E" horiz-adv-x="604" 
d="M169 323v-241h408v-82h-498v706h486v-83h-396v-218h344v-82h-344z" />
    <glyph glyph-name="F" unicode="F" horiz-adv-x="542" 
d="M172 332v-332h-94v706h453v-84h-359v-208h334v-82h-334z" />
    <glyph glyph-name="G" unicode="G" horiz-adv-x="812" 
d="M741 373v-373h-82v99c-6 -8 -13 -19 -28 -35c-36 -34 -109 -82 -230 -82c-57 0 -110 10 -161 34c-71 34 -190 127 -190 328c0 46 6 167 96 268c41 45 119 112 268 112c21 0 74 -1 130 -21c36 -12 111 -45 168 -131c11 -17 20 -34 29 -53l-98 -25c-10 29 -23 55 -45 79
c-61 70 -155 73 -181 73c-107 0 -163 -49 -191 -81c-30 -34 -72 -101 -72 -210c0 -31 2 -116 55 -191c29 -40 85 -100 206 -100c26 0 93 3 156 46c87 60 89 147 88 184h-246v79h328z" />
    <glyph glyph-name="H" unicode="H" horiz-adv-x="729" 
d="M556 323h-384v-323h-93v706h93v-300h384v300h95v-706h-95v323z" />
    <glyph glyph-name="I" unicode="I" horiz-adv-x="229" 
d="M162 706v-706h-95v706h95z" />
    <glyph glyph-name="J" unicode="J" horiz-adv-x="375" 
d="M297 706v-519c0 -56 0 -99 -38 -143c-53 -62 -128 -62 -154 -62c-23 0 -49 1 -96 10v103l12 -6c22 -10 48 -14 71 -14c7 0 16 0 31 2c25 5 47 13 62 35c16 24 16 56 16 116v478h96z" />
    <glyph glyph-name="K" unicode="K" horiz-adv-x="625" 
d="M261 348l-100 -102v-246h-94v706h94v-345l335 345h116l-286 -292l298 -414h-115z" />
    <glyph glyph-name="L" unicode="L" horiz-adv-x="521" 
d="M162 84h342v-84h-436v706h94v-622z" />
    <glyph glyph-name="M" unicode="M" horiz-adv-x="812" 
d="M746 706v-706h-94l13 592l-223 -592h-73l-219 583l10 -583h-92v706h122l216 -579l218 579h122z" />
    <glyph glyph-name="N" unicode="N" horiz-adv-x="708" 
d="M630 706v-706h-85l-387 574l9 -574h-89v706h89l382 -566l-4 566h85z" />
    <glyph glyph-name="O" unicode="O" horiz-adv-x="812" 
d="M762 359c0 -37 -3 -150 -74 -246c-39 -52 -124 -131 -284 -131c-43 0 -152 4 -243 90c-47 43 -110 129 -110 282c0 40 2 162 88 259c67 75 170 111 268 111c48 0 96 -8 140 -25c147 -57 215 -190 215 -340zM660 359c0 25 -1 121 -55 196c-66 89 -160 93 -198 93
c-115 -1 -173 -58 -200 -97c-39 -56 -54 -133 -54 -198c0 -93 28 -156 47 -187c17 -26 37 -46 45 -53c29 -25 55 -36 68 -41c19 -7 48 -16 96 -16c18 0 62 1 107 21c68 31 145 113 144 282z" />
    <glyph glyph-name="P" unicode="P" horiz-adv-x="625" 
d="M167 299v-299h-91v706h305c55 1 102 0 149 -30c79 -50 84 -142 84 -169c0 -90 -45 -174 -137 -199c-25 -7 -52 -9 -106 -9h-204zM167 383h197c26 0 51 -1 76 5c57 15 81 66 81 121c0 7 0 27 -7 47c-12 33 -39 55 -72 64c-21 5 -36 5 -57 5h-218v-242z" />
    <glyph glyph-name="Q" unicode="Q" horiz-adv-x="812" 
d="M697 128l109 -94l-60 -70l-112 95c-73 -54 -139 -77 -231 -77c-85 0 -163 22 -230 77c-51 42 -126 132 -126 294c0 50 7 209 143 306c39 28 105 65 218 65c86 0 162 -20 230 -75c53 -44 124 -134 124 -299c0 -87 -18 -148 -65 -222zM661 353c0 30 -1 118 -54 196
c-66 94 -160 102 -202 102c-34 0 -113 -6 -178 -74c-77 -82 -77 -187 -77 -221c0 -36 1 -164 98 -244c25 -21 76 -54 160 -54c35 0 122 6 187 83c67 81 66 180 66 212z" />
    <glyph glyph-name="R" unicode="R" horiz-adv-x="667" 
d="M170 300v-300h-92v706h263c22 0 45 1 67 0c98 -4 144 -35 174 -71c19 -23 43 -65 43 -135c0 -29 -4 -125 -94 -171c-17 -9 -34 -16 -72 -23l198 -306h-112l-193 300h-182zM170 379h188c53 0 116 -1 152 48c16 22 22 46 22 73c0 20 -2 75 -56 108c-37 22 -81 20 -123 20
h-183v-249z" />
    <glyph glyph-name="S" unicode="S" horiz-adv-x="667" 
d="M606 507l-95 -6c-1 14 -3 28 -7 42c-14 50 -59 108 -175 108c-45 0 -106 -10 -137 -47c-15 -17 -24 -41 -24 -64c0 -10 2 -32 17 -52c27 -37 82 -48 123 -58l78 -19c18 -5 37 -9 55 -14c22 -5 108 -24 151 -96c10 -17 26 -48 26 -98c0 -28 -4 -91 -59 -145
c-39 -38 -103 -76 -223 -76c-23 0 -119 1 -193 49c-22 14 -42 33 -57 53c-42 56 -47 120 -49 142l101 13c1 -21 3 -80 48 -127c25 -26 72 -56 155 -56c10 0 37 0 65 8c30 8 110 36 111 133c-1 47 -20 67 -36 80c-28 22 -65 30 -98 37l-61 13c-51 11 -108 23 -155 49
c-85 46 -96 110 -96 152c0 56 25 102 67 138c72 59 160 58 189 58c68 0 134 -11 189 -53c33 -25 49 -49 57 -63c19 -32 27 -65 33 -101z" />
    <glyph glyph-name="T" unicode="T" horiz-adv-x="542" 
d="M317 624v-624h-94v624h-212v82h517v-82h-211z" />
    <glyph glyph-name="U" unicode="U" horiz-adv-x="688" 
d="M611 706v-451c0 -7 0 -49 -6 -82c-7 -32 -28 -100 -103 -148c-29 -18 -81 -43 -164 -43c-37 0 -79 6 -115 19c-64 25 -116 77 -137 143c-10 34 -11 59 -10 125v437h94v-424c0 -27 -1 -55 3 -82c2 -16 10 -63 46 -97c17 -16 37 -27 59 -34c25 -7 53 -7 61 -7
c17 0 62 0 105 28c70 45 72 121 72 194v422h95z" />
    <glyph glyph-name="V" unicode="V" horiz-adv-x="604" 
d="M492 706h100l-249 -706h-93l-239 706h100l187 -590z" />
    <glyph glyph-name="W" unicode="W" horiz-adv-x="1021" 
d="M906 706h97l-216 -706h-92l-186 585l-180 -585h-94l-217 706h99l167 -585l179 585h92l186 -585z" />
    <glyph glyph-name="X" unicode="X" horiz-adv-x="625" 
d="M364 370l241 -370h-111l-183 287l-181 -287h-109l235 370l-222 336h112l165 -254l158 254h111z" />
    <glyph glyph-name="Y" unicode="Y" horiz-adv-x="625" 
d="M357 323v-323h-95v323l-248 383h111l186 -299l188 299h112z" />
    <glyph glyph-name="Z" unicode="Z" horiz-adv-x="604" 
d="M561 706v-88l-434 -533h444v-85h-553v92l436 528h-401v86h508z" />
    <glyph glyph-name="bracketleft" unicode="[" horiz-adv-x="313" 
d="M198 683v-734h104v-60h-188v856h188v-62h-104z" />
    <glyph glyph-name="backslash" unicode="\" horiz-adv-x="354" 
d="M248 0l-222 706h80l222 -706h-80z" />
    <glyph glyph-name="bracketright" unicode="]" horiz-adv-x="313" 
d="M115 -49v733h-104v61h187v-856h-187v62h104z" />
    <glyph glyph-name="asciicircum" unicode="^" horiz-adv-x="729" 
d="M587 336h-97l-124 260l-128 -260h-96l188 370h77z" />
    <glyph glyph-name="underscore" unicode="_" horiz-adv-x="500" 
d="M510 -216h-520v79h520v-79z" />
    <glyph glyph-name="grave" unicode="`" 
d="M45 665l42 -144h-48l-83 144h89z" />
    <glyph glyph-name="a" unicode="a" horiz-adv-x="500" 
d="M139 326l-83 5c0 9 2 26 8 46c15 45 59 109 173 109c14 0 40 -1 74 -10c19 -5 82 -24 105 -88c9 -25 10 -49 10 -101v-154c0 -10 0 -21 1 -31c1 -11 2 -36 35 -36c10 0 15 2 24 4v-67c-24 -8 -38 -9 -51 -9c-4 0 -32 0 -50 12c-8 6 -14 15 -16 18c-13 18 -14 30 -16 40
c-22 -24 -70 -77 -161 -77c-32 0 -53 6 -65 10c-56 19 -95 64 -95 125c0 22 6 67 51 102c44 33 101 40 115 43c25 4 50 8 76 10c24 2 49 2 72 5c0 13 0 26 -1 39c-2 34 -8 104 -104 104c-15 0 -78 0 -97 -57c-5 -15 -5 -26 -5 -42zM346 230c-22 -4 -45 -6 -67 -10
c-16 -3 -31 -6 -47 -10c-11 -2 -22 -4 -33 -7c-8 -2 -79 -18 -79 -79c0 -19 7 -31 11 -37c11 -16 34 -33 78 -33c15 0 57 0 92 29c47 37 46 90 46 109c0 13 -1 26 -1 38z" />
    <glyph glyph-name="b" unicode="b" horiz-adv-x="562" 
d="M145 706v-300c4 6 11 15 22 27c38 36 89 53 140 53c32 0 102 -5 159 -71c27 -32 58 -84 58 -179c0 -26 0 -106 -51 -173c-28 -37 -58 -53 -74 -60s-47 -18 -93 -18c-56 0 -87 16 -108 28c-22 13 -38 27 -53 48v-61h-80v706h80zM143 234c0 -52 11 -84 22 -104
c13 -26 49 -77 128 -77c27 0 54 6 76 21c33 22 70 73 70 165c0 15 1 60 -22 101c-14 24 -50 73 -124 73c-57 0 -89 -27 -104 -43c-24 -25 -45 -62 -46 -136z" />
    <glyph glyph-name="c" unicode="c" horiz-adv-x="521" 
d="M485 328l-88 -8c-2 8 -6 33 -20 55c-33 51 -89 53 -108 53c-72 0 -142 -48 -142 -191c0 -83 27 -130 54 -156c27 -25 58 -34 94 -34c21 0 41 3 60 12c52 23 65 69 73 119l86 -8c-13 -79 -54 -123 -79 -143c-54 -42 -121 -42 -142 -42c-14 0 -51 0 -89 14
c-57 20 -145 83 -145 233c1 151 83 218 143 240c38 14 70 14 86 14c125 0 182 -68 204 -116c7 -15 10 -26 13 -42z" />
    <glyph glyph-name="d" unicode="d" horiz-adv-x="562" 
d="M497 706v-706h-80v60c-24 -28 -68 -75 -161 -75c-90 0 -136 43 -159 71c-27 32 -58 86 -58 181c0 60 11 116 48 165c21 29 73 84 168 84c67 0 114 -31 134 -47c12 -10 19 -18 28 -30v297h80zM274 413c-21 0 -71 -3 -109 -49c-32 -38 -40 -82 -40 -130
c0 -18 -1 -78 36 -127c38 -49 88 -51 111 -51c28 0 54 6 76 20c35 22 72 70 71 160c0 9 0 36 -6 61c-16 68 -68 115 -139 116z" />
    <glyph glyph-name="e" unicode="e" horiz-adv-x="521" 
d="M483 222l-358 -1c-1 -84 39 -132 68 -152c24 -16 55 -24 85 -24c43 0 65 16 79 29c5 4 17 16 26 31c12 21 17 44 19 50l81 -11c-4 -10 -13 -38 -31 -66c-24 -36 -76 -93 -182 -93c-49 0 -81 11 -99 19c-58 25 -132 89 -132 236c0 87 29 136 53 165c43 52 108 81 175 81
c24 0 52 -5 74 -13c29 -10 87 -38 119 -112c13 -31 23 -68 23 -139zM127 279h269c-2 24 -4 35 -7 46c-16 58 -66 99 -128 99c-85 0 -127 -70 -134 -145z" />
    <glyph glyph-name="f" unicode="f" 
d="M167 471h89v-66h-89v-405h-78v405h-78v66h78v41c2 64 0 94 12 124c25 64 94 65 112 65c10 0 31 -1 58 -6l-1 -63c-3 1 -26 5 -43 5c-9 0 -37 0 -51 -27c-8 -14 -9 -26 -9 -57v-82z" />
    <glyph glyph-name="g" unicode="g" horiz-adv-x="562" 
d="M497 471v-446c0 -64 -1 -88 -11 -122c-26 -88 -94 -112 -126 -121c-16 -4 -43 -11 -82 -11c-14 0 -43 1 -79 11c-114 31 -130 121 -136 164h90c0 -11 0 -39 20 -65c34 -46 94 -45 110 -45c11 0 81 -1 111 48c19 29 20 63 20 130l-1 54c-54 -74 -116 -83 -154 -83
c-48 0 -84 15 -99 24c-51 26 -119 90 -119 224c0 22 1 107 49 171c40 52 105 82 170 82c12 0 36 -1 64 -12c21 -7 55 -26 90 -67v64h83zM266 414c-21 -1 -43 -5 -61 -14c-38 -19 -82 -68 -82 -165c0 -54 13 -114 59 -150c26 -20 57 -28 90 -28c48 0 75 18 90 31
c29 26 55 70 55 154c0 9 0 43 -10 72c-20 64 -76 100 -141 100z" />
    <glyph glyph-name="h" unicode="h" horiz-adv-x="521" 
d="M66 706h80l1 -282c54 58 109 62 142 62c63 0 100 -22 120 -40c4 -4 11 -11 20 -24c31 -45 29 -96 29 -149v-273h-81v249c0 32 2 74 -9 105c-15 42 -52 62 -95 62c-20 0 -74 -6 -105 -59c-23 -41 -21 -85 -22 -128v-229h-80v706z" />
    <glyph glyph-name="i" unicode="i" horiz-adv-x="208" 
d="M146 706v-92h-77v92h77zM146 471v-471h-77v471h77z" />
    <glyph glyph-name="j" unicode="j" horiz-adv-x="208" 
d="M143 706v-93h-78v93h78zM143 471v-575c0 -35 0 -68 -25 -95c-31 -33 -75 -30 -89 -30c-17 0 -35 2 -52 4v71c19 -2 25 -3 36 -3c5 0 22 0 36 10c16 11 16 29 16 65v553h78z" />
    <glyph glyph-name="k" unicode="k" horiz-adv-x="458" 
d="M257 285l215 -285h-100l-169 226l-57 -60v-166h-81v706h81v-435l188 200h98z" />
    <glyph glyph-name="l" unicode="l" horiz-adv-x="208" 
d="M143 706v-706h-76v706h76z" />
    <glyph glyph-name="m" unicode="m" horiz-adv-x="771" 
d="M139 471l1 -63c10 12 18 20 30 31c33 29 65 47 111 47c16 0 64 -4 98 -44c12 -13 20 -28 29 -43c6 5 11 11 16 16c14 14 68 71 142 71c59 -1 96 -37 109 -52c34 -40 31 -89 32 -139v-295h-79v276c1 46 7 99 -43 125c-6 3 -23 10 -43 10c-46 -1 -99 -33 -113 -78
c-5 -15 -5 -34 -6 -68v-265h-78v265c0 44 8 101 -36 130c-8 6 -25 15 -51 15c-5 0 -16 0 -29 -4c-32 -8 -71 -33 -83 -66c-6 -15 -6 -29 -7 -60v-280h-75v471h75z" />
    <glyph glyph-name="n" unicode="n" horiz-adv-x="521" 
d="M144 471v-69c10 17 20 28 25 33c17 18 58 51 123 51c21 0 92 -6 134 -65c31 -43 29 -89 29 -140v-281h-79v300c0 14 4 60 -36 90c-12 9 -34 21 -71 21c-35 0 -63 -11 -88 -35c-6 -6 -20 -21 -28 -43c-9 -22 -9 -42 -9 -65v-268h-80v471h80z" />
    <glyph glyph-name="o" unicode="o" horiz-adv-x="542" 
d="M502 235c0 -26 -3 -106 -55 -171c-26 -31 -77 -79 -175 -79c-28 0 -106 3 -163 62c-30 30 -69 87 -69 186c0 61 16 122 54 171c46 59 107 82 181 82c32 0 66 -6 94 -18c55 -23 135 -90 133 -233zM416 236c0 13 1 74 -24 120c-7 13 -18 27 -29 36c-34 29 -71 30 -86 30
c-151 0 -150 -165 -150 -192c0 -23 3 -41 4 -48c5 -34 29 -133 141 -133c22 1 76 5 112 59c30 45 31 118 32 128z" />
    <glyph glyph-name="p" unicode="p" horiz-adv-x="562" 
d="M65 471h78l1 -67c6 7 20 24 40 39c49 38 108 43 127 43c48 0 83 -18 99 -27c49 -27 113 -92 113 -225c0 -26 0 -104 -51 -170c-25 -32 -73 -79 -170 -79c-23 0 -84 2 -136 46c-6 5 -13 12 -23 24v-279h-78v695zM288 411c-26 -1 -53 -9 -74 -23c-33 -22 -71 -70 -71 -161
c0 -65 19 -99 37 -123c13 -16 30 -29 49 -37c11 -5 31 -12 62 -12c69 0 98 30 115 54c35 49 35 110 35 128c0 10 0 46 -12 79c-11 30 -47 99 -141 95z" />
    <glyph glyph-name="q" unicode="q" horiz-adv-x="562" 
d="M497 471v-696h-81v281c-12 -15 -20 -22 -27 -27c-39 -32 -87 -44 -135 -44c-75 0 -114 26 -139 48c-76 66 -75 168 -75 196c0 63 14 134 56 184c7 9 23 25 47 41c19 11 57 32 112 32c25 0 85 -5 135 -53c8 -8 15 -15 26 -32v70h81zM274 411c-14 1 -52 0 -86 -24
c-50 -36 -61 -96 -61 -153c0 -17 -3 -104 54 -152c36 -30 77 -32 93 -32c14 0 43 1 74 18c37 19 74 61 74 151c0 18 0 87 -38 138c-5 7 -22 28 -48 41c-10 5 -31 13 -62 13z" />
    <glyph glyph-name="r" unicode="r" horiz-adv-x="313" 
d="M145 471v-86c11 21 25 40 44 54c19 16 56 38 117 38v-86c-29 4 -45 3 -59 0c-47 -8 -83 -40 -95 -86c-7 -24 -8 -41 -7 -87v-218h-80v471h80z" />
    <glyph glyph-name="s" unicode="s" horiz-adv-x="479" 
d="M435 331l-86 -10c-1 23 -2 33 -7 44c-12 26 -51 60 -119 60c-65 0 -93 -39 -93 -69c0 -6 1 -14 7 -25c15 -25 51 -36 107 -49l46 -11c14 -4 29 -8 43 -12c62 -19 114 -53 114 -125c0 -12 -3 -42 -21 -71c-25 -37 -78 -78 -178 -78c-14 0 -88 1 -140 34
c-8 5 -20 13 -34 30c-34 41 -40 85 -43 103l91 13c0 -31 3 -58 26 -83c28 -31 66 -36 105 -36c10 0 57 -1 88 27c21 19 22 41 22 52c0 5 0 22 -9 35c-16 27 -63 35 -89 40l-46 9c-59 13 -86 22 -111 37c-38 23 -57 55 -57 100c0 14 2 46 25 77c48 63 141 63 158 63
c99 0 153 -49 176 -83c19 -29 23 -59 25 -72z" />
    <glyph glyph-name="t" unicode="t" horiz-adv-x="292" 
d="M174 471h85v-66h-85v-270c-1 -33 -2 -52 6 -66c6 -11 16 -14 29 -14c9 0 28 3 50 11v-66c-6 -1 -45 -8 -76 -8c-45 0 -68 11 -80 29s-12 37 -11 78v306h-76v66h76v149h82v-149z" />
    <glyph glyph-name="u" unicode="u" horiz-adv-x="521" 
d="M65 471h79v-268c0 -50 -1 -72 11 -95c9 -20 35 -45 86 -45c44 0 88 17 112 54c25 37 22 77 23 118v236h78v-471h-78l-1 72c-6 -8 -15 -19 -22 -27c-20 -19 -65 -57 -139 -57c-51 0 -102 20 -128 67c-24 43 -21 95 -21 140v276z" />
    <glyph glyph-name="v" unicode="v" horiz-adv-x="437" 
d="M344 471h82l-170 -471h-72l-172 471h83l125 -361z" />
    <glyph glyph-name="w" unicode="w" horiz-adv-x="729" 
d="M401 471l111 -350l123 350h84l-173 -471h-70l-113 351l-115 -351h-73l-164 471h86l118 -350l116 350h70z" />
    <glyph glyph-name="x" unicode="x" horiz-adv-x="396" 
d="M297 471h90l-142 -232l142 -239h-90l-100 168l-98 -168h-90l146 239l-139 232h92l94 -162z" />
    <glyph glyph-name="y" unicode="y" horiz-adv-x="437" 
d="M425 471l-198 -557c-8 -22 -19 -54 -30 -74c-27 -53 -57 -73 -117 -73c-16 0 -39 1 -71 10v72c11 -3 26 -8 51 -8c7 0 27 -1 44 10c28 18 40 61 50 88l20 58l-160 474h85l118 -374l125 374h83z" />
    <glyph glyph-name="z" unicode="z" horiz-adv-x="417" 
d="M383 471v-64l-274 -341h280v-66h-376v66l271 336h-245v69h344z" />
    <glyph glyph-name="braceleft" unicode="{" horiz-adv-x="354" 
d="M140 414v168c1 21 -3 123 87 154c25 10 48 9 99 12l-1 -6c-9 -3 -19 -5 -28 -9c-44 -15 -58 -46 -64 -64c-8 -25 -7 -44 -8 -94v-98c0 -92 2 -142 -21 -182c-20 -34 -53 -42 -65 -46c16 -6 53 -17 72 -60c17 -36 15 -77 15 -157v-110c1 -60 2 -84 18 -113
c19 -34 46 -42 82 -53l-1 -6c-13 1 -26 1 -39 2c-19 1 -95 1 -128 68c-19 39 -17 84 -18 125v129c0 15 1 29 0 43c0 12 4 89 -50 121c-6 3 -9 5 -21 9v6c22 5 33 13 41 21c33 33 29 100 30 140z" />
    <glyph glyph-name="bar" unicode="|" horiz-adv-x="229" 
d="M155 -250h-81v998h81v-998z" />
    <glyph glyph-name="braceright" unicode="}" horiz-adv-x="354" 
d="M215 83v-125c-1 -18 -1 -36 -1 -53c-1 -19 -1 -102 -71 -138c-31 -15 -53 -14 -114 -17v6c21 5 78 15 94 81c5 21 5 42 6 86v98c1 91 -2 142 21 182c20 33 53 42 65 46c-8 3 -32 10 -52 29c-37 39 -34 89 -35 187v110c0 40 2 83 -21 119c-20 31 -45 38 -78 48v6
c11 -1 23 -2 34 -2c14 -1 65 0 103 -31c50 -39 47 -108 48 -163v-129c0 -22 -1 -45 1 -67c2 -36 13 -71 44 -93c8 -5 12 -7 26 -12v-6c-8 -2 -24 -6 -39 -20c-35 -33 -31 -102 -31 -142z" />
    <glyph glyph-name="asciitilde" unicode="~" horiz-adv-x="729" 
d="M367 247l-28 14c-5 2 -47 24 -81 24c-46 0 -69 -36 -94 -67l-40 72c12 17 55 84 133 84c40 -1 76 -18 111 -34l33 -15c22 -10 45 -21 70 -21c41 0 76 39 81 44c6 6 10 12 15 18l38 -72c-7 -8 -20 -25 -44 -43c-12 -10 -46 -36 -93 -36c-31 1 -50 8 -101 32z" />
    <glyph glyph-name="exclamdown" unicode="&#xa1;" 
d="M156 0h-79v288l24 271h31l24 -282v-277zM156 616h-79v90h79v-90z" />
    <glyph glyph-name="sterling" unicode="&#xa3;" horiz-adv-x="667" 
d="M560 178l93 -6c-5 -65 -37 -139 -99 -170c-14 -7 -34 -14 -69 -14c-22 0 -55 2 -104 19c-28 10 -55 25 -82 36c-12 -9 -23 -19 -36 -27c-29 -19 -70 -31 -105 -31c-11 0 -25 2 -36 5c-63 16 -76 62 -76 87c0 7 1 26 13 44c13 20 42 43 96 43c17 0 56 -3 100 -18
c1 5 3 12 2 22c-2 27 -15 60 -17 65c-11 24 -21 39 -27 48h-177v65l131 1c-48 78 -61 121 -61 167c0 24 5 75 46 122c72 83 186 88 216 88c23 0 90 -2 150 -42c33 -22 94 -77 97 -183l-105 -10c1 7 3 25 -1 46c-7 40 -39 117 -148 117c-10 0 -32 -1 -58 -9
c-28 -10 -89 -38 -89 -120c0 -73 41 -117 77 -177h209v-65h-173c12 -36 21 -54 21 -93c0 -13 -2 -41 -11 -76c4 -2 9 -5 13 -8c8 -4 64 -33 111 -33c64 0 98 48 99 107zM227 77c-12 5 -24 8 -36 11c-2 1 -20 6 -34 6c-10 0 -21 -2 -28 -12c-1 -1 -4 -7 -4 -12
c0 -10 10 -24 32 -24c15 0 42 6 70 31z" />
    <glyph glyph-name="currency" unicode="&#xa4;" horiz-adv-x="667" 
d="M548 183l77 -76l-62 -60l-76 76c-25 -18 -73 -50 -154 -50c-82 0 -129 33 -155 51l-76 -76l-60 61l76 75c-18 26 -51 75 -51 157c0 43 11 87 32 124c6 10 12 20 19 29l-75 76l60 60l75 -75c25 17 75 51 156 51c20 0 71 -3 121 -29c14 -8 32 -21 34 -22l75 75l61 -60
l-76 -76c19 -26 50 -73 50 -155c0 -20 -1 -62 -23 -109c-9 -20 -15 -28 -28 -47zM519 340c0 22 -2 69 -38 116c-19 24 -65 72 -147 71c-13 0 -39 -1 -69 -12c-75 -28 -118 -97 -118 -176c0 -106 83 -187 188 -187c37 0 72 9 102 30c29 19 82 67 82 158z" />
    <glyph glyph-name="brokenbar" unicode="&#xa6;" horiz-adv-x="229" 
d="M74 190h81v-381h-81v381zM74 308v381h81v-381h-81z" />
    <glyph glyph-name="section" unicode="&#xa7;" horiz-adv-x="625" 
d="M265 552l75 -28c15 -5 30 -10 44 -17c16 -6 32 -14 47 -21c12 -6 25 -11 37 -18c25 -13 121 -62 121 -171c0 -61 -32 -101 -45 -117c-21 -24 -38 -34 -49 -40c8 -7 12 -10 19 -18c28 -32 31 -66 31 -83c0 -36 -17 -65 -23 -75c-23 -35 -79 -86 -182 -86
c-43 0 -94 8 -180 43c-27 12 -54 24 -81 38l40 74c27 -18 117 -76 224 -76c71 0 103 36 103 72c0 11 -3 21 -9 31c-17 30 -54 41 -83 52l-64 28c-38 15 -76 33 -113 52c-72 38 -140 87 -140 178c0 69 40 120 94 154c-25 27 -41 50 -41 89c1 63 57 158 207 158
c38 0 70 -7 83 -10c32 -8 88 -28 160 -63l-41 -71c-11 7 -23 14 -35 21c-20 11 -91 50 -169 50c-74 0 -114 -34 -114 -71c0 -6 0 -13 6 -24c15 -30 49 -40 78 -51zM329 222l86 -39c41 16 87 55 87 105c-1 59 -62 92 -72 98c-46 27 -107 50 -155 70l-64 26
c-9 -4 -83 -37 -83 -102c0 -25 13 -49 31 -65c34 -32 129 -74 170 -93z" />
    <glyph glyph-name="dieresis" unicode="&#xa8;" 
d="M-2 644v-103h-87v103h87zM196 644v-103h-89v103h89z" />
    <glyph glyph-name="copyright" unicode="&#xa9;" horiz-adv-x="833" 
d="M773 351c-1 -42 -9 -143 -88 -234c-67 -77 -165 -120 -268 -120c-101 0 -197 42 -265 116c-84 92 -91 197 -91 241c0 118 52 193 81 228c37 43 125 127 276 127c38 0 127 -5 212 -69c47 -35 144 -128 143 -289zM740 352c0 36 -4 117 -64 197c-32 43 -113 128 -258 128
c-34 0 -115 -5 -192 -62c-43 -31 -133 -115 -133 -262c0 -43 8 -84 24 -123c49 -122 169 -201 301 -201c33 0 71 7 103 17c133 44 218 167 219 306zM613 502l-56 -53c-17 19 -58 67 -133 67c-12 0 -39 -1 -68 -14c-59 -27 -91 -85 -91 -148c0 -11 2 -39 15 -69
c25 -57 83 -92 146 -92c73 0 114 46 131 65l56 -49c-69 -83 -147 -91 -190 -91s-74 10 -90 16c-92 35 -146 122 -146 220c0 137 102 238 238 238c56 0 108 -18 151 -53c11 -10 18 -16 37 -37z" />
    <glyph glyph-name="guillemotleft" unicode="&#xab;" horiz-adv-x="396" 
d="M334 141l-134 113v83l134 116v-89l-80 -71l80 -66v-86zM177 137l-135 113v85l135 117v-91l-78 -68l78 -67v-89z" />
    <glyph glyph-name="logicalnot" unicode="&#xac;" horiz-adv-x="667" 
d="M587 253h-587v79h667v-332h-80v253z" />
    <glyph glyph-name="registered" unicode="&#xae;" horiz-adv-x="833" 
d="M595 131l-92 1c-18 39 -20 77 -26 118c-7 41 -14 58 -35 70c-19 11 -30 12 -68 13h-28v-202h-80v449h146c54 0 116 3 153 -45c8 -10 24 -35 24 -70c0 -22 -7 -70 -61 -96c-7 -3 -16 -7 -32 -11c14 -6 22 -10 27 -14c34 -26 36 -70 42 -107c9 -55 17 -82 30 -106zM346 396
h67c9 0 18 0 27 1c25 2 50 10 62 34c2 3 7 15 7 28c0 8 -3 37 -28 51c-13 6 -30 9 -60 9c-7 0 -15 -1 -23 -1h-52v-122zM773 351c0 -43 -9 -140 -85 -229c-94 -112 -221 -125 -271 -125c-79 0 -156 26 -218 73c-46 36 -138 126 -138 284c0 118 52 193 81 228
c37 43 125 127 276 127c113 0 217 -50 286 -143c47 -63 70 -137 69 -215zM741 352c0 35 -5 116 -63 195c-32 43 -114 130 -260 130c-34 0 -115 -5 -192 -62c-43 -31 -133 -115 -133 -262c0 -43 8 -84 24 -123c49 -122 169 -201 301 -201c20 0 60 2 109 19
c130 46 213 168 214 304z" />
    <glyph glyph-name="degree" unicode="&#xb0;" horiz-adv-x="354" 
d="M177 755c90 0 161 -72 161 -161c0 -13 -1 -39 -15 -69c-26 -56 -84 -93 -146 -93c-90 1 -161 73 -161 162s72 161 161 161zM177 675c-44 0 -79 -36 -79 -79c0 -44 36 -79 79 -79c44 0 79 35 79 79c0 43 -35 79 -79 79z" />
    <glyph glyph-name="plusminus" unicode="&#xb1;" horiz-adv-x="667" 
d="M374 135h-79v242h-254v79h254v242h79v-242h251v-79h-251v-242zM625 0h-584v79h584v-79z" />
    <glyph glyph-name="acute" unicode="&#xb4;" 
d="M151 666l-86 -144h-41l41 144h86z" />
    <glyph glyph-name="mu" unicode="&#xb5;" horiz-adv-x="562" 
d="M504 140l28 1c9 -22 14 -46 14 -69c0 -12 -2 -83 -68 -83c-39 0 -61 29 -68 39c-14 19 -18 35 -21 44c-48 -73 -111 -87 -146 -87c-40 0 -76 18 -102 48c-9 9 -10 12 -14 18c-2 -31 -7 -101 30 -178c8 -16 18 -30 27 -45s19 -30 19 -48c0 -24 -18 -42 -43 -42
c-11 0 -19 4 -23 6c-12 6 -22 14 -33 39c-17 36 -26 86 -26 172c0 19 0 100 11 170c-3 21 -7 42 -9 63c-9 69 -11 163 -11 177c0 30 2 52 6 64c3 6 15 36 44 35c9 0 21 -2 32 -19c8 -11 12 -25 12 -53c0 -25 -3 -51 -6 -77c-3 -32 -7 -63 -11 -95s-7 -64 -13 -95
c9 -22 14 -30 19 -39c19 -27 47 -45 81 -45c11 0 32 2 53 18c49 35 62 108 65 119c13 70 8 173 8 184c0 40 2 69 12 84c4 6 16 19 36 18c4 0 15 0 25 -7c20 -15 26 -43 26 -91c0 -21 -2 -127 -29 -209c-3 -10 -8 -25 -20 -48c14 -37 35 -51 54 -51c3 0 11 1 19 6
c24 13 24 49 24 54c0 7 -1 14 -2 22z" />
    <glyph glyph-name="paragraph" unicode="&#xb6;" horiz-adv-x="667" 
d="M539 706v-54h-34v-819h-58v819h-144v-819h-58v486c-11 2 -32 4 -58 17c-68 31 -99 99 -99 171c0 88 48 162 134 189c29 8 57 10 87 10h230z" />
    <glyph glyph-name="periodcentered" unicode="&#xb7;" horiz-adv-x="187" 
d="M91 224c-38 1 -64 30 -64 68c0 16 4 26 7 31c5 10 25 37 60 37c12 0 19 -3 24 -5c26 -11 43 -34 43 -63c0 -10 -2 -17 -5 -25c-6 -15 -23 -45 -65 -43z" />
    <glyph glyph-name="cedilla" unicode="&#xb8;" 
d="M82 9l-29 -52c10 -6 21 -11 31 -17c26 -19 31 -46 31 -57c0 -7 -2 -24 -13 -41c-25 -36 -74 -43 -114 -45l1 23c3 -1 13 -2 23 1c16 4 28 18 28 35c0 8 -4 17 -6 19c-12 18 -34 20 -54 29l73 112z" />
    <glyph glyph-name="guillemotright" unicode="&#xbb;" horiz-adv-x="396" 
d="M62 446l134 -113v-83l-134 -116v90l80 70l-80 67v85zM218 450l135 -113v-84l-135 -117v90l79 69l-79 66v89z" />
    <glyph glyph-name="questiondown" unicode="&#xbf;" horiz-adv-x="562" 
d="M227 556h78v-236c-11 1 -22 1 -32 0c-3 0 -62 -3 -94 -19c-19 -9 -32 -24 -36 -30c-9 -11 -24 -35 -24 -71c0 -22 6 -44 16 -63c16 -26 57 -68 135 -68c10 0 45 1 74 17c28 16 61 55 61 129c0 6 -1 12 -1 18l88 -1c0 -61 -11 -116 -53 -165c-25 -28 -77 -73 -171 -73
c-123 0 -231 87 -231 216c0 71 37 140 102 172c28 14 58 20 88 22v152zM222 609v97h89v-97h-89z" />
    <glyph glyph-name="Agrave" unicode="&#xc0;" horiz-adv-x="646" 
d="M458 216h-269l-79 -216h-100l269 706h98l257 -706h-99zM430 295l-103 295l-108 -295h211zM318 895l47 -124h-60l-87 124h100z" />
    <glyph glyph-name="Aacute" unicode="&#xc1;" horiz-adv-x="646" 
d="M458 216h-269l-79 -216h-100l269 706h98l257 -706h-99zM430 295l-103 295l-108 -295h211zM428 895l-87 -124h-60l48 124h99z" />
    <glyph glyph-name="Acircumflex" unicode="&#xc2;" horiz-adv-x="646" 
d="M458 216h-269l-79 -216h-100l269 706h98l257 -706h-99zM430 295l-103 295l-108 -295h211zM188 771l101 124h65l107 -124h-77l-62 74l-59 -74h-75z" />
    <glyph glyph-name="Atilde" unicode="&#xc3;" horiz-adv-x="646" 
d="M458 216h-269l-79 -216h-100l269 706h98l257 -706h-99zM430 295l-103 295l-108 -295h211zM226 786h-49c8 48 22 71 41 85s37 14 47 14c34 0 60 -18 92 -28c2 -1 19 -6 32 -6c5 0 12 1 16 4c8 5 11 11 17 27h47c-1 -7 -4 -23 -11 -41c-4 -12 -21 -60 -72 -60
c-22 1 -42 8 -83 24c-22 9 -33 12 -45 12c-2 0 -6 0 -11 -1c-6 -3 -18 -12 -21 -30z" />
    <glyph glyph-name="Adieresis" unicode="&#xc4;" horiz-adv-x="646" 
d="M271 883v-102h-87v102h87zM467 883v-102h-87v102h87zM458 216h-269l-79 -216h-100l269 706h98l257 -706h-99zM430 295l-103 295l-108 -295h211z" />
    <glyph glyph-name="Aring" unicode="&#xc5;" horiz-adv-x="646" 
d="M328 943c52 0 95 -42 95 -95c-1 -53 -44 -95 -96 -95c-53 0 -95 43 -95 96c0 52 43 94 96 94zM327 899c-28 0 -50 -23 -50 -51s23 -50 51 -50c27 0 50 23 50 51s-23 50 -51 50zM458 216h-269l-79 -216h-100l269 706h98l257 -706h-99zM430 295l-103 295l-108 -295h211z
" />
    <glyph glyph-name="AE" unicode="&#xc6;" horiz-adv-x="1042" 
d="M607 82h407v-82h-500v232h-252l-154 -232h-110l483 706h521v-83h-395v-231h319v-79h-319v-231zM514 313v302l-197 -302h197z" />
    <glyph glyph-name="Ccedilla" unicode="&#xc7;" horiz-adv-x="750" 
d="M728 508l-95 -19c-12 34 -23 53 -32 66c-25 35 -85 94 -196 94c-17 0 -60 -2 -103 -20c-148 -63 -149 -232 -149 -271c0 -170 81 -250 150 -279c18 -7 52 -18 103 -18c12 0 40 0 72 9c28 8 94 35 133 108c11 21 20 44 29 90l102 -12c-2 -10 -7 -31 -17 -56
c-18 -46 -79 -161 -218 -202c-50 -15 -94 -16 -113 -16c-125 0 -196 50 -234 85c-47 44 -111 132 -111 286c0 220 133 371 357 371c40 0 173 -3 260 -105c29 -34 47 -70 62 -111zM421 9l-29 -52c10 -6 21 -11 30 -17c27 -19 32 -46 32 -57c0 -7 -3 -24 -14 -41
c-24 -36 -74 -43 -113 -45v23c4 -1 13 -2 23 1c16 4 29 18 29 35c0 8 -5 17 -6 19c-12 18 -35 20 -54 29l73 112z" />
    <glyph glyph-name="Egrave" unicode="&#xc8;" horiz-adv-x="604" 
d="M169 323v-241h408v-82h-498v706h486v-83h-396v-218h344v-82h-344zM307 895l47 -124h-59l-87 124h99z" />
    <glyph glyph-name="Eacute" unicode="&#xc9;" horiz-adv-x="604" 
d="M169 323v-241h408v-82h-498v706h486v-83h-396v-218h344v-82h-344zM417 895l-87 -124h-60l48 124h99z" />
    <glyph glyph-name="Ecircumflex" unicode="&#xca;" horiz-adv-x="604" 
d="M169 323v-241h408v-82h-498v706h486v-83h-396v-218h344v-82h-344zM183 771l101 124h65l107 -124h-77l-62 74l-59 -74h-75z" />
    <glyph glyph-name="Edieresis" unicode="&#xcb;" horiz-adv-x="604" 
d="M169 323v-241h408v-82h-498v706h486v-83h-396v-218h344v-82h-344zM263 883v-102h-87v102h87zM460 883v-102h-88v102h88z" />
    <glyph glyph-name="Igrave" unicode="&#xcc;" horiz-adv-x="229" 
d="M162 706v-706h-95v706h95zM109 895l47 -124h-59l-87 124h99z" />
    <glyph glyph-name="Iacute" unicode="&#xcd;" horiz-adv-x="229" 
d="M162 706v-706h-95v706h95zM219 895l-86 -124h-60l48 124h98z" />
    <glyph glyph-name="Icircumflex" unicode="&#xce;" horiz-adv-x="229" 
d="M162 706v-706h-95v706h95zM-20 771l101 124h65l107 -124h-77l-62 74l-59 -74h-75z" />
    <glyph glyph-name="Idieresis" unicode="&#xcf;" horiz-adv-x="229" 
d="M162 706v-706h-95v706h95zM60 883v-102h-87v102h87zM256 883v-102h-87v102h87z" />
    <glyph glyph-name="Ntilde" unicode="&#xd1;" horiz-adv-x="708" 
d="M630 706v-706h-85l-387 574l9 -574h-89v706h89l382 -566l-4 566h85zM257 786h-48c7 48 21 71 40 85s37 14 47 14c34 0 61 -18 92 -28c3 -1 20 -6 33 -6c5 0 11 1 15 4c9 5 12 11 17 27h47c-1 -7 -3 -23 -10 -41c-5 -12 -22 -60 -73 -60c-21 1 -42 8 -83 24
c-22 9 -33 12 -45 12c-2 0 -6 0 -10 -1c-7 -3 -19 -12 -22 -30z" />
    <glyph glyph-name="Ograve" unicode="&#xd2;" horiz-adv-x="812" 
d="M762 359c0 -37 -3 -150 -74 -246c-39 -52 -124 -131 -284 -131c-43 0 -152 4 -243 90c-47 43 -110 129 -110 282c0 40 2 162 88 259c67 75 170 111 268 111c48 0 96 -8 140 -25c147 -57 215 -190 215 -340zM660 359c0 25 -1 121 -55 196c-66 89 -160 93 -198 93
c-115 -1 -173 -58 -200 -97c-39 -56 -54 -133 -54 -198c0 -93 28 -156 47 -187c17 -26 37 -46 45 -53c29 -25 55 -36 68 -41c19 -7 48 -16 96 -16c18 0 62 1 107 21c68 31 145 113 144 282zM401 895l47 -124h-59l-87 124h99z" />
    <glyph glyph-name="Oacute" unicode="&#xd3;" horiz-adv-x="812" 
d="M762 359c0 -37 -3 -150 -74 -246c-39 -52 -124 -131 -284 -131c-43 0 -152 4 -243 90c-47 43 -110 129 -110 282c0 40 2 162 88 259c67 75 170 111 268 111c48 0 96 -8 140 -25c147 -57 215 -190 215 -340zM660 359c0 25 -1 121 -55 196c-66 89 -160 93 -198 93
c-115 -1 -173 -58 -200 -97c-39 -56 -54 -133 -54 -198c0 -93 28 -156 47 -187c17 -26 37 -46 45 -53c29 -25 55 -36 68 -41c19 -7 48 -16 96 -16c18 0 62 1 107 21c68 31 145 113 144 282zM511 895l-87 -124h-60l48 124h99z" />
    <glyph glyph-name="Ocircumflex" unicode="&#xd4;" horiz-adv-x="812" 
d="M762 359c0 -37 -3 -150 -74 -246c-39 -52 -124 -131 -284 -131c-43 0 -152 4 -243 90c-47 43 -110 129 -110 282c0 40 2 162 88 259c67 75 170 111 268 111c48 0 96 -8 140 -25c147 -57 215 -190 215 -340zM660 359c0 25 -1 121 -55 196c-66 89 -160 93 -198 93
c-115 -1 -173 -58 -200 -97c-39 -56 -54 -133 -54 -198c0 -93 28 -156 47 -187c17 -26 37 -46 45 -53c29 -25 55 -36 68 -41c19 -7 48 -16 96 -16c18 0 62 1 107 21c68 31 145 113 144 282zM272 771l100 124h65l108 -124h-77l-62 74l-60 -74h-74z" />
    <glyph glyph-name="Otilde" unicode="&#xd5;" horiz-adv-x="812" 
d="M762 359c0 -37 -3 -150 -74 -246c-39 -52 -124 -131 -284 -131c-43 0 -152 4 -243 90c-47 43 -110 129 -110 282c0 40 2 162 88 259c67 75 170 111 268 111c48 0 96 -8 140 -25c147 -57 215 -190 215 -340zM660 359c0 25 -1 121 -55 196c-66 89 -160 93 -198 93
c-115 -1 -173 -58 -200 -97c-39 -56 -54 -133 -54 -198c0 -93 28 -156 47 -187c17 -26 37 -46 45 -53c29 -25 55 -36 68 -41c19 -7 48 -16 96 -16c18 0 62 1 107 21c68 31 145 113 144 282zM309 786h-48c7 48 21 71 40 85s37 14 47 14c34 0 61 -18 92 -28c3 -1 20 -6 33 -6
c5 0 11 1 15 4c9 5 12 11 17 27h47c-1 -7 -3 -23 -10 -41c-5 -12 -22 -60 -73 -60c-21 1 -42 8 -82 24c-23 9 -34 12 -46 12c-2 0 -6 0 -10 -1c-7 -3 -19 -12 -22 -30z" />
    <glyph glyph-name="Odieresis" unicode="&#xd6;" horiz-adv-x="812" 
d="M356 883v-102h-87v102h87zM552 883v-102h-87v102h87zM762 359c0 -37 -3 -150 -74 -246c-39 -52 -124 -131 -284 -131c-43 0 -152 4 -243 90c-47 43 -110 129 -110 282c0 40 2 162 88 259c67 75 170 111 268 111c48 0 96 -8 140 -25c147 -57 215 -190 215 -340zM660 359
c0 25 -1 121 -55 196c-66 89 -160 93 -198 93c-115 -1 -173 -58 -200 -97c-39 -56 -54 -133 -54 -198c0 -93 28 -156 47 -187c17 -26 37 -46 45 -53c29 -25 55 -36 68 -41c19 -7 48 -16 96 -16c18 0 62 1 107 21c68 31 145 113 144 282z" />
    <glyph glyph-name="multiply" unicode="&#xd7;" horiz-adv-x="667" 
d="M534 36l-200 200l-202 -200l-55 56l201 200l-201 201l55 56l202 -201l200 201l56 -56l-200 -201l200 -200z" />
    <glyph glyph-name="Oslash" unicode="&#xd8;" horiz-adv-x="812" 
d="M715 699l48 -51l-70 -68c24 -35 70 -112 70 -225c0 -52 -11 -106 -30 -154c-58 -142 -181 -219 -334 -219c-98 0 -163 28 -238 89l-65 -62l-49 50l69 66c-22 38 -66 114 -66 228c0 43 8 172 102 270c39 42 115 101 252 101c28 0 55 -2 82 -8c42 -8 90 -25 160 -82z
M186 193l394 378c-26 29 -79 78 -179 78c-34 0 -119 -6 -181 -82c-48 -58 -66 -145 -66 -217c0 -31 2 -87 32 -157zM621 512l-397 -381c54 -53 106 -75 182 -75c89 0 140 38 167 63c82 77 86 190 86 222c0 28 -3 99 -38 171z" />
    <glyph glyph-name="Ugrave" unicode="&#xd9;" horiz-adv-x="688" 
d="M611 706v-451c0 -7 0 -49 -6 -82c-7 -32 -28 -100 -103 -148c-29 -18 -81 -43 -164 -43c-37 0 -79 6 -115 19c-64 25 -116 77 -137 143c-10 34 -11 59 -10 125v437h94v-424c0 -27 -1 -55 3 -82c2 -16 10 -63 46 -97c17 -16 37 -27 59 -34c25 -7 53 -7 61 -7
c17 0 62 0 105 28c70 45 72 121 72 194v422h95zM338 895l48 -124h-60l-87 124h99z" />
    <glyph glyph-name="Uacute" unicode="&#xda;" horiz-adv-x="688" 
d="M611 706v-451c0 -7 0 -49 -6 -82c-7 -32 -28 -100 -103 -148c-29 -18 -81 -43 -164 -43c-37 0 -79 6 -115 19c-64 25 -116 77 -137 143c-10 34 -11 59 -10 125v437h94v-424c0 -27 -1 -55 3 -82c2 -16 10 -63 46 -97c17 -16 37 -27 59 -34c25 -7 53 -7 61 -7
c17 0 62 0 105 28c70 45 72 121 72 194v422h95zM449 895l-87 -124h-60l48 124h99z" />
    <glyph glyph-name="Ucircumflex" unicode="&#xdb;" horiz-adv-x="688" 
d="M611 706v-451c0 -7 0 -49 -6 -82c-7 -32 -28 -100 -103 -148c-29 -18 -81 -43 -164 -43c-37 0 -79 6 -115 19c-64 25 -116 77 -137 143c-10 34 -11 59 -10 125v437h94v-424c0 -27 -1 -55 3 -82c2 -16 10 -63 46 -97c17 -16 37 -27 59 -34c25 -7 53 -7 61 -7
c17 0 62 0 105 28c70 45 72 121 72 194v422h95zM209 771l101 124h65l107 -124h-77l-62 74l-59 -74h-75z" />
    <glyph glyph-name="Udieresis" unicode="&#xdc;" horiz-adv-x="688" 
d="M288 883v-102h-87v102h87zM485 883v-102h-87v102h87zM611 706v-451c0 -7 0 -49 -6 -82c-7 -32 -28 -100 -103 -148c-29 -18 -81 -43 -164 -43c-37 0 -79 6 -115 19c-64 25 -116 77 -137 143c-10 34 -11 59 -10 125v437h94v-424c0 -27 -1 -55 3 -82c2 -16 10 -63 46 -97
c17 -16 37 -27 59 -34c25 -7 53 -7 61 -7c17 0 62 0 105 28c70 45 72 121 72 194v422h95z" />
    <glyph glyph-name="germandbls" unicode="&#xdf;" horiz-adv-x="542" 
d="M200 383l1 79c76 -8 116 6 142 32c18 18 27 41 27 66c0 62 -53 91 -109 90c-37 0 -60 -10 -73 -19c-49 -32 -44 -89 -45 -139v-492h-79v497c1 55 -1 110 33 158c24 34 72 69 162 69c18 0 79 0 128 -35c24 -17 63 -53 63 -126c0 -20 -2 -69 -43 -108
c-20 -20 -35 -25 -47 -30c97 -13 128 -93 136 -124c7 -29 7 -59 7 -69c0 -127 -45 -183 -97 -213c-21 -12 -61 -30 -120 -30c-32 0 -63 6 -94 15v84c14 -5 53 -21 99 -21c17 0 68 1 101 46c29 40 30 101 30 111c0 18 0 64 -34 104c-36 42 -84 55 -188 55z" />
    <glyph glyph-name="agrave" unicode="&#xe0;" horiz-adv-x="500" 
d="M139 326l-83 5c0 9 2 26 8 46c15 45 59 109 173 109c14 0 40 -1 74 -10c19 -5 82 -24 105 -88c9 -25 10 -49 10 -101v-154c0 -10 0 -21 1 -31c1 -11 2 -36 35 -36c10 0 15 2 24 4v-67c-24 -8 -38 -9 -51 -9c-4 0 -32 0 -50 12c-8 6 -14 15 -16 18c-13 18 -14 30 -16 40
c-22 -24 -70 -77 -161 -77c-32 0 -53 6 -65 10c-56 19 -95 64 -95 125c0 22 6 67 51 102c44 33 101 40 115 43c25 4 50 8 76 10c24 2 49 2 72 5c0 13 0 26 -1 39c-2 34 -8 104 -104 104c-15 0 -78 0 -97 -57c-5 -15 -5 -26 -5 -42zM346 230c-22 -4 -45 -6 -67 -10
c-16 -3 -31 -6 -47 -10c-11 -2 -22 -4 -33 -7c-8 -2 -79 -18 -79 -79c0 -19 7 -31 11 -37c11 -16 34 -33 78 -33c15 0 57 0 92 29c47 37 46 90 46 109c0 13 -1 26 -1 38zM238 665l41 -144h-47l-83 144h89z" />
    <glyph glyph-name="aacute" unicode="&#xe1;" horiz-adv-x="500" 
d="M139 326l-83 5c0 9 2 26 8 46c15 45 59 109 173 109c14 0 40 -1 74 -10c19 -5 82 -24 105 -88c9 -25 10 -49 10 -101v-154c0 -10 0 -21 1 -31c1 -11 2 -36 35 -36c10 0 15 2 24 4v-67c-24 -8 -38 -9 -51 -9c-4 0 -32 0 -50 12c-8 6 -14 15 -16 18c-13 18 -14 30 -16 40
c-22 -24 -70 -77 -161 -77c-32 0 -53 6 -65 10c-56 19 -95 64 -95 125c0 22 6 67 51 102c44 33 101 40 115 43c25 4 50 8 76 10c24 2 49 2 72 5c0 13 0 26 -1 39c-2 34 -8 104 -104 104c-15 0 -78 0 -97 -57c-5 -15 -5 -26 -5 -42zM346 230c-22 -4 -45 -6 -67 -10
c-16 -3 -31 -6 -47 -10c-11 -2 -22 -4 -33 -7c-8 -2 -79 -18 -79 -79c0 -19 7 -31 11 -37c11 -16 34 -33 78 -33c15 0 57 0 92 29c47 37 46 90 46 109c0 13 -1 26 -1 38zM354 666l-86 -144h-41l41 144h86z" />
    <glyph glyph-name="acircumflex" unicode="&#xe2;" horiz-adv-x="500" 
d="M139 326l-83 5c0 9 2 26 8 46c15 45 59 109 173 109c14 0 40 -1 74 -10c19 -5 82 -24 105 -88c9 -25 10 -49 10 -101v-154c0 -10 0 -21 1 -31c1 -11 2 -36 35 -36c10 0 15 2 24 4v-67c-24 -8 -38 -9 -51 -9c-4 0 -32 0 -50 12c-8 6 -14 15 -16 18c-13 18 -14 30 -16 40
c-22 -24 -70 -77 -161 -77c-32 0 -53 6 -65 10c-56 19 -95 64 -95 125c0 22 6 67 51 102c44 33 101 40 115 43c25 4 50 8 76 10c24 2 49 2 72 5c0 13 0 26 -1 39c-2 34 -8 104 -104 104c-15 0 -78 0 -97 -57c-5 -15 -5 -26 -5 -42zM346 230c-22 -4 -45 -6 -67 -10
c-16 -3 -31 -6 -47 -10c-11 -2 -22 -4 -33 -7c-8 -2 -79 -18 -79 -79c0 -19 7 -31 11 -37c11 -16 34 -33 78 -33c15 0 57 0 92 29c47 37 46 90 46 109c0 13 -1 26 -1 38zM121 523l94 151h67l104 -151h-75l-61 95l-59 -95h-70z" />
    <glyph glyph-name="atilde" unicode="&#xe3;" horiz-adv-x="500" 
d="M139 326l-83 5c0 9 2 26 8 46c15 45 59 109 173 109c14 0 40 -1 74 -10c19 -5 82 -24 105 -88c9 -25 10 -49 10 -101v-154c0 -10 0 -21 1 -31c1 -11 2 -36 35 -36c10 0 15 2 24 4v-67c-24 -8 -38 -9 -51 -9c-4 0 -32 0 -50 12c-8 6 -14 15 -16 18c-13 18 -14 30 -16 40
c-22 -24 -70 -77 -161 -77c-32 0 -53 6 -65 10c-56 19 -95 64 -95 125c0 22 6 67 51 102c44 33 101 40 115 43c25 4 50 8 76 10c24 2 49 2 72 5c0 13 0 26 -1 39c-2 34 -8 104 -104 104c-15 0 -78 0 -97 -57c-5 -15 -5 -26 -5 -42zM346 230c-22 -4 -45 -6 -67 -10
c-16 -3 -31 -6 -47 -10c-11 -2 -22 -4 -33 -7c-8 -2 -79 -18 -79 -79c0 -19 7 -31 11 -37c11 -16 34 -33 78 -33c15 0 57 0 92 29c47 37 46 90 46 109c0 13 -1 26 -1 38zM153 539h-49c1 10 12 100 87 99c31 0 59 -15 88 -25c1 -1 22 -9 37 -9c27 0 31 24 32 31h48
c-1 -4 -12 -101 -83 -100c-22 0 -45 9 -87 25c-19 7 -30 10 -40 10c-26 0 -32 -25 -33 -31z" />
    <glyph glyph-name="adieresis" unicode="&#xe4;" horiz-adv-x="500" 
d="M192 644v-103h-87v103h87zM390 644v-103h-89v103h89zM139 326l-83 5c0 9 2 26 8 46c15 45 59 109 173 109c14 0 40 -1 74 -10c19 -5 82 -24 105 -88c9 -25 10 -49 10 -101v-154c0 -10 0 -21 1 -31c1 -11 2 -36 35 -36c10 0 15 2 24 4v-67c-24 -8 -38 -9 -51 -9
c-4 0 -32 0 -50 12c-8 6 -14 15 -16 18c-13 18 -14 30 -16 40c-22 -24 -70 -77 -161 -77c-32 0 -53 6 -65 10c-56 19 -95 64 -95 125c0 22 6 67 51 102c44 33 101 40 115 43c25 4 50 8 76 10c24 2 49 2 72 5c0 13 0 26 -1 39c-2 34 -8 104 -104 104c-15 0 -78 0 -97 -57
c-5 -15 -5 -26 -5 -42zM346 230c-22 -4 -45 -6 -67 -10c-16 -3 -31 -6 -47 -10c-11 -2 -22 -4 -33 -7c-8 -2 -79 -18 -79 -79c0 -19 7 -31 11 -37c11 -16 34 -33 78 -33c15 0 57 0 92 29c47 37 46 90 46 109c0 13 -1 26 -1 38z" />
    <glyph glyph-name="aring" unicode="&#xe5;" horiz-adv-x="500" 
d="M246 703c53 -1 95 -43 95 -95c-1 -52 -43 -95 -95 -95c-53 0 -94 43 -94 95s42 95 94 95zM246 660c-29 0 -51 -24 -51 -52s22 -51 51 -51s51 24 51 52c0 27 -23 51 -51 51zM139 326l-83 5c0 9 2 26 8 46c15 45 59 109 173 109c14 0 40 -1 74 -10c19 -5 82 -24 105 -88
c9 -25 10 -49 10 -101v-154c0 -10 0 -21 1 -31c1 -11 2 -36 35 -36c10 0 15 2 24 4v-67c-24 -8 -38 -9 -51 -9c-4 0 -32 0 -50 12c-8 6 -14 15 -16 18c-13 18 -14 30 -16 40c-22 -24 -70 -77 -161 -77c-32 0 -53 6 -65 10c-56 19 -95 64 -95 125c0 22 6 67 51 102
c44 33 101 40 115 43c25 4 50 8 76 10c24 2 49 2 72 5c0 13 0 26 -1 39c-2 34 -8 104 -104 104c-15 0 -78 0 -97 -57c-5 -15 -5 -26 -5 -42zM346 230c-22 -4 -45 -6 -67 -10c-16 -3 -31 -6 -47 -10c-11 -2 -22 -4 -33 -7c-8 -2 -79 -18 -79 -79c0 -19 7 -31 11 -37
c11 -16 34 -33 78 -33c15 0 57 0 92 29c47 37 46 90 46 109c0 13 -1 26 -1 38z" />
    <glyph glyph-name="ae" unicode="&#xe6;" horiz-adv-x="812" 
d="M141 330l-84 6c3 25 8 45 20 68c20 34 68 82 163 82c20 0 80 -1 127 -44c8 -7 19 -18 32 -40c2 3 18 25 32 37c19 18 63 47 130 47c34 0 103 -6 159 -77c28 -34 60 -93 59 -195h-342c0 -17 -1 -72 34 -117c13 -17 44 -47 101 -47c52 0 91 30 109 78c2 6 4 11 6 22l84 -13
c-6 -23 -16 -56 -55 -93c-60 -57 -122 -59 -154 -59c-39 0 -124 6 -177 99c-24 -31 -81 -99 -191 -99c-11 0 -35 1 -62 9c-58 17 -99 60 -99 124c0 60 39 107 91 131c55 24 114 22 233 23c0 30 -2 44 -5 59c-14 54 -53 94 -110 94c-9 0 -28 -1 -48 -10
c-18 -9 -50 -33 -53 -85zM436 272h258c-1 15 -4 62 -36 101c-11 12 -45 47 -96 47c-22 0 -67 -8 -99 -56c-25 -37 -27 -78 -27 -92zM357 214h-47c-13 0 -57 0 -100 -9c-10 -2 -50 -10 -75 -38c-5 -5 -19 -23 -19 -46c0 -29 25 -73 94 -73c19 0 65 3 102 42
c21 22 43 57 45 124z" />
    <glyph glyph-name="ccedilla" unicode="&#xe7;" horiz-adv-x="521" 
d="M485 328l-88 -8c-2 8 -6 33 -20 55c-33 51 -89 53 -108 53c-72 0 -142 -48 -142 -191c0 -83 27 -130 54 -156c27 -25 58 -34 94 -34c21 0 41 3 60 12c52 23 65 69 73 119l86 -8c-13 -79 -54 -123 -79 -143c-54 -42 -121 -42 -142 -42c-14 0 -51 0 -89 14
c-57 20 -145 83 -145 233c1 151 83 218 143 240c38 14 70 14 86 14c125 0 182 -68 204 -116c7 -15 10 -26 13 -42zM301 9l-29 -52c10 -6 21 -11 31 -17c26 -19 31 -46 31 -57c0 -7 -2 -24 -13 -41c-25 -36 -74 -43 -114 -45v23c4 -1 14 -2 24 1c16 4 28 18 28 35
c0 8 -5 17 -6 19c-12 18 -35 20 -54 29l73 112z" />
    <glyph glyph-name="egrave" unicode="&#xe8;" horiz-adv-x="521" 
d="M483 222l-358 -1c-1 -84 39 -132 68 -152c24 -16 55 -24 85 -24c43 0 65 16 79 29c5 4 17 16 26 31c12 21 17 44 19 50l81 -11c-4 -10 -13 -38 -31 -66c-24 -36 -76 -93 -182 -93c-49 0 -81 11 -99 19c-58 25 -132 89 -132 236c0 87 29 136 53 165c43 52 108 81 175 81
c24 0 52 -5 74 -13c29 -10 87 -38 119 -112c13 -31 23 -68 23 -139zM127 279h269c-2 24 -4 35 -7 46c-16 58 -66 99 -128 99c-85 0 -127 -70 -134 -145zM254 665l41 -144h-48l-82 144h89z" />
    <glyph glyph-name="eacute" unicode="&#xe9;" horiz-adv-x="521" 
d="M483 222l-358 -1c-1 -84 39 -132 68 -152c24 -16 55 -24 85 -24c43 0 65 16 79 29c5 4 17 16 26 31c12 21 17 44 19 50l81 -11c-4 -10 -13 -38 -31 -66c-24 -36 -76 -93 -182 -93c-49 0 -81 11 -99 19c-58 25 -132 89 -132 236c0 87 29 136 53 165c43 52 108 81 175 81
c24 0 52 -5 74 -13c29 -10 87 -38 119 -112c13 -31 23 -68 23 -139zM127 279h269c-2 24 -4 35 -7 46c-16 58 -66 99 -128 99c-85 0 -127 -70 -134 -145zM365 666l-86 -144h-42l42 144h86z" />
    <glyph glyph-name="ecircumflex" unicode="&#xea;" horiz-adv-x="521" 
d="M483 222l-358 -1c-1 -84 39 -132 68 -152c24 -16 55 -24 85 -24c43 0 65 16 79 29c5 4 17 16 26 31c12 21 17 44 19 50l81 -11c-4 -10 -13 -38 -31 -66c-24 -36 -76 -93 -182 -93c-49 0 -81 11 -99 19c-58 25 -132 89 -132 236c0 87 29 136 53 165c43 52 108 81 175 81
c24 0 52 -5 74 -13c29 -10 87 -38 119 -112c13 -31 23 -68 23 -139zM127 279h269c-2 24 -4 35 -7 46c-16 58 -66 99 -128 99c-85 0 -127 -70 -134 -145zM131 523l94 151h68l104 -151h-76l-61 95l-59 -95h-70z" />
    <glyph glyph-name="edieresis" unicode="&#xeb;" horiz-adv-x="521" 
d="M483 222l-358 -1c-1 -84 39 -132 68 -152c24 -16 55 -24 85 -24c43 0 65 16 79 29c5 4 17 16 26 31c12 21 17 44 19 50l81 -11c-4 -10 -13 -38 -31 -66c-24 -36 -76 -93 -182 -93c-49 0 -81 11 -99 19c-58 25 -132 89 -132 236c0 87 29 136 53 165c43 52 108 81 175 81
c24 0 52 -5 74 -13c29 -10 87 -38 119 -112c13 -31 23 -68 23 -139zM127 279h269c-2 24 -4 35 -7 46c-16 58 -66 99 -128 99c-85 0 -127 -70 -134 -145zM217 644v-103h-87v103h87zM415 644v-103h-89v103h89z" />
    <glyph glyph-name="igrave" unicode="&#xec;" horiz-adv-x="208" 
d="M144 471v-471h-77v471h77zM97 665l42 -144h-48l-82 144h88z" />
    <glyph glyph-name="iacute" unicode="&#xed;" horiz-adv-x="208" 
d="M144 471v-471h-77v471h77zM203 666l-86 -144h-41l41 144h86z" />
    <glyph glyph-name="icircumflex" unicode="&#xee;" horiz-adv-x="208" 
d="M144 471v-471h-77v471h77zM-25 523l94 151h68l103 -151h-75l-61 95l-59 -95h-70z" />
    <glyph glyph-name="idieresis" unicode="&#xef;" horiz-adv-x="208" 
d="M144 471v-471h-77v471h77zM50 644v-103h-87v103h87zM248 644v-103h-88v103h88z" />
    <glyph glyph-name="ntilde" unicode="&#xf1;" horiz-adv-x="521" 
d="M144 471v-69c10 17 20 28 25 33c17 18 58 51 123 51c21 0 92 -6 134 -65c31 -43 29 -89 29 -140v-281h-79v300c0 14 4 60 -36 90c-12 9 -34 21 -71 21c-35 0 -63 -11 -88 -35c-6 -6 -20 -21 -28 -43c-9 -22 -9 -42 -9 -65v-268h-80v471h80zM163 539h-49
c2 10 13 100 88 99c31 0 59 -15 87 -25c2 -1 22 -9 38 -9c26 0 30 24 32 31h47c0 -4 -11 -101 -83 -100c-22 0 -44 9 -86 25c-20 7 -31 10 -41 10c-26 0 -31 -25 -33 -31z" />
    <glyph glyph-name="ograve" unicode="&#xf2;" horiz-adv-x="542" 
d="M502 235c0 -26 -3 -106 -55 -171c-26 -31 -77 -79 -175 -79c-28 0 -106 3 -163 62c-30 30 -69 87 -69 186c0 61 16 122 54 171c46 59 107 82 181 82c32 0 66 -6 94 -18c55 -23 135 -90 133 -233zM416 236c0 13 1 74 -24 120c-7 13 -18 27 -29 36c-34 29 -71 30 -86 30
c-151 0 -150 -165 -150 -192c0 -23 3 -41 4 -48c5 -34 29 -133 141 -133c22 1 76 5 112 59c30 45 31 118 32 128zM264 665l41 -144h-47l-83 144h89z" />
    <glyph glyph-name="oacute" unicode="&#xf3;" horiz-adv-x="542" 
d="M502 235c0 -26 -3 -106 -55 -171c-26 -31 -77 -79 -175 -79c-28 0 -106 3 -163 62c-30 30 -69 87 -69 186c0 61 16 122 54 171c46 59 107 82 181 82c32 0 66 -6 94 -18c55 -23 135 -90 133 -233zM416 236c0 13 1 74 -24 120c-7 13 -18 27 -29 36c-34 29 -71 30 -86 30
c-151 0 -150 -165 -150 -192c0 -23 3 -41 4 -48c5 -34 29 -133 141 -133c22 1 76 5 112 59c30 45 31 118 32 128zM370 666l-86 -144h-41l41 144h86z" />
    <glyph glyph-name="ocircumflex" unicode="&#xf4;" horiz-adv-x="542" 
d="M502 235c0 -26 -3 -106 -55 -171c-26 -31 -77 -79 -175 -79c-28 0 -106 3 -163 62c-30 30 -69 87 -69 186c0 61 16 122 54 171c46 59 107 82 181 82c32 0 66 -6 94 -18c55 -23 135 -90 133 -233zM416 236c0 13 1 74 -24 120c-7 13 -18 27 -29 36c-34 29 -71 30 -86 30
c-151 0 -150 -165 -150 -192c0 -23 3 -41 4 -48c5 -34 29 -133 141 -133c22 1 76 5 112 59c30 45 31 118 32 128zM142 523l94 151h67l104 -151h-75l-61 95l-59 -95h-70z" />
    <glyph glyph-name="otilde" unicode="&#xf5;" horiz-adv-x="542" 
d="M502 235c0 -26 -3 -106 -55 -171c-26 -31 -77 -79 -175 -79c-28 0 -106 3 -163 62c-30 30 -69 87 -69 186c0 61 16 122 54 171c46 59 107 82 181 82c32 0 66 -6 94 -18c55 -23 135 -90 133 -233zM416 236c0 13 1 74 -24 120c-7 13 -18 27 -29 36c-34 29 -71 30 -86 30
c-151 0 -150 -165 -150 -192c0 -23 3 -41 4 -48c5 -34 29 -133 141 -133c22 1 76 5 112 59c30 45 31 118 32 128zM173 539h-48c1 10 12 100 87 99c31 0 59 -15 87 -25c2 -1 23 -9 38 -9c27 0 31 24 32 31h48c-1 -4 -12 -101 -83 -100c-23 0 -45 9 -87 25
c-20 7 -30 10 -41 10c-26 0 -31 -25 -33 -31z" />
    <glyph glyph-name="odieresis" unicode="&#xf6;" horiz-adv-x="542" 
d="M220 644v-103h-87v103h87zM418 644v-103h-88v103h88zM502 235c0 -32 -5 -144 -98 -210c-23 -17 -63 -40 -132 -40c-26 0 -102 3 -158 57c-31 30 -74 90 -74 191c0 28 3 103 53 170c46 60 107 83 182 83c32 0 66 -6 94 -18c55 -23 135 -90 133 -233zM416 236
c0 12 1 72 -22 117c-11 20 -25 34 -31 39c-34 29 -70 30 -87 30c-149 0 -149 -165 -149 -192c1 -40 6 -80 28 -117c13 -23 45 -64 115 -64c66 1 100 38 114 59c30 45 31 119 32 128z" />
    <glyph glyph-name="divide" unicode="&#xf7;" horiz-adv-x="667" 
d="M391 145c0 -32 -25 -56 -57 -55c-31 0 -56 24 -56 55c0 32 25 57 57 57s56 -25 56 -57zM391 434c0 -30 -25 -55 -56 -55c-32 1 -57 24 -57 56s25 57 57 57c32 -1 56 -26 56 -58zM667 251h-667v79h667v-79z" />
    <glyph glyph-name="oslash" unicode="&#xf8;" horiz-adv-x="542" 
d="M471 468l35 -36l-46 -46c11 -15 15 -23 18 -31c10 -21 25 -61 25 -121c0 -15 -1 -54 -15 -95c-17 -48 -73 -154 -218 -154c-60 0 -115 20 -157 64l-40 -40l-35 36l43 42c-16 26 -40 71 -40 146c0 18 1 62 20 109c36 88 117 144 212 144c3 0 6 -1 10 -1
c32 -1 86 -9 144 -60zM142 148l231 224c-14 15 -46 50 -104 50c-26 0 -50 -7 -71 -21c-33 -21 -73 -69 -73 -159c0 -21 0 -51 17 -94zM401 328l-232 -225c5 -7 8 -12 14 -18c14 -13 44 -36 93 -36c25 1 50 7 70 20c33 21 75 70 75 161c0 17 0 59 -20 98z" />
    <glyph glyph-name="ugrave" unicode="&#xf9;" horiz-adv-x="521" 
d="M65 471h79v-268c0 -50 -1 -72 11 -95c9 -20 35 -45 86 -45c44 0 88 17 112 54c25 37 22 77 23 118v236h78v-471h-78l-1 72c-6 -8 -15 -19 -22 -27c-20 -19 -65 -57 -139 -57c-51 0 -102 20 -128 67c-24 43 -21 95 -21 140v276zM254 665l41 -144h-48l-82 144h89z" />
    <glyph glyph-name="uacute" unicode="&#xfa;" horiz-adv-x="521" 
d="M65 471h79v-268c0 -50 -1 -72 11 -95c9 -20 35 -45 86 -45c44 0 88 17 112 54c25 37 22 77 23 118v236h78v-471h-78l-1 72c-6 -8 -15 -19 -22 -27c-20 -19 -65 -57 -139 -57c-51 0 -102 20 -128 67c-24 43 -21 95 -21 140v276zM360 666l-86 -144h-42l42 144h86z" />
    <glyph glyph-name="ucircumflex" unicode="&#xfb;" horiz-adv-x="521" 
d="M65 471h79v-268c0 -50 -1 -72 11 -95c9 -20 35 -45 86 -45c44 0 88 17 112 54c25 37 22 77 23 118v236h78v-471h-78l-1 72c-6 -8 -15 -19 -22 -27c-20 -19 -65 -57 -139 -57c-51 0 -102 20 -128 67c-24 43 -21 95 -21 140v276zM131 523l94 151h68l104 -151h-76l-61 95
l-59 -95h-70z" />
    <glyph glyph-name="udieresis" unicode="&#xfc;" horiz-adv-x="521" 
d="M203 644v-103h-87v103h87zM401 644v-103h-89v103h89zM65 471h79v-268c0 -50 -1 -72 11 -95c9 -20 35 -45 86 -45c18 0 78 4 112 54c24 35 22 78 23 118v236h78v-471h-78l-1 72c-4 -6 -9 -13 -20 -24c-38 -38 -86 -60 -140 -60c-17 0 -90 3 -126 62c-27 45 -24 96 -24 145
v276z" />
    <glyph glyph-name="ydieresis" unicode="&#xff;" horiz-adv-x="437" 
d="M425 471l-198 -557c-8 -22 -19 -54 -30 -74c-27 -53 -57 -73 -117 -73c-16 0 -39 1 -71 10v72c11 -3 26 -8 51 -8c7 0 27 -1 44 10c28 18 40 61 50 88l20 58l-160 474h85l118 -374l125 374h83zM165 644v-103h-87v103h87zM363 644v-103h-89v103h89z" />
    <glyph glyph-name="dotlessi" unicode="&#x131;" horiz-adv-x="208" 
d="M144 471v-471h-77v471h77z" />
    <glyph glyph-name="OE" unicode="&#x152;" horiz-adv-x="1146" 
d="M708 82h411v-82h-501v82c-34 -37 -105 -100 -232 -100c-42 0 -142 6 -225 88c-44 43 -111 133 -111 286c0 133 50 211 86 254c67 80 157 114 260 114c41 0 143 -3 222 -92v74h490v-84h-400v-219h323v-82h-323v-239zM618 356c0 71 -6 139 -47 201c-57 86 -143 94 -180 94
c-34 0 -110 -7 -170 -76c-33 -39 -71 -106 -71 -223c0 -69 13 -135 54 -194c60 -87 143 -98 184 -98c36 0 122 10 179 92c43 63 50 131 51 204z" />
    <glyph glyph-name="oe" unicode="&#x153;" horiz-adv-x="875" 
d="M838 214h-355c0 -20 1 -66 34 -109c14 -20 48 -56 112 -56c35 1 61 11 84 35c10 11 20 25 26 37c7 13 10 26 12 31l81 -11c-18 -54 -48 -85 -64 -100c-22 -21 -67 -56 -145 -56c-29 0 -108 6 -164 72c-5 5 -13 17 -17 22c-21 -32 -72 -94 -174 -94c-19 0 -66 3 -112 28
c-49 27 -115 90 -114 222c0 23 0 92 40 152c23 35 80 99 189 99c99 0 148 -57 171 -87c23 32 72 87 172 87c34 0 112 -5 169 -81c53 -71 55 -169 55 -191zM483 274l267 1c-1 9 -3 30 -13 56c-30 77 -87 91 -121 91c-24 0 -44 -8 -52 -12c-52 -25 -76 -82 -81 -136zM403 233
c0 84 -29 134 -58 158c-11 10 -38 28 -80 28c-27 0 -48 -9 -57 -13c-40 -21 -81 -74 -81 -173c0 -15 -1 -113 66 -159c10 -7 36 -22 72 -22c12 0 35 1 62 16c76 41 76 151 76 165z" />
    <glyph glyph-name="Ydieresis" unicode="&#x178;" horiz-adv-x="625" 
d="M357 323v-323h-95v323l-248 383h111l186 -299l188 299h112zM258 883v-102h-87v102h87zM454 883v-102h-87v102h87z" />
    <glyph glyph-name="circumflex" unicode="&#x2c6;" 
d="M-77 523l94 151h67l104 -151h-75l-61 95l-59 -95h-70z" />
    <glyph glyph-name="caron" unicode="&#x2c7;" 
d="M184 673l-96 -151h-67l-102 151h74l61 -96l59 96h71z" />
    <glyph glyph-name="tilde" unicode="&#x2dc;" 
d="M-45 539h-49c1 10 12 100 87 99c31 0 59 -15 88 -25c1 -1 22 -9 37 -9c27 0 31 24 32 31h48c-1 -4 -12 -101 -83 -100c-22 0 -45 9 -86 25c-20 7 -31 10 -41 10c-26 0 -32 -25 -33 -31z" />
    <glyph glyph-name="endash" unicode="&#x2013;" horiz-adv-x="583" 
d="M541 255h-497v78h497v-78z" />
    <glyph glyph-name="emdash" unicode="&#x2014;" horiz-adv-x="667" 
d="M667 253h-667v79h667v-79z" />
    <glyph glyph-name="quoteleft" unicode="&#x2018;" horiz-adv-x="229" 
d="M63 440v52c1 23 2 46 4 70c4 35 11 75 38 144h47c-11 -29 -29 -80 -33 -157h43v-109h-99z" />
    <glyph glyph-name="quoteright" unicode="&#x2019;" horiz-adv-x="229" 
d="M162 706v-52c-1 -86 -10 -135 -41 -214h-47c11 30 28 79 33 156h-44v110h99z" />
    <glyph glyph-name="quotesinglbase" unicode="&#x201a;" horiz-adv-x="229" 
d="M162 109v-51c-1 -86 -10 -135 -41 -214h-47c11 29 29 80 33 156h-44v109h99z" />
    <glyph glyph-name="quotedblleft" unicode="&#x201c;" horiz-adv-x="375" 
d="M212 440v52c1 55 0 108 42 214h46c-16 -42 -25 -72 -32 -157h43v-109h-99zM63 440v52c2 84 11 135 42 214h47c-11 -29 -29 -81 -33 -157h43v-109h-99z" />
    <glyph glyph-name="quotedblright" unicode="&#x201d;" horiz-adv-x="375" 
d="M162 706v-52c-1 -86 -10 -135 -41 -214h-47c11 30 28 79 33 156h-44v110h99zM311 706v-52c-2 -55 0 -109 -42 -214h-46c11 30 28 79 32 156h-43v110h99z" />
    <glyph glyph-name="quotedblbase" unicode="&#x201e;" horiz-adv-x="375" 
d="M162 109v-51c-1 -86 -10 -135 -41 -214h-47c11 29 29 80 33 156h-44v109h99zM311 109v-51c-2 -56 0 -110 -42 -214h-46c11 29 28 80 32 156h-43v109h99z" />
    <glyph glyph-name="dagger" unicode="&#x2020;" horiz-adv-x="458" 
d="M271 706v-206h170v-79h-170v-421h-80v421h-171v79h171v206h80z" />
    <glyph glyph-name="bullet" unicode="&#x2022;" horiz-adv-x="333" 
d="M297 353c0 -27 -7 -45 -11 -55c-11 -24 -43 -75 -117 -75c-72 0 -133 55 -133 130c0 9 1 26 10 48c21 51 69 82 123 82c73 0 127 -57 128 -130z" />
    <glyph glyph-name="ellipsis" unicode="&#x2026;" horiz-adv-x="1000" 
d="M890 51c0 -31 -24 -57 -56 -57s-57 25 -57 57c0 31 26 56 57 56c32 0 56 -25 56 -56zM557 51c0 -31 -24 -57 -57 -57c-31 0 -56 25 -56 57c0 4 0 13 4 22c9 21 31 34 53 34c31 0 56 -25 56 -56zM223 51c0 -31 -24 -57 -56 -57s-57 25 -57 57c0 3 1 13 4 21
c9 21 30 35 54 35c31 0 55 -25 55 -56z" />
    <glyph glyph-name="fraction" unicode="&#x2044;" horiz-adv-x="125" 
d="M281 698l-403 -708l-34 19l403 708z" />
    <glyph glyph-name="trademark" unicode="&#x2122;" horiz-adv-x="687" 
d="M636 374h-57l2 206c0 22 1 45 3 67c-5 -19 -11 -38 -17 -56l-67 -217h-51l-68 218c-6 18 -11 36 -17 54c3 -22 4 -44 4 -66l3 -206h-57v332h79l83 -262l81 262h79v-332zM182 374h-59v283h-107v49h270v-49h-104v-283z" />
    <glyph glyph-name="minus" unicode="&#x2212;" horiz-adv-x="667" 
d="M667 253h-667v79h667v-79z" />
    <glyph glyph-name="Acute" unicode="&#xf6c9;" 
d="M157 895l-87 -124h-60l48 124h99z" />
    <glyph glyph-name="Caron" unicode="&#xf6ca;" 
d="M187 895l-101 -124h-66l-105 124h76l62 -77l59 77h75z" />
    <glyph glyph-name="Dieresis" unicode="&#xf6cb;" 
d="M-2 883v-102h-87v102h87zM194 883v-102h-87v102h87z" />
    <glyph glyph-name="Grave" unicode="&#xf6ce;" 
d="M47 895l47 -124h-60l-86 124h99z" />
    <glyph glyph-name="onefitted" unicode="&#xf6dc;" horiz-adv-x="396" 
d="M262 675v-675h-94v493h-145l1 62c8 0 73 -2 115 24c47 28 54 80 56 96h67z" />
    <glyph glyph-name="fi" unicode="&#xfb01;" horiz-adv-x="479" 
d="M167 471h89v-66h-89v-405h-78v405h-78v66h78v41c2 64 0 94 12 124c25 64 94 65 112 65c10 0 31 -1 58 -6l-1 -63c-3 1 -26 5 -43 5c-9 0 -37 0 -51 -27c-8 -14 -9 -26 -9 -57v-82zM416 706v-92h-77v92h77zM416 471v-471h-77v471h77z" />
    <glyph glyph-name="fl" unicode="&#xfb02;" horiz-adv-x="479" 
d="M167 471h89v-66h-89v-405h-78v405h-78v66h78v41c2 64 0 94 12 124c25 64 94 65 112 65c10 0 31 -1 58 -6l-1 -63c-3 1 -26 5 -43 5c-9 0 -37 0 -51 -27c-8 -14 -9 -26 -9 -57v-82zM414 706v-706h-76v706h76z" />
    <glyph glyph-name="Circumflex" 
d="M-82 771l100 124h65l107 -124h-76l-62 74l-60 -74h-74z" />
    <glyph glyph-name="Tilde" 
d="M-45 786h-49c8 48 22 71 41 85s37 14 47 14c34 0 60 -18 92 -28c3 -1 19 -6 33 -6c5 0 11 1 15 4c8 5 12 11 17 27h47c-1 -7 -4 -23 -11 -41c-4 -12 -21 -60 -72 -60c-22 1 -42 8 -83 24c-22 9 -33 12 -45 12c-2 0 -6 0 -11 -1c-6 -3 -18 -12 -21 -30z" />
    </font>
</defs>
</svg>
