<?xml version="1.0" standalone="no"?>
<!DOCTYPE svg PUBLIC "-//W3C//DTD SVG 1.1//EN" "http://www.w3.org/Graphics/SVG/1.1/DTD/svg11.dtd" >
<svg xmlns="http://www.w3.org/2000/svg" xmlns:xlink="http://www.w3.org/1999/xlink" version="1.1">
<metadata>
Created by FontForge 20170924 at Fri May 18 00:00:02 2007
 By www-data
Copyright  1997, 2001, Berthold LLC. All rights reserved. Akzidenz-Grotesk is a trademark of Berthold Types Limited.
</metadata>
<defs>
<font id="AkzidenzGroteskBQ-Reg" horiz-adv-x="521" >
  <font-face 
    font-family="Akzidenz-Grotesk BQ"
    font-weight="500"
    font-stretch="normal"
    units-per-em="1000"
    panose-1="0 0 0 0 0 0 0 0 0 0"
    ascent="800"
    descent="-200"
    x-height="471"
    cap-height="706"
    bbox="-37 -233 1227.01 943"
    underline-thickness="75"
    underline-position="-250"
    unicode-range="U+0020-2122"
  />
<missing-glyph horiz-adv-x="500" 
 />
    <glyph glyph-name=".notdef" horiz-adv-x="500" 
 />
    <glyph glyph-name="space" unicode=" " horiz-adv-x="271" 
 />
    <glyph glyph-name="exclam" unicode="!" horiz-adv-x="271" 
d="M194 418l-24 -271h-31l-24 282v277h79v-288zM194 0h-79v90h79v-90z" />
    <glyph glyph-name="quotedbl" unicode="&#x22;" horiz-adv-x="347" 
d="M302 743l-28 -294h-31l-29 294h88zM133 743l-28 -294h-32l-29 294h89z" />
    <glyph glyph-name="numbersign" unicode="#" horiz-adv-x="667" 
d="M625 414h-148l-16 -108h139v-77h-150l-33 -229h-79l33 229h-111l-33 -229h-81l35 229h-139v77h149l16 108h-142v77h152l31 214h80l-31 -214h110l32 214h78l-30 -214h138v-77zM397 414h-111l-16 -108h112z" />
    <glyph glyph-name="dollar" unicode="$" horiz-adv-x="625" 
d="M600 185c0 -33.333 -8.83105 -64.335 -26.498 -93.002s-41.5 -52 -71.5 -70c-44.667 -26.667 -90 -40 -136 -40h-12v-119h-67v119c-64.667 9.33301 -117.334 27.666 -158.001 54.999c-56 38 -92.333 93.667 -109 167l102 11c7.33301 -36 21.5 -65.333 42.5 -88
s41.167 -38.334 60.5 -47.001c14 -7.33301 34.667 -13.666 62 -18.999v253c-0.666992 0 -5.16699 1.33301 -13.5 4s-17.333 5.66699 -27 9s-20.5 7.33301 -32.5 12s-24.167 10.167 -36.5 16.5s-23.166 12.833 -32.499 19.5c-54 38.667 -81 87.334 -81 146.001
c0 30.667 7.66699 59 23 85c34 60.667 99.667 97.334 197 110.001h3v110h67l1 -110c6.66699 -2 20 -5.33301 40 -10c38 -9.33301 72.333 -26 103 -50c22 -17.333 39.333 -35.666 52 -54.999c12.667 -18 23.334 -42.667 32.001 -74l-93 -9c-14.667 48 -42.334 83 -83.001 105
c-16 8 -33.333 13.333 -52 16l1 -236c45.333 -13.333 82.666 -27 111.999 -41c89.333 -43.333 133.666 -102.333 132.999 -177zM287.002 421.998l0.000976562 220c-20.667 -2 -38.334 -6 -53.001 -12c-20.667 -8.66699 -37.334 -21.667 -50.001 -39s-19 -37 -19 -59
c0 -17.333 4 -33 12 -47c14.667 -24 51.334 -45 110.001 -63zM496.003 171.998c0 29.333 -10.999 53.168 -32.999 71.501s-58.333 35.5 -109 51.5l1 -237c5.33301 0 12.666 0.666992 21.999 2c46 5.33301 79.667 23.666 101 54.999c12 16.667 18 35.667 18 57z" />
    <glyph glyph-name="percent" unicode="%" horiz-adv-x="896" 
d="M849 213c0 -14 -0.666992 -29 -2 -45s-8 -40.5 -20 -73.5s-29 -57.833 -51 -74.5c-25.333 -19.333 -55 -29 -89 -29c-53.333 0 -95 22.333 -125 67c-26 39.333 -39 92.666 -39 159.999c0 76.667 15.667 134.5 47 173.5s69.666 58.5 114.999 58.5
c44.667 0 83.334 -20.167 116.001 -60.5s48.667 -99.166 48 -176.499zM620 656l-317 -685l-55 26l318 685zM353 450c0 -83.333 -20.667 -145 -62 -185c-27.333 -27.333 -61 -41 -101 -41c-42.667 0 -78 15.667 -106 47c-38.667 43.333 -58 103.666 -58 180.999
c0 36 5.83301 72.333 17.5 109s29.167 65.667 52.5 87c28 23.333 59 35 93 35c23.333 0 46.333 -6.33301 69 -19c63.333 -35.333 95 -106.666 95 -213.999zM784 213c0.666992 60 -8.66699 105.666 -28 136.999c-17.333 27.333 -41.333 41 -72 41
c-30.667 -1.33301 -53.667 -14.666 -69 -39.999c-19.333 -30 -28.666 -73.667 -27.999 -131c0 -55.333 9.33301 -98 28 -128c17.333 -29.333 41.666 -44 72.999 -44c26.667 0 48 11 64 33c20 26.667 30.667 70.667 32 132zM287.999 449.999
c0 56.667 -8.00098 98.999 -24.001 126.999c-18 32.667 -43.333 49 -76 49c-25.333 0 -46.666 -11.333 -63.999 -34c-21.333 -27.333 -32 -72.666 -32 -135.999c0 -60.667 9.66699 -106 29 -136c16.667 -25.333 39.667 -38 69 -38s53 13 71 39c18 26.667 27 69.667 27 129z
" />
    <glyph glyph-name="ampersand" unicode="&#x26;" horiz-adv-x="604" 
d="M593 -4c-14 -2.66699 -26.6709 -3.99902 -38.0039 -3.99902c-55.333 0 -104 24 -146 72c-14 -12 -27.333 -22 -40 -30c-44 -28.667 -90 -43 -138 -43c-29.333 0 -57.333 6.33301 -84 19c-26.667 12 -51.5 32.167 -74.5 60.5s-34.5 66.5 -34.5 114.5
c0 50 17 95.667 51 137c13.333 15.333 26.333 27.666 39 36.999c8 6 20.5 13.833 37.5 23.5s29.5 17.5 37.5 23.5c-1.33301 2.66699 -3.66602 8.66699 -6.99902 18s-5.66602 15.666 -6.99902 18.999s-3.33301 9 -6 17s-4.5 14.167 -5.5 18.5s-2.16699 10 -3.5 17
s-2.33301 13.833 -3 20.5s-1 13.334 -1 20.001c0 46.667 14.833 85.834 44.5 117.501s67.5 47.5 113.5 47.5c40.667 0 75 -13.333 103 -40s42 -60.334 42 -101.001c0 -19.333 -3.66699 -38.333 -11 -57c-13.333 -31.333 -41.666 -63.333 -84.999 -96
c-7.33301 -5.33301 -26.333 -16.666 -57 -33.999c12.667 -28 33 -65.667 61 -113c20.667 -34.667 33.667 -56.334 39 -65.001c20 38 35.667 81.333 47 130h77c-9.33301 -63.333 -34.666 -129 -75.999 -197c24.667 -34.667 57 -52 97 -52c6 0 15.333 1 28 3v-83z
M393.996 570.001c0 10 -2.00098 20.3311 -6.00098 30.998c-10.667 26 -31 39 -61 39c-11.333 0 -22.666 -3 -33.999 -9c-28.667 -15.333 -43 -41.333 -43 -78c1.33301 -31.333 12.333 -68 33 -110c38 16.667 66 36.334 84 59.001s27 45.334 27 68.001zM361.995 120.999
c-2 2.66699 -25.333 41.002 -70 115.002c-29.333 50 -48 83.667 -56 101c-18.667 -8.66699 -34 -17.334 -46 -26.001c-44.667 -32.667 -67 -71.334 -67 -116.001c0 -15.333 3 -30.333 9 -45c20.667 -54 59 -81 115 -81c40 0.666992 78.333 18 115 52z" />
    <glyph glyph-name="quotesingle" unicode="'" horiz-adv-x="177" 
d="M133 743l-28 -294h-32l-29 294h89z" />
    <glyph glyph-name="parenleft" unicode="(" horiz-adv-x="315" 
d="M319 -117l-32 -46c-4 2.66699 -8.33301 6 -13 10s-7.66699 6.66699 -9 8c-42 33.333 -79.667 72.666 -113 117.999c-32 43.333 -56.667 88.666 -74 135.999c-25.333 66.667 -38 137.334 -38 212.001c0 120.667 31.333 229 94 325c18 26.667 38.667 52.334 62 77.001
c24 24.667 53.333 49.667 88 75l33 -40c-37.333 -34 -65.666 -64.333 -84.999 -91c-66 -90 -99 -203 -99 -339c0 -91.333 16.667 -177 50 -257s78.666 -142.667 135.999 -188z" />
    <glyph glyph-name="parenright" unicode=")" horiz-adv-x="319" 
d="M283 317c0 -71.333 -12.668 -142.001 -38.001 -212.001c-26.667 -72 -66.334 -135.333 -119.001 -190c-21.333 -22.667 -50.666 -47.667 -87.999 -75l-33 39c23.333 21.333 40.333 37.833 51 49.5s22 25.834 34 42.501c66.667 90.667 100 204 100 340
c0 92 -16.667 177.833 -50 257.5s-78.666 141.834 -135.999 186.501l33 46c4 -2.66699 8.33301 -6 13 -10s7.66699 -6.66699 9 -8c40.667 -32 78 -71.333 112 -118c33.333 -46 58.333 -91.333 75 -136c24.667 -64.667 37 -135.334 37 -212.001z" />
    <glyph glyph-name="asterisk" unicode="*" horiz-adv-x="349" 
d="M323 583l-104 -37l63 -83l-48 -37l-66 85l-59 -85l-50 36l59 85l-100 28l17 57l102 -27v103h62v-105l103 34z" />
    <glyph glyph-name="plus" unicode="+" horiz-adv-x="724" 
d="M631 262h-225v-229h-88v229h-224v78h224v228h88v-228h225v-78z" />
    <glyph glyph-name="comma" unicode="," horiz-adv-x="229" 
d="M162 49c0 -75.333 -13.667 -143.667 -41 -205h-47c22 63.333 33 115.333 33 156h-44v109h99v-60z" />
    <glyph glyph-name="hyphen" unicode="-" horiz-adv-x="370" 
d="M325 262h-280v76h280v-76z" />
    <glyph glyph-name="period" unicode="." horiz-adv-x="229" 
d="M163 0h-99v113h99v-113z" />
    <glyph glyph-name="slash" unicode="/" horiz-adv-x="333" 
d="M321 702l-231 -702h-77l233 702h75z" />
    <glyph glyph-name="zero" unicode="0" horiz-adv-x="583" 
d="M535 336c0 -137.333 -36.666 -236 -109.999 -296c-37.333 -30.667 -82 -46 -134 -46c-40.667 0 -77.334 10 -110.001 30c-38 23.333 -69.5 60.5 -94.5 111.5s-37.5 116.5 -37.5 196.5c0 135.333 35 234.333 105 297c38.667 34 84 51 136 51c39.333 0 76 -10.333 110 -31
c38.667 -23.333 71 -61 97 -113s38.667 -118.667 38 -200zM445.001 336c0 94.667 -17.667 165.999 -53 213.999c-25.333 34 -58.333 51 -99 51c-36 0 -66 -12 -90 -36c-14 -12.667 -26.333 -31 -37 -55c-18.667 -43.333 -28 -101.333 -28 -174
c0 -92.667 16.667 -162.334 50 -209.001c25.333 -37.333 60.333 -55.666 105 -54.999c25.333 0 47.333 6 66 18c31.333 20.667 53.5 54.834 66.5 102.501s19.5 95.5 19.5 143.5z" />
    <glyph glyph-name="one" unicode="1" horiz-adv-x="583" 
d="M357 0h-94v493h-145v62c76 0 126.333 19.667 151 59c11.333 17.333 18.333 37.333 21 60h67v-674z" />
    <glyph glyph-name="two" unicode="2" horiz-adv-x="583" 
d="M520 0l-441 0.00195312l1 86c9.33301 4.66699 23.333 12.334 42 23.001c52 33.333 107.333 77.666 166 132.999c40.667 37.333 72.667 74.166 96 110.499s35 76.5 35 120.5c0 40 -11.167 71.5 -33.5 94.5s-53.5 34.5 -93.5 34.5c-46 0 -79.667 -13.667 -101 -41
c-5.33301 -7.33301 -11.333 -19.333 -18 -36c-5.33301 -18 -8 -36.667 -8 -56c0 -21.333 4 -48 12 -80h-88c-8 27.333 -12 54 -12 80c0 68 21 121 63 159c39.333 34.667 91 52 155 52c57.333 0 105.666 -16.667 144.999 -50c48 -40 72 -94.333 72 -163
c0 -70 -30.333 -139 -91 -207c-21.333 -24.667 -46.666 -49.334 -75.999 -74.001c-26.667 -23.333 -53 -44.333 -79 -63c-15.333 -10.667 -38.333 -26 -69 -46h323v-77z" />
    <glyph glyph-name="three" unicode="3" horiz-adv-x="583" 
d="M529 188c0 -51.333 -17.3281 -94.3301 -51.9951 -128.997c-42 -43.333 -103.333 -65 -184 -65c-12.667 0 -25.167 0.5 -37.5 1.5s-30.333 4.5 -54 10.5s-44.5 14.167 -62.5 24.5s-35.833 26.333 -53.5 48s-30.167 47.167 -37.5 76.5
c-4.66699 18 -7.33398 40.667 -8.00098 68h90c4 -34.667 8 -58 12 -70c19.333 -52.667 68 -79 146 -79c9.33301 0 18.166 0.333008 26.499 1s20.5 3.16699 36.5 7.5s29.5 10.333 40.5 18s21 19.667 30 36s13.5 35.833 13.5 58.5c0 28 -7.66699 51.333 -23 70
c-22 28.667 -65.667 43 -131 43c-20 0 -40 -1 -60 -3l1 81c72 -6 123.333 1.33301 154 22c28.667 19.333 43 47.333 43 84c0 22.667 -6 42.667 -18 60c-24.667 36 -64 54 -118 54c-48.667 0 -84.667 -18.667 -108 -56c-12.667 -21.333 -20.334 -55.333 -23.001 -102l-89 4
c2.66699 39.333 7 69 13 89c8 24.667 19.333 46.167 34 64.5s29.5 32.166 44.5 41.499s31.833 16.666 50.5 21.999s33.667 8.5 45 9.5s22.666 1.5 33.999 1.5c35.333 0 68.666 -5.33301 99.999 -16c25.333 -8.66699 46.833 -20.667 64.5 -36s30.5 -31.833 38.5 -49.5
s13.667 -33.334 17 -47.001s5 -26.834 5 -39.501c0 -43.333 -10.667 -77.666 -32 -102.999c-9.33301 -12 -26 -25.333 -50 -40c15.333 -6.66699 29 -14.667 41 -24c40.667 -33.333 61 -79 61 -137z" />
    <glyph glyph-name="four" unicode="4" horiz-adv-x="583" 
d="M532 162h-98v-162h-87v162h-305v81l322 431h70v-436h98v-76zM351 540l-218 -302h214z" />
    <glyph glyph-name="five" unicode="5" horiz-adv-x="583" 
d="M525 236c0 -50 -13.001 -96.167 -39.001 -138.5s-61.667 -71.833 -107 -88.5c-26.667 -10 -57.334 -15 -92.001 -15c-35.333 0 -67.166 5.16699 -95.499 15.5s-51.166 24 -68.499 41s-30.833 33.167 -40.5 48.5s-17.5 31 -23.5 47c-5.33301 16.667 -9.33301 38 -12 64
l89 6c1.33301 -15.333 6 -33 14 -53c16 -40.667 41.667 -68 77 -82c16.667 -6.66699 35.667 -10 57 -10c22.667 0 43 4 61 12c23.333 10 43.666 27.667 60.999 53s26 59.666 26 102.999c0 22.667 -2.33301 41.334 -7 56.001c-5.33301 20 -15.166 38 -29.499 54
s-30.833 27.667 -49.5 35c-20 6.66699 -40 10 -60 10c-30.667 0 -56.334 -7 -77.001 -21c-5.33301 -2.66699 -11.666 -7.66699 -18.999 -15c-16.667 -16 -29 -33 -37 -51h-81l22 367h383v-79h-315l-9 -177c44 36.667 93.667 54.667 149 54c34 0 64.667 -6 92 -18
c41.333 -18.667 73.5 -48 96.5 -88s34.5 -83.333 34.5 -130z" />
    <glyph glyph-name="six" unicode="6" horiz-adv-x="583" 
d="M527 228c0 -32 -5.32812 -62.3301 -15.9951 -90.9971c-16.667 -44.667 -43.334 -79.667 -80.001 -105s-79.334 -38 -128.001 -38c-80 0 -142.333 33.333 -187 100c-36 53.333 -54 131.666 -54 234.999c0 76.667 10.667 143 32 199c9.33301 25.333 23 49.666 41 72.999
c28.667 34 60.334 56.333 95.001 67c24 8 48.667 12 74 12c27.333 0 54 -4.66699 80 -14c36 -13.333 63.167 -32.833 81.5 -58.5s32.833 -59.5 43.5 -101.5l-87 -12c-9.33301 52.667 -33 86.667 -71 102c-14 5.33301 -29.333 8 -46 8c-34 0 -63 -9.66699 -87 -29
c-20.667 -18 -37.334 -45 -50.001 -81c-10 -28.667 -16.667 -72.334 -20 -131.001l8 10c5.33301 6.66699 9.66602 11.667 12.999 15c38 38 86.667 57 146 57c31.333 0 60 -5.66699 86 -17c13.333 -6 26.166 -13.5 38.499 -22.5s25.666 -21.167 39.999 -36.5
s25.833 -35.333 34.5 -60s13 -51.667 13 -81zM439.005 222.003c0 15.333 -2.66797 32.0039 -8.00098 50.0039c-6 19.333 -16.167 36.666 -30.5 51.999s-30.833 26.333 -49.5 33c-14.667 4.66699 -31 7 -49 7c-21.333 0 -39.666 -3.33301 -54.999 -10
c-26.667 -10.667 -47.5 -28.334 -62.5 -53.001s-22.5 -51.667 -22.5 -81c0 -19.333 3.33301 -38.333 10 -57c3.33301 -8.66699 8 -17.334 14 -26.001s14 -18.167 24 -28.5s23.333 -18.666 40 -24.999s35 -9.5 55 -9.5c18.667 0 37 3.66699 55 11
c26 11.333 45.833 29.666 59.5 54.999s20.167 52.666 19.5 81.999z" />
    <glyph glyph-name="seven" unicode="7" horiz-adv-x="583" 
d="M509 577c0 -6 -0.333984 -11.6689 -1.00098 -17.002s-1.33398 -9.66602 -2.00098 -12.999s-2.5 -8 -5.5 -14s-5.16699 -10.5 -6.5 -13.5s-5 -9.33301 -11 -19s-10.333 -17.167 -13 -22.5l-35 -61c-21.333 -38.667 -40.333 -75 -57 -109c-8.66699 -18 -21 -45 -37 -81
c-17.333 -40 -29.333 -70.333 -36 -91c-7.33301 -21.333 -13.666 -45.333 -18.999 -72c-5.33301 -21.333 -9.33301 -42.666 -12 -63.999h-106c15.333 119.333 83.333 273 204 461l30 47c14.667 23.333 23.834 39.5 27.501 48.5s5.5 21.5 5.5 37.5h-267v-128h-72v208h413v-97
z" />
    <glyph glyph-name="eight" unicode="8" horiz-adv-x="583" 
d="M533 203c0 -38 -8.33301 -71.665 -25 -100.998c-40 -72 -112 -108 -216 -108c-96 0 -165 32 -207 96c-22 34 -33 71 -33 111c0 52.667 17 96 51 130c7.33301 7.33301 21 17.666 41 30.999c-50 33.333 -75 79.666 -75 138.999c0 38 10 72 30 102
c37.333 51.333 102 77 194 77c90.667 0 153.667 -24.667 189 -74c21.333 -28.667 32 -63.667 32 -105c0 -50 -16.667 -90 -50 -120c-8 -6.66699 -16.667 -13 -26 -19c12.667 -8 22.667 -14.833 30 -20.5s17 -15 29 -28s21 -28.667 27 -47s9 -39.5 9 -63.5zM424 502.002
c0 33.333 -12.666 58.999 -37.999 76.999c-22.667 16 -55.334 24 -98.001 24c-53.333 0 -91 -14.667 -113 -44c-11.333 -15.333 -17 -34 -17 -56c0 -19.333 4.66699 -37 14 -53c19.333 -35.333 59.333 -53 120 -53c61.333 0 101.333 18.333 120 55
c8 14.667 12 31.334 12 50.001zM440.001 204.001c0 35.333 -12.002 63.332 -36.002 83.999c-25.333 22.667 -63.666 34 -114.999 34c-52 0 -89.333 -12.167 -112 -36.5s-34 -52.166 -34 -83.499c0 -26.667 6.66699 -49.667 20 -69c26.667 -38 70.334 -57 131.001 -57
c50 0 88 13.667 114 41c23.333 24.667 34 53.667 32 87z" />
    <glyph glyph-name="nine" unicode="9" horiz-adv-x="583" 
d="M525 343c0 -118 -25.334 -208.666 -76.001 -271.999c-19.333 -24 -39 -41.333 -59 -52c-30.667 -16.667 -69 -25 -115 -25c-24.667 0 -45.667 2.66699 -63 8c-49.333 15.333 -87.333 47 -114 95c-9.33301 16 -17.666 37.667 -24.999 65l87 16
c2.66699 -20.667 11 -41.334 25 -62.001c21.333 -30.667 53.333 -46 96 -46c36 0 66.667 12 92 36c22 21.333 38.5 50.833 49.5 88.5s16.5 74.167 16.5 109.5c-44.667 -57.333 -100.334 -86 -167.001 -86c-65.333 0 -118.333 21.167 -159 63.5s-61 96.5 -61 162.5
c0 68.667 20.667 124.667 62 168c42 43.333 97.333 65 166 65c64.667 0 117.334 -19.333 158.001 -58c58 -55.333 87 -147.333 87 -276zM429.999 432.001c0 22.667 -2.66504 43.001 -7.99805 61.001c-10.667 34 -28.334 60.667 -53.001 80s-54.667 29 -90 29
c-31.333 0 -58 -8.33301 -80 -25c-38.667 -28 -58 -74 -58 -138c0 -24.667 3.66699 -45 11 -61c8 -20 22.667 -38.333 44 -55s50 -25 86 -25c21.333 0 40.666 3.33301 57.999 10c21.333 7.33301 41.333 20.666 60 39.999s28.667 47.333 30 84z" />
    <glyph glyph-name="colon" unicode=":" horiz-adv-x="271" 
d="M205 377h-99v112h99v-112zM205 0h-99v113h99v-113z" />
    <glyph glyph-name="semicolon" unicode=";" horiz-adv-x="271" 
d="M206 380h-99v110h99v-110zM206 50c0 -68 -8.33496 -125 -25.002 -171c-1.33301 -4 -3.66602 -9.66699 -6.99902 -17s-5.66602 -13 -6.99902 -17h-45c16.667 52 25 103.667 25 155h-40v111h99v-61z" />
    <glyph glyph-name="less" unicode="&#x3c;" horiz-adv-x="724" 
d="M579 23l-465 234v89l465 235v-88l-384 -190l384 -189v-91z" />
    <glyph glyph-name="equal" unicode="=" horiz-adv-x="724" 
d="M625 350h-526v78h526v-78zM625 163h-526v77h526v-77z" />
    <glyph glyph-name="greater" unicode="&#x3e;" horiz-adv-x="724" 
d="M609 256l-465 -235v89l384 189l-384 189v91l465 -233v-90z" />
    <glyph glyph-name="question" unicode="?" horiz-adv-x="562" 
d="M526 496c0 -46 -10.832 -83.167 -32.499 -111.5s-44.834 -48.5 -69.501 -60.5c-22.667 -10.667 -52 -18 -88 -22v-152h-79l1 236h27c41.333 0 74 6.33301 98 19c15.333 8 27.666 18.333 36.999 31c15.333 20 23 43.667 23 71c0 25.333 -6.33301 48 -19 68
c-10 15.333 -26.333 29.5 -49 42.5s-50 19.5 -82 19.5c-45.333 0 -79.333 -14.333 -102 -43c-22 -26 -33 -61.667 -33 -107v-16h-87c0 69.333 16.333 123.333 49 162c43.333 52.667 102 79 176 79c58.667 0 110.334 -18.333 155.001 -55c50 -41.333 75 -95 75 -161z
M340.001 0h-89v97h89v-97z" />
    <glyph glyph-name="at" unicode="@" horiz-adv-x="896" 
d="M827 424c0 -49.333 -7.66602 -97.9951 -22.999 -145.995c-16.667 -51.333 -43.834 -98.833 -81.501 -142.5s-79.834 -65.5 -126.501 -65.5c-26 0 -46.5 7.83301 -61.5 23.5s-22.167 36.5 -21.5 62.5c-43.333 -56.667 -91.333 -85 -144 -85c-42.667 0 -75 15.833 -97 47.5
s-33 69.834 -33 114.501c0 47.333 10.167 94.666 30.5 141.999s48.833 83.666 85.5 108.999c30.667 22 62.334 33 95.001 33c26.667 0 50 -7.5 70 -22.5s35 -35.5 45 -61.5l15 62h68l-33 -150c-18.667 -84 -28 -141.333 -28 -172c0 -28.667 10.333 -43 31 -43
s42.334 13.667 65.001 41c27.333 32 48.5 70.5 63.5 115.5s22.5 89.833 22.5 134.5c0 74 -22 132 -66 174s-103.333 63 -178 63c-73.333 0 -141 -20 -203 -60s-110.333 -92.333 -145 -157s-52 -133.334 -52 -206.001c0 -94 30.667 -168.167 92 -222.5
s139.666 -81.5 234.999 -81.5c122.667 0 234.334 48.667 335.001 146l33 -41c-106.667 -106.667 -229 -160 -367 -160c-60 0 -118 11.667 -174 35c-68.667 29.333 -120.834 71.666 -156.501 126.999s-53.5 120.666 -53.5 195.999c0 84 20 162.667 60 236s95.5 132 166.5 176
s148.833 66 233.5 66c88.667 0 160.5 -25.833 215.5 -77.5s82.5 -121.834 82.5 -210.501zM540.001 357.005c0 26.667 -7.5 49.501 -22.5 68.501s-35.5 28.5 -61.5 28.5c-20.667 0 -41.667 -8.66699 -63 -26c-24 -20.667 -42.5 -48.834 -55.5 -84.501
s-19.5 -70.834 -19.5 -105.501c0 -28.667 6.66699 -53 20 -73s33.333 -30 60 -30c34 0 62.5 15.5 85.5 46.5s39.167 65.833 48.5 104.5c5.33301 24.667 8 48.334 8 71.001z" />
    <glyph glyph-name="A" unicode="A" horiz-adv-x="646" 
d="M634 0h-99l-77 216h-269l-79 -216h-100l269 706h98zM430 295l-103 295l-108 -295h211z" />
    <glyph glyph-name="B" unicode="B" horiz-adv-x="688" 
d="M640 195c-0.666992 -55.333 -15.001 -97.332 -43.001 -125.999s-58.667 -47.667 -92 -57c-26 -8 -71.333 -12 -136 -12h-16h-276v706h332c62 0 112.667 -17 152 -51c38.667 -32.667 58 -76 58 -130c0 -47.333 -16 -86.666 -48 -117.999
c-12 -11.333 -24.667 -20.333 -38 -27c-6 -2.66699 -13.333 -5.33398 -22 -8.00098c22.667 -6.66699 41.334 -15 56.001 -25c48.667 -32.667 73 -83.334 73 -152.001zM519.999 520.001c0 38.667 -14.667 67 -44 85c-13.333 8 -26.833 13 -40.5 15s-36.5 3 -68.5 3h-201v-214
h148c68.667 0 111.667 2.33301 129 7c18.667 4 36.167 14.333 52.5 31s24.5 41 24.5 73zM542.999 202.001c0 20 -3 37.001 -9 51.001c-16 37.333 -44.333 60.666 -85 69.999c-18 4 -54.667 6 -110 6h-173v-246h209c42.667 0 71 2 85 6c12 2 24 6.66699 36 14
c31.333 19.333 47 52.333 47 99z" />
    <glyph glyph-name="C" unicode="C" horiz-adv-x="764" 
d="M742 256c-3.33301 -18 -9.00098 -36.666 -17.001 -55.999c-6 -14.667 -13.667 -30 -23 -46s-22.5 -34.667 -39.5 -56s-39 -41 -66 -59s-56.833 -31.667 -89.5 -41c-35.333 -10.667 -73 -16 -113 -16c-94.667 0 -172.667 28.333 -234 85
c-74 69.333 -111 164.666 -111 285.999c0 111.333 31.833 201 95.5 269s150.834 102 261.501 102c113.333 0 200 -35 260 -105c24.667 -29.333 45.334 -66.333 62.001 -111l-95 -19c-9.33301 26.667 -20 48.667 -32 66c-44.667 62.667 -110 94 -196 94
c-36.667 0 -71 -6.66699 -103 -20c-28 -12 -52 -28.5 -72 -49.5s-34.833 -41.333 -44.5 -61s-17.167 -42 -22.5 -67s-8.33301 -43.5 -9 -55.5s-1 -24.667 -1 -38c0 -77.333 14.667 -138.833 44 -184.5s64.666 -77.167 105.999 -94.5c30.667 -12 65 -18 103 -18
c26.667 0 50.667 3 72 9s44.5 17.5 69.5 34.5s46.167 41.5 63.5 73.5c12 23.333 21.667 53.333 29 90z" />
    <glyph glyph-name="D" unicode="D" horiz-adv-x="708" 
d="M658 352c0 -46.667 -3.99902 -87.002 -11.999 -121.002c-4 -17.333 -9.5 -34.333 -16.5 -51s-17.833 -36.667 -32.5 -60s-35.334 -44.666 -62.001 -63.999s-57.334 -33.666 -92.001 -42.999c-27.333 -8 -66.666 -12 -117.999 -12c-8 0 -19.5 -0.166992 -34.5 -0.5
s-26.167 -0.5 -33.5 -0.5h-179v706h280c74.667 0 138 -22 190 -66c73.333 -62.667 110 -158.667 110 -288zM562.001 352.998c0 86 -18.333 151.667 -55 197c-12 14 -23.667 25 -35 33c-19.333 14 -39.333 23.667 -60 29c-24 7.33301 -66 11 -126 11h-111v-541h167
c68 0 121 22 159 66c40.667 46 61 114.333 61 205z" />
    <glyph glyph-name="E" unicode="E" horiz-adv-x="604" 
d="M577 0h-498v706h486v-83h-396v-218h344v-82h-344v-241h408v-82z" />
    <glyph glyph-name="F" unicode="F" horiz-adv-x="542" 
d="M531 622h-359v-208h334v-82h-334v-332h-94v706h453v-84z" />
    <glyph glyph-name="G" unicode="G" horiz-adv-x="812" 
d="M741 0l-81.9961 0.000976562v99c-14.667 -19.333 -24 -31 -28 -35c-54.667 -54.667 -131.334 -82 -230.001 -82c-59.333 0 -113 11.333 -161 34c-20.667 10 -40.834 22.833 -60.501 38.5s-39.834 36.334 -60.501 62.001s-37.334 58.167 -50.001 97.5
s-19 82.666 -19 129.999c0 106.667 32 196 96 268c68 74.667 157.333 112 268 112c47.333 0 90.666 -7 129.999 -21c69.333 -23.333 125.333 -67 168 -131c10 -14.667 19.667 -32.334 29 -53.001l-98 -25c-11.333 32 -26.333 58.333 -45 79c-42.667 48.667 -103 73 -181 73
c-80 0 -143.667 -27 -191 -81c-48 -54.667 -72 -124.667 -72 -210c0 -75.333 18.333 -139 55 -191c48.667 -66.667 117.334 -100 206.001 -100c59.333 0 111.333 15.333 156 46c60.667 42 90 103.333 88 184h-246v79h328v-373z" />
    <glyph glyph-name="H" unicode="H" horiz-adv-x="729" 
d="M651 0h-95v323h-384v-323h-93v706h93v-300h384v300h95v-706z" />
    <glyph glyph-name="I" unicode="I" horiz-adv-x="229" 
d="M162 0h-95v706h95v-706z" />
    <glyph glyph-name="J" unicode="J" horiz-adv-x="375" 
d="M297 187c0 -24 -0.50293 -42.002 -1.50293 -54.002s-4.33301 -26.333 -10 -43s-14.5 -32 -26.5 -46c-35.333 -41.333 -86.666 -62 -153.999 -62c-29.333 0 -61.333 3.33301 -96 10v103l12 -6c18.667 -9.33301 42.334 -14 71.001 -14c14 0 24.333 0.666992 31 2
c28.667 4.66699 49.334 16.334 62.001 35.001c7.33301 10.667 11.833 23.834 13.5 39.501s2.5 41.167 2.5 76.5v478h96v-519z" />
    <glyph glyph-name="K" unicode="K" horiz-adv-x="625" 
d="M624 0h-115l-248 348l-100 -102v-246h-94v706h94v-345l335 345h116l-286 -292z" />
    <glyph glyph-name="L" unicode="L" 
d="M504 0h-436v706h94v-622h342v-84z" />
    <glyph glyph-name="M" unicode="M" horiz-adv-x="812" 
d="M746 0h-94l13 592l-223 -592h-73l-219 583l10 -583h-92v706h122l216 -579l218 579h122v-706z" />
    <glyph glyph-name="N" unicode="N" horiz-adv-x="708" 
d="M630 0h-85l-387 574l9 -574h-89v706h89l382 -566l-4 566h85v-706z" />
    <glyph glyph-name="O" unicode="O" horiz-adv-x="812" 
d="M762 359c0 -97.333 -24.666 -179.333 -73.999 -246c-65.333 -87.333 -160 -131 -284 -131c-98 0 -179 30 -243 90c-73.333 68.667 -110 162.667 -110 282c0 106.667 29.333 193 88 259c32.667 36 72.667 63.5 120 82.5s96.666 28.5 147.999 28.5
c50 0 96.667 -8.33301 140 -25c70.667 -27.333 124.167 -71.333 160.5 -132s54.5 -130 54.5 -208zM660.001 359c0 80.667 -18.333 145.999 -55 195.999c-45.333 62 -111.333 93 -198 93c-89.333 -0.666992 -156 -33 -200 -97c-36 -52 -54 -118 -54 -198
c0 -73.333 15.667 -135.666 47 -186.999c14 -21.333 29 -39 45 -53c20.667 -18 43.334 -31.667 68.001 -41c28.667 -10.667 60.667 -16 96 -16c40 0 75.667 7 107 21c40 18.667 74.167 51 102.5 97s42.166 107.667 41.499 185z" />
    <glyph glyph-name="P" unicode="P" horiz-adv-x="625" 
d="M614 507c0 -47.333 -11.834 -89.333 -35.501 -126s-57.5 -61 -101.5 -73c-21.333 -6 -56.666 -9 -105.999 -9h-204v-299h-91v706h305c24 0 42.167 -0.333008 54.5 -1s27.5 -3.33398 45.5 -8.00098s34.333 -11.667 49 -21c56 -35.333 84 -91.666 84 -168.999zM520.999 509
c0 18 -2.33203 33.667 -6.99902 47c-12 32.667 -36 54 -72 64c-14 3.33301 -33 5 -57 5h-218v-242h197c36.667 0 62 1.66699 76 5c27.333 7.33301 47.666 22 60.999 44s20 47.667 20 77z" />
    <glyph glyph-name="Q" unicode="Q" horiz-adv-x="812" 
d="M806 34l-59.999 -69.999l-112 95c-69.333 -51.333 -146.333 -77 -231 -77c-90.667 0 -167.334 25.667 -230.001 77c-84 69.333 -126 167.333 -126 294c0 18.667 1.33301 37.667 4 57s8 44.666 16 75.999s22.667 62.333 44 93s47.666 57.334 78.999 80.001
c60.667 43.333 133.334 65 218.001 65c91.333 0 168 -25 230 -75c82.667 -68.667 124 -168.334 124 -299.001c0 -80 -21.667 -154 -65 -222zM661.001 353.001c0 78.667 -18.002 144.001 -54.002 196.001c-47.333 68 -114.666 102 -201.999 102
c-71.333 0 -130.666 -24.667 -177.999 -74c-51.333 -54.667 -77 -128.334 -77 -221.001c0 -108.667 32.667 -190 98 -244c42.667 -36 96 -54 160 -54c78 0 140.333 27.667 187 83c44 53.333 66 124 66 212z" />
    <glyph glyph-name="R" unicode="R" horiz-adv-x="667" 
d="M657 0h-112l-193 300h-182v-300h-92v706h263h67c79.333 -3.33301 137.333 -27 174 -71c28.667 -34.667 43 -79.667 43 -135c0 -82 -31.333 -139 -94 -171c-18.667 -10 -42.667 -17.667 -72 -23zM532 500c0 49.333 -18.666 85.334 -55.999 108.001
c-11.333 6.66699 -25.333 11.667 -42 15s-28.667 5 -36 5h-45h-183v-249h188c25.333 0 44.5 0.5 57.5 1.5s29.167 5.16699 48.5 12.5s34.666 18.666 45.999 33.999c14.667 20 22 44.333 22 73z" />
    <glyph glyph-name="S" unicode="S" horiz-adv-x="667" 
d="M618 203c0 -58 -19.6621 -106.333 -58.9951 -145c-52 -50.667 -126.333 -76 -223 -76c-78 0 -142.333 16.333 -193 49c-22 14 -41 31.667 -57 53c-27.333 36.667 -43.666 84 -48.999 142l101 13c2.66699 -54 18.667 -96.333 48 -127c36 -37.333 87.667 -56 155 -56
c24.667 0 46.334 2.66699 65.001 8c74 20 111 64.333 111 133c0 34 -12 60.667 -36 80c-18.667 14.667 -51.334 27 -98.001 37l-61 13c-72.667 15.333 -124.334 31.666 -155.001 48.999c-64 34.667 -96 85.334 -96 152.001c0 54.667 22.333 100.667 67 138
c46.667 38.667 109.667 58 189 58c80 0 143 -17.667 189 -53c24.667 -18.667 43.667 -39.667 57 -63c14.667 -25.333 25.667 -59 33 -101l-95 -6c-1.33301 15.333 -3.66602 29.333 -6.99902 42c-8.66699 30 -26.834 55.5 -54.501 76.5s-67.834 31.5 -120.501 31.5
c-65.333 0 -111 -15.667 -137 -47c-16 -18 -24 -39.333 -24 -64c0 -19.333 5.66699 -36.666 17 -51.999c2.66699 -3.33301 5.66699 -6.66602 9 -9.99902s6.5 -6.33301 9.5 -9s7.16699 -5.33398 12.5 -8.00098s9.33301 -4.83398 12 -6.50098s7.16699 -3.66699 13.5 -6
s10.666 -3.83301 12.999 -4.5s7.16602 -2 14.499 -4s11.666 -3.16699 12.999 -3.5l14 -3.5l12 -3l78 -19c15.333 -3.33301 33.666 -8 54.999 -14c72 -16.667 122.333 -48.667 151 -96c17.333 -29.333 26 -62 26 -98z" />
    <glyph glyph-name="T" unicode="T" horiz-adv-x="542" 
d="M528 624h-211v-624h-94v624h-212v82h517v-82z" />
    <glyph glyph-name="U" unicode="U" horiz-adv-x="688" 
d="M611 255c0 -36 -2 -63.3359 -6 -82.0029c-11.333 -62 -45.666 -111.333 -102.999 -148c-46 -28.667 -100.667 -43 -164 -43c-44 0 -82.333 6.33301 -115 19c-32 12 -60.167 30.667 -84.5 56s-41.833 54.333 -52.5 87c-6.66699 22.667 -10 64.334 -10 125.001v437h94v-424
c0 -41.333 1 -68.666 3 -81.999c5.33301 -40.667 20.666 -73 45.999 -97c16 -15.333 35.667 -26.666 59 -33.999c16.667 -4.66699 37 -7 61 -7c41.333 0 76.333 9.33301 105 28c22 14 38.5 32.667 49.5 56s17.5 44.333 19.5 63s3 43.667 3 75v422h95v-451z" />
    <glyph glyph-name="V" unicode="V" horiz-adv-x="604" 
d="M592 706l-249 -706h-93l-239 706h100l187 -590l194 590h100z" />
    <glyph glyph-name="W" unicode="W" horiz-adv-x="1021" 
d="M1003 706l-216 -706h-92l-186 585l-180 -585h-94l-217 706h99l167 -585l179 585h92l186 -585l165 585h97z" />
    <glyph glyph-name="X" unicode="X" horiz-adv-x="625" 
d="M605 0h-111l-183 287l-181 -287h-109l235 370l-222 336h112l165 -254l158 254h111l-216 -336z" />
    <glyph glyph-name="Y" unicode="Y" horiz-adv-x="625" 
d="M611 706l-254 -383v-323h-95v323l-248 383h111l186 -299l188 299h112z" />
    <glyph glyph-name="Z" unicode="Z" horiz-adv-x="604" 
d="M571 0h-553v92l436 528h-401v86h508v-88l-434 -533h444v-85z" />
    <glyph glyph-name="bracketleft" unicode="[" horiz-adv-x="277" 
d="M252 -144h-184v923h184v-59h-104v-805h104v-59z" />
    <glyph glyph-name="backslash" unicode="\" horiz-adv-x="333" 
d="M321 0h-75l-233 702h77z" />
    <glyph glyph-name="bracketright" unicode="]" horiz-adv-x="276" 
d="M207 -143h-184v59h104v805h-104v58h184v-922z" />
    <glyph glyph-name="asciicircum" unicode="^" horiz-adv-x="724" 
d="M611 287h-91l-156 339l-157 -339h-94l204 419h91z" />
    <glyph glyph-name="underscore" unicode="_" horiz-adv-x="500" 
d="M510 -214h-520v75h520v-75z" />
    <glyph glyph-name="grave" unicode="`" horiz-adv-x="271" 
d="M201 521h-48l-83 144h89z" />
    <glyph glyph-name="a" unicode="a" horiz-adv-x="500" 
d="M486 3c-18 -6 -35.001 -8.99902 -51.001 -8.99902c-21.333 0 -38 4 -50 12c-5.33301 4 -10.666 10 -15.999 18c-7.33301 10 -12.666 23.333 -15.999 40c-47.333 -51.333 -101 -77 -161 -77c-23.333 0 -45 3.33301 -65 10c-28.667 10 -51.667 25.833 -69 47.5
s-26 47.5 -26 77.5c0 41.333 17 75.333 51 102c39.333 29.333 103 47 191 53l72 5c0 17.333 -0.333008 30.333 -1 39c-0.666992 12 -2 22.5 -4 31.5s-6.16699 19.833 -12.5 32.5s-16.833 22.5 -31.5 29.5s-33.334 10.5 -56.001 10.5c-52 0 -84.333 -19 -97 -57
c-3.33301 -10 -5 -24 -5 -42l-83 5c0 12.667 2.66699 28 8 46c10 29.333 28.667 54.833 56 76.5s66.333 32.5 117 32.5c24 0 48.667 -3.33301 74 -10c54 -14 89 -43.333 105 -88c6.66699 -18.667 10 -52.334 10 -101.001v-154c0 -14 0.333008 -24.333 1 -31
c2 -24 13.667 -36 35 -36c4 0 12 1.33301 24 4v-67zM346.999 193.001c0 3.33301 -0.167969 7.99902 -0.500977 13.999s-0.5 10.667 -0.5 14v9c-95.333 -15.333 -151.333 -26.666 -168 -33.999c-38.667 -15.333 -58 -39.333 -58 -72c0 -19.333 7.5 -35.833 22.5 -49.5
s37.167 -20.5 66.5 -20.5c13.333 0 26.833 1.66699 40.5 5s28.334 9.5 44.001 18.5s28.5 23.5 38.5 43.5s15 44 15 72z" />
    <glyph glyph-name="b" unicode="b" horiz-adv-x="562" 
d="M524 236c0 -70.667 -16.999 -128.333 -50.999 -173c-20.667 -27.333 -45.334 -47.333 -74.001 -60c-27.333 -12 -58.333 -18 -93 -18c-39.333 0 -75.333 9.33301 -108 28c-21.333 12.667 -39 28.667 -53 48v-61h-80v706h80v-300c8 12 15.333 21 22 27
c35.333 35.333 82 53 140 53c65.333 0 118.333 -23.667 159 -71c38.667 -46 58 -105.667 58 -179zM439.001 239.001c0 41.333 -7.33203 75 -21.999 101c-28.667 48.667 -70 73 -124 73c-42.667 0 -77.334 -14.333 -104.001 -43c-30 -31.333 -45.333 -76.666 -46 -135.999
c0 -42.667 7.33301 -77.334 22 -104.001c26 -51.333 68.667 -77 128 -77c30 0 55.333 7 76 21c46.667 31.333 70 86.333 70 165z" />
    <glyph glyph-name="c" unicode="c" 
d="M494 170c-10 -61.333 -36.332 -109.001 -78.999 -143.001c-36 -28 -83.333 -42 -142 -42c-34 0 -63.667 4.66699 -89 14c-37.333 13.333 -70.833 38.833 -100.5 76.5s-44.5 89.834 -44.5 156.501c0.666992 68 15.334 121.5 44.001 160.5s61.667 65.5 99 79.5
c25.333 9.33301 54 14 86 14c56 0 100.5 -11.667 133.5 -35s56.5 -50.333 70.5 -81c6 -12 10.333 -26 13 -42l-88 -8c-6.66699 26 -13.334 44.333 -20.001 55c-22.667 35.333 -58.667 53 -108 53c-40.667 0 -74.5 -15.167 -101.5 -45.5s-40.5 -78.833 -40.5 -145.5
c0 -69.333 18 -121.333 54 -156c24.667 -22.667 56 -34 94 -34c23.333 0 43.333 4 60 12c23.333 10.667 40.166 25.667 50.499 45s17.833 44 22.5 74z" />
    <glyph glyph-name="d" unicode="d" horiz-adv-x="562" 
d="M497 0h-79.999v60c-42.667 -50 -96.334 -75 -161.001 -75c-67.333 0 -120.333 23.667 -159 71c-38.667 46 -58 106.333 -58 181c0 67.333 16 122.333 48 165c40.667 56 96.667 84 168 84c50 0 94.667 -15.667 134 -47c10 -8 19.333 -18 28 -30v297h80v-706zM419.001 236
c0 24 -2 44.333 -6 61c-8 34.667 -24.5 62.5 -49.5 83.5s-54.833 31.833 -89.5 32.5c-46 0 -82.333 -16.333 -109 -49c-26.667 -32 -40 -75.333 -40 -130c0 -52.667 12 -95 36 -127c26.667 -34 63.667 -51 111 -51c30 0 55.333 6.66699 76 20c48 30 71.667 83.333 71 160z
" />
    <glyph glyph-name="e" unicode="e" 
d="M483 144c-12.667 -31.333 -23 -53.333 -31 -66c-41.333 -62 -102 -93 -182 -93c-37.333 0 -70.333 6.33301 -99 19c-36 15.333 -67 42 -93 80s-39 90 -39 156c0 67.333 17.667 122.333 53 165c44.667 54 103 81 175 81c25.333 0 50 -4.33301 74 -13
c55.333 -19.333 95 -56.666 119 -111.999c15.333 -36.667 23 -83.334 23 -140.001h-358c-0.666992 -69.333 22 -120 68 -152c24 -16 52.333 -24 85 -24c32 0 58.333 9.66699 79 29c9.33301 7.33301 18 17.666 26 30.999c4 6.66699 10.333 23.334 19 50.001zM396 279
c-1.33301 19.333 -3.66699 34.668 -7 46.001c-8 29.333 -23.667 53.166 -47 71.499s-50.333 27.5 -81 27.5c-40 0 -71.333 -13.833 -94 -41.5s-36 -62.167 -40 -103.5h269z" />
    <glyph glyph-name="f" unicode="f" horiz-adv-x="271" 
d="M271 695l-0.999023 -63c-10 3.33301 -24.333 5 -43 5c-24.667 0 -41.667 -9 -51 -27c-6 -10.667 -9 -29.667 -9 -57v-82h89v-66h-89v-405h-78v405h-78v66h78v41c0 62.667 4 104 12 124c16.667 43.333 54 65 112 65c17.333 0 36.666 -2 57.999 -6z" />
    <glyph glyph-name="g" unicode="g" horiz-adv-x="562" 
d="M497 25c0 -56.667 -3.66895 -97.332 -11.002 -121.999c-18.667 -62 -60.667 -102.333 -126 -121c-29.333 -7.33301 -56.666 -11 -81.999 -11c-26 0 -52.333 3.66699 -79 11c-78.667 21.333 -124 76 -136 164h90c0 -26 6.66699 -47.667 20 -65c22 -30 58.667 -45 110 -45
c54 0 91 16 111 48c8.66699 14 14.334 30.333 17.001 49s3.66699 45.667 3 81l-1 54c-40.667 -55.333 -92 -83 -154 -83c-37.333 0 -70.333 7.66699 -99 23c-32 17.333 -59.833 44.166 -83.5 80.499s-35.5 84.5 -35.5 144.5c0 70.667 16.333 127.667 49 171
c42 54.667 98.667 82 170 82c20 0 41.333 -4 64 -12c32.667 -12.667 62.667 -35 90 -67v64h83v-446zM416.998 242.002c0 26.667 -3.33301 50.666 -10 71.999c-10.667 32 -28.667 56.833 -54 74.5s-54.333 26.167 -87 25.5c-22 0 -42.333 -4.66699 -61 -14
c-22.667 -11.333 -42 -30.666 -58 -57.999s-24 -63 -24 -107c0 -69.333 19.667 -119.333 59 -150c24 -18.667 54 -28 90 -28s66 10.333 90 31c36.667 32.667 55 84 55 154z" />
    <glyph glyph-name="h" unicode="h" 
d="M458 0h-80.999v249c0 53.333 -3 88.333 -9 105c-14.667 41.333 -46.334 62 -95.001 62c-46.667 0 -81.667 -19.667 -105 -59c-14.667 -26 -22 -68.667 -22 -128v-229h-80v706h80l1 -282c38.667 41.333 86 62 142 62c50.667 0 90.667 -13.333 120 -40
c7.33301 -7.33301 14 -15.333 20 -24c9.33301 -14 16.333 -30.5 21 -49.5s7.16699 -33.667 7.5 -44s0.5 -28.833 0.5 -55.5v-273z" />
    <glyph glyph-name="i" unicode="i" horiz-adv-x="208" 
d="M146 614h-77v92h77v-92zM146 0h-77v471h77v-471z" />
    <glyph glyph-name="j" unicode="j" horiz-adv-x="208" 
d="M143 613h-78v93h78v-93zM143 -104c0 -45.333 -8.33203 -76.998 -24.999 -94.998c-18.667 -20 -48.334 -30 -89.001 -30c-12 0 -29.333 1.33301 -52 4v71c18.667 -2 30.667 -3 36 -3c14.667 0 26.667 3.33301 36 10c7.33301 5.33301 11.833 12.166 13.5 20.499
s2.5 23.166 2.5 44.499v553h78v-575z" />
    <glyph glyph-name="k" unicode="k" horiz-adv-x="458" 
d="M472 0h-100l-169 226l-57 -60v-166h-81v706h81v-435l188 200h98l-175 -186z" />
    <glyph glyph-name="l" unicode="l" horiz-adv-x="208" 
d="M143 0h-76v706h76v-706z" />
    <glyph glyph-name="m" unicode="m" horiz-adv-x="771" 
d="M707 0l-79.002 0.00195312v276c0 2.66699 0.166992 9.16699 0.5 19.5s0.333008 17.333 0 21s-0.833008 10 -1.5 19s-2 15.833 -4 20.5s-4.5 10.167 -7.5 16.5s-7.16699 11.833 -12.5 16.5s-11.333 8.66699 -18 12c-13.333 6.66699 -27.666 10 -42.999 10
c-24 -0.666992 -47.167 -8.33398 -69.5 -23.001s-36.833 -33 -43.5 -55c-4 -12 -6 -34.667 -6 -68v-265h-78v265c0 3.33301 0.166992 10.833 0.5 22.5s0.333008 20 0 25s-1 12.5 -2 22.5s-2.83301 17.833 -5.5 23.5s-6.33398 12 -11.001 19s-10.667 12.833 -18 17.5
c-13.333 10 -30.333 15 -51 15c-10.667 0 -20.334 -1.33301 -29.001 -4c-17.333 -4.66699 -34.166 -13 -50.499 -25s-27.166 -25.667 -32.499 -41c-4.66699 -12 -7 -32 -7 -60v-280h-75v471h75l1 -63c8 10 18 20.333 30 31c35.333 31.333 72.333 47 111 47
c40.667 0 73.334 -14.667 98.001 -44c6 -6.66699 15.667 -21 29 -43l16 16c48 48 95.333 71.667 142 71c42.667 0 79 -17.333 109 -52c10.667 -12.667 18.5 -27.834 23.5 -45.501s7.66699 -31.5 8 -41.5s0.5 -27.333 0.5 -52v-295z" />
    <glyph glyph-name="n" unicode="n" 
d="M455 0l-78.999 0.000976562v300c0 42 -12 72 -36 90c-18.667 14 -42.334 21 -71.001 21c-34.667 0 -64 -11.667 -88 -35c-12.667 -12.667 -22 -27 -28 -43c-6 -14.667 -9 -36.334 -9 -65.001v-268h-80v471h80v-69c7.33301 12.667 15.666 23.667 24.999 33
c32 34 73 51 123 51c10.667 0 22.334 -1.16699 35.001 -3.5s29.167 -8.66602 49.5 -18.999s36.833 -24.5 49.5 -42.5c9.33301 -13.333 16.333 -28.833 21 -46.5s7.16699 -31.334 7.5 -41.001s0.5 -27.167 0.5 -52.5v-281z" />
    <glyph glyph-name="o" unicode="o" horiz-adv-x="542" 
d="M502 235c0 -68 -18.333 -125 -55 -171c-44 -52.667 -102.333 -79 -175 -79c-68.667 0 -123 20.667 -163 62c-46 46 -69 108 -69 186c0 67.333 18 124.333 54 171c42.667 54.667 103 82 181 82c34.667 0 66 -6 94 -18c35.333 -14.667 66.5 -41.167 93.5 -79.5
s40.167 -89.5 39.5 -153.5zM416 236c3.33301 44 -4.66699 84.002 -24 120.002c-8 14.667 -17.667 26.667 -29 36c-23.333 20 -52 30 -86 30c-28.667 0 -53.167 -6.16699 -73.5 -18.5s-35.333 -25.833 -45 -40.5s-17 -32.834 -22 -54.501s-7.83301 -37.334 -8.5 -47.001
s-1 -20.167 -1 -31.5c0 -13.333 1.33301 -29.333 4 -48c2 -12 5 -24 9 -36s10.833 -26.167 20.5 -42.5s24.167 -29.5 43.5 -39.5s42 -15 68 -15c48.667 0 86 19.667 112 59c21.333 32 32 74.667 32 128z" />
    <glyph glyph-name="p" unicode="p" horiz-adv-x="562" 
d="M523 234c0 -69.333 -16.999 -125.999 -50.999 -169.999c-41.333 -52.667 -98 -79 -170 -79c-54.667 0 -100 15.333 -136 46c-6.66699 5.33301 -14.334 13.333 -23.001 24v-279h-78v695h78l1 -67c14.667 16.667 28 29.667 40 39c36.667 28.667 79 43 127 43
c34 0 67 -9 99 -27c30.667 -16.667 57.167 -43.334 79.5 -80.001s33.5 -85 33.5 -145zM441.001 237.001c0 30.667 -3.99805 56.9971 -11.998 78.9971c-5.33301 14 -12.166 27.333 -20.499 40s-23.333 25.334 -45 38.001s-46.834 18.334 -75.501 17.001
c-28 -1.33301 -52.667 -9 -74 -23c-47.333 -31.333 -71 -85 -71 -161c0 -49.333 12.333 -90.333 37 -123c13.333 -16.667 29.666 -29 48.999 -37c17.333 -8 38 -12 62 -12c51.333 0 89.666 18 114.999 54c23.333 32.667 35 75.334 35 128.001z" />
    <glyph glyph-name="q" unicode="q" horiz-adv-x="562" 
d="M497 -225l-81 0.000976562v281c-9.33301 -12 -18.333 -21 -27 -27c-36 -29.333 -81 -44 -135 -44c-56 0 -102.333 16 -139 48c-50 43.333 -75 108.666 -75 195.999c0 78 18.667 139.333 56 184c12 15.333 27.667 29 47 41c34 21.333 71.333 32 112 32
c53.333 0 98.333 -17.667 135 -53c10 -10 18.667 -20.667 26 -32v70h81v-696zM422 219.001c0 58 -12.666 104.001 -37.999 138.001c-12.667 17.333 -28.667 31 -48 41c-16 8 -36.667 12.333 -62 13c-34.667 0 -63.334 -8 -86.001 -24c-40.667 -29.333 -61 -80.333 -61 -153
c0 -71.333 18 -122 54 -152c25.333 -21.333 56.333 -32 93 -32c27.333 0 52 6 74 18c49.333 25.333 74 75.666 74 150.999z" />
    <glyph glyph-name="r" unicode="r" horiz-adv-x="313" 
d="M306 391c-24 3.33301 -43.667 3.33301 -59 0c-23.333 -4 -43.5 -13.667 -60.5 -29s-28.5 -34.333 -34.5 -57c-4.66699 -16 -7 -45 -7 -87v-218h-80v471h80v-86c11.333 22 26 40 44 54c32 25.333 71 38 117 38v-86z" />
    <glyph glyph-name="s" unicode="s" horiz-adv-x="479" 
d="M447 134c0 -26 -7 -49.665 -21 -70.998c-34 -52 -93.333 -78 -178 -78c-57.333 0 -104 11.333 -140 34c-12.667 8 -24 18 -34 30c-21.333 26 -35.666 60.333 -42.999 103l91 13c0 -36.667 8.66699 -64.334 26 -83.001c22 -24 57 -36 105 -36c38.667 0 68 9 88 27
c14.667 13.333 22 30.666 22 51.999c0 13.333 -3 25 -9 35c-10.667 17.333 -40.334 30.666 -89.001 39.999l-46 9c-50 10 -87 22.333 -111 37c-38 22.667 -57 56 -57 100c0 28.667 8.33301 54.334 25 77.001c32 42 84.667 63 158 63c44 0 80.667 -8.33301 110 -25
s51.333 -36 66 -58c12 -18.667 20.333 -42.667 25 -72l-86 -10c-0.666992 21.333 -3 36 -7 44c-7.33301 15.333 -21.333 29.166 -42 41.499s-46.334 18.5 -77.001 18.5c-30 0 -53 -7.16699 -69 -21.5s-24 -30.166 -24 -47.499c0 -8 2.33301 -16.333 7 -25
c6.66699 -11.333 18.334 -20.5 35.001 -27.5s40.667 -14.167 72 -21.5l46 -11c2.66699 -0.666992 17 -4.66699 43 -12c76 -23.333 114 -65 114 -125z" />
    <glyph glyph-name="t" unicode="t" horiz-adv-x="292" 
d="M259 0c-32 -5.33301 -57.332 -7.99902 -75.999 -7.99902c-40.667 0 -67.334 9.66699 -80.001 29c-4 6 -6.83301 13.167 -8.5 21.5s-2.5 15.166 -2.5 20.499v36v306h-76v66h76v149h82v-149h85v-66h-85v-270c0 -36.667 2 -58.667 6 -66c5.33301 -9.33301 15 -14 29 -14
c13.333 0 30 3.66699 50 11v-66z" />
    <glyph glyph-name="u" unicode="u" 
d="M454 0l-77.999 0.000976562l-1 72c-5.33301 -8 -12 -16 -20 -24c-40 -40 -86.667 -60 -140 -60c-58.667 0 -100.667 20.667 -126 62c-3.33301 5.33301 -6.33301 11.166 -9 17.499s-4.83398 12 -6.50098 17s-3 11.333 -4 19s-1.83301 13.334 -2.5 17.001
s-1.16699 10.167 -1.5 19.5s-0.5 15.166 -0.5 17.499v19.5v18v276h79v-268c0 -48 3.66699 -79.667 11 -95c15.333 -30 44 -45 86 -45c50 0 87.333 18 112 54c15.333 22.667 23 62 23 118v236h78v-471z" />
    <glyph glyph-name="v" unicode="v" horiz-adv-x="437" 
d="M426 471l-170 -471h-72l-172 471h83l125 -361l124 361h82z" />
    <glyph glyph-name="w" unicode="w" horiz-adv-x="729" 
d="M719 471l-173 -471h-70l-113 351l-115 -351h-73l-164 471h86l118 -350l116 350h70l111 -350l123 350h84z" />
    <glyph glyph-name="x" unicode="x" horiz-adv-x="396" 
d="M387 0h-90l-100 168l-98 -168h-90l146 239l-139 232h92l94 -162l95 162h90l-142 -232z" />
    <glyph glyph-name="y" unicode="y" horiz-adv-x="437" 
d="M425 471l-198.001 -556.999c-14 -38 -24 -62.667 -30 -74c-13.333 -26.667 -28.666 -45.5 -45.999 -56.5s-41 -16.5 -71 -16.5c-23.333 0 -47 3.33301 -71 10v72c19.333 -5.33301 36.333 -8 51 -8c19.333 0 34 3.33301 44 10c17.333 11.333 34 40.666 50 87.999l20 58
l-160 474h85l118 -374l125 374h83z" />
    <glyph glyph-name="z" unicode="z" horiz-adv-x="417" 
d="M389 0h-376v66l271 336h-245v69h344v-64l-274 -341h280v-66z" />
    <glyph glyph-name="braceleft" unicode="{" horiz-adv-x="281" 
d="M268 -148l-38.002 -0.00195312c-46.667 0 -79.667 11.667 -99 35c-11.333 13.333 -19 28 -23 44c-4 17.333 -6 45 -6 83v6v161c0 36.667 -3.33301 61 -10 73c-10.667 18.667 -35.667 30 -75 34v60c24.667 1.33301 43.334 6 56.001 14c11.333 6.66699 19 16.334 23 29.001
s6 33.667 6 63v161v6c0 38 2 65.667 6 83c12 50 52.667 76 122 78l38 1v-58h-17c-24 0 -41.333 -5.33301 -52 -16c-6 -7.33301 -10 -14.666 -12 -21.999c-2.66699 -10 -4 -33.667 -4 -71v-164c0 -41.333 -5.5 -71 -16.5 -89s-32.833 -33.333 -65.5 -46
c20 -6 35.667 -14 47 -24c13.333 -12 22.5 -25.833 27.5 -41.5s7.5 -38.5 7.5 -68.5v-165c0 -36.667 1.33301 -60 4 -70c6.66699 -25.333 28.334 -38 65.001 -38h16v-58z" />
    <glyph glyph-name="bar" unicode="|" horiz-adv-x="236" 
d="M157 -143h-80v922h80v-922z" />
    <glyph glyph-name="braceright" unicode="}" horiz-adv-x="281" 
d="M263 287c-24.667 -2.66699 -43.3301 -7.66895 -55.9971 -15.002c-11.333 -6.66699 -19 -16.167 -23 -28.5s-6 -33.166 -6 -62.499l1 -162v-5c0 -34.667 -2.33301 -62.667 -7 -84c-12.667 -52 -53 -78 -121 -78h-39v58h17c24.667 0 42 5.33301 52 16c6 6 10 13.333 12 22
c3.33301 11.333 5 34.666 5 69.999l-1 164c-0.666992 41.333 4.66602 71 15.999 89s33.333 33.667 66 47c-18.667 4.66699 -34.334 12.667 -47.001 24c-13.333 11.333 -22.5 25 -27.5 41s-7.5 39 -7.5 69l1 164c0 34.667 -1.66699 58.334 -5 71.001
c-6.66699 24.667 -28.334 37 -65.001 37h-16v58h38c47.333 0 80.333 -11.667 99 -35c11.333 -14 19 -28.333 23 -43c4.66699 -21.333 7 -49.333 7 -84v-5l-1 -162c0 -34.667 3.33301 -58.667 10 -72c10.667 -19.333 35.667 -30.666 75 -33.999v-60z" />
    <glyph glyph-name="asciitilde" unicode="~" horiz-adv-x="724" 
d="M651 315c-26 -32 -49.999 -55.333 -71.999 -70c-31.333 -20 -62.333 -30 -93 -30c-18.667 0 -40.667 5 -66 15c-14.667 5.33301 -32.667 13 -54 23l-35 17c-43.333 20.667 -78 31 -104 31c-12 0 -23 -2 -33 -6c-10.667 -4 -20.167 -10 -28.5 -18
s-21.833 -22.667 -40.5 -44l-6 -7l-45 61c17.333 24.667 35 45 53 61c30 26.667 65 40 105 40c27.333 0 71.666 -13.667 132.999 -41l45 -20c36.667 -16.667 63 -25 79 -25c23.333 0 45.333 7.66699 66 23c13.333 9.33301 30.333 26 51 50z" />
    <glyph glyph-name="exclamdown" unicode="&#xa1;" horiz-adv-x="271" 
d="M156 616h-79v90h79v-90zM156 0h-79v288l24 271h31l24 -282v-277z" />
    <glyph glyph-name="cent" unicode="&#xa2;" horiz-adv-x="500" 
d="M484 172c-18 -85.333 -59.334 -141.334 -124.001 -168.001c-17.333 -7.33301 -40.333 -12.666 -69 -15.999v-103h-60v103c-53.333 10.667 -93.666 27.667 -120.999 51c-28.667 25.333 -49.5 56.166 -62.5 92.499s-19.5 71.5 -19.5 105.5c0 43.333 9.66699 85.5 29 126.5
s51.333 72.5 96 94.5c18 9.33301 44.333 17 79 23v96h59v-95c16.667 -2.66699 31.5 -6 44.5 -10s29 -11.167 48 -21.5s36.333 -26.166 52 -47.499s28.5 -47.666 38.5 -78.999l-90 -8c-5.33301 52 -36.333 85.667 -93 101v-364c66 11.333 101 53.666 105 126.999z
M230.999 53.999v365c-18.667 -6 -29.667 -10 -33 -12c-56.667 -29.333 -85 -86 -85 -170c0 -80.667 24.667 -136 74 -166c19.333 -11.333 34 -17 44 -17z" />
    <glyph glyph-name="sterling" unicode="&#xa3;" horiz-adv-x="667" 
d="M653 172c-2.66699 -35.333 -12.4971 -68.835 -29.4971 -100.502s-40.167 -54.834 -69.5 -69.501c-18.667 -9.33301 -41.667 -14 -69 -14c-32.667 0 -67.334 6.33301 -104.001 19c-10.667 4 -25.334 10.333 -44.001 19s-31.334 14.334 -38.001 17.001
c-2.66699 -2 -6.33398 -4.83301 -11.001 -8.5s-9 -7 -13 -10s-8 -5.83301 -12 -8.5c-31.333 -20.667 -66.333 -31 -105 -31c-12 0 -24 1.66699 -36 5c-28 7.33301 -47.667 19.5 -59 36.5s-17 33.833 -17 50.5c0 16 4.33301 30.667 13 44c18.667 28.667 50.667 43 96 43
c31.333 0 64.666 -6 99.999 -18c2 9.33301 2.66699 16.666 2 21.999c-1.33301 18.667 -7 40.334 -17 65.001c-7.33301 16 -16.333 32 -27 48h-177v65l131 1c-40.667 66 -61 121.667 -61 167c0 46 15.333 86.667 46 122c22 25.333 49.667 45.166 83 59.499
s59.5 22.666 78.5 24.999s37.167 3.5 54.5 3.5c58 0 108 -14 150 -42c24 -16 45.833 -38.833 65.5 -68.5s30.167 -67.834 31.5 -114.501l-105 -10c2 15.333 1.66699 30.666 -1 45.999c-5.33301 28.667 -19.333 55.334 -42 80.001s-58 37 -106 37
c-21.333 0 -40.666 -3 -57.999 -9c-59.333 -19.333 -89 -59.333 -89 -120c0 -17.333 2.66699 -34.666 8 -51.999s10.5 -30.666 15.5 -39.999s14.167 -24 27.5 -44s22 -33.667 26 -41h209v-65h-173c1.33301 -3.33301 3.5 -9.66602 6.5 -18.999s5 -15.666 6 -18.999
s2.33301 -8.33301 4 -15s2.83398 -13.167 3.50098 -19.5s1 -13.166 1 -20.499c0 -22 -3.66699 -47.333 -11 -76c4.66699 -2.66699 9 -5.33398 13 -8.00098c8.66699 -5.33301 24.5 -12.166 47.5 -20.499s44.167 -12.5 63.5 -12.5c30.667 0 54.667 10.167 72 30.5
s26.333 45.833 27 76.5zM227.003 76.998c-8 3.33301 -20 7 -36 11c-8 4 -19.333 6 -34 6c-13.333 0 -22.666 -4 -27.999 -12c-2.66699 -2.66699 -4 -6.66699 -4 -12c0 -6 2.83301 -11.5 8.5 -16.5s13.5 -7.5 23.5 -7.5c23.333 0 46.666 10.333 69.999 31z" />
    <glyph glyph-name="currency" unicode="&#xa4;" horiz-adv-x="663" 
d="M618 569l-75 -74.999c34 -50.667 51 -102.334 51 -155.001c0 -54.667 -17.333 -106.667 -52 -156l75 -76l-56 -55l-75 76c-30 -20 -55.833 -33.667 -77.5 -41s-47.5 -11 -77.5 -11c-30.667 0 -57.167 3.83301 -79.5 11.5s-47.5 21.167 -75.5 40.5l-76 -74l-55 55l76 74
c-34.667 48.667 -52 101 -52 157c0 54 17.333 105.667 52 155l-74 74l55 55l74 -74c48 34.667 100 52 156 52c60 0 111.667 -17.333 155 -52l75 75zM508 338.001c0 51.333 -16.666 94.167 -49.999 128.5s-75.333 51.5 -126 51.5c-50 0 -92 -17 -126 -51
s-51 -76.333 -51 -127c0 -51.333 17.167 -94 51.5 -128s77.166 -51 128.499 -51c48.667 0 89.667 17 123 51s50 76 50 126z" />
    <glyph glyph-name="yen" unicode="&#xa5;" horiz-adv-x="625" 
d="M611 677l-171 -247h112v-72h-159l-38 -52h197v-72h-195v-234h-94v234h-194v72h194l-32 51h-162v71h113l-168 249h112l185 -287l189 287h111z" />
    <glyph glyph-name="brokenbar" unicode="&#xa6;" horiz-adv-x="252" 
d="M167 383h-82v402h82v-402zM167 -137h-82v401h82v-401z" />
    <glyph glyph-name="section" unicode="&#xa7;" horiz-adv-x="625" 
d="M589 297c0 -32 -8.49805 -62.167 -25.498 -90.5s-39.833 -50.5 -68.5 -66.5c33.333 -30 50 -63.333 50 -100c0 -21.333 -6 -43 -18 -65c-17.333 -32.667 -42.833 -57 -76.5 -73s-70.5 -24 -110.5 -24c-67.333 0 -154.333 27 -261 81l40 74c32 -22.667 68 -41 108 -55
s78.667 -21 116 -21c26.667 0 50.5 5.66699 71.5 17s31.5 29.333 31.5 54v3c0 10 -1.5 18.833 -4.5 26.5s-8.5 14.334 -16.5 20.001s-14.667 10 -20 13s-14.333 7 -27 12s-20.667 8.16699 -24 9.5c-2 0.666992 -19.167 8 -51.5 22s-55.333 24.333 -69 31
s-33.334 16.667 -59.001 30s-46.667 26.166 -63 38.499s-29.5 24.833 -39.5 37.5c-23.333 28.667 -35 62 -35 100c0 30.667 8.83301 59.834 26.5 87.501s40.5 49.5 68.5 65.5c-28 28 -42 57.667 -42 89c0 32.667 10.833 61.834 32.5 87.501s48.834 44.167 81.501 55.5
c28 10 57 15 87 15h6c54.667 0 117.667 -16 189 -48c4 -2 12.333 -6 25 -12s22.334 -10.333 29.001 -13l-40 -71c-27.333 16 -49.333 28 -66 36s-37.834 15.833 -63.501 23.5s-50.834 11.5 -75.501 11.5c-16 0 -32 -2 -48 -6s-31 -11.5 -45 -22.5s-21 -24.833 -21 -41.5
c0 -10.667 1.83301 -19.834 5.5 -27.501s10.667 -14.834 21 -21.501s17.666 -11 21.999 -13s13.833 -5.66699 28.5 -11c1.33301 -0.666992 2.5 -1.16699 3.5 -1.5s2.16699 -0.833008 3.5 -1.5c90 -34 147.333 -57 172 -69c47.333 -22.667 84.5 -48.167 111.5 -76.5
s40.5 -64.833 40.5 -109.5zM502.002 288c0 17.333 -5.66699 34.335 -17 51.002c-7.33301 10.667 -17.166 21 -29.499 31s-27.333 19.5 -45 28.5s-32.5 16.167 -44.5 21.5s-28.667 12 -50 20s-35 13.333 -41 16l-64 26c-21.333 -7.33301 -40.5 -20.833 -57.5 -40.5
s-25.5 -39.834 -25.5 -60.501c0 -28 12.667 -52.333 38 -73c10.667 -9.33301 28.167 -20.5 52.5 -33.5s46.333 -24 66 -33s45 -20.333 76 -34s49.167 -21.834 54.5 -24.501c23.333 8.66699 43.666 22.5 60.999 41.5s26 40.167 26 63.5z" />
    <glyph glyph-name="dieresis" unicode="&#xa8;" horiz-adv-x="271" 
d="M278 541h-89v103h89v-103zM80 541h-87v103h87v-103z" />
    <glyph glyph-name="copyright" unicode="&#xa9;" horiz-adv-x="840" 
d="M776 360c0 -103.333 -33.999 -189.667 -101.999 -259s-153 -104 -255 -104c-98.667 0 -182.5 34.667 -251.5 104s-103.5 153.333 -103.5 252c0 99.333 34.667 183.5 104 252.5s153.666 103.5 252.999 103.5c97.333 0 180.833 -34.333 250.5 -103
s104.5 -150.667 104.5 -246zM740.001 345.999c0 93.333 -30.667 171.5 -92 234.5s-137.333 94.5 -228 94.5c-88.667 0 -164.167 -31.5 -226.5 -94.5s-93.5 -139.167 -93.5 -228.5s31 -165.166 93 -227.499s137.667 -93.5 227 -93.5c86.667 0 161.667 31.167 225 93.5
s95 136.166 95 221.499zM620.001 275.999c-30 -104.667 -95.665 -157 -196.998 -157c-62.667 0 -113.167 20.833 -151.5 62.5s-57.5 96.167 -57.5 163.5c0 70.667 20.333 128.5 61 173.5s93.334 67.5 158.001 67.5c47.333 0 85.666 -11 114.999 -33s52 -57 68 -105l-67 -19
c-14 34.667 -29.5 58.667 -46.5 72s-40.5 20 -70.5 20c-44 0 -79 -15.5 -105 -46.5s-39 -72.833 -39 -125.5c0 -50 12.333 -89.667 37 -119s57.667 -44 99 -44c33.333 0 60.166 8.33301 80.499 25s36.166 43 47.499 79z" />
    <glyph glyph-name="ordfeminine" unicode="&#xaa;" horiz-adv-x="313" 
d="M298 429c-8 -3.33301 -17.002 -5.33496 -27.002 -6.00195c-26.667 -0.666992 -45.667 11.666 -57 36.999c-26 -28 -58 -41.667 -96 -41c-24 0 -44.667 6.83301 -62 20.5s-26 33.167 -26 58.5c0 18.667 4.16699 34.334 12.5 47.001s21.333 22.334 39 29.001
s36.167 11.5 55.5 14.5s44 5.5 74 7.5v11c0 22.667 -3.66699 40 -11 52s-22.333 18 -45 18c-38 0 -57 -17.667 -57 -53v-6l-55 4l1 7c0.666992 4.66699 1.83398 10.167 3.50098 16.5s3.5 11.833 5.5 16.5c16.667 37.333 50.334 56 101.001 56c53.333 0 87 -19.667 101 -59
c4 -9.33301 6 -22.666 6 -39.999v-109c0 -26.667 7.33301 -40 22 -40c5.33301 0 10.333 1.66699 15 5v-46zM210.998 542.998v16.999l-21 -3c-50.667 -7.33301 -81 -16.666 -91 -27.999c-7.33301 -8 -11 -16.667 -11 -26c-0.666992 -14 4 -24.333 14 -31s21.667 -10 35 -10
c19.333 0.666992 36.5 7 51.5 19s22.5 32.667 22.5 62z" />
    <glyph glyph-name="guillemotleft" unicode="&#xab;" horiz-adv-x="396" 
d="M334 141l-134 113v83l134 116v-89l-80 -71l80 -66v-86zM177 137l-135 113v85l135 117v-91l-78 -68l78 -67v-89z" />
    <glyph glyph-name="logicalnot" unicode="&#xac;" horiz-adv-x="724" 
d="M636 6h-89v255h-477v80h566v-335z" />
    <glyph glyph-name="registered" unicode="&#xae;" horiz-adv-x="840" 
d="M776 360c0 -103.333 -33.999 -189.667 -101.999 -259s-153 -104 -255 -104c-98.667 0 -182.5 34.667 -251.5 104s-103.5 153.333 -103.5 252c0 99.333 34.667 183.5 104 252.5s153.666 103.5 252.999 103.5c97.333 0 180.833 -34.333 250.5 -103
s104.5 -150.667 104.5 -246zM740.001 345.999c0 93.333 -30.667 171.5 -92 234.5s-137.333 94.5 -228 94.5c-88.667 0 -164 -31.5 -226 -94.5s-93 -139.167 -93 -228.5s31 -165.166 93 -227.499s137.333 -93.5 226 -93.5c86.667 0 161.667 31.167 225 93.5
s95 136.166 95 221.499zM576.001 127.999l-76.999 0.000976562l-95 189h-54v-189h-69v450h130c55.333 0 95.666 -10.333 120.999 -31s38 -53.334 38 -98.001c0 -66.667 -32 -108.667 -96 -126zM500.002 448c0 24.667 -7.66797 42.333 -23.001 53s-40.666 16 -75.999 16h-50
v-139h57c32 0 55.333 5.5 70 16.5s22 28.833 22 53.5z" />
    <glyph glyph-name="macron" unicode="&#xaf;" horiz-adv-x="271" 
d="M278 541h-285v68h285v-68z" />
    <glyph glyph-name="degree" unicode="&#xb0;" horiz-adv-x="354" 
d="M338 594c0 -44.667 -15.667 -82.834 -47 -114.501s-69.333 -47.5 -114 -47.5s-82.667 15.833 -114 47.5s-47 69.834 -47 114.501s15.667 82.667 47 114s69.333 47 114 47c45.333 0 83.5 -15.5 114.5 -46.5s46.5 -69.167 46.5 -114.5zM256 596
c0 22 -7.66699 40.667 -23 56s-34 23 -56 23s-40.667 -7.66699 -56 -23s-23 -34 -23 -56c0 -21.333 7.83301 -39.833 23.5 -55.5s34.167 -23.5 55.5 -23.5c22 0 40.667 7.66699 56 23s23 34 23 56z" />
    <glyph glyph-name="plusminus" unicode="&#xb1;" horiz-adv-x="724" 
d="M631 355h-225v-219h-88v219h-224v78h224v217h88v-217h225v-78zM630 0h-536l-1 79h537v-79z" />
    <glyph glyph-name="twosuperior" unicode="&#xb2;" horiz-adv-x="375" 
d="M341 233l-297.002 -0.000976562v61l10 6c34 20.667 69.167 46.167 105.5 76.5s63.5 59.5 81.5 87.5c19.333 29.333 29 56.666 29 81.999c0 24 -7.66699 43.167 -23 57.5s-34.666 21.833 -57.999 22.5c-27.333 0.666992 -47.833 -7.16602 -61.5 -23.499
s-20.5 -37.5 -20.5 -63.5c0 -10.667 2.66699 -28 8 -52h-65c-4 17.333 -6 35 -6 53c0 42.667 12.833 76.834 38.5 102.501s60.167 39.167 103.5 40.5c42.667 1.33301 78.334 -10.5 107.001 -35.5s43 -59.167 43 -102.5c0 -82 -68 -167.333 -204 -256h209v-56z" />
    <glyph glyph-name="threesuperior" unicode="&#xb3;" horiz-adv-x="375" 
d="M351 357c0 -35.333 -13.333 -66.4971 -40 -93.4971s-67.667 -40.167 -123 -39.5c-78.667 2 -130 30.667 -154 86c-8.66699 20.667 -13 42.667 -13 66h67c0 -64 34.333 -95.333 103 -94c6.66699 0 13.5 0.5 20.5 1.5s16.667 3.66699 29 8s22.166 12.166 29.499 23.499
s11 25.666 11 42.999c0 47.333 -28.333 71 -85 71h-43v59h33h11c3.33301 0 10 1.16699 20 3.5s18.333 5.5 25 9.5s13 10.667 19 20s9 20.333 9 33c0 23.333 -8.5 41.166 -25.5 53.499s-36.5 18.5 -58.5 18.5c-48 0 -76 -25 -84 -75c-1.33301 -9.33301 -2 -19 -2 -29l-65 1
c0 28 3.33301 51 10 69c22.667 60.667 69.334 91 140.001 91c40.667 0 76.167 -11.167 106.5 -33.5s45.5 -54.5 45.5 -96.5c0 -46 -24 -76.333 -72 -91c19.333 -4.66699 33 -9.66699 41 -15c30 -18.667 45 -48.667 45 -90z" />
    <glyph glyph-name="acute" unicode="&#xb4;" horiz-adv-x="271" 
d="M199 666l-86 -144h-41l41 144h86z" />
    <glyph glyph-name="mu" unicode="&#xb5;" horiz-adv-x="564" 
d="M530 -2c-18.667 -4.66699 -33.0029 -6.99902 -43.0029 -6.99902c-27.333 0 -47.833 6.16699 -61.5 18.5s-22.5 32.833 -26.5 61.5c-15.333 -29.333 -32.5 -50.333 -51.5 -63s-43.833 -19 -74.5 -19c-45.333 0 -81.666 19.667 -108.999 59l4 -264h-82v686h80v-236
c0 -68 7.33301 -112.667 22 -134c18.667 -29.333 47.334 -44 86.001 -44c45.333 0 78 22.667 98 68c11.333 25.333 17 68.666 17 129.999l1 216h79v-347c0 -26.667 2.33301 -44.667 7 -54s13.334 -14 26.001 -14c8 0 17.333 2.33301 28 7v-64z" />
    <glyph glyph-name="paragraph" unicode="&#xb6;" horiz-adv-x="642" 
d="M525 652h-33.002v-819h-57v819h-146v-819h-57v490c-18.667 2.66699 -34 6.33398 -46 11.001c-34 12.667 -60.833 34.667 -80.5 66s-29.5 67.666 -29.5 108.999c0 58.667 18.333 105.667 55 141c20.667 20 43.834 34.333 69.501 43s58.834 13 99.501 13h225v-54z" />
    <glyph glyph-name="periodcentered" unicode="&#xb7;" horiz-adv-x="200" 
d="M151 228h-102v124h102v-124z" />
    <glyph glyph-name="cedilla" unicode="&#xb8;" horiz-adv-x="271" 
d="M203 -117c0 -14 -4.33301 -27.667 -13 -41c-18.667 -27.333 -56.667 -42.333 -114 -45l1 23c6 -2 13.667 -1.66699 23 1c18.667 4.66699 28 16.334 28 35.001c0 8.66699 -2 15 -6 19c-3.33301 5.33301 -7.83301 9.66602 -13.5 12.999s-13 6.5 -22 9.5
s-15.167 5.16699 -18.5 6.5l73 112l29 -7l-29 -52c3.33301 -2 8.5 -4.83301 15.5 -8.5s12.167 -6.5 15.5 -8.5c20.667 -15.333 31 -34.333 31 -57z" />
    <glyph glyph-name="onesuperior" unicode="&#xb9;" horiz-adv-x="375" 
d="M233 233h-67v327h-86v45c30 2 53.333 8.16699 70 18.5s27.667 30.5 33 60.5h50v-451z" />
    <glyph glyph-name="ordmasculine" unicode="&#xba;" horiz-adv-x="333" 
d="M307 565c0 -42.667 -12.5 -77.999 -37.5 -105.999s-58.833 -42 -101.5 -42c-42.667 -0.666992 -76.667 12.666 -102 39.999s-38.666 62 -39.999 104c0 18.667 2.33301 36 7 52c6 22.667 15.5 41.667 28.5 57s27.167 25.833 42.5 31.5s27.666 9.5 36.999 11.5
s18.333 3 27 3c43.333 0 77.333 -14.833 102 -44.5s37 -65.167 37 -106.5zM250 567.001c0 28 -6.83203 52.166 -20.499 72.499s-34.834 30.833 -63.501 31.5c-24 0 -43.833 -8.66699 -59.5 -26s-23.5 -44 -23.5 -80c0 -12 1.66699 -25.333 5 -40
c11.333 -41.333 37 -62.666 77 -63.999c24.667 -0.666992 45 7.5 61 24.5s24 44.167 24 81.5z" />
    <glyph glyph-name="guillemotright" unicode="&#xbb;" horiz-adv-x="396" 
d="M353 253l-135 -117v90l79 69l-79 66v89l135 -113v-84zM196 250l-134 -116v90l80 70l-80 67v85l134 -113v-83z" />
    <glyph glyph-name="onequarter" unicode="&#xbc;" horiz-adv-x="875" 
d="M853 109h-65v-109h-63v109h-203v58l214 283h53v-285h64v-56zM620 656l-317 -685l-55 26l318 685zM233 233h-67v327h-86v45c30 2 53.333 8.16699 70 18.5s27.667 30.5 33 60.5h50v-451zM728 356l-139 -191h137z" />
    <glyph glyph-name="onehalf" unicode="&#xbd;" horiz-adv-x="875" 
d="M841 0l-297.003 0.00195312v61l11 6c40.667 22 77.334 48.167 110.001 78.5s56.667 56.5 72 78.5c22 32 33 62 33 90c0 7.33301 -1.16699 14.833 -3.5 22.5s-6.16602 16 -11.499 25s-13.666 16.5 -24.999 22.5s-25 9.33301 -41 10
c-27.333 0.666992 -47.833 -7.16602 -61.5 -23.499s-20.5 -37.833 -20.5 -64.5c0 -10.667 2.66699 -27.667 8 -51h-65c-4 17.333 -6 34.666 -6 51.999c0 43.333 12.833 77.666 38.5 102.999s60.167 38.666 103.5 39.999c42 1.33301 77.333 -10.5 106 -35.5
s43 -59.167 43 -102.5c0 -82.667 -67.667 -167.667 -203 -255h209v-57zM595.997 656.002l-317 -685l-55 26l318 685zM232.997 233.002h-67v327h-86v45c30 2 53.333 8.16699 70 18.5s27.667 30.5 33 60.5h50v-451z" />
    <glyph glyph-name="threequarters" unicode="&#xbe;" horiz-adv-x="875" 
d="M853 109h-65v-109h-63v109h-203v58l214 283h53v-285h64v-56zM663 656l-317 -685l-55 26l318 685zM351 357c0 -35.333 -13.333 -66.4971 -40 -93.4971s-67.667 -40.167 -123 -39.5c-78.667 2 -130 30.667 -154 86c-8.66699 20.667 -13 42.667 -13 66h67
c0 -64 34.333 -95.333 103 -94c6.66699 0 13.5 0.5 20.5 1.5s16.667 3.66699 29 8s22.166 12.166 29.499 23.499s11 25.666 11 42.999c0 47.333 -28.333 71 -85 71h-43v59h33h11c3.33301 0 10 1.16699 20 3.5s18.333 5.5 25 9.5s13 10.667 19 20s9 20.333 9 33
c0 23.333 -8.5 41.166 -25.5 53.499s-36.5 18.5 -58.5 18.5c-48 0 -76 -25 -84 -75c-1.33301 -9.33301 -2 -19 -2 -29l-65 1c0 28 3.33301 51 10 69c22.667 60.667 69.334 91 140.001 91c40.667 0 76.167 -11.167 106.5 -33.5s45.5 -54.5 45.5 -96.5
c0 -46 -24 -76.333 -72 -91c19.333 -4.66699 33 -9.66699 41 -15c30 -18.667 45 -48.667 45 -90zM728 356.003l-139 -191h137z" />
    <glyph glyph-name="questiondown" unicode="&#xbf;" horiz-adv-x="562" 
d="M311 609h-89v97h89v-97zM492 232c0 -68.667 -17.6709 -123.668 -53.0039 -165.001c-43.333 -48.667 -100.333 -73 -171 -73c-63.333 0 -117.666 20.333 -162.999 61s-68 92.334 -68 155.001c0 36 9 69.667 27 101s43 55 75 71c24.667 12.667 54 20 88 22v152h78v-236h-32
c-37.333 0 -68.666 -6.33301 -93.999 -19c-15.333 -7.33301 -27.333 -17.333 -36 -30c-16 -19.333 -24 -43 -24 -71c0 -23.333 5.33301 -44.333 16 -63c10 -17.333 26.333 -33 49 -47s51.334 -21 86.001 -21c28.667 0 53.334 5.66699 74.001 17
c40.667 23.333 61 66.333 61 129c0 2 -0.166992 5 -0.5 9s-0.5 7 -0.5 9z" />
    <glyph glyph-name="Agrave" unicode="&#xc0;" horiz-adv-x="646" 
d="M365 771h-60l-87 124h100zM634 0h-99l-77 216h-269l-79 -216h-100l269 706h98zM430 295l-103 295l-108 -295h211z" />
    <glyph glyph-name="Aacute" unicode="&#xc1;" horiz-adv-x="646" 
d="M428 895l-87 -124h-60l48 124h99zM634 0h-99l-77 216h-269l-79 -216h-100l269 706h98zM430 295l-103 295l-108 -295h211z" />
    <glyph glyph-name="Acircumflex" unicode="&#xc2;" horiz-adv-x="646" 
d="M461 771h-77l-62 74l-59 -74h-75l101 124h65zM634 0h-99l-77 216h-269l-79 -216h-100l269 706h98zM430 295l-103 295l-108 -295h211z" />
    <glyph glyph-name="Atilde" unicode="&#xc3;" horiz-adv-x="646" 
d="M469 882c-2 -13.333 -5.66699 -26.999 -11 -40.999c-13.333 -40.667 -37.333 -60.667 -72 -60c-14.667 0 -42.334 8 -83.001 24c-19.333 8 -34.333 12 -45 12c-5.33301 0 -9 -0.333008 -11 -1c-11.333 -4 -18.333 -14 -21 -30h-49
c6.66699 41.333 20.334 69.666 41.001 84.999c12.667 9.33301 28.334 14 47.001 14c10 0 20 -1.5 30 -4.5s21 -7.16699 33 -12.5s21.667 -9 29 -11c8 -4 18.667 -6 32 -6c7.33301 0 12.666 1.33301 15.999 4c6 4 11.667 13 17 27h47zM634 0.000976562h-99l-77 216h-269
l-79 -216h-100l269 706h98zM430 295.001l-103 295l-108 -295h211z" />
    <glyph glyph-name="Adieresis" unicode="&#xc4;" horiz-adv-x="646" 
d="M467 781h-87v102h87v-102zM271 781h-87v102h87v-102zM634 0h-99l-77 216h-269l-79 -216h-100l269 706h98zM430 295l-103 295l-108 -295h211z" />
    <glyph glyph-name="Aring" unicode="&#xc5;" horiz-adv-x="646" 
d="M423 848c0 -26 -9.50098 -48.334 -28.501 -67.001s-41.5 -28 -67.5 -28c-26.667 0 -49.167 9.33301 -67.5 28s-27.5 41.334 -27.5 68.001c0 26 9.33301 48.167 28 66.5s41.334 27.5 68.001 27.5c26 0 48.333 -9.16699 67 -27.5s28 -40.833 28 -67.5z
M633.999 -0.000976562h-99l-77 216h-269l-79 -216h-100l269 706h98zM377.999 848.999c0 14 -5 25.833 -15 35.5s-22 14.5 -36 14.5s-25.833 -5 -35.5 -15s-14.5 -22 -14.5 -36s5 -25.833 15 -35.5s22 -14.5 36 -14.5c13.333 0 25 5 35 15s15 22 15 36zM429.999 294.999
l-103 295l-108 -295h211z" />
    <glyph glyph-name="AE" unicode="&#xc6;" horiz-adv-x="1042" 
d="M1014 0h-500v232h-252l-154 -232h-110l483 706h521v-83h-395v-231h319v-79h-319v-231h407v-82zM514 313v302l-197 -302h197z" />
    <glyph glyph-name="Ccedilla" unicode="&#xc7;" horiz-adv-x="764" 
d="M742 256c-10.667 -53.333 -35 -103.501 -73 -150.501s-84.333 -80.5 -139 -100.5c-24.667 -9.33301 -61 -16 -109 -20l-16 -28c1.33301 -1.33301 6.16602 -4.16602 14.499 -8.49902s15.5 -8.66602 21.5 -12.999s11.833 -11.166 17.5 -20.499s8.5 -20 8.5 -32
c0 -25.333 -11.333 -46 -34 -62s-53.667 -24 -93 -24v23c1.33301 -0.666992 3.66602 -1 6.99902 -1c14.667 0 26 4 34 12s11.667 16.667 11 26c-0.666992 12 -5.5 21.167 -14.5 27.5s-24.167 12.833 -45.5 19.5l52 79c-68.667 7.33301 -116.334 17.333 -143.001 30
c-54 24 -99.5 65.167 -136.5 123.5s-55.5 131.166 -55.5 218.499c0.666992 110.667 32.834 199.834 96.501 267.501s150.834 101.5 261.501 101.5c90 0 161.333 -20.833 214 -62.5s88.334 -92.834 107.001 -153.501l-95 -20c-12 34 -25 59.333 -39 76
c-45.333 56.667 -108 85 -188 85c-30.667 0 -60 -5 -88 -15s-54.833 -25.5 -80.5 -46.5s-46.167 -51.5 -61.5 -91.5s-23 -87 -23 -141c0 -36.667 4.66699 -71.834 14 -105.501s23.5 -65 42.5 -94s45.333 -52.167 79 -69.5s72.5 -26 116.5 -26c62 0 114 18.333 156 55
s68.333 87.667 79 153z" />
    <glyph glyph-name="Egrave" unicode="&#xc8;" horiz-adv-x="604" 
d="M354 771h-59l-87 124h99zM577 0h-498v706h486v-83h-396v-218h344v-82h-344v-241h408v-82z" />
    <glyph glyph-name="Eacute" unicode="&#xc9;" horiz-adv-x="604" 
d="M417 895l-87 -124h-60l48 124h99zM577 0h-498v706h486v-83h-396v-218h344v-82h-344v-241h408v-82z" />
    <glyph glyph-name="Ecircumflex" unicode="&#xca;" horiz-adv-x="604" 
d="M456 771h-77l-62 74l-59 -74h-75l101 124h65zM577 0h-498v706h486v-83h-396v-218h344v-82h-344v-241h408v-82z" />
    <glyph glyph-name="Edieresis" unicode="&#xcb;" horiz-adv-x="604" 
d="M460 781h-88v102h88v-102zM263 781h-87v102h87v-102zM577 0h-498v706h486v-83h-396v-218h344v-82h-344v-241h408v-82z" />
    <glyph glyph-name="Igrave" unicode="&#xcc;" horiz-adv-x="229" 
d="M156 771h-59l-87 124h99zM162 0h-95v706h95v-706z" />
    <glyph glyph-name="Iacute" unicode="&#xcd;" horiz-adv-x="229" 
d="M219 895l-86 -124h-60l48 124h98zM162 0h-95v706h95v-706z" />
    <glyph glyph-name="Icircumflex" unicode="&#xce;" horiz-adv-x="229" 
d="M253 771h-77l-62 74l-59 -74h-75l101 124h65zM162 0h-95v706h95v-706z" />
    <glyph glyph-name="Idieresis" unicode="&#xcf;" horiz-adv-x="229" 
d="M256 781h-87v102h87v-102zM60 781h-87v102h87v-102zM162 0h-95v706h95v-706z" />
    <glyph glyph-name="Eth" unicode="&#xd0;" horiz-adv-x="708" 
d="M658 347l0.00292969 -26.001c0 -6 -1.33301 -20.5 -4 -43.5s-6.5 -42.833 -11.5 -59.5s-13.167 -37.167 -24.5 -61.5s-24.833 -45.166 -40.5 -62.499s-36.334 -34 -62.001 -50s-54.5 -27.667 -86.5 -35c-24.667 -5.33301 -60.334 -8 -107.001 -8
c-8 0 -18.833 -0.166992 -32.5 -0.5s-24.5 -0.5 -32.5 -0.5h-179v341h-65v60h65v305h248c58.667 0 103 -5 133 -15c60.667 -20.667 109.167 -59.667 145.5 -117s54.166 -133 53.499 -227zM562.003 348.999c0 148 -51.002 236 -153.002 264c-26 6.66699 -62 10 -108 10h-126
v-222h168v-60h-168v-259h125c60 0 104 5.66699 132 17c40.667 16 72.334 45.167 95.001 87.5s34.334 96.5 35.001 162.5z" />
    <glyph glyph-name="Ntilde" unicode="&#xd1;" horiz-adv-x="708" 
d="M500 882c-2 -16 -5.33496 -29.666 -10.002 -40.999c-16.667 -40.667 -41 -60.667 -73 -60c-14 0 -41.667 8 -83 24c-19.333 8 -34.333 12 -45 12c-4 0 -7.33301 -0.333008 -10 -1c-12 -5.33301 -19.333 -15.333 -22 -30h-48c6 41.333 19.333 69.666 40 84.999
c12.667 9.33301 28.334 14 47.001 14c10 0 20 -1.5 30 -4.5s21.167 -7.16699 33.5 -12.5s21.833 -9 28.5 -11c12 -4 23 -6 33 -6c6.66699 0 11.667 1.33301 15 4c6.66699 4 12.334 13 17.001 27h47zM629.998 0.000976562h-85l-387 574l9 -574h-89v706h89l382 -566l-4 566h85
v-706z" />
    <glyph glyph-name="Ograve" unicode="&#xd2;" horiz-adv-x="812" 
d="M448 771h-59l-87 124h99zM762 359c0 -97.333 -24.666 -179.333 -73.999 -246c-65.333 -87.333 -160 -131 -284 -131c-98 0 -179 30 -243 90c-73.333 68.667 -110 162.667 -110 282c0 106.667 29.333 193 88 259c32.667 36 72.667 63.5 120 82.5s96.666 28.5 147.999 28.5
c50 0 96.667 -8.33301 140 -25c70.667 -27.333 124.167 -71.333 160.5 -132s54.5 -130 54.5 -208zM660.001 359c0 80.667 -18.333 145.999 -55 195.999c-45.333 62 -111.333 93 -198 93c-89.333 -0.666992 -156 -33 -200 -97c-36 -52 -54 -118 -54 -198
c0 -73.333 15.667 -135.666 47 -186.999c14 -21.333 29 -39 45 -53c20.667 -18 43.334 -31.667 68.001 -41c28.667 -10.667 60.667 -16 96 -16c40 0 75.667 7 107 21c40 18.667 74.167 51 102.5 97s42.166 107.667 41.499 185z" />
    <glyph glyph-name="Oacute" unicode="&#xd3;" horiz-adv-x="812" 
d="M511 895l-87 -124h-60l48 124h99zM762 359c0 -97.333 -24.666 -179.333 -73.999 -246c-65.333 -87.333 -160 -131 -284 -131c-98 0 -179 30 -243 90c-73.333 68.667 -110 162.667 -110 282c0 106.667 29.333 193 88 259c32.667 36 72.667 63.5 120 82.5
s96.666 28.5 147.999 28.5c50 0 96.667 -8.33301 140 -25c70.667 -27.333 124.167 -71.333 160.5 -132s54.5 -130 54.5 -208zM660.001 359c0 80.667 -18.333 145.999 -55 195.999c-45.333 62 -111.333 93 -198 93c-89.333 -0.666992 -156 -33 -200 -97
c-36 -52 -54 -118 -54 -198c0 -73.333 15.667 -135.666 47 -186.999c14 -21.333 29 -39 45 -53c20.667 -18 43.334 -31.667 68.001 -41c28.667 -10.667 60.667 -16 96 -16c40 0 75.667 7 107 21c40 18.667 74.167 51 102.5 97s42.166 107.667 41.499 185z" />
    <glyph glyph-name="Ocircumflex" unicode="&#xd4;" horiz-adv-x="812" 
d="M545 771h-77l-62 74l-60 -74h-74l100 124h65zM762 359c0 -97.333 -24.666 -179.333 -73.999 -246c-65.333 -87.333 -160 -131 -284 -131c-98 0 -179 30 -243 90c-73.333 68.667 -110 162.667 -110 282c0 106.667 29.333 193 88 259c32.667 36 72.667 63.5 120 82.5
s96.666 28.5 147.999 28.5c50 0 96.667 -8.33301 140 -25c70.667 -27.333 124.167 -71.333 160.5 -132s54.5 -130 54.5 -208zM660.001 359c0 80.667 -18.333 145.999 -55 195.999c-45.333 62 -111.333 93 -198 93c-89.333 -0.666992 -156 -33 -200 -97
c-36 -52 -54 -118 -54 -198c0 -73.333 15.667 -135.666 47 -186.999c14 -21.333 29 -39 45 -53c20.667 -18 43.334 -31.667 68.001 -41c28.667 -10.667 60.667 -16 96 -16c40 0 75.667 7 107 21c40 18.667 74.167 51 102.5 97s42.166 107.667 41.499 185z" />
    <glyph glyph-name="Otilde" unicode="&#xd5;" horiz-adv-x="812" 
d="M552 882c-2 -16 -5.33496 -29.666 -10.002 -40.999c-16.667 -40.667 -41 -60.667 -73 -60c-14.667 0 -42 8 -82 24c-20.667 8 -36 12 -46 12c-4 0 -7.33301 -0.333008 -10 -1c-12 -5.33301 -19.333 -15.333 -22 -30h-48c6 41.333 19.333 69.666 40 84.999
c12.667 9.33301 28.334 14 47.001 14c10 0 20 -1.5 30 -4.5s21.167 -7.16699 33.5 -12.5s21.833 -9 28.5 -11c12 -4 23 -6 33 -6c6.66699 0 11.667 1.33301 15 4c6.66699 4 12.334 13 17.001 27h47zM761.998 359.001c0 -97.333 -24.666 -179.333 -73.999 -246
c-65.333 -87.333 -160 -131 -284 -131c-98 0 -179 30 -243 90c-73.333 68.667 -110 162.667 -110 282c0 106.667 29.333 193 88 259c32.667 36 72.667 63.5 120 82.5s96.666 28.5 147.999 28.5c50 0 96.667 -8.33301 140 -25c70.667 -27.333 124.167 -71.333 160.5 -132
s54.5 -130 54.5 -208zM659.999 359.001c0 80.667 -18.333 145.999 -55 195.999c-45.333 62 -111.333 93 -198 93c-89.333 -0.666992 -156 -33 -200 -97c-36 -52 -54 -118 -54 -198c0 -73.333 15.667 -135.666 47 -186.999c14 -21.333 29 -39 45 -53
c20.667 -18 43.334 -31.667 68.001 -41c28.667 -10.667 60.667 -16 96 -16c40 0 75.667 7 107 21c40 18.667 74.167 51 102.5 97s42.166 107.667 41.499 185z" />
    <glyph glyph-name="Odieresis" unicode="&#xd6;" horiz-adv-x="812" 
d="M552 781h-87v102h87v-102zM356 781h-87v102h87v-102zM762 359c0 -97.333 -24.666 -179.333 -73.999 -246c-65.333 -87.333 -160 -131 -284 -131c-98 0 -179 30 -243 90c-73.333 68.667 -110 162.667 -110 282c0 106.667 29.333 193 88 259
c32.667 36 72.667 63.5 120 82.5s96.666 28.5 147.999 28.5c50 0 96.667 -8.33301 140 -25c70.667 -27.333 124.167 -71.333 160.5 -132s54.5 -130 54.5 -208zM660.001 359c0 80.667 -18.333 145.999 -55 195.999c-45.333 62 -111.333 93 -198 93
c-89.333 -0.666992 -156 -33 -200 -97c-36 -52 -54 -118 -54 -198c0 -73.333 15.667 -135.666 47 -186.999c14 -21.333 29 -39 45 -53c20.667 -18 43.334 -31.667 68.001 -41c28.667 -10.667 60.667 -16 96 -16c40 0 75.667 7 107 21c40 18.667 74.167 51 102.5 97
s42.166 107.667 41.499 185z" />
    <glyph glyph-name="multiply" unicode="&#xd7;" horiz-adv-x="724" 
d="M576 146l-61 -62l-163 159l-158 -160l-56 55l158 160l-164 161l62 62l163 -160l157 160l56 -55l-157 -160z" />
    <glyph glyph-name="Oslash" unicode="&#xd8;" horiz-adv-x="812" 
d="M763 355c0 -52 -9.99902 -103.333 -29.999 -154c-28.667 -70.667 -72.167 -124.834 -130.5 -162.501s-126.166 -56.5 -203.499 -56.5c-48 0 -90 7 -126 21s-73.333 36.667 -112 68l-65 -62l-49 50l69 66c-44 76 -66 152 -66 228c0 22 1.66699 44.833 5 68.5
s13.166 55.667 29.499 96s38.833 75.5 67.5 105.5c62.667 67.333 146.667 101 252 101c26 0 53.333 -2.66699 82 -8c53.333 -11.333 106.666 -38.666 159.999 -81.999l69 65l48 -51l-70 -68c46.667 -68 70 -143 70 -225zM580.001 571
c-46.667 52 -106.333 77.999 -179 77.999c-76 0 -136.333 -27.333 -181 -82c-44 -53.333 -66 -125.666 -66 -216.999c0 -54.667 10.667 -107 32 -157zM659.002 340.999c0 62 -12.668 119 -38.001 171l-397 -381c50.667 -50 111.334 -75 182.001 -75c66 0 121.667 21 167 63
c57.333 54 86 128 86 222z" />
    <glyph glyph-name="Ugrave" unicode="&#xd9;" horiz-adv-x="688" 
d="M386 771h-60l-87 124h99zM611 255c0 -36 -2 -63.3359 -6 -82.0029c-11.333 -62 -45.666 -111.333 -102.999 -148c-46 -28.667 -100.667 -43 -164 -43c-44 0 -82.333 6.33301 -115 19c-32 12 -60.167 30.667 -84.5 56s-41.833 54.333 -52.5 87
c-6.66699 22.667 -10 64.334 -10 125.001v437h94v-424c0 -41.333 1 -68.666 3 -81.999c5.33301 -40.667 20.666 -73 45.999 -97c16 -15.333 35.667 -26.666 59 -33.999c16.667 -4.66699 37 -7 61 -7c41.333 0 76.333 9.33301 105 28c22 14 38.5 32.667 49.5 56
s17.5 44.333 19.5 63s3 43.667 3 75v422h95v-451z" />
    <glyph glyph-name="Uacute" unicode="&#xda;" horiz-adv-x="688" 
d="M449 895l-87 -124h-60l48 124h99zM611 255c0 -36 -2 -63.3359 -6 -82.0029c-11.333 -62 -45.666 -111.333 -102.999 -148c-46 -28.667 -100.667 -43 -164 -43c-44 0 -82.333 6.33301 -115 19c-32 12 -60.167 30.667 -84.5 56s-41.833 54.333 -52.5 87
c-6.66699 22.667 -10 64.334 -10 125.001v437h94v-424c0 -41.333 1 -68.666 3 -81.999c5.33301 -40.667 20.666 -73 45.999 -97c16 -15.333 35.667 -26.666 59 -33.999c16.667 -4.66699 37 -7 61 -7c41.333 0 76.333 9.33301 105 28c22 14 38.5 32.667 49.5 56
s17.5 44.333 19.5 63s3 43.667 3 75v422h95v-451z" />
    <glyph glyph-name="Ucircumflex" unicode="&#xdb;" horiz-adv-x="688" 
d="M482 771h-77l-62 74l-59 -74h-75l101 124h65zM611 255c0 -36 -2 -63.3359 -6 -82.0029c-11.333 -62 -45.666 -111.333 -102.999 -148c-46 -28.667 -100.667 -43 -164 -43c-44 0 -82.333 6.33301 -115 19c-32 12 -60.167 30.667 -84.5 56s-41.833 54.333 -52.5 87
c-6.66699 22.667 -10 64.334 -10 125.001v437h94v-424c0 -41.333 1 -68.666 3 -81.999c5.33301 -40.667 20.666 -73 45.999 -97c16 -15.333 35.667 -26.666 59 -33.999c16.667 -4.66699 37 -7 61 -7c41.333 0 76.333 9.33301 105 28c22 14 38.5 32.667 49.5 56
s17.5 44.333 19.5 63s3 43.667 3 75v422h95v-451z" />
    <glyph glyph-name="Udieresis" unicode="&#xdc;" horiz-adv-x="688" 
d="M485 781h-87v102h87v-102zM288 781h-87v102h87v-102zM611 255c0 -36 -2 -63.3359 -6 -82.0029c-11.333 -62 -45.666 -111.333 -102.999 -148c-46 -28.667 -100.667 -43 -164 -43c-44 0 -82.333 6.33301 -115 19c-32 12 -60.167 30.667 -84.5 56s-41.833 54.333 -52.5 87
c-6.66699 22.667 -10 64.334 -10 125.001v437h94v-424c0 -41.333 1 -68.666 3 -81.999c5.33301 -40.667 20.666 -73 45.999 -97c16 -15.333 35.667 -26.666 59 -33.999c16.667 -4.66699 37 -7 61 -7c41.333 0 76.333 9.33301 105 28c22 14 38.5 32.667 49.5 56
s17.5 44.333 19.5 63s3 43.667 3 75v422h95v-451z" />
    <glyph glyph-name="Yacute" unicode="&#xdd;" horiz-adv-x="625" 
d="M417 895l-87 -124h-60l48 124h99zM611 706l-254 -383v-323h-95v323l-248 383h111l186 -299l188 299h112z" />
    <glyph glyph-name="Thorn" unicode="&#xde;" horiz-adv-x="625" 
d="M614 379c0.666992 -42.667 -9.83496 -83 -31.502 -121s-55.167 -64 -100.5 -78c-21.333 -6.66699 -54.333 -10 -99 -10h-216v-170h-91v706h91v-129h230c38.667 0 69.667 -3.66699 93 -11c42.667 -14 73.834 -38.5 93.501 -73.5s29.834 -72.833 30.501 -113.5z
M520.998 379c1.33301 77.333 -44.0029 116 -136.003 116h-218v-242h197h15h16c2.66699 0 7.83398 0.166992 15.501 0.5s13.334 1 17.001 2s8.83398 2.33301 15.501 4s12.167 3.83398 16.5 6.50098s9.33301 5.66699 15 9s10.667 7.66602 15 12.999s8.5 11 12.5 17
c12.667 19.333 19 44 19 74z" />
    <glyph glyph-name="germandbls" unicode="&#xdf;" horiz-adv-x="542" 
d="M503 232c0 -104.667 -32.3359 -175.667 -97.0029 -213c-34.667 -20 -74.667 -30 -120 -30c-28 0 -59.333 5 -94 15v84c39.333 -14 72.333 -21 99 -21c44.667 0 78.334 15.333 101.001 46c20 27.333 30 64.333 30 111c0 42.667 -11.333 77.334 -34 104.001
c-18 20.667 -40.667 35 -68 43s-67.333 12 -120 12l1 79c66.667 -6.66699 114 4 142 32c18 18 27 40 27 66c0 29.333 -10.667 51.833 -32 67.5s-47 23.167 -77 22.5c-30.667 0 -55 -6.33301 -73 -19c-15.333 -10 -26.5 -24.167 -33.5 -42.5s-10.667 -32.333 -11 -42
s-0.5 -27.834 -0.5 -54.501v-492h-79v497c0 25.333 0.333008 44.333 1 57s3.5 29 8.5 49s12.833 37.333 23.5 52c32.667 46 86.667 69 162 69c52.667 0 95.334 -11.667 128.001 -35c42 -30 63 -72 63 -126c0 -44.667 -14.333 -80.667 -43 -108c-12 -12 -27.667 -22 -47 -30
c22.667 -3.33301 42.834 -10 60.501 -20s31.5 -22 41.5 -36s17.5 -26.333 22.5 -37s8.83301 -21 11.5 -31c4.66699 -19.333 7 -42.333 7 -69z" />
    <glyph glyph-name="agrave" unicode="&#xe0;" horiz-adv-x="500" 
d="M279 521h-47l-83 144h89zM486 3c-18 -6 -35.001 -8.99902 -51.001 -8.99902c-21.333 0 -38 4 -50 12c-5.33301 4 -10.666 10 -15.999 18c-7.33301 10 -12.666 23.333 -15.999 40c-47.333 -51.333 -101 -77 -161 -77c-23.333 0 -45 3.33301 -65 10
c-28.667 10 -51.667 25.833 -69 47.5s-26 47.5 -26 77.5c0 41.333 17 75.333 51 102c39.333 29.333 103 47 191 53l72 5c0 17.333 -0.333008 30.333 -1 39c-0.666992 12 -2 22.5 -4 31.5s-6.16699 19.833 -12.5 32.5s-16.833 22.5 -31.5 29.5s-33.334 10.5 -56.001 10.5
c-52 0 -84.333 -19 -97 -57c-3.33301 -10 -5 -24 -5 -42l-83 5c0 12.667 2.66699 28 8 46c10 29.333 28.667 54.833 56 76.5s66.333 32.5 117 32.5c24 0 48.667 -3.33301 74 -10c54 -14 89 -43.333 105 -88c6.66699 -18.667 10 -52.334 10 -101.001v-154
c0 -14 0.333008 -24.333 1 -31c2 -24 13.667 -36 35 -36c4 0 12 1.33301 24 4v-67zM346.999 193.001c0 3.33301 -0.167969 7.99902 -0.500977 13.999s-0.5 10.667 -0.5 14v9c-95.333 -15.333 -151.333 -26.666 -168 -33.999c-38.667 -15.333 -58 -39.333 -58 -72
c0 -19.333 7.5 -35.833 22.5 -49.5s37.167 -20.5 66.5 -20.5c13.333 0 26.833 1.66699 40.5 5s28.334 9.5 44.001 18.5s28.5 23.5 38.5 43.5s15 44 15 72z" />
    <glyph glyph-name="aacute" unicode="&#xe1;" horiz-adv-x="500" 
d="M354 666l-86 -144h-41l41 144h86zM486 3c-18 -6 -35.001 -8.99902 -51.001 -8.99902c-21.333 0 -38 4 -50 12c-5.33301 4 -10.666 10 -15.999 18c-7.33301 10 -12.666 23.333 -15.999 40c-47.333 -51.333 -101 -77 -161 -77c-23.333 0 -45 3.33301 -65 10
c-28.667 10 -51.667 25.833 -69 47.5s-26 47.5 -26 77.5c0 41.333 17 75.333 51 102c39.333 29.333 103 47 191 53l72 5c0 17.333 -0.333008 30.333 -1 39c-0.666992 12 -2 22.5 -4 31.5s-6.16699 19.833 -12.5 32.5s-16.833 22.5 -31.5 29.5s-33.334 10.5 -56.001 10.5
c-52 0 -84.333 -19 -97 -57c-3.33301 -10 -5 -24 -5 -42l-83 5c0 12.667 2.66699 28 8 46c10 29.333 28.667 54.833 56 76.5s66.333 32.5 117 32.5c24 0 48.667 -3.33301 74 -10c54 -14 89 -43.333 105 -88c6.66699 -18.667 10 -52.334 10 -101.001v-154
c0 -14 0.333008 -24.333 1 -31c2 -24 13.667 -36 35 -36c4 0 12 1.33301 24 4v-67zM346.999 193.001c0 3.33301 -0.167969 7.99902 -0.500977 13.999s-0.5 10.667 -0.5 14v9c-95.333 -15.333 -151.333 -26.666 -168 -33.999c-38.667 -15.333 -58 -39.333 -58 -72
c0 -19.333 7.5 -35.833 22.5 -49.5s37.167 -20.5 66.5 -20.5c13.333 0 26.833 1.66699 40.5 5s28.334 9.5 44.001 18.5s28.5 23.5 38.5 43.5s15 44 15 72z" />
    <glyph glyph-name="acircumflex" unicode="&#xe2;" horiz-adv-x="500" 
d="M386 523h-75l-61 95l-59 -95h-70l94 151h67zM486 3c-18 -6 -35.001 -8.99902 -51.001 -8.99902c-21.333 0 -38 4 -50 12c-5.33301 4 -10.666 10 -15.999 18c-7.33301 10 -12.666 23.333 -15.999 40c-47.333 -51.333 -101 -77 -161 -77c-23.333 0 -45 3.33301 -65 10
c-28.667 10 -51.667 25.833 -69 47.5s-26 47.5 -26 77.5c0 41.333 17 75.333 51 102c39.333 29.333 103 47 191 53l72 5c0 17.333 -0.333008 30.333 -1 39c-0.666992 12 -2 22.5 -4 31.5s-6.16699 19.833 -12.5 32.5s-16.833 22.5 -31.5 29.5s-33.334 10.5 -56.001 10.5
c-52 0 -84.333 -19 -97 -57c-3.33301 -10 -5 -24 -5 -42l-83 5c0 12.667 2.66699 28 8 46c10 29.333 28.667 54.833 56 76.5s66.333 32.5 117 32.5c24 0 48.667 -3.33301 74 -10c54 -14 89 -43.333 105 -88c6.66699 -18.667 10 -52.334 10 -101.001v-154
c0 -14 0.333008 -24.333 1 -31c2 -24 13.667 -36 35 -36c4 0 12 1.33301 24 4v-67zM346.999 193.001c0 3.33301 -0.167969 7.99902 -0.500977 13.999s-0.5 10.667 -0.5 14v9c-95.333 -15.333 -151.333 -26.666 -168 -33.999c-38.667 -15.333 -58 -39.333 -58 -72
c0 -19.333 7.5 -35.833 22.5 -49.5s37.167 -20.5 66.5 -20.5c13.333 0 26.833 1.66699 40.5 5s28.334 9.5 44.001 18.5s28.5 23.5 38.5 43.5s15 44 15 72z" />
    <glyph glyph-name="atilde" unicode="&#xe3;" horiz-adv-x="500" 
d="M396 635l0.000976562 -3.00586c-0.666992 -2.66699 -1.33398 -5.66699 -2.00098 -9s-1.66699 -7.16602 -3 -11.499s-2.83301 -8.83301 -4.5 -13.5s-3.66699 -9.66699 -6 -15s-5 -10.166 -8 -14.499s-6.5 -8.66602 -10.5 -12.999s-8.33301 -8 -13 -11
s-10.167 -5.33301 -16.5 -7s-12.833 -2.5 -19.5 -2.5c-14 0 -43 8.33301 -87 25c-18 6.66699 -31.333 10 -40 10c-18.667 0 -29.667 -10.333 -33 -31h-49c0.666992 6 2 12.833 4 20.5s5.83301 18.334 11.5 32.001s14.667 24.834 27 33.501s27.166 13 44.499 13
c14.667 0 44 -8.33301 88 -25l6 -3c4 -1.33301 9 -2.66602 15 -3.99902s11.333 -2 16 -2c18.667 0 29.334 10.333 32.001 31h48zM486.001 2.99414c-18 -6 -35.001 -8.99902 -51.001 -8.99902c-21.333 0 -38 4 -50 12c-5.33301 4 -10.666 10 -15.999 18
c-7.33301 10 -12.666 23.333 -15.999 40c-47.333 -51.333 -101 -77 -161 -77c-23.333 0 -45 3.33301 -65 10c-28.667 10 -51.667 25.833 -69 47.5s-26 47.5 -26 77.5c0 41.333 17 75.333 51 102c39.333 29.333 103 47 191 53l72 5c0 17.333 -0.333008 30.333 -1 39
c-0.666992 12 -2 22.5 -4 31.5s-6.16699 19.833 -12.5 32.5s-16.833 22.5 -31.5 29.5s-33.334 10.5 -56.001 10.5c-52 0 -84.333 -19 -97 -57c-3.33301 -10 -5 -24 -5 -42l-83 5c0 12.667 2.66699 28 8 46c10 29.333 28.667 54.833 56 76.5s66.333 32.5 117 32.5
c24 0 48.667 -3.33301 74 -10c54 -14 89 -43.333 105 -88c6.66699 -18.667 10 -52.334 10 -101.001v-154c0 -14 0.333008 -24.333 1 -31c2 -24 13.667 -36 35 -36c4 0 12 1.33301 24 4v-67zM347 192.995c0 3.33301 -0.167969 7.99902 -0.500977 13.999s-0.5 10.667 -0.5 14
v9c-95.333 -15.333 -151.333 -26.666 -168 -33.999c-38.667 -15.333 -58 -39.333 -58 -72c0 -19.333 7.5 -35.833 22.5 -49.5s37.167 -20.5 66.5 -20.5c13.333 0 26.833 1.66699 40.5 5s28.334 9.5 44.001 18.5s28.5 23.5 38.5 43.5s15 44 15 72z" />
    <glyph glyph-name="adieresis" unicode="&#xe4;" horiz-adv-x="500" 
d="M390 541h-89v103h89v-103zM192 541h-87v103h87v-103zM486 3c-18 -6 -35.001 -8.99902 -51.001 -8.99902c-21.333 0 -38 4 -50 12c-5.33301 4 -10.666 10 -15.999 18c-7.33301 10 -12.666 23.333 -15.999 40c-47.333 -51.333 -101 -77 -161 -77
c-23.333 0 -45 3.33301 -65 10c-28.667 10 -51.667 25.833 -69 47.5s-26 47.5 -26 77.5c0 41.333 17 75.333 51 102c39.333 29.333 103 47 191 53l72 5c0 17.333 -0.333008 30.333 -1 39c-0.666992 12 -2 22.5 -4 31.5s-6.16699 19.833 -12.5 32.5s-16.833 22.5 -31.5 29.5
s-33.334 10.5 -56.001 10.5c-52 0 -84.333 -19 -97 -57c-3.33301 -10 -5 -24 -5 -42l-83 5c0 12.667 2.66699 28 8 46c10 29.333 28.667 54.833 56 76.5s66.333 32.5 117 32.5c24 0 48.667 -3.33301 74 -10c54 -14 89 -43.333 105 -88
c6.66699 -18.667 10 -52.334 10 -101.001v-154c0 -14 0.333008 -24.333 1 -31c2 -24 13.667 -36 35 -36c4 0 12 1.33301 24 4v-67zM346.999 193.001c0 3.33301 -0.167969 7.99902 -0.500977 13.999s-0.5 10.667 -0.5 14v9c-95.333 -15.333 -151.333 -26.666 -168 -33.999
c-38.667 -15.333 -58 -39.333 -58 -72c0 -19.333 7.5 -35.833 22.5 -49.5s37.167 -20.5 66.5 -20.5c13.333 0 26.833 1.66699 40.5 5s28.334 9.5 44.001 18.5s28.5 23.5 38.5 43.5s15 44 15 72z" />
    <glyph glyph-name="aring" unicode="&#xe5;" horiz-adv-x="500" 
d="M341 608c0 -26 -9.33301 -48.333 -28 -67s-41 -28 -67 -28s-48.167 9.33301 -66.5 28s-27.5 41 -27.5 67s9.16699 48.333 27.5 67s40.5 28 66.5 28c26.667 -0.666992 49.167 -10.167 67.5 -28.5s27.5 -40.5 27.5 -66.5zM486 3c-18 -6 -35.001 -8.99902 -51.001 -8.99902
c-21.333 0 -38 4 -50 12c-5.33301 4 -10.666 10 -15.999 18c-7.33301 10 -12.666 23.333 -15.999 40c-47.333 -51.333 -101 -77 -161 -77c-23.333 0 -45 3.33301 -65 10c-28.667 10 -51.667 25.833 -69 47.5s-26 47.5 -26 77.5c0 41.333 17 75.333 51 102
c39.333 29.333 103 47 191 53l72 5c0 17.333 -0.333008 30.333 -1 39c-0.666992 12 -2 22.5 -4 31.5s-6.16699 19.833 -12.5 32.5s-16.833 22.5 -31.5 29.5s-33.334 10.5 -56.001 10.5c-52 0 -84.333 -19 -97 -57c-3.33301 -10 -5 -24 -5 -42l-83 5
c0 12.667 2.66699 28 8 46c10 29.333 28.667 54.833 56 76.5s66.333 32.5 117 32.5c24 0 48.667 -3.33301 74 -10c54 -14 89 -43.333 105 -88c6.66699 -18.667 10 -52.334 10 -101.001v-154c0 -14 0.333008 -24.333 1 -31c2 -24 13.667 -36 35 -36c4 0 12 1.33301 24 4v-67z
M296.999 609.001c0 13.333 -5.00098 25.167 -15.001 35.5s-22 15.5 -36 15.5s-26 -5.16699 -36 -15.5s-15 -22.5 -15 -36.5s4.83301 -26 14.5 -36s21.834 -15 36.501 -15c14 0 26 5.16699 36 15.5s15 22.5 15 36.5zM346.998 193.002
c0 3.33301 -0.167969 7.99902 -0.500977 13.999s-0.5 10.667 -0.5 14v9c-95.333 -15.333 -151.333 -26.666 -168 -33.999c-38.667 -15.333 -58 -39.333 -58 -72c0 -19.333 7.5 -35.833 22.5 -49.5s37.167 -20.5 66.5 -20.5c13.333 0 26.833 1.66699 40.5 5
s28.334 9.5 44.001 18.5s28.5 23.5 38.5 43.5s15 44 15 72z" />
    <glyph glyph-name="ae" unicode="&#xe6;" horiz-adv-x="812" 
d="M779 214l-342.001 0.00488281c0 -48.667 11.333 -87.667 34 -117c24 -31.333 57.667 -47 101 -47c25.333 0 47.5 6.83301 66.5 20.5s33.167 32.834 42.5 57.501c2.66699 8.66699 4.66699 16 6 22l84 -13c-9.33301 -36 -27.666 -67 -54.999 -93
c-41.333 -39.333 -92.666 -59 -153.999 -59c-80.667 0 -139.667 33 -177 99c-51.333 -66 -115 -99 -191 -99c-21.333 0 -42 3 -62 9c-30 8.66699 -54 23.667 -72 45s-27 47.666 -27 78.999c0 29.333 8.33301 55.5 25 78.5s38.667 40.5 66 52.5
c6.66699 3.33301 13.834 6.16602 21.501 8.49902s14.667 4.16602 21 5.49902s14.666 2.66602 24.999 3.99902s18.5 2.16602 24.5 2.49902s16 0.666016 30 0.999023s24.5 0.666016 31.5 0.999023s19.667 0.5 38 0.5h41.5c0 26.667 -1.66699 46.334 -5 59.001
c-6.66699 28 -19.667 50.667 -39 68s-43 26 -71 26c-17.333 0 -33.333 -3.33301 -48 -10c-33.333 -16.667 -51 -45 -53 -85l-84 6c3.33301 27.333 10 50 20 68c12 21.333 31.5 40.333 58.5 57s61.833 25 104.5 25c52.667 0 95 -14.667 127 -44c11.333 -10 22 -23.333 32 -40
c10 14.667 20.667 27 32 37c33.333 31.333 76.666 47 129.999 47c65.333 0 118.333 -25.667 159 -77c40 -48.667 59.667 -113.667 59 -195zM693.999 272.005c-2.66699 42 -14.667 75.668 -36 101.001c-26 31.333 -58 47 -96 47c-41.333 0 -74.333 -18.667 -99 -56
c-18 -26.667 -27 -57.334 -27 -92.001h258zM356.999 214.006l-47 0.000976562c-38 0 -71.333 -3 -100 -9c-33.333 -6.66699 -58.333 -19.334 -75 -38.001c-12.667 -12.667 -19 -28 -19 -46s7.83301 -34.667 23.5 -50s39.167 -23 70.5 -23c41.333 0 75.333 14 102 42
c28.667 30 43.667 71.333 45 124z" />
    <glyph glyph-name="ccedilla" unicode="&#xe7;" 
d="M494 170c-8.66699 -50.667 -26.335 -89.6631 -53.002 -116.996s-55.334 -46 -86.001 -56c-15.333 -4 -36 -7.33301 -62 -10l-18 -30l15 -8c10 -5.33301 17.667 -10 23 -14s10.833 -10.833 16.5 -20.5s8.5 -20.167 8.5 -31.5c0 -25.333 -11.333 -46 -34 -62
s-53.667 -24 -93 -24v23c1.33301 -0.666992 3.66602 -1 6.99902 -1c14.667 0 26 4 34 12s11.667 16.667 11 26c-0.666992 8 -3.66699 14.833 -9 20.5s-10.166 9.66699 -14.499 12s-11.166 5.16602 -20.499 8.49902s-14.666 5.33301 -15.999 6l53 82
c-41.333 4 -71.333 10.667 -90 20c-38 18 -69 47.333 -93 88s-35.333 90 -34 148c1.33301 61.333 15.833 111.666 43.5 150.999s62.167 66.333 103.5 81c24 8 52.667 12 86 12c70.667 -1.33301 126.334 -24 167.001 -68c16 -16.667 29 -37.334 39 -62.001
c4 -10 6.33301 -19.333 7 -28l-88 -9c-4.66699 23.333 -10.667 40.666 -18 51.999c-23.333 38 -58.666 57 -105.999 57c-43.333 1.33301 -78.333 -13.5 -105 -44.5s-40.334 -78.833 -41.001 -143.5c-0.666992 -65.333 13 -113.833 41 -145.5s63.667 -47.5 107 -47.5
c22 0 41.167 3.66699 57.5 11s28.833 15.5 37.5 24.5s16 21 22 36s9.66699 25.833 11 32.5s3 15.667 5 27z" />
    <glyph glyph-name="egrave" unicode="&#xe8;" 
d="M295 521h-48l-82 144h89zM483 144c-12.667 -31.333 -23 -53.333 -31 -66c-41.333 -62 -102 -93 -182 -93c-37.333 0 -70.333 6.33301 -99 19c-36 15.333 -67 42 -93 80s-39 90 -39 156c0 67.333 17.667 122.333 53 165c44.667 54 103 81 175 81
c25.333 0 50 -4.33301 74 -13c55.333 -19.333 95 -56.666 119 -111.999c15.333 -36.667 23 -83.334 23 -140.001h-358c-0.666992 -69.333 22 -120 68 -152c24 -16 52.333 -24 85 -24c32 0 58.333 9.66699 79 29c9.33301 7.33301 18 17.666 26 30.999
c4 6.66699 10.333 23.334 19 50.001zM396 279c-1.33301 19.333 -3.66699 34.668 -7 46.001c-8 29.333 -23.667 53.166 -47 71.499s-50.333 27.5 -81 27.5c-40 0 -71.333 -13.833 -94 -41.5s-36 -62.167 -40 -103.5h269z" />
    <glyph glyph-name="eacute" unicode="&#xe9;" 
d="M365 666l-86 -144h-42l42 144h86zM483 144c-12.667 -31.333 -23 -53.333 -31 -66c-41.333 -62 -102 -93 -182 -93c-37.333 0 -70.333 6.33301 -99 19c-36 15.333 -67 42 -93 80s-39 90 -39 156c0 67.333 17.667 122.333 53 165c44.667 54 103 81 175 81
c25.333 0 50 -4.33301 74 -13c55.333 -19.333 95 -56.666 119 -111.999c15.333 -36.667 23 -83.334 23 -140.001h-358c-0.666992 -69.333 22 -120 68 -152c24 -16 52.333 -24 85 -24c32 0 58.333 9.66699 79 29c9.33301 7.33301 18 17.666 26 30.999
c4 6.66699 10.333 23.334 19 50.001zM396 279c-1.33301 19.333 -3.66699 34.668 -7 46.001c-8 29.333 -23.667 53.166 -47 71.499s-50.333 27.5 -81 27.5c-40 0 -71.333 -13.833 -94 -41.5s-36 -62.167 -40 -103.5h269z" />
    <glyph glyph-name="ecircumflex" unicode="&#xea;" 
d="M397 523h-76l-61 95l-59 -95h-70l94 151h68zM483 144c-12.667 -31.333 -23 -53.333 -31 -66c-41.333 -62 -102 -93 -182 -93c-37.333 0 -70.333 6.33301 -99 19c-36 15.333 -67 42 -93 80s-39 90 -39 156c0 67.333 17.667 122.333 53 165c44.667 54 103 81 175 81
c25.333 0 50 -4.33301 74 -13c55.333 -19.333 95 -56.666 119 -111.999c15.333 -36.667 23 -83.334 23 -140.001h-358c-0.666992 -69.333 22 -120 68 -152c24 -16 52.333 -24 85 -24c32 0 58.333 9.66699 79 29c9.33301 7.33301 18 17.666 26 30.999
c4 6.66699 10.333 23.334 19 50.001zM396 279c-1.33301 19.333 -3.66699 34.668 -7 46.001c-8 29.333 -23.667 53.166 -47 71.499s-50.333 27.5 -81 27.5c-40 0 -71.333 -13.833 -94 -41.5s-36 -62.167 -40 -103.5h269z" />
    <glyph glyph-name="edieresis" unicode="&#xeb;" 
d="M415 541h-89v103h89v-103zM217 541h-87v103h87v-103zM483 144c-12.667 -31.333 -23 -53.333 -31 -66c-41.333 -62 -102 -93 -182 -93c-37.333 0 -70.333 6.33301 -99 19c-36 15.333 -67 42 -93 80s-39 90 -39 156c0 67.333 17.667 122.333 53 165
c44.667 54 103 81 175 81c25.333 0 50 -4.33301 74 -13c55.333 -19.333 95 -56.666 119 -111.999c15.333 -36.667 23 -83.334 23 -140.001h-358c-0.666992 -69.333 22 -120 68 -152c24 -16 52.333 -24 85 -24c32 0 58.333 9.66699 79 29
c9.33301 7.33301 18 17.666 26 30.999c4 6.66699 10.333 23.334 19 50.001zM396 279c-1.33301 19.333 -3.66699 34.668 -7 46.001c-8 29.333 -23.667 53.166 -47 71.499s-50.333 27.5 -81 27.5c-40 0 -71.333 -13.833 -94 -41.5s-36 -62.167 -40 -103.5h269z" />
    <glyph glyph-name="igrave" unicode="&#xec;" horiz-adv-x="208" 
d="M139 521h-48l-82 144h88zM144 0h-77v471h77v-471z" />
    <glyph glyph-name="iacute" unicode="&#xed;" horiz-adv-x="208" 
d="M203 666l-86 -144h-41l41 144h86zM144 0h-77v471h77v-471z" />
    <glyph glyph-name="icircumflex" unicode="&#xee;" horiz-adv-x="208" 
d="M240 523h-75l-61 95l-59 -95h-70l94 151h68zM144 0h-77v471h77v-471z" />
    <glyph glyph-name="idieresis" unicode="&#xef;" horiz-adv-x="208" 
d="M248 541h-88v103h88v-103zM50 541h-87v103h87v-103zM144 0h-77v471h77v-471z" />
    <glyph glyph-name="eth" unicode="&#xf0;" horiz-adv-x="542" 
d="M502 257c0 -42 -4 -76.333 -12 -103c-5.33301 -20 -12.833 -39 -22.5 -57s-22.834 -35.833 -39.501 -53.5s-38.5 -31.834 -65.5 -42.501s-57.167 -16 -90.5 -16c-40.667 0 -76.167 7 -106.5 21s-53.166 30.667 -68.499 50s-27.666 41.833 -36.999 67.5
s-15 46.834 -17 63.501s-3 32.667 -3 48c0 46 7.66699 86.333 23 121c20.667 46 50 79.5 88 100.5s78.333 30.833 121 29.5c48.667 -0.666992 91.667 -19.667 129 -57c-19.333 66.667 -39.333 114.334 -60 143.001l-178 -58l-18 45l165 55
c-8.66699 11.333 -32.334 36.333 -71.001 75l62 29c14 -12.667 39 -40.334 75 -83.001l85 29l19 -47l-74 -24c64 -103.333 96 -215.333 96 -336zM416 236l-0.000976562 6.99902c0 62.667 -13.667 108.5 -41 137.5s-62 42.833 -104 41.5
c-27.333 -0.666992 -50.833 -6.83398 -70.5 -18.501s-34.5 -27.167 -44.5 -46.5s-17.333 -38.833 -22 -58.5s-7 -40.834 -7 -63.501v-11.5c0 -2.33301 0.5 -9.66602 1.5 -21.999s2.66699 -22.666 5 -30.999s5.5 -19.166 9.5 -32.499s9.66699 -24.5 17 -33.5
s16 -18.167 26 -27.5s22.333 -16.333 37 -21s31 -7 49 -7c42.667 0 77.334 15.167 104.001 45.5s40 77.5 40 141.5z" />
    <glyph glyph-name="ntilde" unicode="&#xf1;" 
d="M406 635c0 -2 -0.498047 -6 -1.49805 -12s-3.33301 -14.333 -7 -25s-8.33398 -20.5 -14.001 -29.5s-13.834 -16.833 -24.501 -23.5s-22.667 -10 -36 -10s-42 8.33301 -86 25c-19.333 6.66699 -33 10 -41 10c-15.333 0 -26.333 -10.333 -33 -31h-49
c13.333 66.667 42.666 99.667 87.999 99c7.33301 0 15.166 -0.833008 23.499 -2.5s15.333 -3.66699 21 -6s13 -5.33301 22 -9s15.833 -6.16699 20.5 -7.5c12 -6 24.667 -9 38 -9c2.66699 0 5.33398 0.333008 8.00098 1s4.83398 1.5 6.50098 2.5l5 3c1.66699 1 3 2.33301 4 4
s2 3.16699 3 4.5s1.83301 3 2.5 5l1.5 4.5c0.333008 1 0.5 2.16699 0.5 3.5l1 3h47zM455.002 0l-78.999 0.000976562v300c0 42 -12 72 -36 90c-18.667 14 -42.334 21 -71.001 21c-34.667 0 -64 -11.667 -88 -35c-12.667 -12.667 -22 -27 -28 -43
c-6 -14.667 -9 -36.334 -9 -65.001v-268h-80v471h80v-69c7.33301 12.667 15.666 23.667 24.999 33c32 34 73 51 123 51c10.667 0 22.334 -1.16699 35.001 -3.5s29.167 -8.66602 49.5 -18.999s36.833 -24.5 49.5 -42.5c9.33301 -13.333 16.333 -28.833 21 -46.5
s7.16699 -31.334 7.5 -41.001s0.5 -27.167 0.5 -52.5v-281z" />
    <glyph glyph-name="ograve" unicode="&#xf2;" horiz-adv-x="542" 
d="M305 521h-47l-83 144h89zM502 235c0 -68 -18.333 -125 -55 -171c-44 -52.667 -102.333 -79 -175 -79c-68.667 0 -123 20.667 -163 62c-46 46 -69 108 -69 186c0 67.333 18 124.333 54 171c42.667 54.667 103 82 181 82c34.667 0 66 -6 94 -18
c35.333 -14.667 66.5 -41.167 93.5 -79.5s40.167 -89.5 39.5 -153.5zM416 236c3.33301 44 -4.66699 84.002 -24 120.002c-8 14.667 -17.667 26.667 -29 36c-23.333 20 -52 30 -86 30c-28.667 0 -53.167 -6.16699 -73.5 -18.5s-35.333 -25.833 -45 -40.5
s-17 -32.834 -22 -54.501s-7.83301 -37.334 -8.5 -47.001s-1 -20.167 -1 -31.5c0 -13.333 1.33301 -29.333 4 -48c2 -12 5 -24 9 -36s10.833 -26.167 20.5 -42.5s24.167 -29.5 43.5 -39.5s42 -15 68 -15c48.667 0 86 19.667 112 59c21.333 32 32 74.667 32 128z" />
    <glyph glyph-name="oacute" unicode="&#xf3;" horiz-adv-x="542" 
d="M370 666l-86 -144h-41l41 144h86zM502 235c0 -68 -18.333 -125 -55 -171c-44 -52.667 -102.333 -79 -175 -79c-68.667 0 -123 20.667 -163 62c-46 46 -69 108 -69 186c0 67.333 18 124.333 54 171c42.667 54.667 103 82 181 82c34.667 0 66 -6 94 -18
c35.333 -14.667 66.5 -41.167 93.5 -79.5s40.167 -89.5 39.5 -153.5zM416 236c3.33301 44 -4.66699 84.002 -24 120.002c-8 14.667 -17.667 26.667 -29 36c-23.333 20 -52 30 -86 30c-28.667 0 -53.167 -6.16699 -73.5 -18.5s-35.333 -25.833 -45 -40.5
s-17 -32.834 -22 -54.501s-7.83301 -37.334 -8.5 -47.001s-1 -20.167 -1 -31.5c0 -13.333 1.33301 -29.333 4 -48c2 -12 5 -24 9 -36s10.833 -26.167 20.5 -42.5s24.167 -29.5 43.5 -39.5s42 -15 68 -15c48.667 0 86 19.667 112 59c21.333 32 32 74.667 32 128z" />
    <glyph glyph-name="ocircumflex" unicode="&#xf4;" horiz-adv-x="542" 
d="M407 523h-75l-61 95l-59 -95h-70l94 151h67zM502 235c0 -68 -18.333 -125 -55 -171c-44 -52.667 -102.333 -79 -175 -79c-68.667 0 -123 20.667 -163 62c-46 46 -69 108 -69 186c0 67.333 18 124.333 54 171c42.667 54.667 103 82 181 82c34.667 0 66 -6 94 -18
c35.333 -14.667 66.5 -41.167 93.5 -79.5s40.167 -89.5 39.5 -153.5zM416 236c3.33301 44 -4.66699 84.002 -24 120.002c-8 14.667 -17.667 26.667 -29 36c-23.333 20 -52 30 -86 30c-28.667 0 -53.167 -6.16699 -73.5 -18.5s-35.333 -25.833 -45 -40.5
s-17 -32.834 -22 -54.501s-7.83301 -37.334 -8.5 -47.001s-1 -20.167 -1 -31.5c0 -13.333 1.33301 -29.333 4 -48c2 -12 5 -24 9 -36s10.833 -26.167 20.5 -42.5s24.167 -29.5 43.5 -39.5s42 -15 68 -15c48.667 0 86 19.667 112 59c21.333 32 32 74.667 32 128z" />
    <glyph glyph-name="otilde" unicode="&#xf5;" horiz-adv-x="542" 
d="M417 635l-0.999023 -3.00488c0 -2.66699 -0.333008 -5.66699 -1 -9s-1.66699 -7.16602 -3 -11.499s-2.83301 -8.83301 -4.5 -13.5s-3.66699 -9.66699 -6 -15s-5 -10.166 -8 -14.499s-6.5 -8.66602 -10.5 -12.999s-8.33301 -8 -13 -11s-10.167 -5.33301 -16.5 -7
s-12.833 -2.5 -19.5 -2.5c-14 0 -43 8.33301 -87 25c-19.333 6.66699 -33 10 -41 10c-15.333 0 -26.333 -10.333 -33 -31h-48c0.666992 6 2 12.833 4 20.5s5.83301 18.334 11.5 32.001s14.667 24.834 27 33.501s27.166 13 44.499 13c7.33301 0 15.166 -0.833008 23.499 -2.5
s15.333 -3.66699 21 -6s13 -5.33301 22 -9s15.833 -6.16699 20.5 -7.5c12 -6 24.667 -9 38 -9c18.667 0 29.334 10.333 32.001 31h48zM502.001 234.995c0 -68 -18.333 -125 -55 -171c-44 -52.667 -102.333 -79 -175 -79c-68.667 0 -123 20.667 -163 62
c-46 46 -69 108 -69 186c0 67.333 18 124.333 54 171c42.667 54.667 103 82 181 82c34.667 0 66 -6 94 -18c35.333 -14.667 66.5 -41.167 93.5 -79.5s40.167 -89.5 39.5 -153.5zM416.001 235.995c3.33301 44 -4.66699 84.002 -24 120.002c-8 14.667 -17.667 26.667 -29 36
c-23.333 20 -52 30 -86 30c-28.667 0 -53.167 -6.16699 -73.5 -18.5s-35.333 -25.833 -45 -40.5s-17 -32.834 -22 -54.501s-7.83301 -37.334 -8.5 -47.001s-1 -20.167 -1 -31.5c0 -13.333 1.33301 -29.333 4 -48c2 -12 5 -24 9 -36s10.833 -26.167 20.5 -42.5
s24.167 -29.5 43.5 -39.5s42 -15 68 -15c48.667 0 86 19.667 112 59c21.333 32 32 74.667 32 128z" />
    <glyph glyph-name="odieresis" unicode="&#xf6;" horiz-adv-x="542" 
d="M418 541h-88v103h88v-103zM220 541h-87v103h87v-103zM502 235c0 -93.333 -32.668 -163.333 -98.001 -210c-36 -26.667 -80 -40 -132 -40c-66 0 -118.667 19 -158 57c-49.333 48 -74 111.667 -74 191c0 66 17.667 122.667 53 170c42.667 55.333 103.334 83 182.001 83
c34.667 0 66 -6 94 -18c35.333 -14.667 66.5 -41.167 93.5 -79.5s40.167 -89.5 39.5 -153.5zM415.999 236c3.33301 42.667 -4.00098 81.667 -22.001 117c-8.66699 16 -19 29 -31 39c-23.333 20 -52.333 30 -87 30c-28 0 -52.167 -6.16699 -72.5 -18.5
s-35.166 -25.833 -44.499 -40.5s-16.666 -32.834 -21.999 -54.501s-8.33301 -37.5 -9 -47.5s-1 -20.333 -1 -31c1.33301 -48.667 10.666 -87.667 27.999 -117c24.667 -43.333 63 -64.666 115 -63.999c50 0 88 19.667 114 59c21.333 32 32 74.667 32 128z" />
    <glyph glyph-name="divide" unicode="&#xf7;" horiz-adv-x="724" 
d="M407 409h-89v110h89v-110zM645 260h-566v81h566v-81zM407 82h-89v110h89v-110z" />
    <glyph glyph-name="oslash" unicode="&#xf8;" horiz-adv-x="542" 
d="M506 432l-46 -46.001c8.66699 -12 14.667 -22.333 18 -31c16.667 -35.333 25 -75.666 25 -120.999c0 -34 -5 -65.667 -15 -95c-5.33301 -15.333 -12.5 -30.333 -21.5 -45s-21.833 -31 -38.5 -49s-38.667 -32.5 -66 -43.5s-58 -16.5 -92 -16.5
c-64 0 -116.333 21.333 -157 64l-40 -40l-35 36l43 42c-26.667 43.333 -40 92 -40 146c0 40 6.66699 76.333 20 109c18 44 46 79 84 105s80.667 39 128 39c56.667 0 108 -20.333 154 -61l44 43zM373 371.999c-31.333 33.333 -66 50 -104 50c-26 0 -49.667 -7 -71 -21
c-48.667 -30.667 -73 -83.667 -73 -159c0 -34 5.66699 -65.333 17 -94zM421 229.999c0 39.333 -6.66797 72 -20.001 98l-232 -225c6.66699 -9.33301 11.334 -15.333 14.001 -18c26.667 -24.667 57.667 -36.667 93 -36c26 0 49.333 6.66699 70 20c50 32 75 85.667 75 161z
" />
    <glyph glyph-name="ugrave" unicode="&#xf9;" 
d="M295 521h-48l-82 144h89zM454 0l-77.999 0.000976562l-1 72c-5.33301 -8 -12 -16 -20 -24c-40 -40 -86.667 -60 -140 -60c-58.667 0 -100.667 20.667 -126 62c-3.33301 5.33301 -6.33301 11.166 -9 17.499s-4.83398 12 -6.50098 17s-3 11.333 -4 19
s-1.83301 13.334 -2.5 17.001s-1.16699 10.167 -1.5 19.5s-0.5 15.166 -0.5 17.499v19.5v18v276h79v-268c0 -48 3.66699 -79.667 11 -95c15.333 -30 44 -45 86 -45c50 0 87.333 18 112 54c15.333 22.667 23 62 23 118v236h78v-471z" />
    <glyph glyph-name="uacute" unicode="&#xfa;" 
d="M360 666l-86 -144h-42l42 144h86zM454 0l-77.999 0.000976562l-1 72c-5.33301 -8 -12 -16 -20 -24c-40 -40 -86.667 -60 -140 -60c-58.667 0 -100.667 20.667 -126 62c-3.33301 5.33301 -6.33301 11.166 -9 17.499s-4.83398 12 -6.50098 17s-3 11.333 -4 19
s-1.83301 13.334 -2.5 17.001s-1.16699 10.167 -1.5 19.5s-0.5 15.166 -0.5 17.499v19.5v18v276h79v-268c0 -48 3.66699 -79.667 11 -95c15.333 -30 44 -45 86 -45c50 0 87.333 18 112 54c15.333 22.667 23 62 23 118v236h78v-471z" />
    <glyph glyph-name="ucircumflex" unicode="&#xfb;" 
d="M397 523h-76l-61 95l-59 -95h-70l94 151h68zM454 0l-77.999 0.000976562l-1 72c-5.33301 -8 -12 -16 -20 -24c-40 -40 -86.667 -60 -140 -60c-58.667 0 -100.667 20.667 -126 62c-3.33301 5.33301 -6.33301 11.166 -9 17.499s-4.83398 12 -6.50098 17s-3 11.333 -4 19
s-1.83301 13.334 -2.5 17.001s-1.16699 10.167 -1.5 19.5s-0.5 15.166 -0.5 17.499v19.5v18v276h79v-268c0 -48 3.66699 -79.667 11 -95c15.333 -30 44 -45 86 -45c50 0 87.333 18 112 54c15.333 22.667 23 62 23 118v236h78v-471z" />
    <glyph glyph-name="udieresis" unicode="&#xfc;" 
d="M401 541h-89v103h89v-103zM203 541h-87v103h87v-103zM454 0l-77.999 0.000976562l-1 72c-5.33301 -8 -12 -16 -20 -24c-40 -40 -86.667 -60 -140 -60c-58.667 0 -100.667 20.667 -126 62c-3.33301 5.33301 -6.33301 11.166 -9 17.499s-4.83398 12 -6.50098 17
s-3 11.333 -4 19s-1.83301 13.334 -2.5 17.001s-1.16699 10.167 -1.5 19.5s-0.5 15.166 -0.5 17.499v19.5v18v276h79v-268c0 -48 3.66699 -79.667 11 -95c15.333 -30 44 -45 86 -45c50 0 87.333 18 112 54c15.333 22.667 23 62 23 118v236h78v-471z" />
    <glyph glyph-name="yacute" unicode="&#xfd;" horiz-adv-x="437" 
d="M323 666l-86 -144h-41l41 144h86zM425 471l-197.998 -557c-20.667 -58 -40.834 -97 -60.501 -117s-47.834 -30 -84.501 -30c-24.667 0 -46.667 2.66699 -66 8l-7 2v72c16 -5.33301 32.333 -8 49 -8c25.333 -0.666992 44.333 5.5 57 18.5s23.667 33.833 33 62.5
c1.33301 4 10 29 26 75l-160 474h85l118 -374l125 374h83z" />
    <glyph glyph-name="thorn" unicode="&#xfe;" horiz-adv-x="562" 
d="M523 233c-0.666992 -70.667 -20.166 -129.833 -58.499 -177.5s-93.5 -71.167 -165.5 -70.5c-66.667 0.666992 -118.667 24 -156 70v-279h-78v930h78v-303c41.333 51.333 95.333 79 162 83c46.667 1.33301 88 -11.667 124 -39c63.333 -46.667 94.666 -118 93.999 -214z
M441.001 233.001c0.666992 50 -11.6699 92.6689 -37.0029 128.002s-63.666 52 -114.999 50c-28.667 -1.33301 -54 -9.33301 -76 -24c-46.667 -30.667 -70 -84.667 -70 -162c0.666992 -48.667 13.834 -89.334 39.501 -122.001s63.5 -48.667 113.5 -48
c30 0.666992 55.333 7.33398 76 20.001c20.667 13.333 37.334 33.666 50.001 60.999s19 59.666 19 96.999z" />
    <glyph glyph-name="ydieresis" unicode="&#xff;" horiz-adv-x="437" 
d="M363 541h-89v103h89v-103zM165 541h-87v103h87v-103zM425 471l-198.001 -556.999c-14 -38 -24 -62.667 -30 -74c-13.333 -26.667 -28.666 -45.5 -45.999 -56.5s-41 -16.5 -71 -16.5c-23.333 0 -47 3.33301 -71 10v72c19.333 -5.33301 36.333 -8 51 -8
c19.333 0 34 3.33301 44 10c17.333 11.333 34 40.666 50 87.999l20 58l-160 474h85l118 -374l125 374h83z" />
    <glyph glyph-name="OE" unicode="&#x152;" horiz-adv-x="1146" 
d="M1119 0l-501.001 -0.000976562v82c-61.333 -66.667 -138.666 -100 -231.999 -100c-90.667 0 -165.667 29.333 -225 88c-74 72 -111 167.333 -111 286c0 100.667 28.667 185.334 86 254.001c63.333 76 150 114 260 114c93.333 0 167.333 -30.667 222 -92v74h490v-84h-400
v-219h323v-82h-323v-239h411v-82zM617.999 355.999c0 86.667 -15.667 153.667 -47 201c-41.333 62.667 -101.333 94 -180 94c-69.333 0 -126 -25.333 -170 -76c-47.333 -56 -71 -130.333 -71 -223c0 -77.333 18 -142 54 -194c45.333 -65.333 106.666 -98 183.999 -98
c76.667 0 136.334 30.667 179.001 92c32.667 48 49.667 116 51 204z" />
    <glyph glyph-name="oe" unicode="&#x153;" horiz-adv-x="875" 
d="M838 214l-355 -0.000976562c0 -42 11.333 -78.333 34 -109c28.667 -38 66 -56.667 112 -56c33.333 0 61.333 11.667 84 35c11.333 12 20 24.333 26 37c2 4 3.83301 8.16699 5.5 12.5s3 8.33301 4 12s1.83301 5.83398 2.5 6.50098l81 -11
c-12.667 -38.667 -34 -72 -64 -100c-39.333 -37.333 -87.666 -56 -144.999 -56c-68.667 0 -123.334 24 -164.001 72c-2 2 -5.33301 6 -10 12s-7 9.33301 -7 10c-41.333 -62.667 -99.333 -94 -174 -94c-40 0 -77.333 9.33301 -112 28c-31.333 17.333 -58.333 43.833 -81 79.5
s-33.667 83.167 -33 142.5c0 61.333 13.333 112 40 152c43.333 66 106.333 99 189 99c69.333 0 126.333 -29 171 -87c42 58 99.333 87 172 87c72 0 128.333 -27 169 -81c36.667 -49.333 55 -113 55 -191zM750 274.999c-2 20.667 -6.33398 39.333 -13.001 56
c-23.333 60.667 -63.666 91 -120.999 91c-18.667 0 -36 -4 -52 -12c-24.667 -12 -43.667 -30.333 -57 -55s-21.333 -51.667 -24 -81zM402.999 232.998c0 73.333 -19.332 125.999 -57.999 157.999c-20.667 18.667 -47.334 28 -80.001 28c-18.667 0 -37.667 -4.33301 -57 -13
c-22.667 -12 -41.834 -32.333 -57.501 -61s-23.5 -66 -23.5 -112c0 -76 22 -129 66 -159c20.667 -14.667 44.667 -22 72 -22c22 0 42.667 5.33301 62 16c22.667 12 40.334 31.833 53.001 59.5s19.667 48.834 21 63.501s2 28.667 2 42z" />
    <glyph glyph-name="Scaron" unicode="&#x160;" horiz-adv-x="667" 
d="M468 895l-101 -124h-65l-106 124h76l62 -77l59 77h75zM618 197c-1.33301 -60.667 -26.0049 -111.667 -74.0049 -153s-116.667 -62 -206 -62c-148 0 -242.333 52.667 -283 158c-12 32 -18 60.667 -18 86l101 13c0 -19.333 3 -38.5 9 -57.5s15.833 -38.333 29.5 -58
s34.334 -35.667 62.001 -48s60.834 -18.833 99.501 -19.5c46.667 -0.666992 88 10.333 124 33s54.333 58.334 55 107.001c0 16.667 -2.83301 31.334 -8.5 44.001s-12.167 22.834 -19.5 30.501s-18 14.667 -32 21s-25.833 10.833 -35.5 13.5s-22.5 5.66699 -38.5 9l-60 13
c-20.667 4.66699 -35.667 8 -45 10s-24.5 6.16699 -45.5 12.5s-37.167 12.333 -48.5 18s-25.166 13.667 -41.499 24s-28.666 21.166 -36.999 32.499s-16 25.333 -23 42s-10.833 35 -11.5 55c-1.33301 46 13.167 86.5 43.5 121.5s70.5 58.833 120.5 71.5
c23.333 6.66699 55.666 10 96.999 10c118 -0.666992 199.667 -41.667 245 -123c5.33301 -9.33301 9.83301 -19.5 13.5 -30.5s6.33398 -19.833 8.00098 -26.5s3.33398 -14.334 5.00098 -23.001s2.5 -13.334 2.5 -14.001l-95 -7c-2.66699 26.667 -6.66699 46 -12 58
c-26 62 -82.333 93 -169 93c-51.333 0 -91.333 -10.167 -120 -30.5s-42.667 -47.166 -42 -80.499c0 -8.66699 1 -17 3 -25s5.33301 -15 10 -21s8.66699 -11.333 12 -16s9 -9.16699 17 -13.5s14 -7.83301 18 -10.5s11.167 -5.5 21.5 -8.5s16.833 -5 19.5 -6
s9.66699 -2.83301 21 -5.5s17.333 -4 18 -4l77 -19c6.66699 -2 15.667 -4.33301 27 -7s20.333 -4.66699 27 -6c14.667 -4 27.5 -7.83301 38.5 -11.5s26.333 -10.834 46 -21.501s35.667 -22.667 48 -36s23.333 -31.5 33 -54.5s14.167 -48.833 13.5 -77.5z" />
    <glyph glyph-name="scaron" unicode="&#x161;" horiz-adv-x="479" 
d="M366 673l-96 -151h-67l-102 151h74l61 -96l59 96h71zM447 134c0 -40.667 -17.501 -75.668 -52.501 -105.001s-83.833 -44 -146.5 -44c-90.667 0 -153.667 28.667 -189 86c-14.667 23.333 -24 50.333 -28 81l91 14v-9c0 -18 2.66699 -33.833 8 -47.5
s12.666 -24.167 21.999 -31.5s18.333 -13.5 27 -18.5s19 -8.33301 31 -10s20.333 -2.66699 25 -3s10.334 -0.5 17.001 -0.5c36.667 0 64.334 7.16699 83.001 21.5s28 33.5 28 57.5c0 23.333 -7.16699 39.833 -21.5 49.5s-39.833 18.167 -76.5 25.5l-45 9
c-18 3.33301 -32.667 6.5 -44 9.5s-25.833 8.16699 -43.5 15.5s-31.834 15.5 -42.501 24.5s-20 21.333 -28 37s-11.667 33.167 -11 52.5c0.666992 38.667 16.5 71.334 47.5 98.001s76.167 40 135.5 40c42 0 78.5 -8.33301 109.5 -25s54.167 -37.334 69.5 -62.001
c11.333 -19.333 18.666 -42 21.999 -68l-86 -11c0 18.667 -2 33 -6 43c-8 17.333 -22.5 32 -43.5 44s-46.167 18 -75.5 18c-28.667 0 -51.667 -7.16699 -69 -21.5s-25.666 -30.833 -24.999 -49.5c0.666992 -19.333 10.334 -33.833 29.001 -43.5s47 -19.167 85 -28.5l45 -11
c22.667 -5.33301 41 -10.5 55 -15.5s30 -12.667 48 -23s31.667 -23.666 41 -39.999s14 -35.833 14 -58.5z" />
    <glyph glyph-name="Ydieresis" unicode="&#x178;" horiz-adv-x="625" 
d="M454 781h-87v102h87v-102zM258 781h-87v102h87v-102zM611 706l-254 -383v-323h-95v323l-248 383h111l186 -299l188 299h112z" />
    <glyph glyph-name="florin" unicode="&#x192;" horiz-adv-x="437" 
d="M437 704l-14 -59.998c-10 3.33301 -22 5 -36 5c-6.66699 0 -12.834 -1.33301 -18.501 -4s-10 -5.5 -13 -8.5s-6 -8 -9 -15s-4.83301 -12 -5.5 -15s-2 -8.83301 -4 -17.5s-3 -13.334 -3 -14.001l-25 -104h85l-15 -62h-84l-130 -541
c-9.33301 -38.667 -23.166 -64.5 -41.499 -77.5s-40.833 -19.5 -67.5 -19.5c-16 0 -36 4 -60 12l15 59c12 -4.66699 22.333 -7 31 -7c10 0 18.333 1.66699 25 5s12 9.16602 16 17.499s6.66699 14.5 8 18.5s3.33301 12 6 24l120 509h-72l15 62h72l34 132
c6.66699 24.667 12 41 16 49c18 41.333 51 62 99 62c19.333 0 38 -3.33301 56 -10z" />
    <glyph glyph-name="circumflex" unicode="&#x2c6;" horiz-adv-x="271" 
d="M268 523h-75l-61 95l-59 -95h-70l94 151h67z" />
    <glyph glyph-name="tilde" unicode="&#x2dc;" horiz-adv-x="271" 
d="M282 635l-0.99707 -0.000976562c0 -6 -1.5 -15.667 -4.5 -29s-11.333 -28.5 -25 -45.5s-31.167 -25.5 -52.5 -25.5c-14.667 0 -43.334 8.33301 -86.001 25c-19.333 6.66699 -33 10 -41 10c-11.333 0 -19.666 -3.83301 -24.999 -11.5s-8 -14.167 -8 -19.5h-49
c0 4.66699 1.16699 11.5 3.5 20.5s6 19.833 11 32.5s13.833 23.5 26.5 32.5s27.667 13.5 45 13.5c9.33301 0 18.666 -1.16699 27.999 -3.5s20.666 -6.16602 33.999 -11.499s22.333 -8.66602 27 -9.99902c0 -0.666992 1.83301 -1.66699 5.5 -3s8.5 -2.66602 14.5 -3.99902
s11.333 -2 16 -2c8 0 14.667 2.16699 20 6.5s8.66602 8.66602 9.99902 12.999s2 8.16602 2 11.499h49z" />
    <glyph glyph-name="endash" unicode="&#x2013;" horiz-adv-x="600" 
d="M555 262h-510v76h510v-76z" />
    <glyph glyph-name="emdash" unicode="&#x2014;" horiz-adv-x="895" 
d="M850 262h-805v76h805v-76z" />
    <glyph glyph-name="quoteleft" unicode="&#x2018;" horiz-adv-x="229" 
d="M162 440h-99.001v51c0 42.667 2.83301 78 8.5 106s16.834 64.333 33.501 109h47c-17.333 -50.667 -28.333 -103 -33 -157h43v-109z" />
    <glyph glyph-name="quoteright" unicode="&#x2019;" horiz-adv-x="229" 
d="M162 654c0 -79.333 -13.667 -150.667 -41 -214h-47c22 63.333 33 115.333 33 156h-44v110h99v-52z" />
    <glyph glyph-name="quotesinglbase" unicode="&#x201a;" horiz-adv-x="229" 
d="M162 49c0 -75.333 -13.667 -143.667 -41 -205h-47c22 63.333 33 115.333 33 156h-44v109h99v-60z" />
    <glyph glyph-name="quotedblleft" unicode="&#x201c;" horiz-adv-x="375" 
d="M311 440h-99v57c0 75.333 14 145 42 209h46c-20 -46.667 -30.667 -99 -32 -157h43v-109zM162 440h-99v57c0 75.333 14 145 42 209h47c-22 -60.667 -33 -113 -33 -157h43v-109z" />
    <glyph glyph-name="quotedblright" unicode="&#x201d;" horiz-adv-x="375" 
d="M311 639c0 -58 -10 -114.669 -30 -170.002c-1.33301 -3.33301 -3.33301 -8.16602 -6 -14.499s-4.66699 -11.166 -6 -14.499h-46c16 46.667 26.667 98.667 32 156h-43v110h99v-67zM162 644.998c0 -75.333 -13.667 -143.667 -41 -205h-47c22 63.333 33 115.333 33 156h-44
v110h99v-61z" />
    <glyph glyph-name="quotedblbase" unicode="&#x201e;" horiz-adv-x="375" 
d="M311 42c0 -56 -10.001 -112.335 -30.001 -169.002c-1.33301 -3.33301 -3.33301 -8.16602 -6 -14.499s-4.66699 -11.166 -6 -14.499h-46c16.667 50.667 27.334 102.667 32.001 156h-43v109h99v-67zM161.999 48.998c0 -75.333 -13.667 -143.667 -41 -205h-47
c22 63.333 33 115.333 33 156h-44v109h99v-60z" />
    <glyph glyph-name="dagger" unicode="&#x2020;" horiz-adv-x="458" 
d="M441 421h-170v-421h-80v421h-171v79h171v206h80v-206h170v-79z" />
    <glyph glyph-name="daggerdbl" unicode="&#x2021;" horiz-adv-x="458" 
d="M441 181h-170v-181h-80v181h-172v79h172v161h-171v79h171v206h80v-206h170v-79h-170v-161h170v-79z" />
    <glyph glyph-name="bullet" unicode="&#x2022;" horiz-adv-x="333" 
d="M281 241h-228v227h228v-227z" />
    <glyph glyph-name="ellipsis" unicode="&#x2026;" horiz-adv-x="1000" 
d="M881 0h-95v93h95v-93zM547 0h-95v93h95v-93zM213 0h-94v93h94v-93z" />
    <glyph glyph-name="perthousand" unicode="&#x2030;" horiz-adv-x="1250" 
d="M1227 220c-0.666992 -74 -16.332 -130.501 -46.999 -169.501s-69.667 -58.833 -117 -59.5c-26.667 0 -49.334 5 -68.001 15c-29.333 15.333 -52.833 40.833 -70.5 76.5s-26.5 79.167 -26.5 130.5c0 96 25 164.333 75 205c26 21.333 56 32 90 32
c26.667 0 50.667 -6.33301 72 -19c62 -37.333 92.667 -107.666 92 -210.999zM849.002 212.999c-1.33301 -41.333 -6.99902 -77.001 -16.999 -107.001c-25.333 -75.333 -73 -113.666 -143 -114.999c-50 -0.666992 -90 17.833 -120 55.5s-45.333 93.167 -46 166.5
c-2 108 28.667 180.667 92 218c22 12.667 44.667 19 68 19c48.667 0.666992 88.667 -20.333 120 -63s46.666 -100.667 45.999 -174zM620.003 655.998l-317 -685l-55 26l318 685zM353.003 449.998c0 -40.667 -5.33008 -76.998 -15.9971 -108.998
c-27.333 -78 -76.333 -117 -147 -117c-22.667 0 -44 5 -64 15c-36.667 18.667 -62.5 48.667 -77.5 90s-22.5 81.333 -22.5 120c-0.666992 40 6.66602 81.667 21.999 125s41.666 74.666 78.999 93.999c20 10 40.333 15 61 15c48 0.666992 87.667 -19.833 119 -61.5
s46.666 -98.834 45.999 -171.501zM1160.01 219c0 113.333 -32 171 -96 173c-27.333 0.666992 -49.666 -11 -66.999 -35c-22 -28.667 -33 -74 -33 -136c0 -16.667 1 -33 3 -49c4 -39.333 14.667 -69.666 32 -90.999s38.666 -32 63.999 -32c20.667 0 38.167 6.33301 52.5 19
s24.333 29.5 30 50.5s9.5 39.167 11.5 54.5s3 30.666 3 45.999zM784.006 213c0 32.667 -3 61.999 -9 87.999c-14 60 -44.333 90 -91 90c-34 -0.666992 -59 -17.167 -75 -49.5s-23.333 -75.166 -22 -128.499c0.666992 -50 9.5 -90 26.5 -120s41.833 -45 74.5 -45
c31.333 0 55 15 71 45s24.333 70 25 120zM288.006 449.999c0 32.667 -2.33008 59.998 -6.99707 81.998c-6.66699 32.667 -18.334 56.334 -35.001 71.001s-35.334 22.334 -56.001 23.001c-15.333 0 -30.333 -4.66699 -45 -14c-36.667 -24 -54.334 -77.667 -53.001 -161
c0.666992 -52 9 -93.333 25 -124s40.667 -45.667 74 -45c18 0 33.667 5 47 15c33.333 24.667 50 75.667 50 153z" />
    <glyph glyph-name="guilsinglleft" unicode="&#x2039;" horiz-adv-x="250" 
d="M182 141l-134 113v83l134 116v-89l-80 -71l80 -66v-86z" />
    <glyph glyph-name="guilsinglright" unicode="&#x203a;" horiz-adv-x="250" 
d="M202 250l-134 -116v90l80 70l-80 67v85l134 -113v-83z" />
    <glyph glyph-name="Euro" unicode="&#x20ac;" horiz-adv-x="700" 
d="M678 649l-31.998 -91c-47.333 60.667 -112 91 -194 91c-134.667 0 -216.334 -69.667 -245.001 -209h399l-22 -62h-384v-20c0 -3.33301 0.166992 -8.16602 0.5 -14.499s0.5 -11.166 0.5 -14.499h366l-22 -62h-337c12 -66 39.167 -116.833 81.5 -152.5
s96.833 -53.5 163.5 -53.5c44 0 85.833 8.5 125.5 25.5s72.5 42.167 98.5 75.5v-106c-62 -49.333 -140.667 -74 -236 -74c-92.667 0 -168.667 24.667 -228 74s-96.333 119.666 -111 210.999h-79l23 62h50c0 22 0.666992 38.333 2 49h-75l23 62h59
c17.333 91.333 54.666 161.5 111.999 210.5s132.333 73.5 225 73.5c50.667 0 94.5 -5.33301 131.5 -16s71.833 -30.334 104.5 -59.001z" />
    <glyph glyph-name="trademark" unicode="&#x2122;" horiz-adv-x="694" 
d="M621 374h-54l2 261l-78 -261h-54l-75 257l1 -257h-56v332h78l82 -265l79 265h75v-332zM273 657h-95v-283h-59v283h-96v49h250v-49z" />
    <glyph glyph-name=".null" horiz-adv-x="0" 
 />
    <glyph glyph-name="nonmarkingreturn" horiz-adv-x="333" 
 />
    </font>
</defs>
</svg>
