<?xml version="1.0" standalone="no"?><!DOCTYPE svg PUBLIC "-//W3C//DTD SVG 1.1//EN" "http://www.w3.org/Graphics/SVG/1.1/DTD/svg11.dtd"><svg t="1543568464150" class="icon" style="" viewBox="0 0 1024 1024" version="1.1" xmlns="http://www.w3.org/2000/svg" p-id="3811" xmlns:xlink="http://www.w3.org/1999/xlink" width="200" height="200"><defs><style type="text/css"></style></defs><path d="M977.045854 511.500488c0 25.674927-21.179317 46.454634-46.154927 46.454634H93.109073c-25.475122 0-46.154927-20.679805-46.154927-46.454634 0-25.674927 21.179317-46.454634 46.154927-46.454634h837.781854c25.475122 0 46.154927 20.579902 46.154927 46.454634zM93.109073 232.472976h837.781854c24.97561 0 46.154927-20.779707 46.154927-46.454635 0-25.874732-20.679805-46.454634-46.154927-46.454634H93.109073c-24.97561 0-46.154927 20.779707-46.154927 46.454634 0 25.874732 20.679805 46.454634 46.154927 46.454635z m837.781854 558.055024H93.109073c-24.97561 0-46.154927 20.779707-46.154927 46.454634 0 25.874732 20.679805 46.454634 46.154927 46.454634h837.781854c24.97561 0 46.154927-20.779707 46.154927-46.454634 0-25.874732-20.679805-46.454634-46.154927-46.454634z" fill="#4d4d4d" p-id="3812"></path></svg>