<?xml version="1.0" encoding="utf-8"?>
<!-- Generator: Adobe Illustrator 22.0.1, SVG Export Plug-In . SVG Version: 6.00 Build 0)  -->
<svg version="1.1" id="图层_1" xmlns="http://www.w3.org/2000/svg" xmlns:xlink="http://www.w3.org/1999/xlink" x="0px" y="0px"
	 viewBox="0 0 200 200" style="enable-background:new 0 0 200 200;" xml:space="preserve">
<style type="text/css">
	.st0{fill:#2EAFBB;}
</style>
<path class="st0" d="M99.7,187.3c-44,0-68.5-9.7-68.5-25.9c0-9.4,14.2-17.6,33.9-22.1l4.7,8.1c-16.8,2.9-27.6,8.1-27.6,14
	c0,9.1,27.8,15,57.6,15c29.8,0,57.6-5.9,57.6-15c0-5.9-10.8-11.1-27.6-14l4.7-8.1c19.7,4.6,33.9,12.8,33.9,22.1
	C168.3,177.2,142.3,187.3,99.7,187.3L99.7,187.3z M145.3,108c-1.6,1.7-39.5,45.8-39.5,45.8c-1.6,1.9-3.3,3.3-5.2,3.3
	c-1.9,0-3.3-1.5-4.7-3.3c0,0-42.7-46.7-43.4-47.7c-0.7-1-1.7-2.3-2.5-3.6c-5.6-9-9.4-19.3-9.4-30.7c0-32.6,26.5-59,59.1-59
	c32.6,0,59.1,26.4,59.1,59c0,11.8-3.5,22.7-9.5,31.9C147.7,105.7,146.2,107.1,145.3,108L145.3,108z M99.7,23.7
	C73,23.7,51.3,45.3,51.3,72c0,8.8,2.9,16.7,7.3,23.1c1.5,2.3,6,7.7,6,7.7l36.4,40.5l33.2-39.4c0,0,1.8-2.1,3.8-5.1
	c5.3-7.7,10-16.2,10-26.8C148.1,45.3,126.5,23.7,99.7,23.7L99.7,23.7z M99.7,94.5c-12.6,0-22.8-10.2-22.8-22.8
	C76.9,59.1,87.1,49,99.7,49c12.6,0,22.8,10.2,22.8,22.8C122.5,84.3,112.3,94.5,99.7,94.5L99.7,94.5z M99.7,59.9
	c-6.5,0-11.8,5.3-11.8,11.8c0,6.5,5.3,11.8,11.8,11.8c6.5,0,11.8-5.3,11.8-11.8C111.5,65.2,106.3,59.9,99.7,59.9z"/>
</svg>
