<?xml version="1.0" encoding="utf-8"?>
<!-- Generator: Adobe Illustrator 22.0.1, SVG Export Plug-In . SVG Version: 6.00 Build 0)  -->
<svg version="1.1" id="图层_1" xmlns="http://www.w3.org/2000/svg" xmlns:xlink="http://www.w3.org/1999/xlink" x="0px" y="0px"
	 viewBox="0 0 200 200" style="enable-background:new 0 0 200 200;" xml:space="preserve">
<style type="text/css">
	.st0{fill:#2EAFBB;}
</style>
<path class="st0" d="M154.8,180.7H47.1c-7.9,0-14.4-6.4-14.4-14.4V33.7c0-7.9,6.4-14.4,14.4-14.4h84.5l37.6,37.6v109.4
	C169.2,174.2,162.7,180.7,154.8,180.7L154.8,180.7z M47.1,28.3c-3,0-5.4,2.4-5.4,5.4v132.6c0,3,2.4,5.4,5.4,5.4h107.7
	c3,0,5.4-2.4,5.4-5.4V60.6l-32.4-32.4L47.1,28.3L47.1,28.3z"/>
<path class="st0" d="M164.7,63.3h-28.4c-6.1,0-11.1-5-11.1-11.1V23.8h9v28.4c0,1.1,1,2.1,2.1,2.1h28.4V63.3z M106.2,74.2H67.5
	c-2.5,0-4.5-2-4.5-4.5c0-2.5,2-4.5,4.5-4.5h38.7c2.5,0,4.5,2,4.5,4.5C110.7,72.2,108.7,74.2,106.2,74.2z M134.3,105.7H67.5
	c-2.5,0-4.5-2-4.5-4.5c0-2.5,2-4.5,4.5-4.5h66.8c2.5,0,4.5,2,4.5,4.5S136.8,105.7,134.3,105.7L134.3,105.7z M134.3,136.2H67.5
	c-2.5,0-4.5-2-4.5-4.5c0-2.5,2-4.5,4.5-4.5h66.8c2.5,0,4.5,2,4.5,4.5C138.8,134.2,136.8,136.2,134.3,136.2L134.3,136.2z"/>
</svg>
