<?xml version="1.0" encoding="utf-8"?>
<!-- Generator: Adobe Illustrator 22.0.1, SVG Export Plug-In . SVG Version: 6.00 Build 0)  -->
<svg version="1.1" id="图层_1" xmlns="http://www.w3.org/2000/svg" xmlns:xlink="http://www.w3.org/1999/xlink" x="0px" y="0px"
	 viewBox="0 0 200 200" style="enable-background:new 0 0 200 200;" xml:space="preserve">
<style type="text/css">
	.st0{fill:#2EAFBB;}
</style>
<path class="st0" d="M157.4,96.1L105,43.7c-1.2-1.3-2.9-1.9-4.6-1.9c-0.3,0-0.4-0.2-0.7-0.2c-0.9,0-1.8,0.2-2.6,0.6
	c-0.8,0.3-1.6,0.8-2.3,1.4L42.5,96.1c-2.5,2.5-2.5,6.6,0,9.1l0,0c2.5,2.5,6.6,2.5,9.1,0.1l0,0l41.7-41.7v113.9
	c0,3.5,2.9,6.5,6.5,6.5s6.5-2.9,6.5-6.5V63.3l42,42c2.5,2.5,6.7,2.5,9.2,0C160,102.8,160,98.7,157.4,96.1
	C157.5,96.2,157.4,96.2,157.4,96.1z"/>
<path class="st0" d="M171.1,29H28.9c-3.5,0-6.5-2.9-6.5-6.5s2.9-6.5,6.5-6.5h142.3c3.5,0,6.5,2.9,6.5,6.5
	C177.6,26,174.7,29,171.1,29z"/>
</svg>
