<?xml version="1.0" encoding="utf-8"?>
<!-- Generator: Adobe Illustrator 22.0.1, SVG Export Plug-In . SVG Version: 6.00 Build 0)  -->
<svg version="1.1" id="图层_1" xmlns="http://www.w3.org/2000/svg" xmlns:xlink="http://www.w3.org/1999/xlink" x="0px" y="0px"
	 viewBox="0 0 200 200" style="enable-background:new 0 0 200 200;" xml:space="preserve">
<style type="text/css">
	.st0{fill:#2EAFBB;}
</style>
<path class="st0" d="M182,113.4c-3.6,0-6.6,3-6.6,6.6v47.9c0,4-3.2,7.3-7.2,7.3l-138.5,0c-4,0-7.2-3.3-7.2-7.3V48.6
	c0-4,3.2-7.3,7.2-7.3h64.9c3.6,0,6.6-3,6.6-6.6c0-3.7-3-6.6-6.6-6.6l-65.8,0C18,28.1,9.2,36.9,9.2,47.7v121.2
	c0,10.8,8.8,19.6,19.5,19.6h140.4c10.8,0,19.5-8.8,19.5-19.6V120C188.6,116.4,185.7,113.4,182,113.4z M196.5,58.8L196.5,58.8
	l-45.4-45.6l-1.4-1.4l-0.2,0.2c-1-0.6-2.1-0.9-3.3-0.9c-3.8,0-6.9,3.1-6.9,6.9c0,1.2,0.3,2.3,0.9,3.3l-0.2,0.2l31.6,31.7l-32.4,0
	c-52.8,6.6-65.8,39.2-69.6,90c0,3.8,3.1,6.9,6.9,6.9c3.1,0,5.7-2.1,6.6-4.9l0.3-1.8c4-48,13.5-71.6,56.1-76.4h32.2l-30.2,30.3
	l-1.2,1.7c-0.4,0.9-0.7,2-0.7,3c0,3.8,3.1,6.9,6.9,6.9c1.1,0,2.3-0.3,3.2-0.8l46.7-46.5c0.4-0.3,0.9-1,0.9-1.6
	C197.2,59.5,196.9,59.1,196.5,58.8z"/>
</svg>
