<?xml version="1.0" encoding="utf-8"?>
<!-- Generator: Adobe Illustrator 22.0.1, SVG Export Plug-In . SVG Version: 6.00 Build 0)  -->
<svg version="1.1" id="图层_1" xmlns="http://www.w3.org/2000/svg" xmlns:xlink="http://www.w3.org/1999/xlink" x="0px" y="0px"
	 viewBox="0 0 200 200" style="enable-background:new 0 0 200 200;" xml:space="preserve">
<style type="text/css">
	.st0{fill:#2EAFBB;}
</style>
<path class="st0" d="M156.9,122.6l-33.9-57c3.3-4.8,5.1-10.4,5-16.2c0-15.5-12.5-28.2-27.8-28.2S72.3,33.7,72.3,49.3
	c0,6,1.9,11.6,5.1,16.2l-33.9,57c-15.1,0.5-27,12.9-27,28.1c0,15.5,12.5,28.2,27.8,28.2c15.4,0,27.8-12.7,27.8-28.2
	c0-11.4-6.7-21.5-17.1-25.9l30.5-51.4c4.2,2.6,9.2,4.1,14.5,4.1s10.3-1.6,14.5-4.1l30.5,51.4c-10.4,4.4-17.1,14.7-17.1,25.9
	c0,15.5,12.5,28.2,27.8,28.2s27.8-12.7,27.8-28.2C183.8,135.5,171.8,123.1,156.9,122.6L156.9,122.6z M61.1,150.7
	c0,9.3-7.5,16.8-16.7,16.8s-16.7-7.5-16.7-16.8s7.5-16.8,16.7-16.8C53.6,133.8,61.1,141.3,61.1,150.7z M100.1,66.2
	c-9.2,0-16.7-7.5-16.7-16.8s7.5-16.8,16.7-16.8s16.7,7.5,16.7,16.8S109.3,66.2,100.1,66.2z M155.9,167.6c-9.2,0-16.7-7.5-16.7-16.8
	s7.5-16.8,16.7-16.8s16.7,7.5,16.7,16.8C172.7,160,165.1,167.6,155.9,167.6z"/>
<path class="st0" d="M72.3,145.1v11.2h55.8v-11.2C128,145.1,72.3,145.1,72.3,145.1z"/>
</svg>
