<?xml version="1.0" encoding="utf-8"?>
<!-- Generator: Adobe Illustrator 22.0.1, SVG Export Plug-In . SVG Version: 6.00 Build 0)  -->
<svg version="1.1" id="图层_1" xmlns="http://www.w3.org/2000/svg" xmlns:xlink="http://www.w3.org/1999/xlink" x="0px" y="0px"
	 viewBox="0 0 200 200" style="enable-background:new 0 0 200 200;" xml:space="preserve">
<style type="text/css">
	.st0{fill:#2EAFBB;}
</style>
<path class="st0" d="M184.8,96.2H14.1c-2.8,0-5.1,2.3-5.1,5.1c0,2.8,2.3,5.1,5.1,5.1h170.7c2.8,0,5.1-2.3,5.1-5.1
	C189.9,98.5,187.6,96.2,184.8,96.2L184.8,96.2L184.8,96.2z M180.3,126.8c-2.8,0-5.1,2.3-5.1,5.1c0,0,0,0.1,0,0.1v41.9
	c0,2.5-0.7,3.2-3.2,3.2l-41.8,0c-0.1,0-0.2,0-0.3,0c-2.8,0-5.1,2.3-5.1,5.1c0,2.8,2.3,5.1,5.1,5.1h50.3c2.8,0,5.1-2.3,5.1-5.1
	l0-50.2c0,0,0-0.1,0-0.1C185.4,129.1,183.1,126.8,180.3,126.8L180.3,126.8L180.3,126.8z M68.9,177.1c-0.1,0-0.2,0-0.3,0H26.8
	c-2.5,0-3.2-0.7-3.2-3.2v-41.8c0-0.1,0-0.2,0-0.3c0-2.8-2.3-5.1-5.1-5.1c-2.8,0-5.1,2.3-5.1,5.1v50.3c0,2.8,2.3,5.1,5.1,5.1h50.3
	c2.8,0,5.1-2.3,5.1-5.1C74,179.4,71.7,177.1,68.9,177.1L68.9,177.1L68.9,177.1z M18.6,75.9c2.8,0,5.1-2.3,5.1-5.1c0-0.1,0-0.2,0-0.3
	V28.7c0-2.5,0.7-3.2,3.2-3.2h41.8c0.1,0,0.2,0,0.3,0c2.8,0,5.1-2.3,5.1-5.1c0-2.8-2.3-5.1-5.1-5.1l-50.3,0c-2.8,0-5.1,2.3-5.1,5.1
	v50.3C13.5,73.6,15.7,75.9,18.6,75.9L18.6,75.9L18.6,75.9z M130,25.5c0.1,0,0.2,0,0.3,0H172c2.5,0,3.2,0.7,3.2,3.2v41.9
	c0,0,0,0.1,0,0.1c0,2.8,2.3,5.1,5.1,5.1c2.8,0,5.1-2.3,5.1-5.1c0,0,0-0.1,0-0.1V20.5c0-2.8-2.3-5.1-5.1-5.1H130
	c-2.8,0-5.1,2.3-5.1,5.1C124.9,23.3,127.2,25.5,130,25.5L130,25.5L130,25.5z"/>
</svg>
