<?xml version="1.0" encoding="utf-8"?>
<!-- Generator: Adobe Illustrator 22.0.1, SVG Export Plug-In . SVG Version: 6.00 Build 0)  -->
<svg version="1.1" id="图层_1" xmlns="http://www.w3.org/2000/svg" xmlns:xlink="http://www.w3.org/1999/xlink" x="0px" y="0px"
	 viewBox="0 0 200 200" style="enable-background:new 0 0 200 200;" xml:space="preserve">
<style type="text/css">
	.st0{fill:#2EAFBB;}
</style>
<path class="st0" d="M52,72.4h93.9v11H52V72.4z"/>
<path class="st0" d="M52,105.5h20.9v11H52V105.5z"/>
<path class="st0" d="M52,138.7h41.7v11H52V138.7z"/>
<path class="st0" d="M115.4,141.9l73.4-73.4l7.8,7.8l-73.4,73.4L115.4,141.9L115.4,141.9z"/>
<path class="st0" d="M92.4,103.7l38.3,38.3l-7.8,7.8l-38.3-38.3L92.4,103.7z"/>
<path class="st0" d="M171.1,106.2v60.3c0,3.8-3.1,6.9-6.9,6.9H35.8c-3.8,0-6.9-3.1-6.9-6.9V47.2c0-3.8,3.1-6.9,6.9-6.9h25.6l0,0H61
	v8v5.7h78l0,0v-5.5v-8.3l0,0h25.3c3.8,0,6.9,3.1,6.9,6.9v16.3h9.1V44.9c0-7.6-6.2-13.8-13.8-13.8h-27.5v-7.2V22v-4.6H61v7v6.7H33.5
	c-7.6,0-13.8,6.2-13.8,13.8v123.9c0,7.6,6.2,13.8,13.8,13.8h133.1c7.6,0,13.8-6.2,13.8-13.8v-62.6H171.1z M70.5,26.6h59.2V45H70.5
	V26.6z"/>
</svg>
