<?xml version="1.0" encoding="utf-8"?>
<!-- Generator: Adobe Illustrator 22.0.1, SVG Export Plug-In . SVG Version: 6.00 Build 0)  -->
<svg version="1.1" id="图层_1" xmlns="http://www.w3.org/2000/svg" xmlns:xlink="http://www.w3.org/1999/xlink" x="0px" y="0px"
	 viewBox="0 0 200 200" style="enable-background:new 0 0 200 200;" xml:space="preserve">
<style type="text/css">
	.st0{fill:#2EAFBB;}
</style>
<path class="st0" d="M183.1,186.8L156.4,160c5.3-8.2,8.1-17.7,8.1-27.5c0-28.1-22.8-50.9-50.8-50.9c-28.1,0-50.8,22.8-50.8,50.9
	s22.8,50.9,50.8,50.9c13.2,0,25.2-5,34.3-13.3l26,26c1.2,1.2,2.9,1.9,4.6,1.9c1.7,0,3.4-0.7,4.6-1.9
	C185.7,193.5,185.7,189.4,183.1,186.8C183.1,186.8,183.1,186.8,183.1,186.8L183.1,186.8z M113.6,170.2c-10,0-19.6-4-26.7-11.1
	c-7.1-7.1-11.1-16.7-11.1-26.7c0-10.1,3.9-19.5,11.1-26.7c7.1-7.1,16.7-11.1,26.7-11.1c10.1,0,19.5,3.9,26.7,11.1
	c7.1,7.1,11.1,16.7,11.1,26.7c0,10.1-3.9,19.5-11.1,26.7C133.2,166.3,123.6,170.2,113.6,170.2L113.6,170.2z"/>
<path class="st0" d="M63.9,171.9H27.1V27.2h81v30.5c0,3.6,2.9,6.6,6.5,6.6c0,0,0,0,0,0h30.5V73c0,3.6,2.9,6.6,6.5,6.6c0,0,0,0,0,0
	c3.6,0,6.6-3,6.5-6.6c0,0,0,0,0,0V49.4c0-1.8-0.7-3.4-1.9-4.7l-13.5-13.6l0,0l-15.3-15.2c-1.2-1.2-2.9-1.9-4.6-1.9H20.5
	c-3.6,0-6.6,3-6.5,6.6c0,0,0,0,0,0v157.9c0,3.6,2.9,6.6,6.5,6.6c0,0,0,0,0,0h43.4c3.6,0,6.6-3,6.5-6.6c0,0,0,0,0,0
	C70.5,174.9,67.6,171.9,63.9,171.9C63.9,171.9,63.9,171.9,63.9,171.9L63.9,171.9z M133.5,40.5L144.1,51h-22.9V28.2L133.5,40.5
	L133.5,40.5z"/>
</svg>
