<?xml version="1.0" encoding="utf-8"?>
<!-- Generator: Adobe Illustrator 22.0.1, SVG Export Plug-In . SVG Version: 6.00 Build 0)  -->
<svg version="1.1" id="图层_1" xmlns="http://www.w3.org/2000/svg" xmlns:xlink="http://www.w3.org/1999/xlink" x="0px" y="0px"
	 viewBox="0 0 200 200" style="enable-background:new 0 0 200 200;" xml:space="preserve">
<style type="text/css">
	.st0{fill:#2EAFBB;}
</style>
<path class="st0" d="M165.7,174.3c-3.2,0-5.7-2.5-5.7-5.7c0-35.8-20.8-66.4-49.5-72.7c-2.5-0.6-4.3-2.7-4.5-5.2
	c-0.1-2.5,1.5-4.9,3.9-5.7c12.2-4.1,20.4-15.6,20.4-28.6c0-16.5-13.6-30-30.2-30S70,39.8,70,56.4c0,12.9,8.2,24.3,20.3,28.5
	c2.4,0.8,4,3.2,3.9,5.7c-0.1,2.5-1.9,4.7-4.5,5.2C61,102.1,40,132.6,40,168.6c0,3.2-2.5,5.7-5.7,5.7c-3.2,0-5.7-2.5-5.7-5.7
	c0-35.8,18.6-67.2,45.8-79.5c-9.8-7.8-15.7-19.6-15.7-32.6c0-22.9,18.6-41.5,41.5-41.5s41.7,18.6,41.7,41.4c0,13-6,25-15.9,32.8
	c27,12.4,45.5,43.8,45.5,79.5C171.4,171.8,168.9,174.3,165.7,174.3z"/>
<path class="st0" d="M100,115.6l9.5,43.9l-9.5,15.1l-9.5-15.1L100,115.6 M100,105.3c-4.9,0-9.1,3.4-10.2,8.2l-9.5,43.9
	c-0.6,2.6-0.1,5.5,1.4,7.8l9.5,15.1c1.9,3.1,5.2,4.9,8.8,4.9s6.8-1.8,8.8-4.9l9.5-15.1c1.5-2.3,1.9-5,1.4-7.8l-9.5-43.9
	C109.1,108.7,104.9,105.3,100,105.3z"/>
</svg>
