<?xml version="1.0" standalone="no"?><!DOCTYPE svg PUBLIC "-//W3C//DTD SVG 1.1//EN" "http://www.w3.org/Graphics/SVG/1.1/DTD/svg11.dtd"><svg t="1547529008550" class="icon" style="" viewBox="0 0 1280 1024" version="1.1" xmlns="http://www.w3.org/2000/svg" p-id="21512" xmlns:xlink="http://www.w3.org/1999/xlink" width="250" height="200"><defs><style type="text/css"></style></defs><path d="M1076.181333 1024H203.776c-103.253333 0-186.965333-68.757333-186.965333-153.6V153.578667c0-84.821333 83.712-153.6 186.965333-153.6h872.405333c103.253333 0 186.944 68.778667 186.944 153.6V870.4c0 84.842667-83.690667 153.6-186.944 153.6z m119.722667-854.592c0-94.592-23.850667-114.176-138.986667-114.176H223.018667c-115.136 0-138.965333 19.584-138.965334 114.176v685.162667c0 94.613333 23.829333 114.197333 138.965334 114.197333h833.898666c115.136 0 138.986667-19.584 138.986667-114.197333V169.408zM764.608 768l-124.629333-204.8h-124.629334V768h-186.965333V281.6c0-22.528 2.026667-25.6 31.168-25.6h405.056c61.269333 0 124.629333 54.314667 124.629333 102.4v102.4c0 46.250667-5.525333 98.133333-62.314666 102.4l124.629333 204.8h-186.944zM702.293333 358.4c0-32.874667-21.205333-51.2-62.314666-51.2h-91.52c-16.448 0-33.109333 10.602667-33.109334 23.978667V512h124.629334c41.109333 0 62.314667-18.944 62.314666-51.2v-102.4z" p-id="21513" fill="#666666"></path></svg>