<?xml version="1.0" standalone="no"?><!DOCTYPE svg PUBLIC "-//W3C//DTD SVG 1.1//EN" "http://www.w3.org/Graphics/SVG/1.1/DTD/svg11.dtd"><svg t="1547530124420" class="icon" style="" viewBox="0 0 1024 1024" version="1.1" xmlns="http://www.w3.org/2000/svg" p-id="27534" xmlns:xlink="http://www.w3.org/1999/xlink" width="200" height="200"><defs><style type="text/css"></style></defs><path d="M750.87868412 372.58363534l-48.08924941 30.27994215c-41.56102138-55.2140478-98.55402814-82.81390534-170.97723073-82.81390387-56.98405008 0-104.78128442 18.25001568-143.36124794 54.76617081-38.60146191 36.50898948-57.88875783 81.78558324-57.88875786 135.79753362 0 54.03165627 18.99348835 100.33836317 56.99300678 138.91832816 37.98518565 38.59429627 86.06906194 57.87979968 144.25699902 57.87979968 69.46364316 0 126.45485888-27.59985751 170.97723073-82.81390386l48.08924941 32.05711008c-23.74992308 34.43801548-55.66192189 60.86264859-95.72524867 79.25419342-40.07049244 18.39691947-83.26357193 27.60702317-129.56848631 27.60702317-73.02514609 0-134.02036572-24.04552022-182.9999901-72.12939503-48.97962588-48.09104045-73.46585452-106.5530792-73.465856-175.42731765 0-70.04408825 24.78003622-129.86229241 74.35443996-179.43669611 49.56007098-49.56723809 113.23537522-74.36160559 191.01157995-74.36160412 45.70476192 0 88.00746493 9.79771593 126.8955673 29.39135819 38.88272778 19.58826768 68.70762875 46.60767863 89.49799387 81.03136136zM509.9988943 55.06882508C257.1805433 55.06882508 52.22929789 260.02007197 52.22929789 512.83842298c0 252.82551667 204.95124687 457.76959642 457.76959641 457.76959643 252.82551667 0 457.77138746-204.94408123 457.77138748-457.76959643 0-252.81834955-204.94587227-457.76959642-457.77138748-457.7695979z m0 845.82474039c-214.32079461 0-388.0623096-173.7325583-388.0623096-388.05514249 0-214.31542001 173.74151499-388.0623096 388.0623096-388.06231108 214.32258565 0 388.05693502 173.74688959 388.05693502 388.06231108 0 214.32258565-173.73434934 388.05514397-388.05693502 388.05514249z m0 0" fill="#ffffff" p-id="27535"></path></svg>