<?xml version="1.0" standalone="no"?><!DOCTYPE svg PUBLIC "-//W3C//DTD SVG 1.1//EN" "http://www.w3.org/Graphics/SVG/1.1/DTD/svg11.dtd"><svg t="1547531357952" class="icon" style="" viewBox="0 0 1024 1024" version="1.1" xmlns="http://www.w3.org/2000/svg" p-id="33338" xmlns:xlink="http://www.w3.org/1999/xlink" width="200" height="200"><defs><style type="text/css"></style></defs><path d="M948.352 649.024C708.224 661.632 512 801.728 512 845.056c0-43.328-196.224-183.424-436.288-196.032a41.6 41.6 0 0 0-43.712 41.6v38.912a41.6 41.6 0 0 0 39.424 41.536c178.496 9.344 303.296 80.768 373.376 134.912 27.456 21.248 67.2 62.144 67.2 62.144s39.744-40.896 67.2-62.08c70.144-54.208 194.944-125.568 373.376-134.912a41.6 41.6 0 0 0 39.424-41.536v-38.912a41.6 41.6 0 0 0-43.648-41.664z m0 0M357.888 537.28a31.168 31.168 0 0 0-1.6 9.856v34.368c0 17.344 14.08 31.36 31.424 31.36h252.032c17.344 0 31.424-14.08 31.424-31.36v-34.368a31.744 31.744 0 0 0-2.304-11.84 265.344 265.344 0 1 0-310.976 1.984z m38.08-283.072a25.408 25.408 0 0 1 36.032 0L512 334.272l80.064-80a25.408 25.408 0 1 1 36.032 36.032L537.472 380.8v162.88a25.472 25.472 0 0 1-50.88 0V380.8L395.968 290.24a25.536 25.536 0 0 1 0-36.032z m0 0" p-id="33339" fill="#666666"></path><path d="M381.76 639.232a23.296 23.296 0 0 0 0 46.592h263.936a23.296 23.296 0 0 0 0-46.592H381.76z m0 0" p-id="33340" fill="#666666"></path></svg>