<?xml version="1.0" standalone="no"?><!DOCTYPE svg PUBLIC "-//W3C//DTD SVG 1.1//EN" "http://www.w3.org/Graphics/SVG/1.1/DTD/svg11.dtd"><svg t="1547530354473" class="icon" style="" viewBox="0 0 1024 1024" version="1.1" xmlns="http://www.w3.org/2000/svg" p-id="28391" xmlns:xlink="http://www.w3.org/1999/xlink" width="200" height="200"><defs><style type="text/css"></style></defs><path d="M537.606 604.993l-324.36 324.36c-39.052 39.052-102.369 39.052-141.421 0l-3.536-3.536c-39.052-39.053-39.052-102.37 0-141.422l324.36-324.36-9.742-9.742-7.039 7.039c-12.496 12.496-32.758 12.496-45.254 0L227.376 354.094c-12.497-12.497-12.497-32.758 0-45.255L462.843 73.373c12.496-12.497 32.758-12.497 45.254 0L611.335 176.61c12.497 12.497 12.497 32.758 0 45.255l-18.418 18.418 164.756 164.756 26.196-26.196c12.497-12.497 32.758-12.497 45.255 0L932.36 482.08c12.497 12.497 12.497 32.758 0 45.255L696.895 762.802c-12.497 12.496-32.758 12.496-45.255 0L548.403 659.564c-12.25-12.249-12.492-31.958-0.729-44.503l-10.068-10.068zM492.6 559.988l-54.447-54.448-319.196 319.196c-15.035 15.035-15.035 39.412 0 54.447 15.036 15.035 39.412 15.035 54.448 0L492.6 559.988z m309.844-108.85L620.698 632.885a8.003 8.003 0 0 0 1.244 9.709l46.669 46.669a8 8 0 0 0 11.313 0l178.898-178.898a8 8 0 0 0 0-11.314l-46.669-46.67a8.003 8.003 0 0 0-9.708-1.243zM547.697 286.486L429.61 404.573 593.66 568.622l118.087-118.087-164.05-164.049z m-56.57-139.574a8 8 0 0 0-11.314 0L300.915 325.81a8 8 0 0 0 0 11.313l46.67 46.67a8 8 0 0 0 11.313 0l178.898-178.899a8 8 0 0 0 0-11.313l-46.67-46.67z m-58.783 665.055h478c40.869 0 74 33.13 74 74v66a8 8 0 0 1-8 8h-610a8 8 0 0 1-8-8v-66c0-40.87 33.13-74 74-74z m6 56c-9.941 0-18 8.059-18 18v10a8 8 0 0 0 8 8h498a8 8 0 0 0 8-8v-10c0-9.941-8.059-18-18-18h-478z" p-id="28392" fill="#ffffff"></path></svg>