<?xml version="1.0" standalone="no"?>
<!DOCTYPE svg PUBLIC "-//W3C//DTD SVG 1.1//EN" "http://www.w3.org/Graphics/SVG/1.1/DTD/svg11.dtd" >
<svg xmlns="http://www.w3.org/2000/svg" xmlns:xlink="http://www.w3.org/1999/xlink" version="1.1">
<metadata>
Created by FontForge 20170924 at Thu May 17 23:59:58 2007
 By www-data
Copyright (c) 1997, 2001, Berthold LLC. All rights reserved. Akzidenz-Grotesk is a trademark of Berthold Types Limited.
</metadata>
<defs>
<font id="AkzidenzGroteskBQ-Bold" horiz-adv-x="604" >
  <font-face 
    font-family="Akzidenz-Grotesk BQ"
    font-weight="700"
    font-stretch="normal"
    units-per-em="1000"
    panose-1="0 0 0 0 0 0 0 0 0 0"
    ascent="800"
    descent="-200"
    x-height="522"
    cap-height="706"
    bbox="-79 -231 1221 927"
    underline-thickness="110"
    underline-position="-176"
    stemh="115"
    stemv="153"
    unicode-range="U+0020-2122"
  />
<missing-glyph horiz-adv-x="500" 
 />
    <glyph glyph-name=".notdef" horiz-adv-x="500" 
 />
    <glyph glyph-name="space" unicode=" " horiz-adv-x="292" 
 />
    <glyph glyph-name="exclam" unicode="!" horiz-adv-x="292" 
d="M250 502l-48 -259h-67l-45 252v211h160v-204zM250 0h-160v170h160v-170z" />
    <glyph glyph-name="quotedbl" unicode="&#x22;" horiz-adv-x="318" 
d="M292 743l-33 -304h-37l-33 304h103zM130 743l-33 -304h-37l-33 304h103z" />
    <glyph glyph-name="numbersign" unicode="#" horiz-adv-x="667" 
d="M624 405h-109l-12 -95h98v-124h-116l-26 -186h-126l27 186h-99l-26 -186h-124l25 186h-94v124h112l13 95h-100v124h117l25 177h124l-25 -177h100l24 177h125l-24 -177h91v-124zM391 405h-100l-13 -95h99z" />
    <glyph glyph-name="dollar" unicode="$" horiz-adv-x="667" 
d="M623 217c0 -25 -4 -46 -12 -70c-12 -39 -35 -93 -119 -131c-30 -13 -54 -19 -116 -26v-120h-80v120c-19 2 -37 4 -56 7c-82 13 -145 42 -171 57c-14 8 -29 18 -43 28l92 104c19 -10 74 -44 140 -56c12 -2 25 -3 38 -4v154c-5 1 -77 14 -121 30c-36 14 -120 52 -120 164
c0 137 99 184 146 200c42 14 79 15 94 17v114h81v-115c19 -2 38 -4 56 -8c81 -18 144 -59 167 -73l-88 -102c-74 37 -88 39 -135 49v-133c34 -8 69 -16 102 -27c77 -25 108 -60 125 -94c8 -15 20 -44 20 -85zM296 437l-1 120c-27 -4 -51 -9 -69 -33c-9 -13 -11 -26 -11 -32
c0 -4 0 -13 6 -23c10 -18 34 -24 75 -32zM463 204c0 14 -4 21 -7 26c-15 25 -56 31 -80 35v-137c8 2 52 6 74 36c12 16 13 32 13 40z" />
    <glyph glyph-name="percent" unicode="%" horiz-adv-x="875" 
d="M847 221c0 -13 0 -142 -73 -200c-25 -20 -55 -27 -88 -27c-162 0 -158 217 -158 227c0 114 38 182 80 211c14 9 42 23 83 22c24 0 78 -8 116 -65c19 -29 40 -84 40 -168zM665 679l-376 -721l-79 42l375 721zM345 456c0 -12 1 -143 -72 -200c-34 -27 -76 -28 -90 -28
c-21 0 -64 2 -101 43c-57 64 -55 171 -55 187c0 13 -6 204 135 228c15 3 55 7 93 -14c74 -41 90 -141 90 -216zM745 222c0 46 -5 73 -10 94c-2 7 -9 40 -35 49c-4 1 -9 3 -17 2c-26 -3 -37 -29 -43 -50c-4 -16 -10 -55 -10 -101c0 -10 1 -47 8 -80c4 -20 10 -38 28 -50
c9 -6 19 -7 23 -7c28 0 41 29 47 52c3 13 9 50 9 91zM243 456c0 46 -5 73 -10 94c-2 7 -9 40 -35 49c-4 1 -9 3 -17 2c-26 -3 -36 -29 -42 -50c-4 -16 -10 -55 -10 -101c0 -10 0 -47 7 -80c4 -20 10 -38 28 -50c9 -6 20 -7 24 -7c28 0 40 29 46 52c3 13 9 50 9 91z" />
    <glyph glyph-name="ampersand" unicode="&#x26;" horiz-adv-x="688" 
d="M662 0h-80c-29 0 -55 2 -82 15c-10 5 -22 14 -41 32c-14 -8 -28 -16 -42 -23c-44 -20 -98 -31 -146 -31c-25 0 -98 2 -159 48c-54 40 -83 103 -83 171c1 101 67 160 95 180c17 13 37 23 78 42c-22 36 -46 77 -46 121c0 22 6 45 8 51c33 102 149 104 173 104
c22 0 112 -3 154 -80c17 -31 18 -61 18 -73c0 -30 -9 -81 -65 -126c-5 -4 -24 -17 -43 -27c-8 -4 -16 -8 -24 -11c19 -29 37 -58 57 -85l39 -54c16 35 21 42 35 104l125 -46c-26 -79 -34 -97 -76 -168c3 -3 5 -7 8 -10c27 -26 62 -24 97 -21v-113zM383 560
c0 29 -23 43 -49 43c-25 0 -50 -14 -50 -42c0 -23 11 -39 34 -76c22 12 43 24 56 46c8 13 9 23 9 29zM385 146l-121 185l-24 -16c-33 -22 -58 -56 -58 -98c0 -6 1 -16 5 -30c7 -22 32 -75 100 -75c37 0 66 16 98 34z" />
    <glyph glyph-name="quotesingle" unicode="'" horiz-adv-x="156" 
d="M130 743l-33 -304h-37l-33 304h103z" />
    <glyph glyph-name="parenleft" unicode="(" horiz-adv-x="335" 
d="M344 -95l-54 -70c-11 8 -19 15 -25 19c-46 38 -85 76 -115 112c-78 96 -119 215 -119 346c0 127 41 251 116 351c38 51 81 94 138 138l58 -60c-38 -43 -49 -56 -67 -83c-64 -92 -97 -206 -97 -334c0 -176 59 -325 165 -419z" />
    <glyph glyph-name="parenright" unicode=")" horiz-adv-x="336" 
d="M307 323c0 -128 -41 -251 -117 -352c-37 -48 -74 -85 -138 -137l-58 60c38 43 49 56 68 83c63 92 96 206 96 334c0 176 -59 326 -164 419l54 70c11 -8 19 -15 24 -19c49 -39 85 -74 115 -112c79 -98 120 -215 120 -346z" />
    <glyph glyph-name="asterisk" unicode="*" horiz-adv-x="411" 
d="M394 534l-99 -34l61 -78l-85 -67l-66 85l-61 -85l-87 64l57 79l-98 29l31 104l101 -30v105h108v-105l103 35z" />
    <glyph glyph-name="plus" unicode="+" horiz-adv-x="724" 
d="M632 259h-187v-204h-166v204h-187v130h187v201h166v-201h187v-130z" />
    <glyph glyph-name="comma" unicode="," horiz-adv-x="250" 
d="M205 31c0 -118 -45 -174 -159 -204v71c49 18 56 55 60 102h-61v168h160v-137z" />
    <glyph glyph-name="hyphen" unicode="-" horiz-adv-x="376" 
d="M337 237h-299v143h299v-143z" />
    <glyph glyph-name="period" unicode="." horiz-adv-x="250" 
d="M203 0h-158v167h158v-167z" />
    <glyph glyph-name="slash" unicode="/" horiz-adv-x="479" 
d="M462 706l-304 -706h-142l304 706h142z" />
    <glyph glyph-name="zero" unicode="0" horiz-adv-x="562" 
d="M521 335c0 -97 -20 -219 -93 -291c-25 -24 -70 -59 -153 -59c-30 0 -88 2 -144 56c-55 54 -91 142 -91 303c0 125 29 197 59 244c18 28 34 42 44 52c37 31 82 47 130 48c18 1 78 0 126 -33c9 -6 25 -16 42 -37c82 -97 80 -258 80 -283zM371 334c0 4 1 115 -24 175
c-4 9 -23 57 -71 55c-14 -1 -23 -6 -28 -9c-20 -12 -34 -33 -46 -81c-9 -37 -14 -83 -14 -163c0 -13 0 -66 13 -118c17 -68 49 -84 80 -84c10 0 31 2 47 20c38 42 43 155 43 205z" />
    <glyph glyph-name="one" unicode="1" horiz-adv-x="562" 
d="M393 0h-162v495c-14 -6 -23 -10 -37 -13c-28 -7 -77 -8 -106 -8l1 103l36 3c46 4 73 20 90 31c7 5 23 15 36 33c9 12 13 21 20 34h122v-678z" />
    <glyph glyph-name="two" unicode="2" horiz-adv-x="562" 
d="M502 0h-465v118c25 20 50 39 74 58c28 23 56 47 83 71c77 66 138 125 138 233c0 26 -3 41 -6 51c-6 16 -21 43 -63 43c-7 0 -22 -1 -39 -10c-22 -13 -35 -34 -35 -85c0 -17 2 -35 4 -52l-161 9c-1 27 -7 109 48 178c48 59 117 76 190 76c27 0 145 -1 201 -95
c28 -46 29 -93 29 -112c0 -104 -58 -173 -81 -200c-55 -64 -114 -109 -181 -159l264 4v-128z" />
    <glyph glyph-name="three" unicode="3" horiz-adv-x="562" 
d="M519 202c-1 -75 -41 -143 -105 -179c-34 -20 -71 -27 -84 -29c-29 -6 -59 -6 -68 -6c-24 0 -102 1 -163 54c-16 14 -42 41 -57 91c-12 40 -11 84 -11 95l156 13c0 -7 -1 -15 -1 -22c0 -12 -2 -60 34 -89c20 -17 39 -18 49 -18c4 0 21 1 35 6c53 20 55 82 55 95
c0 32 -13 84 -92 86c-11 0 -21 0 -32 -1l1 115c4 0 27 -2 45 1c41 7 62 38 62 78c0 7 0 20 -6 35c-11 26 -38 42 -66 42c-10 0 -38 -2 -55 -28c-14 -22 -14 -46 -14 -70l-158 14c2 21 5 68 38 117c30 43 84 88 199 88c73 0 151 -19 193 -85c10 -15 28 -48 28 -97
c0 -18 -5 -78 -50 -117c-21 -18 -56 -31 -61 -34c19 -4 36 -8 53 -18c50 -27 75 -81 75 -137z" />
    <glyph glyph-name="four" unicode="4" horiz-adv-x="562" 
d="M534 157h-90v-157h-158v156h-275l2 122l280 400h151v-411h90v-110zM293 527c-27 -53 -41 -75 -101 -162c-22 -33 -44 -65 -66 -98h161v100c0 53 4 107 6 160z" />
    <glyph glyph-name="five" unicode="5" horiz-adv-x="562" 
d="M515 235c0 -19 -2 -65 -24 -114c-24 -52 -87 -136 -231 -135c-44 0 -177 11 -220 150c-10 32 -11 67 -11 77l158 6c0 -8 -6 -80 46 -104c11 -5 23 -7 35 -7c31 0 50 18 57 26c27 32 26 97 26 100c0 87 -43 117 -86 117c-34 0 -54 -21 -60 -30s-10 -20 -11 -23l-138 23
l41 355h389l-9 -128h-256l-17 -123c6 4 12 9 19 13c14 8 45 22 89 22c24 0 52 -5 74 -13c122 -45 129 -179 129 -212z" />
    <glyph glyph-name="six" unicode="6" horiz-adv-x="562" 
d="M528 228c0 -78 -25 -122 -44 -148c-14 -20 -31 -37 -52 -51c-24 -16 -74 -40 -147 -40c-21 0 -75 2 -127 36c-68 45 -116 130 -116 298c0 16 -1 145 38 231c14 31 29 49 38 60c51 59 113 77 188 77c26 0 98 -1 153 -59c23 -25 34 -51 39 -62c9 -21 13 -42 17 -63
l-161 -17c0 9 4 42 -21 65c-16 14 -33 15 -41 15c-6 0 -19 -1 -34 -9c-27 -14 -37 -37 -45 -64c-11 -37 -16 -67 -18 -141c8 15 14 25 27 37c18 16 57 42 120 42c24 0 79 -5 126 -50c60 -57 60 -131 60 -157zM375 217c0 59 -22 86 -48 97c-6 2 -20 8 -38 7
c-35 -3 -75 -29 -75 -105c0 -52 15 -78 33 -93s37 -16 46 -16c7 0 23 1 40 11c25 14 42 41 42 99z" />
    <glyph glyph-name="seven" unicode="7" horiz-adv-x="562" 
d="M513 555c-20 -24 -58 -69 -99 -136c-56 -93 -79 -167 -92 -209c-32 -103 -38 -160 -44 -210h-186c11 49 21 104 59 202c21 54 64 162 154 282c16 21 34 42 52 63h-323v131h479v-123z" />
    <glyph glyph-name="eight" unicode="8" horiz-adv-x="562" 
d="M519 192c0 -29 -4 -57 -16 -83c-23 -52 -90 -120 -224 -120c-19 0 -111 3 -172 53c-22 18 -68 70 -68 152s50 124 76 141c14 9 30 15 45 21c-15 9 -24 15 -30 20c-57 46 -63 107 -63 133c0 14 3 46 19 79c23 46 77 102 195 102c14 0 46 -1 80 -11
c41 -13 130 -53 130 -175c0 -22 -1 -78 -51 -120c-12 -10 -20 -15 -45 -28c46 -18 63 -30 82 -49c41 -44 42 -92 42 -115zM344 484c0 7 2 93 -67 88c-44 -3 -61 -40 -61 -79c0 -3 1 -19 4 -32c3 -14 13 -54 61 -54c29 0 63 17 63 77zM357 208c0 68 -38 92 -70 95
c-18 1 -34 -5 -39 -7c-22 -10 -47 -36 -47 -89c0 -7 0 -27 7 -47c12 -31 37 -51 70 -51c21 0 36 7 43 11c23 14 36 34 36 88z" />
    <glyph glyph-name="nine" unicode="9" horiz-adv-x="562" 
d="M518 355c0 -15 1 -150 -40 -237c-14 -28 -31 -52 -55 -74c-31 -28 -77 -57 -168 -57c-122 0 -171 71 -191 117c-13 30 -16 57 -18 69l160 16c0 -10 -3 -43 22 -65c15 -14 32 -15 40 -15c6 0 20 1 34 8c27 15 37 37 45 64c12 37 16 67 19 141c-6 -11 -10 -16 -13 -20
c-17 -21 -62 -59 -134 -59c-80 1 -147 50 -174 125c-5 15 -13 43 -13 83c0 29 1 94 50 155c6 8 23 27 46 43c24 16 75 40 147 40c21 0 76 -2 127 -36c68 -45 116 -130 116 -298zM346 462c0 52 -15 78 -33 93s-36 16 -46 16c-7 0 -23 -1 -40 -11c-24 -13 -42 -41 -42 -98
c0 -60 22 -86 48 -97c6 -3 21 -8 38 -7c36 2 75 28 75 104z" />
    <glyph glyph-name="colon" unicode=":" horiz-adv-x="292" 
d="M246 354h-160v168h160v-168zM246 0h-160v170h160v-170z" />
    <glyph glyph-name="semicolon" unicode=";" horiz-adv-x="292" 
d="M246 354h-160v170h160v-170zM246 12c0 -18 -4 -37 -9 -54c-23 -79 -75 -112 -152 -129v69c53 18 58 52 62 102h-61v171h160v-159z" />
    <glyph glyph-name="less" unicode="&#x3c;" horiz-adv-x="724" 
d="M578 195l-1 -163l-465 226v151l465 222v-155l-314 -137z" />
    <glyph glyph-name="equal" unicode="=" horiz-adv-x="724" 
d="M625 352h-525v132h525v-132zM625 136h-525v131h525v-131z" />
    <glyph glyph-name="greater" unicode="&#x3e;" horiz-adv-x="724" 
d="M607 253l-465 -222v156l314 137l-315 144l1 163l465 -226v-152z" />
    <glyph glyph-name="question" unicode="?" 
d="M585 533c0 -17 -3 -60 -30 -100c-15 -21 -33 -37 -74 -67c-22 -16 -45 -32 -68 -48c-15 -11 -38 -28 -49 -41c-6 -8 -9 -15 -13 -34l-127 1c0 7 0 41 9 65c22 57 93 88 135 124c8 6 48 39 48 84c0 8 -1 19 -3 27c-16 60 -68 63 -90 63c-21 0 -64 -2 -96 -47
c-12 -17 -18 -35 -20 -41c-3 -14 -3 -25 -3 -31l-143 47c2 5 16 46 32 72c71 115 208 113 243 113c16 0 62 0 110 -15c118 -35 139 -124 139 -172zM368 0h-158v170h158v-170z" />
    <glyph glyph-name="at" unicode="@" horiz-adv-x="851" 
d="M798 421c0 -185 -113 -354 -237 -354c-49 0 -82 25 -92 68c-35 -45 -78 -68 -125 -68c-85 0 -139 65 -139 168c0 155 101 288 217 288c18 0 34 -3 48 -9c24 -9 36 -20 57 -51l10 40h90l-33 -159c-21 -102 -28 -143 -28 -165c0 -18 8 -28 21 -28c11 0 27 10 43 27
c51 55 84 150 84 240c0 132 -85 215 -223 215c-198 0 -368 -182 -368 -393c0 -173 118 -285 301 -285c117 0 229 50 327 146l46 -62c-55 -50 -78 -68 -121 -94c-78 -46 -161 -69 -252 -69c-110 0 -215 41 -285 107c-64 62 -98 150 -98 254c0 263 204 476 457 476
c180 0 300 -117 300 -292zM494 346v4c0 51 -27 84 -67 84c-62 0 -119 -92 -119 -192c0 -53 24 -86 64 -86c27 0 58 20 80 53c24 34 42 93 42 137z" />
    <glyph glyph-name="A" unicode="A" horiz-adv-x="708" 
d="M705 0h-188l-35 113h-260l-35 -113h-188l262 706h184zM442 240l-92 298l-87 -298h179z" />
    <glyph glyph-name="B" unicode="B" horiz-adv-x="708" 
d="M674 197c0 -31 -10 -104 -84 -153c-58 -39 -126 -44 -194 -44h-328v706h290c19 0 38 0 56 -1c73 -3 151 -12 199 -76c14 -18 34 -51 34 -104c0 -92 -61 -131 -92 -145c-17 -7 -27 -10 -59 -17c10 -1 19 -3 28 -5c83 -15 117 -53 134 -88c6 -12 16 -38 16 -73zM474 504
c0 15 -3 51 -46 65c-9 3 -20 5 -40 5h-152v-147h133c1 0 26 1 40 3c40 7 53 25 59 41c2 5 6 17 6 33zM495 213c0 52 -29 72 -49 79c-13 5 -27 7 -57 7h-153v-171h123c63 0 94 7 117 31c8 9 19 25 19 54z" />
    <glyph glyph-name="C" unicode="C" horiz-adv-x="702" 
d="M682 160c-21 -32 -36 -53 -46 -65c-32 -36 -120 -116 -258 -116c-25 0 -83 3 -144 30c-186 84 -195 289 -195 345c0 43 5 154 86 252c32 40 112 122 256 122c95 0 187 -39 249 -110c26 -30 42 -61 49 -73l-139 -69c-10 20 -17 31 -23 39c-13 19 -56 68 -128 68
c-20 0 -67 -4 -107 -42c-29 -27 -67 -86 -67 -183c0 -9 0 -26 3 -48c12 -97 54 -141 93 -163c13 -8 40 -20 78 -20c99 0 137 77 153 104z" />
    <glyph glyph-name="D" unicode="D" horiz-adv-x="729" 
d="M699 359c0 -133 -43 -212 -81 -256c-23 -26 -75 -72 -161 -92c-39 -9 -73 -11 -113 -11h-277v706h225c22 0 43 0 64 -1c30 -2 148 -5 234 -76c13 -10 34 -29 56 -64c25 -39 53 -102 53 -206zM522 353c0 54 -6 103 -40 146c-10 12 -31 36 -69 48c-33 11 -63 10 -97 10h-71
v-415h54c52 0 112 3 158 37c36 27 65 78 65 174z" />
    <glyph glyph-name="E" unicode="E" horiz-adv-x="646" 
d="M622 0h-554v706h522v-136h-346v-129h323v-134h-323v-168h378v-139z" />
    <glyph glyph-name="F" unicode="F" horiz-adv-x="625" 
d="M609 571h-366v-149h337v-136h-337v-286h-176v706h542v-135z" />
    <glyph glyph-name="G" unicode="G" horiz-adv-x="750" 
d="M704 0h-138v65c-19 -17 -34 -29 -43 -35c-66 -44 -137 -46 -165 -46c-25 0 -77 2 -136 30c-128 62 -182 203 -182 339c0 52 10 240 174 332c29 17 88 45 174 45c132 0 213 -62 250 -95c25 -22 41 -42 61 -68l-134 -81c-3 5 -23 37 -45 56c-45 41 -99 43 -119 43
c-13 0 -60 -1 -97 -25c-42 -27 -88 -89 -88 -202c0 -15 0 -114 49 -174c18 -22 42 -34 51 -39c13 -6 45 -19 85 -19c12 0 34 0 61 9c14 5 57 22 78 65c11 22 14 52 15 58h-158v134h307v-392z" />
    <glyph glyph-name="H" unicode="H" horiz-adv-x="750" 
d="M681 0h-177v301h-258v-301h-178v706h179v-255h257v255h177v-706z" />
    <glyph glyph-name="I" unicode="I" horiz-adv-x="313" 
d="M243 0h-176v706h176v-706z" />
    <glyph glyph-name="J" unicode="J" horiz-adv-x="396" 
d="M331 197c0 -54 4 -110 -38 -152c-44 -44 -103 -45 -159 -45h-118v143h30c48 0 80 2 95 19c12 13 13 28 13 44v500h177v-509z" />
    <glyph glyph-name="K" unicode="K" horiz-adv-x="708" 
d="M732 0h-199l-188 320l-109 -113v-207h-168v706h168v-288l264 288h213l-250 -262z" />
    <glyph glyph-name="L" unicode="L" horiz-adv-x="542" 
d="M520 0h-452v706h176v-557h276v-149z" />
    <glyph glyph-name="M" unicode="M" horiz-adv-x="917" 
d="M848 0h-170l14 568l-157 -568h-153l-156 568l14 -568h-172v706h258l133 -494l131 494h258v-706z" />
    <glyph glyph-name="N" unicode="N" horiz-adv-x="729" 
d="M660 0h-173l-256 437l6 -437h-170v706h173l258 -443l-7 443h169v-706z" />
    <glyph glyph-name="O" unicode="O" horiz-adv-x="792" 
d="M749 348c0 -108 -47 -224 -134 -295c-38 -31 -106 -74 -222 -74c-43 0 -160 7 -250 101c-95 100 -101 234 -101 276c0 37 5 137 67 228c36 53 118 144 282 144c134 0 215 -60 252 -98c68 -70 106 -185 106 -282zM572 336c3 89 -24 149 -45 178c-9 12 -30 37 -68 53
c-30 12 -56 13 -68 13c-39 0 -66 -13 -79 -20c-71 -40 -96 -127 -96 -202c0 -96 30 -148 59 -179c31 -33 73 -51 119 -51c23 0 78 6 122 53c40 43 54 99 56 155z" />
    <glyph glyph-name="P" unicode="P" horiz-adv-x="688" 
d="M672 472c0 -23 -3 -84 -42 -140c-66 -94 -166 -101 -268 -101h-118v-231h-177v706h350c67 0 130 -8 184 -55c7 -6 20 -17 32 -35c15 -23 39 -74 39 -144zM497 473c0 34 -10 51 -19 64c-28 39 -79 39 -121 39h-113v-214h107c31 0 44 0 60 3c62 10 87 48 86 108z" />
    <glyph glyph-name="Q" unicode="Q" horiz-adv-x="792" 
d="M817 61l-52 -126c-6 1 -38 6 -63 15c-36 12 -66 31 -130 79c-64 -31 -106 -49 -178 -49c-31 0 -97 3 -169 39c-175 89 -183 282 -183 337c0 44 5 162 94 261c93 104 209 110 258 110c41 0 145 -6 235 -84c81 -70 121 -179 121 -285c0 -25 -3 -103 -37 -175
c-9 -20 -21 -40 -33 -59c10 -9 22 -20 33 -27c33 -23 65 -30 104 -36zM575 355c0 72 -27 131 -41 151c-46 70 -124 73 -150 71c-16 -1 -56 -5 -92 -33c-54 -42 -74 -123 -74 -188c0 -23 0 -135 79 -195c40 -30 85 -33 102 -33c12 0 42 2 73 17c103 51 103 190 103 210z" />
    <glyph glyph-name="R" unicode="R" horiz-adv-x="708" 
d="M690 0h-194l-141 252h-110v-252h-178v706h318c20 0 40 0 60 -1c32 -2 144 -9 199 -110c10 -19 28 -60 28 -118c0 -79 -31 -121 -55 -144c-10 -10 -22 -19 -33 -26c-13 -7 -28 -14 -57 -25zM496 481c0 92 -71 94 -102 94h-150v-192h146c7 0 27 0 47 7c57 19 59 73 59 91z
" />
    <glyph glyph-name="S" unicode="S" horiz-adv-x="688" 
d="M652 229c0 -20 -2 -62 -28 -110c-61 -111 -188 -126 -222 -130c-23 -3 -47 -5 -71 -5c-140 0 -219 47 -266 85c-19 16 -28 26 -56 59l134 84c3 -3 17 -19 31 -30c46 -38 114 -59 173 -59c8 0 32 0 55 7c5 1 75 21 75 75c0 65 -94 67 -157 76c-33 4 -67 10 -100 18
c-51 13 -98 32 -133 74c-7 8 -21 26 -30 52c-3 10 -9 33 -9 62c0 6 1 29 4 49c8 45 27 81 61 113c35 33 104 74 220 74c43 0 137 -5 233 -70c24 -16 38 -28 78 -63l-130 -93c-39 38 -66 60 -119 77c-9 2 -36 10 -66 10c-72 0 -105 -42 -105 -75c0 -19 10 -32 15 -37
c24 -26 63 -25 129 -35c40 -6 79 -14 118 -23c25 -5 116 -23 152 -109c5 -13 14 -40 14 -76z" />
    <glyph glyph-name="T" unicode="T" horiz-adv-x="562" 
d="M552 567h-183v-567h-178v567h-184v139h545v-139z" />
    <glyph glyph-name="U" unicode="U" horiz-adv-x="729" 
d="M665 312c0 -52 -2 -103 -19 -152c-59 -165 -245 -176 -285 -176c-31 0 -149 5 -229 85c-68 68 -70 155 -70 243v394h178v-440c0 -63 5 -87 33 -109c35 -27 82 -27 94 -27c33 0 62 4 87 26c33 29 34 71 34 111v439h177v-394z" />
    <glyph glyph-name="V" unicode="V" horiz-adv-x="667" 
d="M666 706l-245 -706h-180l-242 706h188l146 -502l145 502h188z" />
    <glyph glyph-name="W" unicode="W" horiz-adv-x="979" 
d="M977 706l-179 -706h-182l-127 452l-128 -452h-182l-179 706h177l104 -486l128 486h157l132 -486l103 486h176z" />
    <glyph glyph-name="X" unicode="X" horiz-adv-x="771" 
d="M769 0h-203l-181 267l-183 -267h-202l273 383l-235 323h209l136 -213l138 213h205l-233 -323z" />
    <glyph glyph-name="Y" unicode="Y" horiz-adv-x="708" 
d="M708 706l-267 -372v-334h-174v329l-265 377h202l152 -239l151 239h201z" />
    <glyph glyph-name="Z" unicode="Z" horiz-adv-x="625" 
d="M608 568l-385 -429h383v-139h-601v133l391 436h-358v137h570v-138z" />
    <glyph glyph-name="bracketleft" unicode="[" horiz-adv-x="292" 
d="M275 -144h-224v923h224v-84h-91v-755h91v-84z" />
    <glyph glyph-name="backslash" unicode="\" horiz-adv-x="479" 
d="M462 0h-142l-304 706h142z" />
    <glyph glyph-name="bracketright" unicode="]" horiz-adv-x="292" 
d="M241 -144h-224v84h91v755h-91v84h224v-923z" />
    <glyph glyph-name="asciicircum" unicode="^" horiz-adv-x="724" 
d="M651 281h-165l-118 281l-121 -281h-174l214 425h156z" />
    <glyph glyph-name="underscore" unicode="_" horiz-adv-x="498" 
d="M508 -231h-520v110h520v-110z" />
    <glyph glyph-name="grave" unicode="`" horiz-adv-x="271" 
d="M265 587h-101l-158 133h185z" />
    <glyph glyph-name="a" unicode="a" horiz-adv-x="583" 
d="M526 0h-151v47c-11 -8 -21 -15 -32 -22c-19 -13 -63 -39 -128 -39c-94 0 -137 51 -154 86c-11 22 -17 48 -17 73c0 94 84 139 107 149c39 17 110 31 209 49v29c0 18 -3 63 -59 63c-45 0 -66 -21 -74 -38c-2 -4 -5 -12 -7 -23h-154c2 21 3 66 42 105c43 42 100 50 118 53
c30 4 55 4 67 4c73 0 172 -17 207 -92c6 -14 11 -28 11 -58v-305c0 -45 2 -62 15 -81zM360 250l-99 -33c-6 -2 -12 -4 -18 -7c-38 -16 -48 -38 -48 -58c0 -3 1 -14 6 -24c6 -10 21 -29 53 -29c28 0 52 16 59 21c45 32 47 81 47 130z" />
    <glyph glyph-name="b" unicode="b" horiz-adv-x="625" 
d="M590 271c0 -78 -18 -134 -32 -162c-18 -37 -75 -123 -195 -123c-21 0 -75 2 -122 39c-12 9 -21 19 -30 30l1 -55h-143v706h150v-232c16 17 17 18 28 26c21 16 58 37 121 37c28 0 84 -4 139 -52c41 -35 83 -94 83 -214zM440 267c0 13 -1 39 -9 71c-6 23 -23 91 -103 86
c-60 -3 -113 -42 -113 -159c0 -5 0 -73 23 -113c4 -8 12 -20 30 -33c25 -17 51 -19 62 -19c47 0 73 30 82 44c28 41 28 117 28 123z" />
    <glyph glyph-name="c" unicode="c" horiz-adv-x="539" 
d="M524 123c-11 -17 -23 -35 -36 -50c-69 -81 -158 -90 -196 -90c-23 0 -69 3 -122 29c-98 48 -137 141 -137 245c0 24 1 74 26 132c59 137 188 148 236 148c41 0 133 -8 203 -96c6 -8 10 -14 20 -30l-114 -65c-1 3 -9 19 -17 30c-9 11 -38 43 -85 43c-11 0 -33 -1 -56 -18
c-53 -40 -55 -129 -55 -139c0 -45 15 -103 50 -132c10 -8 32 -25 66 -25c50 1 77 34 86 47c5 8 9 14 15 31z" />
    <glyph glyph-name="d" unicode="d" 
d="M536 0h-140l-1 49c-10 -10 -18 -18 -30 -27c-45 -33 -90 -36 -111 -36c-35 1 -117 11 -174 92c-25 36 -49 86 -49 180c0 30 0 166 99 239c18 14 58 39 119 39c73 0 117 -37 137 -53v223h150v-706zM390 261c0 13 3 76 -26 120c-9 14 -35 45 -82 39c-29 -4 -52 -20 -68 -44
c-21 -31 -27 -78 -27 -115c0 -10 -1 -79 29 -123c23 -34 54 -38 70 -38c18 0 39 7 54 19c53 42 50 129 50 142z" />
    <glyph glyph-name="e" unicode="e" horiz-adv-x="583" 
d="M562 229h-373c0 -5 -1 -17 2 -31c12 -61 55 -99 117 -99c9 0 29 1 50 9c52 18 75 71 82 84l116 -60c-21 -31 -32 -45 -44 -59c-77 -85 -177 -92 -216 -92c-16 0 -53 1 -94 14c-116 36 -170 138 -170 256c0 32 2 129 67 204c32 36 87 83 201 83c35 0 139 -4 204 -95
c59 -81 57 -189 58 -214zM403 325c-2 17 -5 70 -57 93c-21 10 -38 10 -47 10c-61 0 -89 -45 -97 -63c-4 -9 -8 -20 -12 -40h213z" />
    <glyph glyph-name="f" unicode="f" horiz-adv-x="354" 
d="M347 416h-102v-416h-153v416h-82v94h82v65c0 8 0 47 17 78c26 49 91 64 140 64c36 0 86 -8 92 -9v-116c-34 0 -63 1 -75 -4c-13 -5 -18 -17 -19 -22c-4 -12 -3 -43 -3 -56h103v-94z" />
    <glyph glyph-name="g" unicode="g" 
d="M537 21c0 -14 -1 -28 -2 -42c-3 -26 -11 -83 -72 -123c-67 -43 -170 -43 -185 -43c-96 0 -160 31 -190 56c-12 10 -19 19 -23 25c-29 42 -26 90 -26 106h159c2 -24 3 -39 20 -57c12 -14 34 -28 75 -28c5 0 46 0 69 21c23 20 23 48 23 76l-1 57c-6 -4 -18 -13 -35 -22
c-15 -7 -54 -23 -102 -23c-85 0 -216 49 -216 252c0 140 74 213 127 237c16 7 50 18 95 18c55 0 92 -20 110 -32c12 -8 19 -15 29 -25v48h145v-501zM384 277c0 26 -3 73 -17 98c-10 17 -36 43 -86 41c-6 0 -29 -2 -47 -14c-48 -34 -44 -122 -44 -126c0 -13 1 -26 2 -38
c3 -26 12 -97 96 -97c33 0 51 11 61 20c31 28 35 78 35 116z" />
    <glyph glyph-name="h" unicode="h" 
d="M537 0h-153v273c0 40 2 93 -36 119c-13 9 -28 13 -43 13c-8 0 -28 -2 -46 -14c-33 -23 -37 -59 -37 -131v-260h-154v706h154l1 -239c3 3 16 18 30 28c48 37 96 41 118 41c70 0 110 -33 127 -52c11 -12 20 -27 25 -42c9 -23 14 -49 14 -99v-343z" />
    <glyph glyph-name="i" unicode="i" horiz-adv-x="292" 
d="M222 587h-153v119h153v-119zM222 0h-153v522h153v-522z" />
    <glyph glyph-name="j" unicode="j" horiz-adv-x="292" 
d="M221 588h-152v118h152v-118zM221 6c0 -19 -1 -38 -2 -56c-8 -95 -59 -128 -149 -128c-23 0 -46 1 -70 2l1 122c18 -1 52 -3 62 18c6 11 6 44 6 55v503h152v-516z" />
    <glyph glyph-name="k" unicode="k" horiz-adv-x="583" 
d="M595 0h-178l-134 225l-66 -63v-162h-150v706h151v-363l169 179h185l-180 -186z" />
    <glyph glyph-name="l" unicode="l" horiz-adv-x="292" 
d="M222 0h-153v706h153v-706z" />
    <glyph glyph-name="m" unicode="m" horiz-adv-x="896" 
d="M828 0h-153v274c0 54 0 85 -14 107c-12 20 -36 30 -58 30c-13 0 -49 -3 -68 -37c-12 -21 -11 -43 -11 -90v-284h-153v310c0 50 -7 72 -30 87c-13 9 -29 13 -45 13c-7 0 -27 0 -44 -13c-32 -24 -33 -65 -33 -99v-298h-152v522h152l1 -54c9 11 15 18 26 27
c20 16 58 41 121 41c12 0 66 -1 104 -25c16 -10 29 -23 42 -36c19 16 26 21 37 28c18 11 61 33 118 33c18 0 91 -1 134 -57c25 -31 26 -64 26 -139v-340z" />
    <glyph glyph-name="n" unicode="n" 
d="M535 0h-154v295c0 35 -1 61 -6 75c-7 18 -26 42 -70 42c-7 0 -33 0 -52 -16c-26 -20 -29 -52 -29 -114v-282h-154v521h156v-45c5 5 11 13 24 23c19 14 61 36 123 36c12 0 56 -1 93 -21c64 -34 69 -93 69 -157v-357z" />
    <glyph glyph-name="o" unicode="o" horiz-adv-x="625" 
d="M593 261c0 -118 -56 -186 -92 -216c-30 -25 -91 -61 -189 -61c-27 0 -133 5 -205 75c-31 30 -75 94 -75 203c0 30 2 115 61 186c36 43 108 97 240 89c61 -3 115 -17 164 -56c65 -53 96 -136 96 -220zM437 256c0 79 -25 119 -55 140c-14 10 -35 20 -76 20
c-7 0 -36 -2 -58 -15c-28 -16 -61 -61 -61 -138c0 -51 17 -89 27 -105c12 -18 42 -51 100 -51c85 0 123 71 123 149z" />
    <glyph glyph-name="p" unicode="p" 
d="M575 262c-1 -89 -29 -148 -48 -178c-29 -44 -65 -67 -82 -75s-48 -19 -97 -19c-55 0 -83 16 -128 44v-215h-156v703h137l1 -51c8 10 11 15 22 23c19 16 60 40 124 40c30 0 100 -5 157 -66c53 -56 70 -133 70 -206zM427 264c0 15 2 83 -36 128c-12 14 -28 25 -46 30
c-10 3 -18 3 -22 3c-57 0 -110 -52 -110 -165c0 -11 -2 -74 27 -117c8 -11 18 -21 30 -28c7 -5 25 -14 49 -14c53 0 74 38 83 54c12 22 25 53 25 109z" />
    <glyph glyph-name="q" unicode="q" 
d="M536 -180h-154l-1 217c-9 -7 -18 -14 -28 -20c-17 -10 -54 -28 -106 -28c-80 0 -151 47 -186 118c-6 13 -15 33 -22 65c-4 17 -8 43 -8 83c0 23 3 120 53 192c40 57 105 89 173 89c61 0 95 -20 139 -59v45h140v-702zM393 266c0 101 -41 152 -91 159
c-36 5 -70 -15 -90 -43c-21 -31 -29 -82 -29 -119c0 -32 6 -55 9 -67c3 -9 28 -93 96 -93c56 0 105 54 105 163z" />
    <glyph glyph-name="r" unicode="r" horiz-adv-x="375" 
d="M367 392l-51 -8c-5 -1 -29 -4 -48 -11c-41 -14 -48 -40 -48 -79v-294h-153v522h149v-54c13 11 27 25 61 39c42 17 71 19 90 21v-136z" />
    <glyph glyph-name="s" unicode="s" horiz-adv-x="521" 
d="M497 169c0 -43 -16 -74 -25 -87c-46 -69 -142 -96 -221 -96c-28 0 -115 5 -191 52c-31 19 -52 40 -62 49l98 88c9 -9 18 -18 28 -25c34 -27 81 -47 124 -47c7 0 21 1 38 5c23 5 54 18 54 47c-1 36 -47 40 -103 49c-109 18 -159 43 -186 95c-14 28 -16 53 -16 65
c0 14 3 45 22 78c24 43 83 97 199 97c33 0 110 -5 189 -50c15 -9 29 -18 43 -28l-95 -88c-9 7 -18 14 -28 20c-28 17 -70 32 -103 32c-22 0 -42 -6 -49 -9c-19 -9 -24 -22 -24 -31c0 -10 6 -19 14 -25c15 -10 53 -15 70 -19l69 -15c83 -18 155 -60 155 -157z" />
    <glyph glyph-name="t" unicode="t" horiz-adv-x="354" 
d="M341 415h-102v-234c0 -21 -1 -33 4 -42c9 -17 33 -17 36 -17c18 0 36 1 54 1v-119c-10 -2 -46 -8 -81 -8c-11 0 -22 0 -32 1c-14 1 -60 0 -95 32c-40 35 -38 88 -38 136v251h-76v94h76v163h152v-164h102v-94z" />
    <glyph glyph-name="u" unicode="u" 
d="M534 0h-154v49c-11 -12 -17 -18 -23 -23c-19 -15 -65 -41 -129 -41c-12 0 -70 0 -111 32c-58 46 -53 130 -53 194v311h155v-325c0 -33 1 -58 29 -75c9 -5 22 -12 45 -12c49 0 75 28 82 47c5 13 6 26 6 40v325h153v-522z" />
    <glyph glyph-name="v" unicode="v" horiz-adv-x="500" 
d="M499 522l-169 -522h-161l-170 522h163l93 -354l86 354h158z" />
    <glyph glyph-name="w" unicode="w" horiz-adv-x="792" 
d="M790 522l-156 -522h-167l-77 348l-78 -348h-169l-143 522h162l73 -365l79 365h164l72 -368l81 368h159z" />
    <glyph glyph-name="x" unicode="x" horiz-adv-x="521" 
d="M520 0h-164l-99 162l-87 -162h-170l177 283l-158 239h174l69 -133l74 133h165l-158 -244z" />
    <glyph glyph-name="y" unicode="y" horiz-adv-x="500" 
d="M500 522l-184 -564c-12 -37 -24 -69 -51 -98c-33 -34 -63 -40 -109 -40h-111v123h70c36 0 48 20 48 38c0 14 -3 25 -11 50c-5 16 -10 32 -15 49l-137 442h164l86 -374l86 374h164z" />
    <glyph glyph-name="z" unicode="z" horiz-adv-x="542" 
d="M511 0h-477v115l282 289h-252v118h447v-118l-278 -285h278v-119z" />
    <glyph glyph-name="braceleft" unicode="{" horiz-adv-x="317" 
d="M305 -148h-64c-66 0 -91 7 -115 35c-11 12 -18 27 -22 43c-5 22 -7 38 -7 83v155c0 40 -2 58 -10 72c-12 21 -33 30 -76 34v87c30 2 41 5 56 14c24 14 30 34 30 92v154c0 45 1 60 7 83c4 16 11 31 22 43c25 27 50 35 114 35h64v-84h-16c-18 0 -32 -5 -41 -16
c-6 -6 -10 -13 -12 -21c-3 -16 -4 -25 -4 -71v-139c0 -82 -17 -110 -83 -135c24 -7 33 -11 48 -24c27 -23 35 -50 35 -110v-138c0 -46 1 -56 5 -71c6 -24 27 -38 57 -38h12v-83z" />
    <glyph glyph-name="bar" unicode="|" horiz-adv-x="256" 
d="M194 -143h-133v922h133v-922z" />
    <glyph glyph-name="braceright" unicode="}" horiz-adv-x="317" 
d="M306 273c-31 -3 -41 -6 -57 -15c-23 -13 -30 -33 -30 -91l1 -155c0 -44 -1 -60 -7 -82c-4 -17 -12 -32 -23 -44c-24 -27 -49 -35 -113 -35h-65v84h16c19 0 33 5 42 16c5 6 9 14 11 22c4 15 4 24 4 70v139c0 82 17 110 83 135c-23 7 -32 12 -47 24c-27 23 -36 50 -36 110
v138c0 46 0 56 -4 71c-7 24 -27 38 -57 38h-12v84l64 -1c66 -1 90 -7 114 -35c11 -12 19 -27 23 -43c6 -22 7 -37 7 -83l-1 -155c0 -42 3 -58 11 -72c11 -20 32 -30 76 -34v-86z" />
    <glyph glyph-name="asciitilde" unicode="~" horiz-adv-x="724" 
d="M654 306c-31 -38 -46 -52 -73 -70c-31 -20 -60 -29 -92 -29c-31 0 -61 9 -121 38l-35 17c-46 22 -75 30 -104 30c-12 0 -23 -2 -33 -6c-23 -9 -39 -20 -70 -61l-9 -12l-47 132c25 34 35 45 54 61c29 25 66 39 105 39c32 0 59 -8 121 -36l57 -26c46 -21 59 -25 79 -25
c21 0 47 9 66 23c18 13 28 23 56 55z" />
    <glyph glyph-name="exclamdown" unicode="&#xa1;" horiz-adv-x="292" 
d="M200 538h-159v168h159v-168zM200 0h-159v205l47 260h67l45 -253v-212z" />
    <glyph glyph-name="cent" unicode="&#xa2;" horiz-adv-x="542" 
d="M530 123c-21 -34 -60 -99 -147 -127c-17 -5 -35 -8 -40 -9v-119h-76v117c-150 16 -208 114 -226 186c-7 27 -9 54 -9 80c-1 145 70 230 154 265c37 15 68 16 81 17v112h77v-113c103 -17 150 -75 182 -121l-114 -66c-27 47 -42 58 -68 66v-302c30 8 48 23 72 73zM267 113
v298c-45 -18 -77 -78 -76 -155c1 -56 21 -98 42 -119c9 -9 16 -15 34 -24z" />
    <glyph glyph-name="sterling" unicode="&#xa3;" horiz-adv-x="688" 
d="M660 226c-3 -65 -7 -150 -58 -199c-13 -13 -39 -33 -86 -33c-63 0 -116 38 -166 72c-4 -6 -13 -17 -27 -30c-40 -35 -96 -51 -149 -51c-10 0 -27 0 -50 5c-20 5 -108 28 -108 117c0 21 6 37 9 44c17 37 63 82 157 82c15 0 32 -1 63 -5c-20 41 -26 49 -42 71h-145v98h77
c-3 4 -6 8 -8 12c-7 12 -28 55 -28 102c0 32 11 96 82 141c40 26 97 44 199 44c13 0 133 2 195 -62c52 -53 52 -158 52 -167l-153 -11c0 5 -1 39 -9 63c-20 57 -78 54 -94 54c-54 0 -80 -19 -93 -41c-4 -6 -11 -21 -11 -40c0 -38 23 -67 44 -95h156v-98h-90
c9 -17 26 -47 26 -96c0 -12 -1 -20 -4 -43c6 -4 12 -9 18 -13c23 -18 32 -23 48 -23c12 0 29 4 39 28c6 16 9 45 11 85zM248 134c-5 2 -37 18 -67 18c-39 0 -56 -24 -56 -41c1 -26 24 -39 47 -39c23 1 48 14 61 31c8 11 15 28 15 31z" />
    <glyph glyph-name="currency" unicode="&#xa4;" horiz-adv-x="687" 
d="M659 570l-80 -79c33 -55 45 -97 45 -152c0 -57 -13 -101 -46 -153l80 -81l-84 -83l-80 81c-57 -34 -95 -45 -151 -45c-58 0 -100 13 -152 46l-80 -80l-83 83l81 80c-33 46 -47 92 -47 151s13 102 46 153l-78 79l83 83l78 -78c46 31 95 45 154 45c56 0 98 -13 150 -45
l80 79zM469 337c0 75 -55 132 -125 132c-71 0 -126 -57 -126 -130s55 -129 127 -129c69 0 124 57 124 127z" />
    <glyph glyph-name="yen" unicode="&#xa5;" horiz-adv-x="708" 
d="M708 692l-173 -236h85v-108h-164l-15 -21v-48h179v-108h-179v-171h-174v171h-180v108h180v43l-19 26h-161v108h84l-169 236h202l152 -236l151 236h201z" />
    <glyph glyph-name="brokenbar" unicode="&#xa6;" horiz-adv-x="256" 
d="M194 376h-134v402h134v-402zM194 -144h-134v401h134v-401z" />
    <glyph glyph-name="section" unicode="&#xa7;" 
d="M587 255c0 -72 -43 -121 -98 -162c20 -27 34 -51 34 -85c0 -22 -7 -43 -17 -62c-35 -62 -104 -89 -172 -89c-100 0 -197 40 -281 92l97 80c47 -31 114 -60 171 -60c19 0 55 7 55 32c0 70 -355 105 -355 295c0 71 44 118 101 153c-24 28 -38 51 -38 89c0 31 11 62 30 86
c40 51 104 66 166 66c103 0 184 -37 272 -86l-97 -79c-52 27 -108 53 -168 53c-18 0 -54 -4 -54 -29c0 -28 37 -40 58 -49c30 -14 60 -28 91 -42c88 -41 205 -88 205 -203zM448 229c0 55 -96 89 -138 109c-36 17 -71 35 -106 53c-26 -16 -45 -37 -45 -69
c0 -21 10 -37 25 -51c21 -19 86 -46 115 -59c37 -17 73 -36 108 -56c21 20 41 42 41 73z" />
    <glyph glyph-name="dieresis" unicode="&#xa8;" horiz-adv-x="271" 
d="M340 597h-158v124h158v-124zM88 597h-157v124h157v-124z" />
    <glyph glyph-name="copyright" unicode="&#xa9;" horiz-adv-x="823" 
d="M768 361c0 -207 -153 -363 -357 -363c-197 0 -355 158 -355 356s158 356 356 356c195 0 356 -157 356 -349zM719 347c0 182 -133 321 -307 321c-170 0 -307 -141 -307 -315s136 -313 306 -313c168 0 308 140 308 307zM586 200l-29 -29c-31 -31 -86 -51 -140 -51
c-128 0 -217 97 -217 236c0 136 91 233 217 233c70 0 117 -22 169 -80l-69 -80c-36 41 -58 53 -100 53c-61 0 -102 -50 -102 -126c0 -75 41 -124 102 -124c37 0 60 12 97 51z" />
    <glyph glyph-name="ordfeminine" unicode="&#xaa;" horiz-adv-x="333" 
d="M296 432h-85c-1 7 -1 15 -1 17v7c-17 -13 -40 -29 -78 -29c-74 0 -95 52 -95 84c0 28 11 45 24 58c30 31 74 34 104 39c21 4 31 7 41 9v7c0 14 -6 34 -36 34c-29 0 -35 -19 -37 -32h-85c0 3 1 24 9 40c17 34 51 50 109 50c28 0 86 -5 111 -44c8 -12 9 -26 9 -38v-174
c0 -13 1 -15 10 -28zM205 562c-17 -5 -33 -10 -50 -15c-15 -5 -34 -12 -34 -32c0 -10 6 -25 28 -25c60 0 56 66 56 72z" />
    <glyph glyph-name="guillemotleft" unicode="&#xab;" horiz-adv-x="417" 
d="M378 100l-158 130v125l158 134v-138l-68 -57l68 -57v-137zM192 100l-160 131v124l160 134v-138l-65 -57l65 -57v-137z" />
    <glyph glyph-name="logicalnot" unicode="&#xac;" horiz-adv-x="724" 
d="M634 24h-166v232h-400v134h566v-366z" />
    <glyph glyph-name="registered" unicode="&#xae;" horiz-adv-x="823" 
d="M768 361c0 -207 -153 -363 -357 -363c-197 0 -355 158 -355 356s158 356 356 356c195 0 356 -157 356 -349zM719 347c0 182 -133 321 -307 321c-170 0 -307 -141 -307 -315s136 -313 306 -313c168 0 308 140 308 307zM597 134h-118l-60 161h-52v-161h-107v446h133
c76 0 110 -6 140 -25c38 -24 59 -66 59 -119c0 -59 -22 -95 -77 -123zM480 436c0 37 -18 53 -59 53h-55v-108h56c42 0 58 15 58 55z" />
    <glyph glyph-name="macron" unicode="&#xaf;" horiz-adv-x="271" 
d="M340 597h-409v101h409v-101z" />
    <glyph glyph-name="degree" unicode="&#xb0;" horiz-adv-x="354" 
d="M349 582c0 -94 -78 -172 -172 -172s-172 78 -172 172c0 95 76 173 172 173s172 -77 172 -173zM249 582c0 40 -33 71 -72 71c-40 0 -72 -31 -72 -71c0 -39 33 -72 72 -72s72 33 72 72z" />
    <glyph glyph-name="plusminus" unicode="&#xb1;" horiz-adv-x="724" 
d="M632 375h-187v-191h-167v191h-186v130h187v184h166v-184h187v-130zM632 0h-540v132h540v-132z" />
    <glyph glyph-name="twosuperior" unicode="&#xb2;" horiz-adv-x="375" 
d="M336 235h-308v82c36 28 127 98 161 142c22 29 32 59 32 89c0 23 -10 55 -43 56c-36 1 -48 -36 -48 -61c0 -12 4 -30 4 -31l-110 6c0 35 -3 170 149 170c128 0 160 -88 160 -146c0 -95 -76 -156 -161 -219h164v-88z" />
    <glyph glyph-name="threesuperior" unicode="&#xb3;" horiz-adv-x="375" 
d="M348 369c0 -62 -42 -143 -171 -141c-132 3 -155 83 -155 146v16l107 8c-1 -7 -2 -12 -2 -20c0 -47 31 -65 54 -65c35 0 57 27 57 59c0 26 -14 59 -67 59h-14v80c6 -1 13 -2 20 -2c12 0 50 4 50 48c0 40 -33 48 -46 48c-26 0 -43 -17 -43 -55v-10l-107 10
c10 60 30 138 159 138c103 0 143 -61 143 -116c0 -6 1 -52 -35 -82c-12 -10 -31 -16 -32 -17c3 -1 22 -5 36 -14c36 -24 46 -60 46 -90z" />
    <glyph glyph-name="acute" unicode="&#xb4;" horiz-adv-x="271" 
d="M263 719l-153 -133h-102l73 133h182z" />
    <glyph glyph-name="mu" unicode="&#xb5;" horiz-adv-x="587" 
d="M576 0c-24 -8 -56 -12 -86 -12c-56 0 -87 22 -107 78c-19 -54 -44 -75 -91 -75c-42 0 -68 18 -87 58l3 -265h-153v737h153v-234c0 -66 2 -90 7 -113c9 -38 35 -59 72 -59c36 0 60 20 70 59c3 13 5 27 6 41c2 20 3 55 3 92v214h153v-351c0 -40 8 -55 31 -55c8 0 12 1 26 7
v-122z" />
    <glyph glyph-name="paragraph" unicode="&#xb6;" horiz-adv-x="639" 
d="M547 623h-36v-790h-88v790h-113v-790h-89v468c-23 6 -30 8 -43 13c-70 28 -112 97 -112 182c0 63 22 117 63 155c16 16 35 28 56 37c34 14 61 18 123 18h239v-83z" />
    <glyph glyph-name="periodcentered" unicode="&#xb7;" horiz-adv-x="235" 
d="M198 206h-161v167h161v-167z" />
    <glyph glyph-name="cedilla" unicode="&#xb8;" horiz-adv-x="271" 
d="M234 -115h-1c0 -7 0 -19 -7 -33c-17 -33 -55 -49 -89 -49c-28 0 -57 12 -77 29c-8 6 -11 10 -23 22l28 23c14 -17 30 -32 54 -32c18 0 36 12 36 32c0 29 -32 40 -55 40c-12 0 -12 -1 -28 -4l-13 18l33 60h47l-22 -45c13 2 26 3 40 3c60 0 77 -38 77 -64z" />
    <glyph glyph-name="onesuperior" unicode="&#xb9;" horiz-adv-x="375" 
d="M265 235h-110v317c-23 -7 -46 -12 -93 -12h-14v73c77 1 107 18 132 64h85v-442z" />
    <glyph glyph-name="ordmasculine" unicode="&#xba;" horiz-adv-x="354" 
d="M321 571c0 -90 -54 -148 -146 -148c-48 0 -145 20 -145 148c0 85 52 144 141 145c32 1 65 -5 91 -23c29 -19 59 -61 59 -122zM237 569c0 55 -27 79 -60 79c-12 0 -22 -1 -32 -7c-28 -16 -31 -56 -31 -75c1 -35 17 -77 65 -75c48 1 58 46 58 78z" />
    <glyph glyph-name="guillemotright" unicode="&#xbb;" horiz-adv-x="417" 
d="M382 231l-159 -135v138l64 58l-64 57v136l159 -131v-123zM195 231l-159 -135v138l68 58l-68 57v136l159 -129v-125z" />
    <glyph glyph-name="onequarter" unicode="&#xbc;" horiz-adv-x="875" 
d="M858 98h-59v-98h-106v98h-182v84l185 259h104v-265h58v-78zM665 679l-376 -721l-79 42l375 721zM265 235h-110v317c-23 -7 -46 -12 -93 -12h-14v73c77 1 107 18 132 64h85v-442zM693 176v150c-34 -57 -60 -96 -99 -150h99z" />
    <glyph glyph-name="onehalf" unicode="&#xbd;" horiz-adv-x="875" 
d="M835 0h-307v82c36 28 127 97 160 141c23 30 33 60 33 89c0 23 -10 55 -43 56c-37 1 -49 -36 -49 -60c0 -12 4 -30 5 -32l-111 6c0 36 -2 170 150 170c128 0 160 -88 160 -145c0 -95 -76 -156 -162 -219h164v-88zM641 679l-376 -721l-79 42l375 721zM265 235h-110v317
c-23 -7 -46 -12 -93 -12h-14v73c77 1 107 18 132 64h85v-442z" />
    <glyph glyph-name="threequarters" unicode="&#xbe;" horiz-adv-x="875" 
d="M858 98h-59v-98h-106v98h-182v84l185 259h104v-265h58v-78zM694 679l-376 -721l-79 42l375 721zM348 369c0 -62 -42 -143 -171 -141c-132 3 -155 83 -155 146v16l107 8c-1 -7 -2 -12 -2 -20c0 -47 31 -65 54 -65c35 0 57 27 57 59c0 26 -14 59 -67 59h-14v80
c6 -1 13 -2 20 -2c12 0 50 4 50 48c0 40 -33 48 -46 48c-26 0 -43 -17 -43 -55v-10l-107 10c10 60 30 138 159 138c103 0 143 -61 143 -116c0 -6 1 -52 -35 -82c-12 -10 -31 -16 -32 -17c3 -1 22 -5 36 -14c36 -24 46 -60 46 -90zM693 176v150c-34 -57 -60 -96 -99 -150h99z
" />
    <glyph glyph-name="questiondown" unicode="&#xbf;" 
d="M394 539h-158v167h158v-167zM543 174c-2 -5 -16 -46 -32 -72c-71 -114 -208 -113 -243 -113c-16 0 -62 0 -110 15c-118 35 -139 124 -139 172c0 17 3 60 30 100c15 21 33 37 74 67c22 16 45 32 68 48c15 11 38 28 49 41c6 8 9 15 13 34l127 -1c0 -7 0 -41 -9 -65
c-22 -57 -93 -88 -135 -124c-8 -6 -48 -39 -49 -84c0 -8 2 -19 4 -27c16 -60 68 -63 90 -63c21 0 64 2 96 47c12 17 18 35 20 41c3 14 3 25 3 31z" />
    <glyph glyph-name="Agrave" unicode="&#xc0;" horiz-adv-x="708" 
d="M415 782h-101l-146 116h184zM705 0h-188l-35 113h-260l-35 -113h-188l262 706h184zM442 240l-92 298l-87 -298h179z" />
    <glyph glyph-name="Aacute" unicode="&#xc1;" horiz-adv-x="708" 
d="M536 897l-145 -115h-96l61 115h180zM705 0h-188l-35 113h-260l-35 -113h-188l262 706h184zM442 240l-92 298l-87 -298h179z" />
    <glyph glyph-name="Acircumflex" unicode="&#xc2;" horiz-adv-x="708" 
d="M510 779h-117l-40 51l-38 -51h-116l90 115h133zM705 0h-188l-35 113h-260l-35 -113h-188l262 706h184zM442 240l-92 298l-87 -298h179z" />
    <glyph glyph-name="Atilde" unicode="&#xc3;" horiz-adv-x="708" 
d="M538 898c-5 -41 -11 -83 -47 -111c-16 -12 -32 -18 -51 -18c-22 0 -49 9 -92 28c-17 8 -42 19 -61 19c-30 0 -35 -37 -36 -42h-68c1 11 3 21 5 32c2 12 11 54 47 78c16 11 34 17 53 17c28 0 57 -12 82 -23c13 -6 43 -19 59 -19c29 0 38 35 40 39h69zM705 0h-188l-35 113
h-260l-35 -113h-188l262 706h184zM442 240l-92 298l-87 -298h179z" />
    <glyph glyph-name="Adieresis" unicode="&#xc4;" horiz-adv-x="708" 
d="M542 778h-161v117h161v-117zM320 778h-160v117h160v-117zM705 0h-188l-35 113h-260l-35 -113h-188l262 706h184zM442 240l-92 298l-87 -298h179z" />
    <glyph glyph-name="Aring" unicode="&#xc5;" horiz-adv-x="708" 
d="M447 829c0 -54 -45 -98 -98 -98c-13 0 -43 3 -69 29c-9 9 -29 33 -29 69c0 54 45 98 98 98c54 0 98 -45 98 -98zM705 0h-188l-35 113h-260l-35 -113h-188l262 706h184zM389 830c0 22 -17 39 -39 39c-22 -1 -39 -18 -39 -40c0 -14 8 -24 12 -27c3 -4 13 -11 27 -11
c22 0 39 18 39 39zM442 240l-92 298l-87 -298h179z" />
    <glyph glyph-name="AE" unicode="&#xc6;" horiz-adv-x="1125" 
d="M1106 0h-571v171h-247l-95 -171h-198l417 706h660v-134h-361v-131h337v-135h-336v-168h394v-138zM535 301v316l-176 -316h176z" />
    <glyph glyph-name="Ccedilla" unicode="&#xc7;" horiz-adv-x="702" 
d="M682 161c-16 -25 -32 -50 -54 -74c-74 -79 -172 -108 -249 -108h-9l-15 -33c22 3 26 3 39 3c58 0 76 -36 76 -65c0 -53 -54 -81 -96 -81c-16 0 -58 3 -99 51l28 23c10 -11 27 -32 53 -32c18 0 36 11 36 32c0 22 -21 40 -57 40c-9 -1 -17 -2 -26 -4l-12 18l28 52
c-20 4 -65 9 -120 41c-173 100 -166 317 -166 329c0 88 25 154 43 188c39 77 131 187 299 187c25 0 156 0 252 -115c15 -17 27 -33 46 -68l-139 -70c-2 4 -11 24 -23 41c-21 28 -64 67 -128 67c-133 0 -174 -135 -174 -225c0 -159 83 -231 174 -231c90 0 128 62 153 104z
" />
    <glyph glyph-name="Egrave" unicode="&#xc8;" horiz-adv-x="646" 
d="M410 782h-101l-146 116h183zM622 0h-554v706h522v-136h-346v-129h323v-134h-323v-168h378v-139z" />
    <glyph glyph-name="Eacute" unicode="&#xc9;" horiz-adv-x="646" 
d="M494 897l-144 -115h-97l61 115h180zM622 0h-554v706h522v-136h-346v-129h323v-134h-323v-168h378v-139z" />
    <glyph glyph-name="Ecircumflex" unicode="&#xca;" horiz-adv-x="646" 
d="M478 779h-116l-40 51l-38 -51h-116l89 115h133zM622 0h-554v706h522v-136h-346v-129h323v-134h-323v-168h378v-139z" />
    <glyph glyph-name="Edieresis" unicode="&#xcb;" horiz-adv-x="646" 
d="M514 782h-161v116h161v-116zM291 781h-160v117h160v-117zM622 0h-554v706h522v-136h-346v-129h323v-134h-323v-168h378v-139z" />
    <glyph glyph-name="Igrave" unicode="&#xcc;" horiz-adv-x="313" 
d="M217 782h-101l-146 116h184zM243 0h-176v706h176v-706z" />
    <glyph glyph-name="Iacute" unicode="&#xcd;" horiz-adv-x="313" 
d="M338 897l-144 -115h-97l61 115h180zM243 0h-176v706h176v-706z" />
    <glyph glyph-name="Icircumflex" unicode="&#xce;" horiz-adv-x="313" 
d="M312 779h-117l-40 51l-38 -51h-116l90 115h133zM243 0h-176v706h176v-706z" />
    <glyph glyph-name="Idieresis" unicode="&#xcf;" horiz-adv-x="313" 
d="M347 782h-160v116h160v-116zM125 781h-161v117h161v-117zM243 0h-176v706h176v-706z" />
    <glyph glyph-name="Eth" unicode="&#xd0;" horiz-adv-x="729" 
d="M699 353c-2 -142 -54 -296 -239 -341c-41 -10 -74 -12 -116 -12h-277v341h-67v79h67v286h225c112 0 280 -5 363 -155c23 -41 45 -103 44 -198zM522 355c0 3 11 137 -95 187c-30 14 -65 15 -95 15h-87v-137h174v-79h-174v-199h53c47 0 118 2 165 42c54 46 59 123 59 171z
" />
    <glyph glyph-name="Ntilde" unicode="&#xd1;" horiz-adv-x="729" 
d="M548 898c-5 -41 -10 -83 -47 -111c-15 -12 -31 -18 -50 -18c-22 0 -50 8 -93 28c-16 7 -41 19 -60 19c-31 0 -36 -37 -37 -42h-68c2 11 3 21 5 32c3 12 11 54 47 78c16 11 34 17 53 17c28 0 58 -12 82 -23c13 -6 43 -19 59 -19c30 0 39 35 40 39h69zM660 0h-173l-256 437
l6 -437h-170v706h173l258 -443l-7 443h169v-706z" />
    <glyph glyph-name="Ograve" unicode="&#xd2;" horiz-adv-x="792" 
d="M462 782h-101l-146 116h184zM749 348c0 -108 -47 -224 -134 -295c-38 -31 -106 -74 -222 -74c-43 0 -160 7 -250 101c-95 100 -101 234 -101 276c0 37 5 137 67 228c36 53 118 144 282 144c134 0 215 -60 252 -98c68 -70 106 -185 106 -282zM572 336
c3 89 -24 149 -45 178c-9 12 -30 37 -68 53c-30 12 -56 13 -68 13c-39 0 -66 -13 -79 -20c-71 -40 -96 -127 -96 -202c0 -96 30 -148 59 -179c31 -33 73 -51 119 -51c23 0 78 6 122 53c40 43 54 99 56 155z" />
    <glyph glyph-name="Oacute" unicode="&#xd3;" horiz-adv-x="792" 
d="M572 897l-144 -115h-97l61 115h180zM749 348c0 -108 -47 -224 -134 -295c-38 -31 -106 -74 -222 -74c-43 0 -160 7 -250 101c-95 100 -101 234 -101 276c0 37 5 137 67 228c36 53 118 144 282 144c134 0 215 -60 252 -98c68 -70 106 -185 106 -282zM572 336
c3 89 -24 149 -45 178c-9 12 -30 37 -68 53c-30 12 -56 13 -68 13c-39 0 -66 -13 -79 -20c-71 -40 -96 -127 -96 -202c0 -96 30 -148 59 -179c31 -33 73 -51 119 -51c23 0 78 6 122 53c40 43 54 99 56 155z" />
    <glyph glyph-name="Ocircumflex" unicode="&#xd4;" horiz-adv-x="792" 
d="M551 779h-116l-40 51l-39 -51h-115l89 115h133zM749 348c0 -108 -47 -224 -134 -295c-38 -31 -106 -74 -222 -74c-43 0 -160 7 -250 101c-95 100 -101 234 -101 276c0 37 5 137 67 228c36 53 118 144 282 144c134 0 215 -60 252 -98c68 -70 106 -185 106 -282zM572 336
c3 89 -24 149 -45 178c-9 12 -30 37 -68 53c-30 12 -56 13 -68 13c-39 0 -66 -13 -79 -20c-71 -40 -96 -127 -96 -202c0 -96 30 -148 59 -179c31 -33 73 -51 119 -51c23 0 78 6 122 53c40 43 54 99 56 155z" />
    <glyph glyph-name="Otilde" unicode="&#xd5;" horiz-adv-x="792" 
d="M579 898c-4 -41 -10 -83 -47 -111c-15 -12 -31 -18 -50 -18c-22 0 -50 8 -93 28c-16 7 -41 19 -60 19c-31 0 -36 -37 -37 -42h-67c1 11 2 21 5 32c2 12 11 54 46 78c16 11 34 17 53 17c28 0 58 -12 82 -23c13 -6 43 -19 59 -19c30 0 39 35 40 39h69zM749 348
c0 -108 -47 -224 -134 -295c-38 -31 -106 -74 -222 -74c-43 0 -160 7 -250 101c-95 100 -101 234 -101 276c0 37 5 137 67 228c36 53 118 144 282 144c134 0 215 -60 252 -98c68 -70 106 -185 106 -282zM572 336c3 89 -24 149 -45 178c-9 12 -30 37 -68 53
c-30 12 -56 13 -68 13c-39 0 -66 -13 -79 -20c-71 -40 -96 -127 -96 -202c0 -96 30 -148 59 -179c31 -33 73 -51 119 -51c23 0 78 6 122 53c40 43 54 99 56 155z" />
    <glyph glyph-name="Odieresis" unicode="&#xd6;" horiz-adv-x="792" 
d="M588 780h-162v116h162v-116zM365 780h-160v116h160v-116zM749 348c0 -108 -47 -224 -134 -295c-38 -31 -106 -74 -222 -74c-43 0 -160 7 -250 101c-95 100 -101 234 -101 276c0 37 5 137 67 228c36 53 118 144 282 144c134 0 215 -60 252 -98c68 -70 106 -185 106 -282z
M572 336c3 89 -24 149 -45 178c-9 12 -30 37 -68 53c-30 12 -56 13 -68 13c-39 0 -66 -13 -79 -20c-71 -40 -96 -127 -96 -202c0 -96 30 -148 59 -179c31 -33 73 -51 119 -51c23 0 78 6 122 53c40 43 54 99 56 155z" />
    <glyph glyph-name="multiply" unicode="&#xd7;" horiz-adv-x="724" 
d="M616 198l-114 -120l-148 141l-129 -135l-94 90l129 135l-146 139l115 120l145 -139l129 136l95 -90l-130 -135z" />
    <glyph glyph-name="Oslash" unicode="&#xd8;" horiz-adv-x="771" 
d="M772 649l-94 -86c5 -11 12 -21 17 -32c16 -33 36 -88 36 -175c0 -34 -2 -134 -60 -223c-7 -11 -24 -35 -50 -60c-46 -45 -88 -64 -113 -73c-51 -18 -107 -20 -125 -20c-39 0 -64 5 -80 9c-82 19 -138 71 -159 90l-93 -85l-54 60l97 88c-7 13 -15 26 -21 39
c-13 28 -35 92 -35 174c0 20 1 57 13 105c9 37 28 104 96 172c17 17 61 57 126 78c50 16 103 17 120 17c91 0 145 -31 177 -52c16 -10 31 -21 59 -48l89 81zM513 524c-11 12 -17 18 -23 23c-41 35 -79 39 -101 39c-26 0 -73 -3 -118 -48c-64 -66 -62 -153 -62 -182
s1 -46 11 -99zM565 347c0 46 -11 84 -15 100l-290 -264c5 -5 10 -12 21 -21c42 -34 97 -38 113 -38c29 0 80 9 124 66c21 28 47 74 47 157z" />
    <glyph glyph-name="Ugrave" unicode="&#xd9;" horiz-adv-x="729" 
d="M436 782h-101l-146 116h184zM665 312c0 -52 -2 -103 -19 -152c-59 -165 -245 -176 -285 -176c-31 0 -149 5 -229 85c-68 68 -70 155 -70 243v394h178v-440c0 -63 5 -87 33 -109c35 -27 82 -27 94 -27c33 0 62 4 87 26c33 29 34 71 34 111v439h177v-394z" />
    <glyph glyph-name="Uacute" unicode="&#xda;" horiz-adv-x="729" 
d="M536 897l-145 -115h-96l61 115h180zM665 312c0 -52 -2 -103 -19 -152c-59 -165 -245 -176 -285 -176c-31 0 -149 5 -229 85c-68 68 -70 155 -70 243v394h178v-440c0 -63 5 -87 33 -109c35 -27 82 -27 94 -27c33 0 62 4 87 26c33 29 34 71 34 111v439h177v-394z" />
    <glyph glyph-name="Ucircumflex" unicode="&#xdb;" horiz-adv-x="729" 
d="M520 779h-117l-39 51l-39 -51h-115l89 115h133zM665 312c0 -52 -2 -103 -19 -152c-59 -165 -245 -176 -285 -176c-31 0 -149 5 -229 85c-68 68 -70 155 -70 243v394h178v-440c0 -63 5 -87 33 -109c35 -27 82 -27 94 -27c33 0 62 4 87 26c33 29 34 71 34 111v439h177v-394
z" />
    <glyph glyph-name="Udieresis" unicode="&#xdc;" horiz-adv-x="729" 
d="M555 780h-161v117h161v-117zM333 780h-161v117h161v-117zM665 312c0 -52 -2 -103 -19 -152c-59 -165 -245 -176 -285 -176c-31 0 -149 5 -229 85c-68 68 -70 155 -70 243v394h178v-440c0 -63 5 -87 33 -109c35 -27 82 -27 94 -27c33 0 62 4 87 26c33 29 34 71 34 111v439
h177v-394z" />
    <glyph glyph-name="Yacute" unicode="&#xdd;" horiz-adv-x="708" 
d="M526 897l-145 -115h-96l60 115h181zM708 706l-267 -372v-334h-174v329l-265 377h202l152 -239l151 239h201z" />
    <glyph glyph-name="Thorn" unicode="&#xde;" horiz-adv-x="688" 
d="M672 366c-1 -71 -25 -119 -49 -148c-72 -90 -185 -90 -261 -90h-118v-128h-177v706h177v-103h125c85 0 130 -4 169 -18c110 -40 135 -143 134 -219zM497 370c0 5 1 39 -19 64c-26 34 -61 39 -121 39h-113v-214h107c73 0 146 6 146 111z" />
    <glyph glyph-name="germandbls" unicode="&#xdf;" 
d="M572 228c0 -72 -18 -118 -32 -146c-18 -34 -59 -93 -158 -93c-34 0 -62 7 -74 10c-8 2 -16 5 -23 7v114c10 -5 24 -15 51 -15c88 0 86 107 86 118c0 57 -13 88 -31 109c-4 5 -14 17 -30 24c-18 8 -40 8 -61 8h-27v92h26c4 0 23 1 39 5c23 6 47 19 47 75
c0 44 -22 65 -38 73c-11 6 -29 9 -42 9c-16 0 -51 -3 -72 -41c-14 -25 -13 -51 -13 -105v-472h-153v469c0 11 1 65 14 108c30 104 114 144 220 144c15 0 91 -1 144 -33c10 -6 30 -20 47 -44c24 -32 35 -68 35 -107c0 -61 -30 -94 -51 -107c-11 -7 -27 -11 -39 -15
c22 -2 31 -4 42 -8c30 -11 71 -37 87 -109c3 -13 6 -36 6 -70z" />
    <glyph glyph-name="agrave" unicode="&#xe0;" horiz-adv-x="583" 
d="M379 587h-102l-157 133h184zM526 0h-151v47c-11 -8 -21 -15 -32 -22c-19 -13 -63 -39 -128 -39c-94 0 -137 51 -154 86c-11 22 -17 48 -17 73c0 94 84 139 107 149c39 17 110 31 209 49v29c0 18 -3 63 -59 63c-45 0 -66 -21 -74 -38c-2 -4 -5 -12 -7 -23h-154
c2 21 3 66 42 105c43 42 100 50 118 53c30 4 55 4 67 4c73 0 172 -17 207 -92c6 -14 11 -28 11 -58v-305c0 -45 2 -62 15 -81zM360 250l-99 -33c-6 -2 -12 -4 -18 -7c-38 -16 -48 -38 -48 -58c0 -3 1 -14 6 -24c6 -10 21 -29 53 -29c28 0 52 16 59 21c45 32 47 81 47 130z
" />
    <glyph glyph-name="aacute" unicode="&#xe1;" horiz-adv-x="583" 
d="M499 719l-154 -133h-102l73 133h183zM526 0h-151v47c-11 -8 -21 -15 -32 -22c-19 -13 -63 -39 -128 -39c-94 0 -137 51 -154 86c-11 22 -17 48 -17 73c0 94 84 139 107 149c39 17 110 31 209 49v29c0 18 -3 63 -59 63c-45 0 -66 -21 -74 -38c-2 -4 -5 -12 -7 -23h-154
c2 21 3 66 42 105c43 42 100 50 118 53c30 4 55 4 67 4c73 0 172 -17 207 -92c6 -14 11 -28 11 -58v-305c0 -45 2 -62 15 -81zM360 250l-99 -33c-6 -2 -12 -4 -18 -7c-38 -16 -48 -38 -48 -58c0 -3 1 -14 6 -24c6 -10 21 -29 53 -29c28 0 52 16 59 21c45 32 47 81 47 130z
" />
    <glyph glyph-name="acircumflex" unicode="&#xe2;" horiz-adv-x="583" 
d="M459 589h-118l-48 62l-47 -63h-117l101 132h126zM526 0h-151v47c-11 -8 -21 -15 -32 -22c-19 -13 -63 -39 -128 -39c-94 0 -137 51 -154 86c-11 22 -17 48 -17 73c0 94 84 139 107 149c39 17 110 31 209 49v29c0 18 -3 63 -59 63c-45 0 -66 -21 -74 -38
c-2 -4 -5 -12 -7 -23h-154c2 21 3 66 42 105c43 42 100 50 118 53c30 4 55 4 67 4c73 0 172 -17 207 -92c6 -14 11 -28 11 -58v-305c0 -45 2 -62 15 -81zM360 250l-99 -33c-6 -2 -12 -4 -18 -7c-38 -16 -48 -38 -48 -58c0 -3 1 -14 6 -24c6 -10 21 -29 53 -29
c28 0 52 16 59 21c45 32 47 81 47 130z" />
    <glyph glyph-name="atilde" unicode="&#xe3;" horiz-adv-x="583" 
d="M466 720c-2 -15 -4 -29 -7 -44c-9 -48 -29 -95 -87 -94c-22 0 -43 5 -84 24c-32 15 -47 22 -66 22c-2 0 -12 -1 -20 -6c-17 -12 -18 -35 -19 -40h-72c10 101 43 142 101 142c33 0 61 -14 71 -19c23 -11 49 -26 74 -26c7 0 25 2 34 21c2 4 4 11 5 20h70zM526 0h-151v47
c-11 -8 -21 -15 -32 -22c-19 -13 -63 -39 -128 -39c-94 0 -137 51 -154 86c-11 22 -17 48 -17 73c0 94 84 139 107 149c39 17 110 31 209 49v29c0 18 -3 63 -59 63c-45 0 -66 -21 -74 -38c-2 -4 -5 -12 -7 -23h-154c2 21 3 66 42 105c43 42 100 50 118 53c30 4 55 4 67 4
c73 0 172 -17 207 -92c6 -14 11 -28 11 -58v-305c0 -45 2 -62 15 -81zM360 250l-99 -33c-6 -2 -12 -4 -18 -7c-38 -16 -48 -38 -48 -58c0 -3 1 -14 6 -24c6 -10 21 -29 53 -29c28 0 52 16 59 21c45 32 47 81 47 130z" />
    <glyph glyph-name="adieresis" unicode="&#xe4;" horiz-adv-x="583" 
d="M510 596h-157v124h157v-124zM259 596h-157v124h157v-124zM526 0h-151v47c-11 -8 -21 -15 -32 -22c-19 -13 -63 -39 -128 -39c-94 0 -137 51 -154 86c-11 22 -17 48 -17 73c0 94 84 139 107 149c39 17 110 31 209 49v29c0 18 -3 63 -59 63c-45 0 -66 -21 -74 -38
c-2 -4 -5 -12 -7 -23h-154c2 21 3 66 42 105c43 42 100 50 118 53c30 4 55 4 67 4c73 0 172 -17 207 -92c6 -14 11 -28 11 -58v-305c0 -45 2 -62 15 -81zM360 250l-99 -33c-6 -2 -12 -4 -18 -7c-38 -16 -48 -38 -48 -58c0 -3 1 -14 6 -24c6 -10 21 -29 53 -29
c28 0 52 16 59 21c45 32 47 81 47 130z" />
    <glyph glyph-name="aring" unicode="&#xe5;" horiz-adv-x="583" 
d="M405 652c0 -55 -45 -98 -99 -98c-13 0 -44 3 -70 29c-8 8 -28 33 -28 70c0 54 44 98 98 98c55 0 99 -45 99 -99zM526 0h-151v47c-11 -8 -21 -15 -32 -22c-19 -13 -63 -39 -128 -39c-94 0 -137 51 -154 86c-11 22 -17 48 -17 73c0 94 84 139 107 149c39 17 110 31 209 49
v29c0 18 -3 63 -59 63c-45 0 -66 -21 -74 -38c-2 -4 -5 -12 -7 -23h-154c2 21 3 66 42 105c43 42 100 50 118 53c30 4 55 4 67 4c73 0 172 -17 207 -92c6 -14 11 -28 11 -58v-305c0 -45 2 -62 15 -81zM346 653c0 21 -19 39 -40 39c-23 0 -39 -19 -39 -40c0 -11 3 -20 11 -28
c4 -4 14 -11 28 -11c22 0 41 18 40 40zM360 250l-99 -33c-6 -2 -12 -4 -18 -7c-38 -16 -48 -38 -48 -58c0 -3 1 -14 6 -24c6 -10 21 -29 53 -29c28 0 52 16 59 21c45 32 47 81 47 130z" />
    <glyph glyph-name="ae" unicode="&#xe6;" horiz-adv-x="875" 
d="M854 134c-4 -6 -19 -32 -36 -52c-50 -59 -128 -94 -206 -94c-29 0 -88 4 -150 46c-5 4 -11 8 -16 12c-8 7 -15 14 -22 21c-14 -12 -32 -27 -47 -36c-44 -28 -107 -44 -158 -44c-24 0 -126 5 -173 88c-7 13 -21 41 -21 81c0 12 2 45 20 78c24 45 66 77 165 94
c47 8 96 10 141 23c0 33 -3 47 -15 60c-16 18 -38 21 -61 21c-19 0 -37 -1 -52 -13c-2 -1 -10 -9 -14 -17c-5 -8 -5 -18 -6 -27h-157c6 46 11 79 46 112c27 26 74 51 157 51c29 0 44 -2 58 -4c56 -8 81 -22 129 -51c13 10 28 21 43 29c20 10 61 27 119 27
c16 0 71 -2 119 -27c18 -9 35 -23 39 -27c25 -21 62 -60 83 -136c13 -47 13 -98 14 -112h-349c2 -18 3 -33 10 -50c16 -43 60 -78 107 -78c73 0 106 73 114 86zM693 332c-3 17 -13 98 -92 97c-61 0 -85 -50 -91 -68c-2 -5 -4 -16 -6 -29h189zM349 259
c-12 -5 -24 -10 -37 -13c-44 -12 -135 -19 -135 -85c0 -54 52 -57 67 -57c12 0 36 2 60 21c43 34 46 84 45 134z" />
    <glyph glyph-name="ccedilla" unicode="&#xe7;" horiz-adv-x="539" 
d="M524 123c-22 -35 -35 -50 -49 -64c-73 -74 -159 -76 -183 -76c-4 0 -9 1 -13 1l-18 -38c22 3 27 3 40 3c57 0 75 -37 75 -65c-1 -30 -28 -81 -96 -81c-16 0 -58 3 -99 51l28 23c10 -11 27 -32 54 -32s35 21 35 32c0 22 -21 40 -57 40c-8 -1 -17 -2 -26 -4l-12 18l32 58
c-90 18 -202 89 -202 268c0 157 91 280 262 280c27 0 148 0 223 -126l-114 -65c-5 10 -11 22 -18 31c-24 30 -56 42 -83 42c-86 0 -111 -97 -112 -152c-1 -56 24 -162 115 -162c21 0 77 8 102 78z" />
    <glyph glyph-name="egrave" unicode="&#xe8;" horiz-adv-x="583" 
d="M358 587h-102l-157 133h184zM562 229h-373c0 -5 -1 -17 2 -31c12 -61 55 -99 117 -99c9 0 29 1 50 9c52 18 75 71 82 84l116 -60c-21 -31 -32 -45 -44 -59c-77 -85 -177 -92 -216 -92c-16 0 -53 1 -94 14c-116 36 -170 138 -170 256c0 32 2 129 67 204
c32 36 87 83 201 83c35 0 139 -4 204 -95c59 -81 57 -189 58 -214zM403 325c-2 17 -5 70 -57 93c-21 10 -38 10 -47 10c-61 0 -89 -45 -97 -63c-4 -9 -8 -20 -12 -40h213z" />
    <glyph glyph-name="eacute" unicode="&#xe9;" horiz-adv-x="583" 
d="M483 719l-154 -133h-101l73 133h182zM562 229h-373c0 -5 -1 -17 2 -31c12 -61 55 -99 117 -99c9 0 29 1 50 9c52 18 75 71 82 84l116 -60c-21 -31 -32 -45 -44 -59c-77 -85 -177 -92 -216 -92c-16 0 -53 1 -94 14c-116 36 -170 138 -170 256c0 32 2 129 67 204
c32 36 87 83 201 83c35 0 139 -4 204 -95c59 -81 57 -189 58 -214zM403 325c-2 17 -5 70 -57 93c-21 10 -38 10 -47 10c-61 0 -89 -45 -97 -63c-4 -9 -8 -20 -12 -40h213z" />
    <glyph glyph-name="ecircumflex" unicode="&#xea;" horiz-adv-x="583" 
d="M459 589h-118l-48 62l-47 -63h-117l101 132h126zM562 229h-373c0 -5 -1 -17 2 -31c12 -61 55 -99 117 -99c9 0 29 1 50 9c52 18 75 71 82 84l116 -60c-21 -31 -32 -45 -44 -59c-77 -85 -177 -92 -216 -92c-16 0 -53 1 -94 14c-116 36 -170 138 -170 256
c0 32 2 129 67 204c32 36 87 83 201 83c35 0 139 -4 204 -95c59 -81 57 -189 58 -214zM403 325c-2 17 -5 70 -57 93c-21 10 -38 10 -47 10c-61 0 -89 -45 -97 -63c-4 -9 -8 -20 -12 -40h213z" />
    <glyph glyph-name="edieresis" unicode="&#xeb;" horiz-adv-x="583" 
d="M496 597h-158v124h158v-124zM244 597h-157v124h157v-124zM562 229h-373c0 -5 -1 -17 2 -31c12 -61 55 -99 117 -99c9 0 29 1 50 9c52 18 75 71 82 84l116 -60c-21 -31 -32 -45 -44 -59c-77 -85 -177 -92 -216 -92c-16 0 -53 1 -94 14c-116 36 -170 138 -170 256
c0 32 2 129 67 204c32 36 87 83 201 83c35 0 139 -4 204 -95c59 -81 57 -189 58 -214zM403 325c-2 17 -5 70 -57 93c-21 10 -38 10 -47 10c-61 0 -89 -45 -97 -63c-4 -9 -8 -20 -12 -40h213z" />
    <glyph glyph-name="igrave" unicode="&#xec;" horiz-adv-x="292" 
d="M212 587h-101l-158 133h184zM221 0h-152v522h152v-522z" />
    <glyph glyph-name="iacute" unicode="&#xed;" horiz-adv-x="292" 
d="M337 719l-153 -133h-102l73 133h182zM221 0h-152v522h152v-522z" />
    <glyph glyph-name="icircumflex" unicode="&#xee;" horiz-adv-x="292" 
d="M314 589h-119l-48 62l-46 -63h-118l101 132h127zM221 0h-152v522h152v-522z" />
    <glyph glyph-name="idieresis" unicode="&#xef;" horiz-adv-x="292" 
d="M350 597h-157v124h157v-124zM98 597h-157v124h157v-124zM221 0h-152v522h152v-522z" />
    <glyph glyph-name="eth" unicode="&#xf0;" horiz-adv-x="625" 
d="M593 267c0 -130 -61 -212 -134 -251c-62 -32 -130 -32 -147 -32c-84 0 -187 26 -246 133c-26 46 -35 96 -35 143c0 141 75 222 153 257c43 19 86 21 99 21c57 0 92 -25 114 -49c-24 51 -51 88 -66 106l-156 -43l-18 51l135 37c-15 15 -25 25 -41 40l120 47
c17 -17 31 -28 46 -47l4 -5l92 25l22 -49l-76 -21c129 -162 134 -305 134 -363zM437 257c0 112 -53 159 -121 159c-24 0 -49 -4 -70 -17c-35 -22 -59 -70 -59 -136c0 -110 63 -157 124 -157c93 0 126 79 126 151z" />
    <glyph glyph-name="ntilde" unicode="&#xf1;" 
d="M476 720c-2 -15 -3 -29 -6 -44c-9 -48 -29 -95 -88 -94c-21 0 -43 5 -83 24c-33 15 -48 22 -67 22c-2 0 -12 -1 -19 -6c-18 -12 -19 -35 -20 -40h-71c9 101 42 142 101 142c32 0 60 -14 70 -19c23 -11 49 -26 75 -26c7 0 24 2 34 21c1 4 3 11 5 20h69zM535 0h-154v295
c0 35 -1 61 -6 75c-7 18 -26 42 -70 42c-7 0 -33 0 -52 -16c-26 -20 -29 -52 -29 -114v-282h-154v521h156v-45c5 5 11 13 24 23c19 14 61 36 123 36c12 0 56 -1 93 -21c64 -34 69 -93 69 -157v-357z" />
    <glyph glyph-name="ograve" unicode="&#xf2;" horiz-adv-x="625" 
d="M379 587h-102l-157 133h184zM593 261c0 -118 -56 -186 -92 -216c-30 -25 -91 -61 -189 -61c-27 0 -133 5 -205 75c-31 30 -75 94 -75 203c0 30 2 115 61 186c36 43 108 97 240 89c61 -3 115 -17 164 -56c65 -53 96 -136 96 -220zM437 256c0 79 -25 119 -55 140
c-14 10 -35 20 -76 20c-7 0 -36 -2 -58 -15c-28 -16 -61 -61 -61 -138c0 -51 17 -89 27 -105c12 -18 42 -51 100 -51c85 0 123 71 123 149z" />
    <glyph glyph-name="oacute" unicode="&#xf3;" horiz-adv-x="625" 
d="M504 719l-154 -133h-102l73 133h183zM593 261c0 -118 -56 -186 -92 -216c-30 -25 -91 -61 -189 -61c-27 0 -133 5 -205 75c-31 30 -75 94 -75 203c0 30 2 115 61 186c36 43 108 97 240 89c61 -3 115 -17 164 -56c65 -53 96 -136 96 -220zM437 256c0 79 -25 119 -55 140
c-14 10 -35 20 -76 20c-7 0 -36 -2 -58 -15c-28 -16 -61 -61 -61 -138c0 -51 17 -89 27 -105c12 -18 42 -51 100 -51c85 0 123 71 123 149z" />
    <glyph glyph-name="ocircumflex" unicode="&#xf4;" horiz-adv-x="625" 
d="M480 589h-118l-48 62l-47 -63h-118l102 132h126zM593 261c0 -118 -56 -186 -92 -216c-30 -25 -91 -61 -189 -61c-27 0 -133 5 -205 75c-31 30 -75 94 -75 203c0 30 2 115 61 186c36 43 108 97 240 89c61 -3 115 -17 164 -56c65 -53 96 -136 96 -220zM437 256
c0 79 -25 119 -55 140c-14 10 -35 20 -76 20c-7 0 -36 -2 -58 -15c-28 -16 -61 -61 -61 -138c0 -51 17 -89 27 -105c12 -18 42 -51 100 -51c85 0 123 71 123 149z" />
    <glyph glyph-name="otilde" unicode="&#xf5;" horiz-adv-x="625" 
d="M486 720c-1 -15 -3 -29 -6 -44c-9 -48 -29 -95 -87 -94c-22 0 -43 5 -84 24c-32 15 -47 22 -67 22c-2 0 -12 -1 -19 -6c-18 -12 -18 -35 -19 -40h-72c9 101 42 142 101 142c32 0 60 -14 70 -19c23 -11 50 -26 75 -26c7 0 25 2 34 21c2 4 4 11 5 20h69zM593 261
c0 -118 -56 -186 -92 -216c-30 -25 -91 -61 -189 -61c-27 0 -133 5 -205 75c-31 30 -75 94 -75 203c0 30 2 115 61 186c36 43 108 97 240 89c61 -3 115 -17 164 -56c65 -53 96 -136 96 -220zM437 256c0 79 -25 119 -55 140c-14 10 -35 20 -76 20c-7 0 -36 -2 -58 -15
c-28 -16 -61 -61 -61 -138c0 -51 17 -89 27 -105c12 -18 42 -51 100 -51c85 0 123 71 123 149z" />
    <glyph glyph-name="odieresis" unicode="&#xf6;" horiz-adv-x="625" 
d="M519 595h-158v124h158v-124zM267 595h-157v124h157v-124zM593 261c0 -118 -56 -186 -92 -216c-30 -25 -91 -61 -189 -61c-27 0 -133 5 -205 75c-31 30 -75 94 -75 203c0 30 2 115 61 186c36 43 108 97 240 89c61 -3 115 -17 164 -56c65 -53 96 -136 96 -220zM437 256
c0 79 -25 119 -55 140c-14 10 -35 20 -76 20c-7 0 -36 -2 -58 -15c-28 -16 -61 -61 -61 -138c0 -51 17 -89 27 -105c12 -18 42 -51 100 -51c85 0 123 71 123 149z" />
    <glyph glyph-name="divide" unicode="&#xf7;" horiz-adv-x="724" 
d="M437 446h-151v156h151v-156zM644 254h-565v139h565v-139zM436 45h-150v155h150v-155z" />
    <glyph glyph-name="oslash" unicode="&#xf8;" horiz-adv-x="625" 
d="M611 495l-74 -68c5 -8 11 -16 16 -24c36 -62 39 -120 39 -147s-5 -114 -64 -180c-30 -34 -100 -90 -216 -90c-23 0 -87 1 -146 38c-13 8 -18 12 -39 29l-76 -69l-41 46l75 69c-6 9 -13 19 -19 29c-12 21 -33 71 -33 138c0 28 5 116 63 185c29 34 96 86 210 86
c77 0 129 -24 156 -40c12 -7 23 -16 34 -24l75 68zM399 385c-4 3 -12 11 -23 18c-27 18 -56 18 -66 18c-14 0 -57 -3 -89 -36c-19 -19 -39 -59 -39 -122c0 -36 5 -52 10 -68zM439 265c0 18 0 32 -9 65l-206 -189c15 -16 36 -37 89 -37c95 1 126 81 126 161z" />
    <glyph glyph-name="ugrave" unicode="&#xf9;" 
d="M368 587h-101l-158 133h185zM534 0h-154v49c-11 -12 -17 -18 -23 -23c-19 -15 -65 -41 -129 -41c-12 0 -70 0 -111 32c-58 46 -53 130 -53 194v311h155v-325c0 -33 1 -58 29 -75c9 -5 22 -12 45 -12c49 0 75 28 82 47c5 13 6 26 6 40v325h153v-522z" />
    <glyph glyph-name="uacute" unicode="&#xfa;" 
d="M493 719l-153 -133h-102l73 133h182zM534 0h-154v49c-11 -12 -17 -18 -23 -23c-19 -15 -65 -41 -129 -41c-12 0 -70 0 -111 32c-58 46 -53 130 -53 194v311h155v-325c0 -33 1 -58 29 -75c9 -5 22 -12 45 -12c49 0 75 28 82 47c5 13 6 26 6 40v325h153v-522z" />
    <glyph glyph-name="ucircumflex" unicode="&#xfb;" 
d="M470 589h-118l-49 62l-46 -63h-118l101 132h127zM534 0h-154v49c-11 -12 -17 -18 -23 -23c-19 -15 -65 -41 -129 -41c-12 0 -70 0 -111 32c-58 46 -53 130 -53 194v311h155v-325c0 -33 1 -58 29 -75c9 -5 22 -12 45 -12c49 0 75 28 82 47c5 13 6 26 6 40v325h153v-522z
" />
    <glyph glyph-name="udieresis" unicode="&#xfc;" 
d="M505 596h-157v125h157v-125zM254 596h-157v125h157v-125zM534 0h-154v49c-11 -12 -17 -18 -23 -23c-19 -15 -65 -41 -129 -41c-12 0 -70 0 -111 32c-58 46 -53 130 -53 194v311h155v-325c0 -33 1 -58 29 -75c9 -5 22 -12 45 -12c49 0 75 28 82 47c5 13 6 26 6 40v325h153
v-522z" />
    <glyph glyph-name="yacute" unicode="&#xfd;" horiz-adv-x="500" 
d="M441 719l-153 -133h-102l73 133h182zM500 522l-184 -564c-6 -19 -16 -47 -27 -65c-39 -66 -82 -73 -133 -73h-111v123h54c21 0 64 -1 64 38c0 16 -12 54 -26 99l-137 442h164l86 -374l86 374h164z" />
    <glyph glyph-name="thorn" unicode="&#xfe;" 
d="M575 260c-1 -123 -60 -270 -226 -270c-51 0 -79 13 -129 44v-215h-156v887h150v-227c30 31 63 56 129 56c170 0 233 -145 232 -275zM427 264c0 66 -19 140 -82 158c-7 2 -14 3 -22 3c-67 0 -110 -63 -110 -165c0 -101 39 -159 106 -159c90 0 108 111 108 163z" />
    <glyph glyph-name="ydieresis" unicode="&#xff;" horiz-adv-x="500" 
d="M454 597h-157v124h157v-124zM203 597h-158v124h158v-124zM500 522l-184 -564c-12 -37 -24 -69 -51 -98c-33 -34 -63 -40 -109 -40h-111v123h70c36 0 48 20 48 38c0 14 -3 25 -11 50c-5 16 -10 32 -15 49l-137 442h164l86 -374l86 374h164z" />
    <glyph glyph-name="OE" unicode="&#x152;" horiz-adv-x="1104" 
d="M1082 0h-568v15c-31 -11 -77 -29 -154 -29c-35 0 -130 7 -207 77c-82 75 -111 184 -111 291c0 14 0 47 6 85c10 56 29 101 38 119c11 22 43 77 102 115c50 33 118 51 178 51c78 0 117 -20 149 -36v18h533v-137h-356v-130h334v-136h-334v-163h390v-140zM516 155v397
c-2 2 -17 12 -28 18c-25 12 -57 17 -85 17c-30 0 -56 -8 -65 -11c-95 -35 -118 -133 -118 -221c0 -177 95 -234 180 -234c46 0 76 13 116 34z" />
    <glyph glyph-name="oe" unicode="&#x153;" horiz-adv-x="938" 
d="M920 230h-373c2 -17 3 -26 9 -42c15 -44 45 -63 61 -71c11 -5 28 -11 56 -11c20 0 75 3 109 54c5 8 9 16 16 33l119 -62c-18 -30 -27 -43 -38 -56c-72 -84 -178 -90 -212 -90c-78 0 -140 36 -161 51c-12 8 -22 18 -33 27c-8 -8 -22 -22 -32 -29c-21 -15 -80 -47 -155 -47
c-84 0 -254 48 -254 275c0 29 2 119 63 190c28 32 89 84 197 84c24 0 82 -2 140 -38c18 -11 37 -28 41 -31c15 14 24 23 60 41c43 22 80 29 128 29c123 -1 207 -71 241 -185c9 -32 14 -58 18 -122zM761 325c-2 13 -4 37 -25 62c-22 26 -50 35 -83 35c-17 0 -61 -2 -86 -45
c-11 -19 -15 -32 -18 -52h212zM401 263c0 47 -8 113 -51 141c-10 7 -29 15 -59 14c-27 -1 -41 -8 -50 -14c-56 -37 -57 -133 -57 -140c0 -13 1 -25 3 -38c2 -15 4 -59 39 -91c20 -18 45 -26 71 -26c6 0 21 0 35 7c35 16 70 64 69 147z" />
    <glyph glyph-name="Scaron" unicode="&#x160;" horiz-adv-x="688" 
d="M499 898l-88 -115h-133l-90 115h117l40 -51l39 51h115zM652 230c0 -16 -2 -65 -31 -115c-49 -84 -143 -131 -290 -131c-131 0 -213 42 -268 88c-20 17 -25 22 -54 56l134 85c20 -23 20 -23 37 -36c29 -22 90 -54 167 -54c74 0 129 36 130 80c1 33 -22 46 -36 54
c-42 23 -110 17 -210 39c-39 9 -183 42 -183 191c0 178 155 236 284 236c156 0 246 -73 312 -133l-129 -93c-37 34 -96 87 -185 87c-67 0 -106 -37 -106 -74c0 -14 6 -27 10 -32c20 -27 51 -30 85 -34c14 -2 24 -3 38 -5c49 -8 84 -13 132 -25c52 -13 163 -48 163 -184z" />
    <glyph glyph-name="scaron" unicode="&#x161;" horiz-adv-x="521" 
d="M426 720l-102 -131h-125l-104 131h119l48 -63l46 63h118zM497 169c0 -147 -166 -186 -255 -183c-122 3 -191 53 -244 101l97 88c5 -5 18 -18 34 -29c19 -14 66 -43 119 -43c49 0 92 19 92 52c0 14 -8 20 -13 25c-19 17 -82 20 -142 34c-30 7 -150 29 -150 150
c0 78 67 174 219 175c112 0 188 -46 234 -78l-95 -88c-57 46 -112 52 -130 52c-39 0 -72 -11 -74 -38c-1 -10 4 -17 14 -27c13 -11 83 -19 138 -34c81 -21 156 -58 156 -157z" />
    <glyph glyph-name="Ydieresis" unicode="&#x178;" horiz-adv-x="708" 
d="M545 782h-160v116h160v-116zM323 781h-161v117h161v-117zM708 706l-267 -372v-334h-174v329l-265 377h202l152 -239l151 239h201z" />
    <glyph glyph-name="florin" unicode="&#x192;" horiz-adv-x="333" 
d="M369 679l-11 -102h-49c-29 0 -54 -6 -59 -60l-3 -30h91l-10 -93h-92l-37 -347c-12 -109 -12 -177 -80 -216c-37 -21 -87 -21 -95 -21c-24 0 -51 3 -103 15l11 102c11 -1 21 -1 32 -1c43 0 58 5 71 35c3 8 9 51 12 86l34 347h-71l9 93h73l10 73c1 5 5 31 14 52
c22 47 66 81 147 81c26 0 51 -3 106 -14z" />
    <glyph glyph-name="circumflex" unicode="&#x2c6;" horiz-adv-x="271" 
d="M301 589h-118l-49 62l-46 -63h-118l101 132h127z" />
    <glyph glyph-name="tilde" unicode="&#x2dc;" horiz-adv-x="271" 
d="M313 720c-2 -15 -4 -29 -6 -44c-10 -48 -30 -95 -88 -94c-22 0 -44 5 -83 24c-34 15 -48 22 -67 22c-2 0 -12 -1 -19 -6c-18 -12 -20 -35 -20 -40h-72c9 101 42 142 101 142c32 0 60 -14 70 -19c23 -11 49 -26 75 -26c7 0 24 2 35 21c0 4 2 11 4 20h70z" />
    <glyph glyph-name="endash" unicode="&#x2013;" horiz-adv-x="626" 
d="M588 237h-550v143h550v-143z" />
    <glyph glyph-name="emdash" unicode="&#x2014;" horiz-adv-x="918" 
d="M880 237h-842v143h842v-143z" />
    <glyph glyph-name="quoteleft" unicode="&#x2018;" horiz-adv-x="250" 
d="M205 372h-159v156c0 98 62 169 159 184v-69c-49 -20 -57 -55 -62 -103h62v-168z" />
    <glyph glyph-name="quoteright" unicode="&#x2019;" horiz-adv-x="250" 
d="M204 562c0 -67 -19 -126 -77 -165c-24 -16 -53 -27 -82 -29v71c54 16 63 52 64 103h-64v164h159v-144z" />
    <glyph glyph-name="quotesinglbase" unicode="&#x201a;" horiz-adv-x="250" 
d="M205 31c0 -118 -45 -174 -159 -204v71c49 18 56 55 60 102h-61v168h160v-137z" />
    <glyph glyph-name="quotedblleft" unicode="&#x201c;" horiz-adv-x="479" 
d="M434 371h-158v148c0 104 52 179 158 194v-71c-54 -16 -62 -53 -63 -104h63v-167zM204 371h-158v148c0 104 51 179 158 194v-71c-54 -16 -62 -53 -63 -104h63v-167z" />
    <glyph glyph-name="quotedblright" unicode="&#x201d;" horiz-adv-x="479" 
d="M434 558c0 -66 -19 -126 -76 -164c-25 -16 -52 -27 -82 -29v71c54 17 62 52 63 103h-63v167h158v-148zM204 558c0 -67 -19 -125 -77 -164c-24 -16 -52 -27 -81 -29v71c54 17 62 52 63 103h-63v167h158v-148z" />
    <glyph glyph-name="quotedblbase" unicode="&#x201e;" horiz-adv-x="479" 
d="M434 19c0 -103 -53 -179 -158 -194v71c54 17 62 52 63 104h-63v167h158v-148zM204 19c0 -105 -52 -176 -158 -194v71c53 18 62 53 63 104h-63v167h158v-148z" />
    <glyph glyph-name="dagger" unicode="&#x2020;" horiz-adv-x="583" 
d="M543 348h-185v-467h-135v467h-184v127h184v234h135v-234h185v-127z" />
    <glyph glyph-name="daggerdbl" unicode="&#x2021;" horiz-adv-x="583" 
d="M517 415h-162v-232h161v-123h-160v-180h-131v181h-158v122h158v233h-158v121h159v169h130v-169h161v-122z" />
    <glyph glyph-name="bullet" unicode="&#x2022;" horiz-adv-x="333" 
d="M291 226h-249v248h249v-248z" />
    <glyph glyph-name="ellipsis" unicode="&#x2026;" horiz-adv-x="1000" 
d="M897 0h-127v126h127v-126zM564 0h-128v126h128v-126zM230 0h-128v126h128v-126z" />
    <glyph glyph-name="perthousand" unicode="&#x2030;" horiz-adv-x="1250" 
d="M1221 221c0 -13 1 -141 -72 -199c-25 -20 -55 -28 -88 -28c-162 0 -158 217 -158 227c0 114 38 181 80 210c14 9 42 23 83 23c27 0 78 -8 116 -65c19 -29 39 -84 39 -168zM847 221c0 -21 0 -141 -73 -199c-25 -20 -55 -28 -88 -28c-162 0 -158 217 -158 227
c0 114 38 181 80 210c14 9 42 24 83 23c24 0 78 -7 116 -64c19 -29 40 -85 40 -169zM665 679l-376 -721l-79 42l375 721zM345 456c0 -12 1 -143 -72 -200c-34 -27 -76 -28 -90 -28c-21 0 -64 2 -101 43c-57 64 -55 171 -55 187c0 13 -6 204 135 228c15 3 55 7 93 -14
c74 -41 90 -141 90 -216zM1120 222c0 46 -5 73 -10 94c-2 7 -9 39 -35 48c-4 1 -9 4 -17 3c-26 -3 -36 -29 -42 -50c-4 -16 -11 -55 -11 -101c0 -10 1 -47 8 -80c4 -20 10 -37 28 -49c9 -6 17 -8 23 -8c28 0 41 29 47 52c3 13 9 50 9 91zM745 222c0 46 -5 73 -10 94
c-2 7 -9 40 -35 49c-4 1 -9 3 -17 2c-26 -3 -36 -29 -42 -50c-4 -16 -11 -55 -11 -101c0 -10 1 -47 8 -80c4 -20 10 -38 28 -50c9 -6 19 -7 23 -7c28 0 41 29 47 52c3 13 9 50 9 91zM243 456c0 46 -5 73 -10 94c-2 7 -9 40 -35 49c-4 1 -9 3 -17 2c-26 -3 -36 -29 -42 -50
c-4 -16 -10 -55 -10 -101c0 -10 0 -47 7 -80c4 -20 10 -38 28 -50c9 -6 20 -7 24 -7c28 0 40 29 46 52c3 13 9 50 9 91z" />
    <glyph glyph-name="guilsinglleft" unicode="&#x2039;" horiz-adv-x="229" 
d="M191 100l-159 130v125l158 134v-138l-67 -57l68 -57v-137z" />
    <glyph glyph-name="guilsinglright" unicode="&#x203a;" horiz-adv-x="229" 
d="M195 231l-159 -135v138l64 58l-64 57v136l159 -131v-123z" />
    <glyph glyph-name="Euro" unicode="&#x20ac;" horiz-adv-x="709" 
d="M675 625l-60 -143c-44 51 -90 76 -158 76c-89 0 -142 -43 -169 -127h310l-26 -73h-297v-7c0 -11 0 -21 1 -32h284l-27 -72l-246 -1c28 -89 98 -130 189 -130c62 0 131 34 169 84v-177c-61 -32 -131 -43 -199 -43c-183 0 -297 86 -337 266l-75 1l27 72h38
c-1 5 -1 11 -1 16c0 8 1 15 2 23h-66l27 73h49c38 176 168 269 345 269c91 0 149 -18 220 -75z" />
    <glyph glyph-name="trademark" unicode="&#x2122;" horiz-adv-x="736" 
d="M679 374h-81l1 253l-65 -253h-69l-68 257l4 -257h-82l1 332h126l54 -212l53 212h125zM282 638h-91v-264h-86v264h-94v68h271v-68z" />
    </font>
</defs>
</svg>
